<?xml version="1.0" encoding="UTF-8"?>
<svg xmlns="http://www.w3.org/2000/svg" viewBox="0 0 2524.667 622.656">
  <defs>
    <style>
      .cls-1 {
        fill: none;
      }

      .cls-2 {
        fill: #0d0d0d;
      }

      .cls-3 {
        fill: #e7d8ae;
      }

      .cls-4 {
        fill: #e44424;
      }
    </style>
  </defs>
  <g id="Layer_2" data-name="Layer 2">
    <g>
      <path class="cls-3" d="M2127.165,280.744l-22.819-6.593c-3.258-.962-6.766.276-8.7,3.07l-10.166,14.688c-1.237,1.786-1.68,4.004-1.224,6.129l5.582,26.049c.589,2.749,2.599,4.975,5.274,5.84l12.662,3.679,20.088-17.511,5.648-15.225-6.344-20.124Z"/>
      <path class="cls-2" d="M2129.693,277.887c-5.91-1.707-11.82-3.415-17.73-5.122-7.189-2.077-14.679-3.463-20.036,3.391-3.583,4.584-6.882,9.629-10.046,14.514-3.848,5.94-1.066,12.764.298,19.13,1.209,5.644,1.549,12.976,4.394,18.111,3.04,5.488,12.873,7.39,18.581,8.527,5.766,1.148,10.881-5.643,14.771-9.035,3.678-3.206,9.764-6.794,12.182-11.138,1.806-3.244,2.738-7.382,4.028-10.859.805-2.17,1.881-4.106,1.507-6.381-1.069-6.496-4.146-13.151-6.13-19.443-1.217-3.86-9.896-1.485-8.693,2.329,1.784,5.66,3.569,11.32,5.353,16.98.248.787.398,2.258.92,2.918-.366-.463.689-2.021-.212-.071-1.449,3.138-2.441,6.581-3.644,9.822-.326.88-1.33,2.552-1.292,3.484.046,1.147,1.759-1.246.496-.354-2.311,1.631-4.378,3.817-6.508,5.674-4.339,3.782-8.678,7.565-13.017,11.347l5.388-.962c-3.763-1.093-7.655-1.985-11.346-3.296-4.05-1.439-4.693-4.157-5.493-7.892l-3.095-14.444c-.645-3.011-2.469-7.463-1.739-10.627.868-3.761,4.804-7.632,6.948-10.729,1.763-2.547,3.589-6.831,7.022-6.524,4.071.365,8.6,2.485,12.521,3.618,3.172.916,6.344,1.833,9.516,2.749,3.614,1.044,10.258-4.213,5.057-5.715Z"/>
    </g>
    <path class="cls-2" d="M2130.076,295.278c-7.254.267-10.916,1.025-18.706-1.495-.804-.26-1.405.751-.795,1.336,8.66,8.313,9.672,8.521,13.814,9.13.535.079.813.656.573,1.141-1.459,2.941-1.028,8.486-.016,10.944.227.552.967.653,1.348.193l8.419-10.16c.188-.226.235-.537.124-.81l-3.99-9.784c-.126-.31-.437-.508-.771-.496Z"/>
    <g>
      <path class="cls-3" d="M2145.713,241.221s-16.181,21.565-17.28,35.85c-1.099,14.285,6.356,17.882,4.708,28.321s-22.901,27.623-35.616,39.257c-3.945,3.61-3.875,13.872-2.322,15.707,5.59,6.608,16.388,13.156,16.877,15.362.732,3.297-2.565,12.637-4.213,16.483-1.648,3.846-.253,9.494,4.213,12.941-2.114,5.327-3.057,7.207.705,10.967,3.761,3.76,15.981,14.1,14.728,23.813-1.253,9.713.287,27.096,12.128,34.496,11.841,7.401,40.999,6.981,52.546,2.96,50.371-17.539,120.196-57.858,120.196-57.858l36.971-77.585-111.363-95.937-92.278-4.778Z"/>
      <path class="cls-2" d="M2141.717,241.32c-10.506,14.07-22.065,32.523-15.795,50.553,1.542,4.435,3.618,8.72,2.977,13.554-.648,4.892-4.062,9.014-7.18,12.628-8.428,9.768-19.001,17.187-27.899,26.421-3.217,3.339-4.123,8.089-3.943,12.616.205,5.136,3.888,7.828,7.627,10.973,2.964,2.492,10.062,6.048,10.29,10.233.295,5.409-3.333,10.578-4.621,15.64-.55,2.162-.394,4.595.371,6.681,1.15,3.139,3.887,4.601,3.117,7.995-1.202,5.297.201,7.305,4.083,11.049,4.065,3.921,8.331,8.108,10.787,13.276,2.264,4.764,1.25,9.266,1.274,14.304.05,10.579,3.292,22.79,12.772,28.776,8.408,5.309,19.668,6.079,29.334,6.318,10.154.251,20.518-.6,30.147-3.975,11.91-4.175,23.558-9.121,35.057-14.309,21.844-9.855,43.229-20.724,64.298-32.136,5.935-3.215,11.848-6.474,17.72-9.803,2.155-1.221,3.901-2.085,5.082-4.319,6.179-11.687,11.425-23.976,17.111-35.909,6.071-12.741,12.142-25.482,18.213-38.222l1.131-2.374c.122-.374.036-.692-.256-.955-26.05-22.441-52.1-44.883-78.149-67.324-7.162-6.17-14.323-12.339-21.485-18.509-3.642-3.138-7.206-6.934-11.189-9.639-2.502-1.7-6.229-1.183-9.172-1.335-9.649-.5-19.298-.999-28.947-1.499-18.676-.967-37.352-1.934-56.028-2.901-1.915-.099-4.715.181-6.147,1.647-1.028,1.053-1.364,2.434.68,2.54,23.464,1.215,46.928,2.43,70.393,3.645l16.704.865c1.295.067,2.9.415,4.185.217,1.652-.255.219.144-.166-.296,4.317,4.947,10.467,9.017,15.426,13.29,22.224,19.145,44.448,38.291,66.672,57.436,8.278,7.132,16.556,14.263,24.835,21.395,1.214,1.046,3.348,2.253,4.2,3.619-.715-1.145-.009-.732-.827.424-.941,1.33-1.529,3.208-2.227,4.674-11.37,23.862-22.741,47.724-34.111,71.585l1.71-1.608c-24.965,14.404-50.665,27.755-76.812,39.871-9.735,4.511-19.574,8.815-29.557,12.748-8.346,3.288-16.133,6.118-25.141,6.702-9.431.611-19.544.347-28.625-2.522-9.155-2.892-14.495-9.931-16.775-19.093-2.316-9.311,1.167-19.466-3.865-27.904-2.426-4.069-5.683-7.566-9.053-10.863-1.333-1.305-2.985-2.546-4.087-4.065-2.198-3.028-.694-5.822.542-8.935.122-.374.036-.692-.256-.955-3.133-2.72-5.332-6.631-4.331-10.896.706-3.01,2.287-5.912,3.182-8.892.739-2.46,2.012-5.838,1.527-8.464-.4-2.169-2.253-3.443-3.888-4.795-4.383-3.624-13.196-8.202-13.952-14.264-.372-2.983-.066-6.52,1.225-9.274,1.566-3.343,5.434-5.826,8.152-8.244,5.767-5.132,11.552-10.269,16.958-15.785,4.294-4.381,8.943-9.235,11.428-14.944,2.157-4.953,1.234-10.164-.564-15.055-2.462-6.694-4.114-13.12-2.531-20.305,2.506-11.374,9.459-22.261,16.36-31.502,2.045-2.739-6.506-1.791-7.992.199Z"/>
    </g>
    <g>
      <path class="cls-4" d="M2152.882,188.955c-.143.021-.28.054-.416.102-2.956,1.048-36.845,13.548-40.02,36.827-3.319,24.343,16.503,41.505,19.842,37.817,2.181-2.41-4.351-9.601-3.244-21.772s6.086,5.214,13.831,11.459c7.745,6.245,27.697,10.158,41.494,11.334,16.223,1.383,35.902,3.291,45.128,11.897,10.407,9.707,16.506,12.336,32.992,26.72,13.434,11.722,14.819,33.644,13.973,47.98-.128,2.168,2.604,3.193,3.942,1.482,12.164-15.564,27.526-20.389,41.171-14.054,15.491,7.192,7.192,33.195-3.873,42.6-7.144,6.073-14.519,12.606-18.848,16.474-1.379,1.232-.721,3.513,1.105,3.814,5.427.894,14.086,3.82,19.459,13.239.881,1.544,3.111,1.467,3.894-.129,6.568-13.374,25.814-22.004,43.396-20.851,18.841,1.235-22.879-129.785-26.124-139.89-.13-.405-.373-.759-.702-1.028l-93.903-76.822c-.479-.392-1.101-.564-1.713-.475l-91.382,13.277Z"/>
      <path class="cls-2" d="M2152.406,187.18c-6.578,1.62-13.171,5.323-18.915,8.762-9.064,5.426-17.983,12.443-22.733,22.123-5.469,11.144-3.305,25.314,2.954,35.667,3.688,6.1,10.098,14.319,18.241,12.196,4.752-1.239,5.692-3.885,4.284-8.237-.973-3.008-2.051-5.939-2.56-9.076-.42-2.589-.575-5.31-.253-7.914.058-.468.233-1.062.22-1.532-.055-1.939,1.963-1.271-1.525-.057l-4.351.677c.578.074,3.928,6.252,4.692,7.427,2.096,3.227,4.325,6.407,7.525,8.628,7.433,5.16,17.249,7.136,25.981,8.79,10.254,1.943,20.652,2.36,30.977,3.741,9.823,1.313,20.773,3.111,28.487,9.839,6.123,5.341,12.484,10.218,18.923,15.172,8.517,6.552,17.865,13.063,22.499,23.072,3.978,8.592,5.288,18.287,5.444,27.677.047,2.818-1.381,8.371.767,10.508,2.405,2.393,7.62.879,9.984-.775,1.885-1.319,3.18-3.483,4.742-5.155,2.004-2.145,4.196-4.109,6.59-5.81,4.627-3.288,9.863-5.219,15.59-4.607,9.217.986,15.508,6.643,15.761,16.043.223,8.258-3.375,17.158-8.539,23.507-3.215,3.953-7.55,7.039-11.374,10.377-2.115,1.846-4.222,3.701-6.323,5.562-1.574,1.394-4.228,3.041-5.224,4.986-1.609,3.139,1.191,4.43,3.788,5.092,4.346,1.107,8.326,2.762,11.747,5.761,2.781,2.439,4.585,7.688,8.4,8.41,3.515.665,7.438-1.149,9.424-3.941,3.193-4.488,5.76-8.19,10.492-11.312,4.829-3.187,10.391-5.26,16.079-6.241,5.648-.974,13.08,1.012,18.04-2.783,5.053-3.868,3.843-12.886,3.387-18.347-1.02-12.207-3.672-24.309-6.422-36.222-5.795-25.107-12.961-49.91-20.561-74.524-1.3-4.212-2.095-10.657-5.364-13.828-5.386-5.225-11.833-9.68-17.636-14.428-20.212-16.536-40.425-33.071-60.637-49.607-4.811-3.936-9.588-8.902-14.888-12.18-4.419-2.733-13.483.246-18.163.926-24.25,3.523-48.499,7.046-72.749,10.569l-5.627.818c-1.18.171-4.944,1.042-5.015,2.673-.075,1.747,2.449,1.541,3.621,1.37,26.926-3.912,53.853-7.824,80.779-11.736,3.407-.495,7.095-1.489,10.547-1.532-2.661.033-1.223.125-.23,1.161,1.168,1.219,2.72,2.225,4.025,3.293,11.411,9.335,22.821,18.67,34.232,28.005,13.104,10.721,26.209,21.441,39.313,32.162l12.248,10.02c1.987,1.626,2.912,2.357,3.769,4.802,9.877,28.179,17.604,57.659,24.186,86.752,3.064,13.541,7.016,28.41,6.11,42.425-.117,1.813-.337,3.719-1.043,5.41-.271.649-.523.99-.508,1.005-.242-.255,2.089-.483,2.57-.9.339-.294,1.424.347-.21-.102-.711-.195-1.703-.068-2.429-.071-12.579-.045-25.805,3.9-35.933,11.446-2.168,1.615-4.223,3.448-6.022,5.47-.852.957-1.653,1.968-2.376,3.027-.327.479-1.524,3.153-1.965,3.367l4.388-1.176c-.144.005-3.228-4.894-3.723-5.433-1.505-1.638-3.222-3.065-5.09-4.27-1.497-.966-3.103-1.807-4.748-2.491-1.629-.678-4.19-.832-5.664-1.72-3.05-1.839.186-3.722,1.901-5.24,2.101-1.861,4.208-3.716,6.323-5.562,3.853-3.363,8.091-6.468,11.524-10.274,8.272-9.17,16.201-29.432,4.993-39.381-5.708-5.067-14.938-6.155-22.214-5.21-9.406,1.221-17.99,5.853-24.799,12.356-1.008.963-1.977,1.956-2.913,2.989l-.574.633c-2.129,1.826-1.283,2.244,2.539,1.253.203-.333-.22-5.212-.207-5.929.086-4.763-.124-9.541-.752-14.265-1.158-8.714-3.759-17.429-9.088-24.54-5.913-7.891-15.092-13.864-22.923-19.753-6.066-4.562-11.618-10.349-17.94-14.457-16.46-10.695-38.785-8.419-57.355-11.758-8.44-1.518-19.115-3.367-25.988-8.958-3.063-2.491-5.211-5.956-7.278-9.264-1.286-2.058-2.688-5.381-4.989-6.51-2.248-1.104-5.969-.183-7.865,1.359-2.338,1.901-2.209,5.502-2.226,8.24-.028,4.539,1.044,8.752,2.482,13.016.382,1.132.602,2.66,1.175,3.695l.114.638c-.115,2.172,1.572,1.892,5.059-.842-.152-.214-1.252-.433-1.485-.612-14.048-10.737-21.018-32.34-10.639-48.039,4.804-7.266,12.085-12.682,19.59-16.904,2.747-1.545,5.564-2.967,8.456-4.22,1.017-.441,2.043-.859,3.074-1.265.401-.158,2.272-.681.949-.355.966-.238,4.394-1.4,3.871-2.94-.537-1.582-3.797-.863-4.822-.611Z"/>
    </g>
    <g>
      <path class="cls-4" d="M2218.374,147.07c30.424-30.424,235.361-136.876,287.747-139.786,0,0,15.91-6.988,14.04,12.182-1.87,19.17-30.522,73.48-55.902,146.901-22.816,66.004-45.768,143.604-52.135,167.973-.597,2.285,7.574,20.609,8.634,25.726-15.516,13.235-54.051,33.828-54.051,33.828,0,0-14.308-64.34-39.114-105.043-23.807-39.065-65.321-72.413-107.401-87.59-25.002-9.018-67.52-12.274-67.52-12.274,0,0,36.184-43.221,46.146-46.585,3.097-1.046,19.557,4.669,19.557,4.669Z"/>
      <path class="cls-2" d="M2221.878,147.852c9.306-9.221,21.134-16.207,32.17-23.102,17.96-11.222,36.424-21.641,55.04-31.729,42.582-23.074,86.2-44.684,131.033-63.054,16.654-6.824,33.609-13.472,51.119-17.78,5.545-1.364,11.484-1.503,16.904-3.138-.935.282,1.165-.329,1.376-.353,1.23-.143,2.302-.123,3.403.544,3.998,2.42,3.22,9.239,2.557,13.072-1.442,8.34-4.811,16.442-7.892,24.276-4.886,12.428-10.169,24.699-15.33,37.014-14.218,33.922-27.38,68.159-39.074,103.036-11.12,33.166-21.612,66.547-31.628,100.063-3.665,12.265-7.273,24.548-10.717,36.876-1.004,3.594-2.782,7.692-3.085,11.418-.323,3.966,2.356,8.733,3.718,12.312,1.737,4.562,3.831,9.154,4.938,13.924l.843-1.946c-15.864,13.347-35.043,23.487-53.267,33.238l7.066.208c-7.807-34.982-19.362-70.912-37.31-102.026-13.592-23.562-32.617-43.935-54.161-60.424-20.34-15.568-43.523-28.571-68.454-34.99-18.486-4.76-37.762-7.378-56.787-8.851l2.392,2.688c8.508-10.154,17.314-20.102,26.519-29.63,5.156-5.338,10.757-9.868,16.269-14.732.483-.426.32.081.678-.348-1.186,1.419-2.235-.14-.306.582,2.084.78,4.568,1.021,6.721,1.631,1.863.528,3.715,1.098,5.559,1.69.509.163,3.97,1.323,2.757.903,1.962.678,4.427.45,6.165-.779.943-.667,2.827-2.798.727-3.524-6.829-2.36-15.911-6.59-23.214-4.877-7.031,1.649-13.107,8.622-18.009,13.474-11.277,11.164-21.799,23.17-31.987,35.33-1.402,1.673,1.23,2.598,2.392,2.688,15.919,1.233,31.893,3.457,47.489,6.87,24.555,5.373,47.273,16.747,67.649,31.337,21.874,15.663,41.317,35.394,55.753,58.151,12.675,19.983,21.294,42.527,28.616,64.937,4.534,13.876,8.669,27.973,11.85,42.229.608,2.725,5.708.934,7.066.208,18.827-10.074,38.446-20.63,54.836-34.419.523-.44,1.01-1.229.843-1.946-1.192-5.134-3.481-10.07-5.341-14.983-1.455-3.843-3.737-7.937-2.787-11.991,2.42-10.324,5.704-20.52,8.68-30.693,9.696-33.137,19.94-66.121,30.697-98.929,12.027-36.68,25.151-72.865,39.934-108.529,5.676-13.693,11.535-27.312,17.126-41.041,3.709-9.108,7.606-18.339,9.999-27.904,1.819-7.269,2.994-18.674-6.338-20.952-3.306-.807-6.93-.32-10.152.629-4.379,1.291-.71.265-.689.303-.174-.307-3.779.385-4.183.441-16.292,2.258-32.189,8.134-47.502,13.897-45.761,17.223-89.956,38.962-133.201,61.683-20.548,10.796-40.909,21.981-60.83,33.899-13.819,8.268-27.817,16.723-40.357,26.88-1.83,1.482-3.616,3.018-5.289,4.676-3.625,3.592,4.874,3.677,7.007,1.563Z"/>
    </g>
    <path class="cls-2" d="M2215.792,149.727c22.021,5.631,44.215,12.115,64.211,23.162,15.522,8.576,28.945,20.014,41.946,31.961,30.932,28.423,53.334,65.001,72.396,102.152,8.763,17.079,17.849,35.069,22.26,53.869.829,3.533,9.54,1.281,8.693-2.329-3.922-16.718-11.701-32.728-19.306-48.021-10.074-20.26-21.336-39.985-33.83-58.853-11.157-16.849-23.303-32.941-38.158-46.709-13.205-12.238-26.634-24.426-42.113-33.761-21.758-13.123-46.483-20.531-70.935-26.783-3.272-.837-10.27,4.008-5.165,5.313h0Z"/>
    <path class="cls-2" d="M2162.701,314.975c1.694-2.448,3.389-4.896,5.083-7.344,1.555-2.247,3.048-5.496,5.083-7.344,1.758-1.596,3.131-.486,5.352.169l10.801,3.187,22.152,6.537c3.205.946,5.596,2.139,6.842,5.637.755,2.121,1.134,4.451,1.69,6.631,1.626,6.381,3.967,12.941,4.958,19.452.698,4.59-1.976,6.934-4.711,9.966s-5.479,6.075-8.218,9.112c-1.324,1.468-1.659,2.307-3.513,2.178-2.486-.173-5.534-1.79-7.897-2.554l-23.144-7.486c-2.468-.798-5.706-1.364-7.654-3.199-2.431-2.289-2.715-6.657-3.381-9.761-.997-4.652-1.994-9.305-2.991-13.957-.87-4.058-2.263-7.812-.115-11.717.82-1.49-7.326-.913-8.606,1.414-2.103,3.823-1.159,7.096-.315,11.035l3.056,14.262c.635,2.961.919,6.529,2.295,9.275,1.594,3.181,4.555,4.277,7.681,5.288,8.561,2.769,17.123,5.538,25.684,8.307,7.752,2.507,15.566,5.794,23.106.23,2.621-1.934,4.707-4.838,6.867-7.233,2.701-2.995,5.56-5.906,8.13-9.015,5.16-6.243.614-15.547-1.147-22.458-1.71-6.711-2.11-15.869-9.657-18.445-7.267-2.48-14.795-4.366-22.158-6.539-7.485-2.209-17.037-6.891-24.976-4.812-8.869,2.322-13.389,12.622-18.228,19.614-1.793,2.591,6.639,1.435,7.93-.431Z"/>
    <path class="cls-2" d="M2172.591,309.567c-.328-.664.243-1.425.974-1.305,15.097,2.477,34.897,12.941,38.032,23.739,2.803,9.655-8.929,21.014-17.914,15.29-7.611-4.849-5.881-14.222-1.452-18.594.171-.168.276-.391.29-.631.308-5.367-7.515-8.444-12.16-10.663-1.283-.613-5.894-4.035-7.769-7.837Z"/>
    <path class="cls-2" d="M2109.391,389.649c2.141,2.308,5.203,9.326,5.203,9.326,0,0,4.069-6.451,10.093-5.762,3.859.442,17.03,11.169,26,18.823,1.562,1.333.188,4.322-1.667,3.626-7.883-2.959-17.84-6.53-20.772-6.841-5.073-.538-11.451-2.694-12.266-2.824s-6.078-3.618-6.078-3.618l-1.997-5.751,1.484-6.98Z"/>
    <g>
      <path class="cls-4" d="M2130.281,468.622c-4.1-5.736-10.655-2.832-12.281,3.958-3.592,15.006,3.278,26.041,2.832,38.543-.586,16.398-37.281,33.385-22.75,68.565,14.531,35.18,126.19,36.71,192.727,10.707,66.537-26.003,169.018-58.889,188.138-61.948s26.003-25.238,19.885-34.415-36.71-34.415-32.121-51.241c4.589-16.825,45.123-93.304,5.354-102.482-39.769-9.177-131.572,37.197-155.324,47.424-39.116,16.841-38.859,54.601-78.88,73.528-7.817,3.697-24.241,10.403-33.576,13.47-28.574,9.387-60.697,12.503-74.002-6.108Z"/>
      <path class="cls-2" d="M2134.317,466.919c-6.473-7.864-18.242-2.455-20.663,6.204-3.74,13.374,3.909,25.693,2.811,38.862-.545,6.538-5.656,12.007-9.557,16.9-5.283,6.626-10.523,13.331-13.733,21.254-6.066,14.971-2.386,33.418,10.911,43.107s30.972,13.282,47.003,15.358c43.565,5.641,90.547,1.027,132.161-13.055,22.247-7.528,44.028-16.543,66.199-24.332,23.261-8.171,46.64-16.011,70.135-23.483,16.769-5.334,33.594-10.683,50.652-15.03,6.401-1.631,11.776-1.858,18.059-4.947,8.066-3.966,14.173-11.393,16.319-20.151,1.819-7.423.118-13.466-4.79-19.105-6.116-7.026-12.804-13.517-18.577-20.847-5.22-6.628-12.276-15.958-10.287-24.98,1.166-5.29,3.735-10.444,5.747-15.445,6.422-15.964,12.974-32.24,15.865-49.287,2.228-13.14,2.533-30.249-10.947-37.499-13.92-7.487-33.628-3.374-48.132-.151-20.492,4.553-40.386,11.888-59.803,19.767-16.63,6.748-32.951,14.196-49.268,21.66-6.97,3.189-14.174,6.014-20.663,10.137-9.027,5.737-16.456,13.38-22.94,21.825-6.285,8.185-11.78,16.959-18.398,24.891-7.756,9.296-17.114,16.723-28.15,21.764-22.131,10.111-46.967,20.288-71.729,19.342-10.888-.416-21.485-3.756-28.221-12.758-1.77-2.365-10.168.605-8.072,3.407,13.472,18.002,40.598,15.629,59.985,11.606,11.55-2.396,22.693-6.2,33.65-10.517,10.208-4.022,20.739-8.048,29.992-14.024,17.596-11.364,27.538-28.935,40.171-44.979,6.634-8.425,14.432-15.814,24.005-20.806,5.662-2.953,11.706-5.335,17.513-7.997,33.888-15.537,68.66-31.786,105.345-39.44,12.417-2.591,32.912-6.707,42.617,4.334s5.004,30.218,1.605,42.79c-4.085,15.11-10.227,29.488-15.921,44.03-2.024,5.169-4.047,10.082-2.946,15.754,1.663,8.571,7.807,16.335,13.245,22.859,5.515,6.616,11.789,12.561,17.283,19.185,4.848,5.845,4.637,13.188,1.653,19.988-3.681,8.385-10.071,11.849-18.543,13.618-5.379,1.123-10.69,2.594-15.979,4.074-41.069,11.489-81.577,25.325-121.748,39.596-21.126,7.505-41.92,16.636-63.374,23.126-20.872,6.313-42.568,9.848-64.296,11.422-20.663,1.497-41.767,1.253-62.219-2.299-14.048-2.439-30.607-6.277-40.927-16.901-12.294-12.657-9.377-32.537-.38-46.026,4.191-6.284,9.424-11.788,13.644-18.044,4.484-6.645,5.165-12.639,3.86-20.54-.989-5.984-2.711-11.85-3.081-17.929-.221-3.621-.122-7.659.947-11.169.219-.72,1.113-4.069,2.135-4.056-1.029-.013,1.542,2.076,1.763,2.344,1.9,2.308,10.254-.756,8.072-3.407Z"/>
    </g>
    <path class="cls-2" d="M2459.026,439.009c4.298-9.592,8.077-19.454,11.48-29.394,4.913-14.351,10.814-30.953,9.132-46.363-.587-5.381-2.754-10.442-7.976-12.71-9.193-3.991-21.06-3.363-30.653-1.591-11.733,2.168-22.363,7.764-29.548,17.469-6.876,9.288-10.66,20.99-11.379,32.475-.561,8.961,1.633,17.562,4.307,26.047,3.559,11.294,7.952,22.321,12.324,33.318,4.503,11.327,9.149,22.61,13.209,34.106,3.515,9.951,6.546,21.787-1.653,30.411-6.556,6.896-16.449,11.456-25.324,14.431-8.369,2.805-19.802,5.848-28.063,1.14-11.625-6.625-12.195-19.53-9.768-31.266,2.383-11.523,5.619-22.857,8.529-34.253,5.335-20.895,12.641-46.194,5.352-67.494-2.425-7.087-7.161-15.187-14.74-17.537-7.659-2.375-16.43-.422-23.826,1.99-20.317,6.625-40.559,19.805-53.623,36.857-15.355,20.043-9.12,45.427,1.135,66.443,5.59,11.456,13.447,21.397,17.853,33.477,3.645,9.991,7.502,23.86,1.81,33.83-4.533,7.94-13.502,13.15-21.497,16.952-8.714,4.143-18.263,7.232-27.876,8.33-9.125,1.042-16.656-.26-22.333-8.332-5.721-8.136-7.019-19.373-5.357-28.991,2.951-17.076,13.84-40.386,1.878-56.272-11.792-15.661-36.396-8.966-50.93-1.329-8.414,4.421-16.896,10.999-20.263,20.224-5,13.701.518,29.422,4.273,42.732,3.253,11.533,3.79,25.22-5.741,34.178-7.196,6.763-16.207,3.975-24.6,1.543-7.912-2.292-16.968-5.282-22.645-11.591-7.97-8.858-1.89-21.213,2.71-30.299,1.993-3.936,4.319-7.701,7.131-11.109,1.189-1.441,1.949-2.322,2.898-3.114,4.517-3.771-2.334-7.311-5.871-4.359-4.476,3.736-7.841,8.936-10.695,13.938-4.933,8.643-11.409,21.208-8.304,31.43,4.788,15.762,26.066,20.688,40.032,23.932,23.786,5.525,39.516-17.951,35.631-39.624-2.609-14.553-11.582-30.719-6.694-45.754,3.166-9.739,13.089-15.778,22.111-19.334,7.474-2.946,18.361-6.099,26.255-2.916,9.372,3.779,11.439,14.634,10.862,23.585-1.27,19.689-11.646,37.855-5.186,57.688,3.069,9.422,10.198,18.149,20.259,20.291,7.97,1.696,16.671.254,24.483-1.574,17.102-4,38.941-12.681,47.84-29.002,5.263-9.652,3.215-22.125.238-32.156-3.688-12.428-10.528-22.511-16.828-33.627-6.336-11.179-11.242-23.726-12.8-36.543-1.497-12.306,1.557-22.653,9.463-32.115,7.384-8.837,16.796-16.144,26.7-21.953,8.536-5.007,17.998-9.6,27.858-11.193,8.416-1.36,13.302,1.069,17.506,8.625,4.999,8.986,5.203,20.085,4.429,30.067-1.884,24.316-10.184,47.589-15.481,71.254-2.516,11.242-4.108,23.317,3.667,32.97,6.041,7.5,14.452,10.612,23.888,10.477,10.706-.153,21.494-3.703,31.095-8.227,7.749-3.652,16.539-8.516,21.656-15.637,6.879-9.571,5.651-20.73,2.048-31.223-3.83-11.157-8.304-22.087-12.671-33.041-4.527-11.356-9.104-22.72-12.911-34.343-2.894-8.835-5.561-17.821-4.875-27.206.857-11.73,5.021-24.197,13.452-32.685,8.783-8.843,22.596-11.348,34.62-10.348,6.509.542,12.059,1.277,13.528,8.267,1.434,6.826-.075,14.407-1.483,21.113-3.274,15.597-8.9,30.764-14.936,45.482-1.128,2.75-2.273,5.496-3.488,8.209-2.095,4.677,6.67,5.025,8.373,1.224h0Z"/>
    <path class="cls-2" d="M2173.759,365.755c9.625,5.683,21.507,8.667,29.715,10.036,2.041.34,2.622,2.979.929,4.169-9.686,6.81-16.611,17.319-19.733,27.645-.668,2.209-4.051.993-4.236-1.308-.985-12.2-6.254-27.616-10.026-37.733-.769-2.064,1.455-3.929,3.351-2.809Z"/>
    <path class="cls-2" d="M2217.931,296.777c-8.685-5.312-19.464-8.198-26.92-9.56-1.854-.339-2.346-2.75-.787-3.81,8.917-6.064,15.741-16.298,20.452-24.219,1.075-1.807,4.089-.836,3.84,1.251-1.368,11.458,3.215,24.56,6.507,33.827.672,1.89-1.38,3.558-3.092,2.511Z"/>
  </g>
  <g id="Layer_5" data-name="Layer 5">
    <g>
      <rect class="cls-1" y="130.436" width="1999.215" height="397.585"/>
      <path class="cls-2" d="M97.384,482.174l-15.793-8.927c-4.12-2.747-7.553-6.18-10.643-10.643-5.836-3.777-10.986-9.957-14.763-17.853-6.18-12.703-9.27-26.092-9.27-40.169v-10.986c-.343-9.613-.687-19.569.687-29.869.343-1.03,0-2.403,0-4.12l-.344-4.12v-12.016l-.343-12.359c1.03-16.136.687-29.183.343-42.229-.343-6.523-.343-12.703-.343-19.569v-3.433c0-3.777-.343-7.553.343-11.673,1.374-10.643,3.09-22.316,9.27-32.959,12.016-19.226,29.182-30.212,50.812-32.959l12.703-1.374c17.509-.687,33.302,4.807,47.035,16.136,4.12,3.433,7.21,6.523,9.957,9.957l.343.343c10.299,8.926,15.792,16.479,18.196,26.092l1.717,5.493c.687,3.434,1.03,6.18,1.373,9.27l.687,3.09c1.03,5.15,1.03,13.046.343,18.54l-.343,2.746v1.03c0,3.776-.687,7.21-1.03,9.956l-.687,3.777c-1.716,7.896-6.523,14.763-13.39,18.54-11.673,6.18-23.346,7.553-35.362,3.776-3.776-1.03-8.24-3.776-11.673-6.866-1.373-1.374-2.06-3.09-2.06-4.807-3.09-1.374-5.836-3.434-8.24-5.493-3.433-3.434-3.09-8.24,1.374-10.986,5.15-2.747,5.836-7.553,6.866-13.733.687-7.21,1.03-14.419-.687-20.943l-2.06-.343c-6.18,0-8.926.687-11.673,2.403-3.433,1.716-4.463,3.776-4.807,6.523l-.687,4.12v1.03l-1.03,23.002.343,12.36c0,6.18.343,12.36,0,18.54l-.343,11.673c-.343,11.673-.687,23.002,0,34.676.687,15.106.687,30.212.687,44.975,0,4.12,0,7.21.687,9.957l.687,2.06,3.434-.343c1.716-.343,3.09-.687,5.15-1.716,2.403-1.374,3.776-3.434,4.12-6.18,1.717-7.209,2.403-14.419,2.403-22.659-.343-4.807,0-9.613,0-14.419v-7.896c0-2.06,0-3.776,1.03-6.18.687-1.374,1.374-2.747,2.747-3.434,2.06-1.373,3.777-1.03,6.18-1.03l4.463.343c6.523.343,11.673,0,17.167,0l10.643-.343h3.434c2.403,0,4.12,0,6.18,1.03,2.747,1.374,4.12,3.777,4.463,7.553v1.717c2.403,0,3.777,0,5.837,1.03,2.747,1.374,4.12,3.777,4.463,7.553v.687c.343,1.374.343,3.09.343,4.807v7.21c0,4.806-.343,9.27,0,14.076.687,3.433.343,7.209-.343,11.673l-.687,5.836c0,4.12-.343,8.583-1.373,13.046-2.403,11.33-6.18,19.569-11.33,25.749-2.403,3.09-4.463,5.493-6.523,6.867l-14.419,10.3c-4.463,3.433-10.3,5.493-16.479,6.523-7.896,1.03-16.136,1.716-26.779,1.716-8.926-.343-16.479-2.06-23.002-5.149ZM136.18,470.158c5.15-.687,9.956-2.403,14.076-5.493l14.419-10.3c2.06-1.373,3.777-3.433,5.493-5.836,5.836-6.866,8.583-15.449,10.3-23.689,1.373-6.18,1.373-12.017,2.06-18.54.687-3.433,1.03-7.21.343-10.3-.343-7.553,0-14.763,0-21.973,0-1.373,0-2.403-.343-3.776-.344-2.747.343-4.463-2.747-5.15h-6.18c-9.27,0-17.166.687-27.809.343l-7.209-.343c-1.374.343-1.717,1.717-2.06,3.09v2.747c0,7.553-.343,14.763,0,21.973,0,7.896-.687,15.793-2.403,23.689-.687,4.12-3.09,7.553-6.867,9.613-2.403,1.374-4.463,2.06-6.866,2.403-5.836.687-11.33,0-15.106-5.15-1.716-2.06-3.09-4.463-3.776-7.209-2.06-4.463-2.06-9.613-2.06-14.763,0-14.763,0-29.869-.687-44.632-1.03-15.793,0-31.242.343-46.692.343-10.3-.343-20.6-.343-30.899l.687-16.479c-.687-4.12.687-8.24,1.03-12.017.343-4.806,3.09-8.24,7.209-10.643,4.463-2.746,9.27-3.09,14.42-3.09,8.926.344,15.106,5.15,17.166,14.076,2.06,7.553,1.717,15.793,1.03,23.346-1.03,6.18-2.06,13.39-9.27,17.509-1.03.687-1.717,1.374-.343,2.747,2.06,2.06,5.836,4.807,9.27,5.836,11.33,3.434,21.286,2.06,31.586-3.433,5.836-3.433,9.27-8.926,10.643-15.106.687-4.463,1.717-7.896,1.717-12.703,0-1.03.343-2.403.343-4.12.687-4.807.687-12.36-.343-17.167-.687-4.463-1.03-7.896-2.06-12.359l-1.373-5.15c-2.747-10.3-9.27-17.166-16.823-23.689-12.36-10.299-26.779-15.449-43.259-14.763-4.12.343-8.24,1.03-12.359,1.374-20.943,2.746-36.049,13.046-47.036,30.556-5.836,9.613-7.209,20.256-8.583,30.899-.687,4.807-.343,9.613-.343,14.419,0,20.256,1.374,37.422,0,61.798,0,8.24.343,16.136.343,24.375,0,3.09.687,5.837.343,8.927-1.716,13.39-.687,26.779-.687,40.168,0,13.046,2.747,25.75,8.583,37.766,3.777,7.553,8.927,14.419,16.823,18.196l7.21,4.12c7.553,5.15,16.479,6.867,25.406,7.21,8.927,0,17.51-.343,26.093-1.717Z"/>
      <path class="cls-2" d="M253.59,484.921c-4.807,0-10.3,0-15.793-1.03l-4.463.343h-1.716l-4.12.344c-6.18,0-9.956-4.12-9.956-10.3h-.344c-6.18,0-9.956-4.12-9.956-10.3,0-8.583-.343-17.166-.687-25.749l-.344-13.733c0-7.553.344-15.45.687-23.346.343-9.613,1.03-18.883.343-28.152-1.03-13.39-.343-26.779,0-39.482.343-7.896.687-15.449.687-23.002v-22.316l-.343-22.659v-7.553c.343-4.807.343-8.926,0-13.39v-7.896c0-2.06.343-4.12,0-6.18,0-2.403,0-4.12.343-6.523.343-3.09.343-6.18,0-9.613v-7.553l-.343-3.776c0-1.374-.343-3.09-.343-4.807-.687-4.806,3.776-9.27,8.926-8.583h9.27c3.434,0,6.523,0,9.957.343h7.553c6.523-.343,9.27,0,11.673.343,6.867,0,10.3,2.747,10.3,9.613v.687c7.209.343,10.299,2.747,10.299,9.613.344,2.403.344,4.806.344,6.866l-.344,3.09v7.553c0,2.403-.343,4.807,0,7.553v1.716l.344,2.747-.344,33.989.344,7.209c.343,9.957.687,19.913,0,29.869-.687,13.046-.687,26.093-.687,39.139v10.3c-1.373,10.643-1.03,21.629-.687,32.616.343,5.15.343,10.3.343,15.45,0,4.12-.343,7.553-.687,11.33-.343,3.776-.687,7.209,0,10.643.687,6.866.687,13.733.687,20.599v5.15l-.343,17.166c0,6.867-3.433,10.643-10.3,11.33-1.03.343-2.403.343-3.09.343h-7.209ZM252.903,469.128c4.463-.343,5.836-2.06,5.836-6.18l.344-17.167c0-8.583.343-16.823-.687-25.062-.687-4.12-.343-7.896,0-11.673s.687-7.21.687-10.986c0-16.136-1.717-32.272.343-48.409,0-16.479-.343-32.959.687-49.438.687-12.359,0-24.375-.343-36.735l.343-33.989c0-1.374-.343-3.09-.343-4.463-.343-5.493.343-10.3,0-15.106l.343-3.434c0-2.06,0-4.12-.343-6.18,0-4.12-1.03-4.807-5.836-4.807-4.12-1.03-12.703,0-18.883-.343s-13.046,0-19.226-.343c-2.06-.343-3.776,1.373-3.433,3.09,0,3.09.687,5.836.687,8.926-.343,6.867,1.03,13.733-.687,20.6,1.03,5.15,0,10.643.343,16.823.687,6.866,0,14.076,0,21.286,0,15.106.343,30.212.343,44.975,0,20.6-2.06,41.199-.687,62.142,1.03,17.166-1.374,34.675-1.03,51.842.343,13.389,1.03,26.436,1.03,39.482,0,3.433,1.716,5.15,4.806,5.15,2.403,0,4.807-.343,7.21-.343,1.373-.343,3.09-.687,4.463-.343,7.209,1.716,14.419.687,21.629,1.03.687,0,1.716,0,2.403-.343Z"/>
      <path class="cls-2" d="M418.039,490.071c-13.046-4.807-20.942-10.3-27.123-18.883-5.15-3.777-9.27-8.24-13.046-14.076-7.553-12.017-10.643-24.376-14.763-36.736-1.717-4.807-3.09-9.27-4.463-14.076,0,4.807-.344,9.957-.687,14.763-.343,5.15-.343,9.27.687,12.703v1.374c.343,2.403.343,3.776,0,6.18-.344,4.807,0,9.27,0,14.419.343,4.12.343,8.24.343,12.36-.343,12.359-1.717,14.763-12.36,16.136-2.403.344-4.12,0-6.523,0-1.717,0-3.777,0-6.18.344-3.776.343-8.926.687-13.732-.687h-3.777c-1.373.343-3.09.343-5.15.343-6.523,0-10.3-3.776-10.3-10.299-6.866,0-10.299-3.777-10.299-10.643,0-15.45,0-28.496.343-44.289l-.343-5.15c.343-10.643.687-20.943.687-31.586,0-5.15,0-10.3-1.03-15.449-.344-2.06,0-4.463,0-6.523v-3.09l.687-52.872c0-5.493-.343-11.33-1.03-17.509-.687-3.777-.343-7.553-.343-10.986v-3.09c0-13.046.343-25.062.687-37.079,0-10.986.343-21.973.343-32.616l.343-2.403c.343-6.866,4.12-10.3,12.016-10.986h6.523c8.583.343,17.166.343,26.092,0,9.613-.343,19.569-.687,29.526,0,4.807.343,9.957.343,14.763.343,1.374,0,2.747.343,4.12.687,5.15,1.374,10.643,3.09,16.136,4.807,6.866,1.717,13.39,6.867,19.569,14.763,3.776,2.747,7.896,6.866,11.33,11.673,7.553,10.986,12.359,22.659,14.763,35.019.343,2.06.687,3.433.687,5.149,1.03,10.986.687,28.153,0,39.139-.344,7.209-1.374,13.39-2.403,18.883-1.03,3.433-4.12,15.449-6.523,19.569-5.836,9.27-9.956,13.39-15.793,17.509-3.433,2.403-8.583,5.15-10.299,6.18,1.03,2.747,1.716,5.493,2.403,8.24,1.373,5.15,2.403,9.27,4.463,13.39,1.03,2.06,1.717,4.12,2.06,5.836,2.06,9.27,4.807,18.54,7.896,27.81l1.03,3.433c2.403,4.806,4.463,9.956,6.523,15.106,2.403,6.18,4.806,12.017,7.896,17.51l.687,1.03c1.373.687,3.09,1.03,5.493,1.717h2.06c5.149,0,6.523,5.15,4.806,9.27l3.433,1.03h2.06c5.15,0,6.867,5.493,4.807,9.613-3.776,8.24-8.583,12.016-16.136,13.733-10.986,2.403-23.346,2.06-32.959-1.03ZM452.028,465.008c.343-.687.687-2.403,0-2.403h-2.747c-8.583-2.06-11.33-3.434-16.479-9.957-1.373-1.717-2.746-3.777-3.776-5.836-5.836-10.643-9.27-21.973-14.763-32.959-.343-.687-.343-1.03-.343-1.717-3.434-10.3-6.523-20.256-8.927-30.899,0-1.374-.687-2.747-1.373-4.12-3.777-7.209-4.807-15.449-7.553-23.346-.687-2.06-.343-3.09,1.717-4.12,12.703-8.24,17.166-9.956,25.062-23.002,2.06-3.433,4.807-14.419,5.836-18.196,1.374-5.836,2.06-12.016,2.403-17.853.687-10.986,1.03-27.809,0-38.452,0-1.717-.343-3.09-.687-4.463-2.06-12.016-6.867-23.002-13.733-32.959-4.463-6.18-10.3-12.359-17.853-14.419-5.493-1.717-10.986-3.433-16.136-4.807-.687-.343-1.716-.343-2.747-.343-4.806,0-9.956,0-15.106-.343-18.883-1.373-36.736,1.03-55.618,0h-6.18c-5.15.343-6.866,1.717-6.866,6.523-.343.687-.343,1.374-.343,1.717,0,22.316-1.03,44.632-1.03,69.694,0,4.463-.343,8.927.343,13.39.687,6.18,1.03,12.017,1.03,18.196-.343,17.509-.343,35.362-.687,52.872,0,3.09-.343,6.18,0,8.926,1.03,5.493,1.03,10.986,1.03,16.136,0,12.017-.343,23.689-.687,35.362.343,0,0,2.06.343,2.06-.343,15.45-.343,28.496-.343,43.602,0,4.12,1.373,5.493,5.149,5.493,1.717,0,3.09,0,4.463-.343,2.06,0,3.777-.343,5.493,0,7.553,2.403,14.763-.687,22.316.687,10.3-1.03,9.957-1.03,10.3-11.33.343-9.957-1.373-20.256,0-30.212,0-1.03,0-2.06-.343-2.747-1.03-4.807-1.03-9.613-.687-14.42,1.373-13.389,0-27.122,0-40.512,0-3.434,0-8.24.343-12.017,0-2.06,2.06-2.06,4.463-2.403,2.747-.343,4.463.687,4.807,3.434,1.717,9.27,5.493,17.509,5.836,26.436,3.09,10.986,6.18,22.316,9.957,33.303,4.12,12.703,7.21,24.375,14.419,35.705,7.21,11.33,15.45,16.136,27.123,20.6,9.27,2.747,20.6,2.747,30.212.687,6.867-1.373,9.613-4.807,12.36-10.643ZM342.508,314.633c-1.03-7.21-.343-14.42-.343-20.256,0-7.896.343-14.419-.344-20.942-.343-2.06-.343-7.21,0-9.27,1.374-5.836.687-11.33,0-16.823v-8.24c0-1.373,1.03-2.06,2.403-2.403,8.24-.687,16.823-1.03,25.062.687,5.837,1.373,9.957,5.149,12.36,10.299,3.09,5.493,4.807,11.673,4.807,18.196.343,5.493,0,14.419-.343,19.913-.344,5.493-1.03,10.643-1.717,16.136-.343,1.717-1.374,3.433-2.06,4.807-1.03,2.06-2.403,3.433-3.433,5.493-2.747,4.806-7.553,7.209-12.703,7.209-6.523.344-12.359-.687-19.913.344-2.747,0-3.776-2.06-3.776-5.15ZM374.437,309.826c.687-1.374,1.374-2.403,2.06-3.433l1.373-2.06.344-.687,1.03-2.747c.687-5.15,1.374-10.3,1.717-15.45.343-7.21.687-15.106.343-19.569,0-4.463-1.03-8.926-2.747-13.046-7.21-1.717-14.763-1.373-22.316-.687.343,0,1.03,0,1.03,1.373v3.777c.687,5.493,1.374,11.673,0,18.196-.343,1.717-.343,6.18,0,7.553.343,5.15.343,10.3.343,15.793v10.986l-.343,4.463h8.926c3.777,0,6.523-1.374,8.24-4.463Z"/>
      <path class="cls-2" d="M514.167,509.64c-3.777-2.747-7.21-6.18-10.3-10.3-4.807-6.523-7.209-11.673-7.896-17.51-3.433-1.373-6.523-3.433-9.27-5.149l-3.09-1.717c-2.403-1.373-3.433-2.06-4.12-2.747l-1.373-1.374c-2.06-2.06-4.463-4.463-6.867-7.209-1.03-.687-1.716-1.03-2.06-1.717l-1.374-1.373c-3.09-3.09-7.21-6.867-9.613-12.017-2.403-6.18-3.777-12.359-5.15-18.196-.343-1.03-.687-2.06-.687-3.09-3.09-14.763-3.776-24.719-2.747-34.676-.343-1.03-.343-2.06-.343-3.433v-10.643l-.343-16.823v-16.479c0-15.106.343-29.869.687-44.976,0-12.359.343-24.375.687-36.735v-1.374c-1.03-5.493-.344-11.33,0-16.479l.343-5.836c.343-10.299,4.463-19.913,12.016-28.152,13.733-15.106,32.272-23.346,55.275-24.376l3.777-.343c2.403,0,4.12.343,6.18.687l6.18.687c4.12.687,8.927,1.03,14.42,3.09,10.3,3.776,18.883,7.553,26.092,17.853,3.777,2.747,7.21,5.836,10.3,10.643l3.776,5.15c1.374,1.717,3.091,3.776,4.464,5.836,5.836,8.926,8.583,22.659,7.553,37.422-.687,9.956-1.03,19.569-.343,29.182v3.09c-.344,5.15-.688,9.613,0,14.077.343,4.463.343,8.583,0,12.359l-.344,6.523-.344,2.747c1.03,7.896.688,15.792.344,23.346l-.344,6.18c0,12.36,0,25.062-.687,38.109v9.957c0,6.523,0,13.733-.687,18.883-.343,2.403-1.029,5.149-1.373,7.209l-.687,3.09c-4.12,15.106-15.106,25.406-25.406,34.333-1.029,1.03-2.746,2.06-4.12,2.403l-1.029.687-2.403,1.03c-1.03.687-.687,1.374-.344,1.717,5.837,1.374,8.583,1.03,11.33,0,2.06-1.03,4.12-1.717,5.836-2.403,5.15-1.03,10.3,4.463,8.583,9.613l-.343,1.373,2.06-.687c5.15-1.03,10.3,4.463,8.583,9.613l-.687,2.403c-3.776,8.24-9.613,14.42-17.509,17.853-5.837,2.747-12.703,5.836-19.913,6.866-19.227,3.09-35.362-3.09-46.692-18.196ZM568.412,505.863c6.867-3.09,11.673-8.24,14.764-15.106.343-.687.343-1.717.687-2.747,0-1.03-1.374-2.403-2.403-2.06-1.717.343-3.434,1.03-4.807,1.717-5.15,2.403-9.957,1.716-15.106.687-5.493-1.03-9.27-4.12-11.329-9.27-1.717-3.09-2.061-2.06-2.061-5.837-.343-5.493,0-5.493,5.15-7.896,1.373-.687,2.746-1.03,3.776-2.06,10.3-8.927,19.912-18.196,23.689-31.929.687-3.09,1.716-6.523,2.06-9.613,1.03-7.896.344-20.6.687-28.496.687-12.703.687-25.406.687-37.766.344-9.613,1.373-19.226,0-28.839-.343-1.03.344-2.403.344-3.433,0-6.18,1.029-12.017.343-18.196-.687-4.807-.343-9.957,0-15.106v-2.403c-.687-9.957-.343-19.913.344-29.869.687-11.33-.687-24.719-6.866-34.333-2.403-3.776-5.493-7.209-7.896-10.986-6.523-9.27-13.733-12.359-23.689-16.136-7.896-2.746-14.42-2.403-22.316-4.12l-6.18.343c-20.256,1.03-38.108,7.553-51.842,22.659-6.523,7.21-10.299,15.45-10.643,25.062-.344,7.21-1.717,14.42-.344,21.629v1.717c-.343,12.36-.687,24.376-.687,36.735-.343,15.106-.687,29.869-.687,44.976,0,10.986.343,21.973.343,33.302v10.643h.343c0,1.373.343,3.09,0,4.463-1.373,11.33.343,21.973,2.747,32.959,0,.687,0,1.374.343,1.717,1.374,6.18,2.747,12.36,5.15,18.196,2.403,5.15,6.523,8.583,10.3,12.359,6.18,3.09,12.016,7.896,19.226,9.27,2.403.343,5.493,0,6.523,2.06,1.374,2.06,1.374,4.807,1.717,6.867.343,1.03.343,2.06.343,2.747.343,6.523,3.09,11.33,6.867,16.479,10.643,14.076,24.719,18.883,41.885,16.136,6.523-1.03,12.703-3.777,18.539-6.523ZM502.495,413.166c-1.03-6.18-1.717-12.36-2.06-18.883,0-4.807-.687-9.957-.687-15.106,0-12.016.343-24.033.343-36.049,0-11.33.687-22.659.343-33.989-.343-10.3-.687-20.256-.687-30.556,0-6.18-.344-12.703-.344-18.882,0-9.957,3.777-19.913,12.703-23.003l5.15-2.06c5.15-2.06,10.986.344,15.45,2.403,1.03.344,1.716,1.374,2.403,2.403,3.09,4.463,5.149,9.613,5.149,15.106.344,14.076,2.061,28.152.687,42.229-.343,6.18-.343,12.703-.343,18.883h.343c-.343,10.986-.687,22.316-.687,33.302-.343,5.15-.343,10.3.687,15.106,1.03,5.15.344,10.299,0,15.449-.343,2.403-.343,4.463,0,6.867v24.376c0,10.986-8.583,16.136-17.166,17.509-8.24,1.374-19.226-4.463-21.286-15.106ZM535.797,410.763v-24.033c-.344-2.747-.344-5.15,0-7.896l.343-2.403c.344-4.12.344-7.896-.343-11.33-1.03-4.463-1.03-9.957-.687-16.136,0-8.24.343-16.479.343-24.719.344-3.776,0-9.956,0-12.359,0-5.15,0-10.3.344-15.45,1.03-9.613.343-18.883,0-28.496l-.687-13.39c0-1.717-.344-3.434-.687-4.807-2.06-.687-3.776-.687-4.806,0l-5.493,2.06c-5.837,2.06-9.27,8.926-9.27,18.196v9.27l.343,9.613c0,10.3.343,19.913.687,30.556.344,6.867,0,13.733,0,20.6l-.343,13.39-.343,18.196v17.853c0,2.403,0,4.807.343,7.553,0,2.403.343,4.806.343,7.553.344,6.18,1.03,12.017,2.06,17.853v.343c1.717.687,3.433.687,5.15.343,8.24-1.373,12.703-5.836,12.703-12.359Z"/>
      <path class="cls-2" d="M666.598,483.204c-9.27-2.747-17.51-8.24-24.72-16.136l-5.149-5.15c-1.717-1.373-3.434-3.09-5.15-5.15l-3.09-3.09c-2.746-2.403-5.493-5.15-7.896-9.27-3.776-6.523-5.149-12.36-7.209-18.54-2.747-8.24-4.12-17.853-4.12-30.212-.344-9.956-.344-19.913,0-29.526v-14.763c0-4.807,0-8.926-.344-13.733-.687-10.3-1.029-18.196,0-25.062.687-15.45.687-30.899.687-46.349v-7.553c.344-6.18.344-12.359-.343-18.196v-4.12l.343-1.717.344-2.06c-.687-5.15-.344-10.3-.344-14.763v-19.569c0-4.806,3.434-8.24,8.584-7.896,5.836-.687,12.702-1.373,19.912,0,3.776.687,7.896.687,12.017.687,2.403,0,3.776.343,6.18.343h1.03c2.06,0,4.119,0,5.836,1.03,2.061,1.374,3.434,3.09,3.434,5.493l.343,3.776h.687c2.061,0,4.12,0,5.837,1.03,2.06,1.373,3.434,3.09,3.434,5.493.343,5.15.687,10.643.687,16.136l-.687,15.792v21.629c0,4.807,0,9.27.687,13.046,0,1.374.343,3.09,0,4.463v9.27c0,5.493-.344,10.643,0,15.793.343,5.15,0,10.643,0,15.793v8.24l-.344,2.747c2.403,11.673,1.03,23.346,0,33.989v1.717c1.373,8.24,1.03,16.823.687,24.719l-.343,9.956c0,3.09,0,5.493.343,7.896.687,3.433.687,6.867.687,9.957,0,1.373.344,2.747.688,4.12,1.373.687,2.746,1.03,4.119,1.03,3.434.687,7.554-.343,10.644-2.06l1.03-1.374.343-.687c.687-2.403,1.03-3.433,1.03-4.463l1.029-8.239c1.03-7.553,2.061-14.077.688-20.6-.688-2.747-.344-5.836-.344-8.24v-2.403c.687-5.493,1.03-10.986,1.373-16.823.344-2.747.344-5.836.344-8.926v-9.27l.343-6.866v-6.523c0-7.209-.687-14.076-1.373-21.286v-2.403l-.343-3.433.343-4.807v-49.782c.344-8.926.344-17.853.344-27.123.343-4.12.343-7.553-.344-11.33-.343-1.374-.343-4.12-.343-6.18v-1.716c0-4.807,2.746-7.896,7.896-8.583l2.402-.343c4.807-.687,10.3-1.374,15.45-.687l8.583.343c5.149.344,9.956.344,14.419,0,4.464,0,6.523,1.374,7.896,5.837,0,0,.687,2.403.687,4.463h1.717c4.464,0,6.523,1.374,7.896,5.836,0,0,.687,2.403.687,4.463v2.403c-.343,3.433-.343,6.18,0,8.926.344,2.403.687,3.777.344,4.463l-.344,1.373c-.343,2.06-.687,3.09-.687,4.807l.344,20.943c0,10.643.343,20.942,0,31.585l-.687,9.613c-.344,6.523-.687,12.359-.344,18.883,1.03,9.27,1.03,18.882,1.03,28.496l.343,11.33c-.343,5.836-.687,12.016-.687,17.853v8.927l.344,3.433c0,2.06.343,5.15-.344,8.24-.687,2.06-.343,6.18-.343,9.27.343,4.807,0,8.927-.344,13.046-.343,3.433-.687,6.867-.687,10.3-1.03,10.986-4.807,21.286-12.359,34.675-3.09,4.807-6.523,7.553-9.613,10.643l-3.776,3.777c-8.927,8.583-20.942,13.733-33.303,13.733-15.793.687-24.376-.343-38.108-4.807ZM723.933,460.202c4.807-4.807,8.926-7.553,12.703-13.39,6.18-10.643,10.643-20.6,11.673-32.272.343-10.3,2.403-20.256,1.029-30.556-.343-.687-.343-1.374,0-1.717,1.374-3.776.344-7.553.344-11.673v-8.926c0-5.836.344-12.017.687-17.853-.343-13.39,0-26.436-1.373-39.482-.687-9.957.687-19.569,1.03-29.183.343-17.166-.344-34.675-.344-52.185,0-2.747.687-4.807,1.373-7.553-1.373-5.493-.687-10.643-.687-16.136-1.03-3.09-.687-3.434-3.09-3.434-7.553.687-16.136-.343-23.689-.343-5.493-.687-11.329.343-16.822,1.03-2.403.343-3.434,1.373-3.434,3.433,0,2.403-.344,4.807.344,6.866.687,4.463.687,8.583.343,12.703,0,8.926,0,17.853-.343,27.123v27.466c.687,9.27.343,18.196-.344,27.123,0,1.716.344,3.433.344,5.15.687,7.209,1.373,14.419,1.373,21.629,0,4.463-.344,8.927-.344,13.39-.343,6.18,0,12.36-.343,18.54-.344,5.836-.687,11.33-1.374,16.823,0,3.09-.343,6.18.344,9.27,2.06,9.956-.687,20.256-1.717,30.212,0,2.403-1.03,4.806-1.717,6.866-.687,1.374-2.06,2.747-3.09,3.433-3.776,2.403-9.612,3.777-14.076,3.09-10.986-1.374-19.226-8.927-19.569-20.6,0-3.09,0-6.18-.687-8.926-.343-3.09-.343-5.836-.343-8.926,0-10.986,1.373-22.316-.344-33.303-.344-1.03,0-2.403,0-3.433,1.03-10.986,2.403-22.316,0-33.302l.344-3.433c0-7.896.343-15.793,0-23.346-.344-8.24,0-16.136,0-24.376,0-1.373.343-2.747,0-4.463-.688-4.463-.688-9.27-.688-14.076v-21.629l.688-16.136c0-5.15-.344-10.3-.688-15.45,0-.687-.687-1.373-1.716-1.716-2.403,0-4.464,0-6.867-.344-5.493,0-10.643,0-15.793-.687-6.522-1.373-12.702-.687-18.882,0-2.403-.343-3.434.687-3.434,2.747v9.957c.343,8.24-.687,15.793.343,24.033,0,1.373-.343,2.747-.687,4.463,0,1.03-.343,2.403,0,3.433,1.03,8.583.344,17.51.344,26.093,0,15.45,0,31.242-.687,46.692-1.03,7.896-.687,16.136,0,24.376.343,4.807.343,9.27.343,14.076,0,14.763-.687,29.526,0,44.289,0,9.27.687,19.226,3.777,28.496,2.06,6.523,3.433,11.673,6.866,17.509,3.09,5.15,6.522,7.553,10.3,11.673,6.18,6.867,13.39,12.016,22.315,14.763,14.076,4.463,21.973,5.149,36.735,4.463,11.33,0,21.63-4.463,29.526-12.359Z"/>
      <path class="cls-2" d="M874.645,484.234c-8.583-.343-16.137-.343-24.033-.343l-29.525.687c-4.807.343-9.613,0-14.076,0l-9.27-.344c-5.15-.687-8.24-3.09-8.927-8.24v-2.06h-1.373c-5.149-.687-8.239-3.09-8.927-8.24-.687-7.553-.687-15.106-.343-21.973v-8.583c0-2.06.343-4.807.687-5.837.687-2.06.687-3.776-.344-7.896-.343-1.716,0-4.806.688-7.209l.343-2.403c-1.373-4.12-1.373-8.24-1.03-11.673v-8.926l-.343-6.523v-.343c-.344-1.374,0-2.747.343-4.12,1.374-4.807,1.03-9.613,1.03-15.45-.343-4.12-.687-8.583,0-13.046-.687-12.703-.687-25.406-.687-38.109v-12.359l-.344-3.09-.343-.687c-.344-2.403-.687-5.149-.344-6.866.687-3.776.687-7.553.344-11.673-.344-2.747-.344-6.18-.344-9.613.687-7.553.687-15.106-.343-22.316-.344-1.374-.344-2.747,0-5.15v-1.717c0-4.463.343-8.926.687-13.046.343-6.523.687-13.046,0-19.226-.344-2.747-.344-5.836,0-8.24,2.403-8.24,3.776-9.957,12.359-9.957,12.017.343,23.346.687,35.019.687h2.403c2.747,0,4.807,0,7.21-.343.687-.343,2.747-.343,4.12-.343l4.463.343,2.403.343c2.403,0,3.776-1.03,4.807-1.03,1.373,0,2.747.343,4.807.343,5.493.687,11.33.343,17.51,0,5.149-.343,10.643-.687,16.136-.343l13.39.687c4.12,0,7.553,3.777,8.24,8.24v2.06h2.06c4.12,0,7.553,3.776,8.239,8.24v6.523l-.343,8.927c0,4.12-.344,8.24,0,12.703v4.463c0,8.583-3.09,11.673-10.986,11.673l-4.807.343c-2.06,0-3.776,0-5.837.343-2.403.344-4.119,0-6.866-.343-1.03,0-2.746,0-5.493.343-2.403,0-5.149.344-8.239,0-3.09-.343-6.523-.343-10.3,0l-21.973.344c.687,8.926.343,17.509,0,25.749,0,4.463-.344,8.926-.344,13.39v.343c0,2.403-.343,4.12-.687,6.523l-.343,2.403h8.926c7.21.687,12.017,1.03,16.823.343,3.776-.343,7.21.343,9.956.687l4.12.343c3.776,0,6.18,2.747,7.21,6.523l.343,3.433,2.747.343c3.776,0,6.18,2.747,7.209,6.523.344,1.716.688,3.776.688,6.18v12.016l.343,12.36c0,1.717-.687,6.523-1.03,8.583-.343,3.776-3.433,6.866-7.553,6.866h-18.539c-4.464,0-9.957.344-15.106-.343h-4.463c-3.777-.343-6.867-.343-10.3.343l-.344,2.747v2.06c.687,5.836.344,11.673,0,16.823v10.643c.344,6.867.687,13.733.687,20.256l4.464.343c5.493.343,11.673.687,24.376-.343,5.149-.343,11.673,0,17.853,0h7.896c4.119,0,7.896,2.747,8.239,7.209l.344,3.09h1.717c4.119,0,7.896,2.747,8.239,7.21.687,5.493.687,10.643.344,15.793,0,4.463,0,8.926.343,13.39v3.776c-1.717,13.046-4.12,15.45-16.136,15.45-11.33.343-20.943-.343-29.869-.687ZM905.2,458.828c.343-1.03,0-2.403,0-3.433-1.03-9.613.687-19.226-.687-28.839,0-1.373-1.03-2.403-3.09-2.403-7.554,0-18.196-.344-25.406,0-23.689,1.716-24.719-.687-41.198.343-2.061,0-3.434-1.03-3.434-3.434,0-10.643,0-21.286-.687-32.272-.344-8.927,1.03-17.853,0-26.779-.344-1.717.343-4.12.343-6.18,0-3.09,1.03-4.463,4.12-4.807,5.493-1.03,10.644-.343,16.137-.343,8.239,1.03,16.479,0,24.376.343h8.926c1.373,0,2.403-1.03,2.403-2.403.344-1.373,1.03-6.18,1.03-7.896,0-9.27-.344-15.106-.344-24.376,0-1.716-.343-3.433-.687-5.15-.343-1.373-1.03-2.403-2.403-2.403-4.463-.344-8.583-1.374-13.39-1.03-5.836.687-11.673.343-17.509-.343-6.181-.343-12.703.687-18.883.343-2.747-.343-4.12-1.03-4.12-3.776-.344-6.18-2.061-12.36,0-18.54v-2.747c0-12.703,1.717-26.779.343-40.855-.343-2.06,1.03-3.433,3.091-3.433,6.18,0,12.016-.343,18.195-.343,5.493,0,11.33-.687,16.823,0,5.836.687,11.329-1.374,16.822.343,4.464-1.03,8.927-.687,13.39-1.03,5.493,0,6.18-1.03,6.18-6.523v-4.463c-.343-7.21.344-14.42.344-21.629v-6.18c-.344-1.716-1.717-3.433-3.434-3.433-4.463-.343-8.926-.343-13.389-.687-12.36-.687-24.72,2.06-36.736,0h-1.717c-3.776,1.716-7.209.343-10.643.343-1.373,0-2.403-.343-3.434,0-3.776,1.03-7.209.687-10.986.687-11.673,0-23.002-.343-35.019-.687-5.837,0-5.493,0-7.21,5.836-.343,2.06-.343,4.463,0,6.523,1.03,10.986-.687,21.973-.687,32.959,0,2.06-.343,4.12,0,6.18,1.03,7.896,1.03,15.792.344,23.346-.344,7.896,1.373,14.076,0,21.973-.344,2.06.343,4.12.687,6.18,0,2.06.343,4.12.343,6.18,0,16.136-.343,31.929.687,47.722-1.373,9.957,1.717,20.256-1.373,30.212-.343.687,0,1.717,0,2.747,0,4.12.344,8.24.344,12.36,0,4.463-.687,8.583.687,12.703,1.373,3.434-1.373,6.867-.687,10.643.687,3.433,1.373,6.867,0,10.643-.344,1.03-.344,2.747-.344,4.12,0,9.956-.687,19.913.344,29.869.343,2.403,1.373,3.434,4.12,3.777,7.553,0,15.105.687,22.659.343,9.956-.343,19.569-.343,29.525-.687,17.166-.343,32.615,1.373,54.245,1.03,9.27,0,9.613-1.03,10.986-10.643Z"/>
      <path class="cls-2" d="M1039.092,484.578c-5.493,0-12.017.343-18.539,0-10.644-.344-14.077.343-14.077-8.583,0-3.09-6.522,0-8.239-4.463-1.03-2.403-1.03-10.643-1.03-12.703v-3.433c0-7.21.344-14.076-.343-20.943.343-7.209.343-14.419.343-21.629,0-9.27,0-18.539.344-28.152v-14.076c0-4.807-.344-9.613,0-14.763l.687-3.777c.344-3.433.687-4.806,0-5.836-.687-3.776-.687-7.553-.687-10.3-.344-20.256,0-40.512.343-60.768l.344-24.033c0-6.18-.344-12.016-1.03-18.196-.687-10.986-.343-21.286,0-31.929,0-5.15,3.434-8.926,8.583-10.3,5.15-1.716,10.3-1.373,14.42-1.03,5.836.343,12.017.343,18.196,0,6.866-.343,14.076,0,20.942,0h10.3c6.523.343,13.732.687,20.256,1.717,13.733,1.716,24.032,5.836,32.616,12.703,2.402,2.06,4.806,4.463,6.522,7.553l3.776,2.747c3.434,2.747,6.181,6.523,8.24,10.643,3.09,4.807,5.149,10.3,7.21,15.793l.343,1.03c.687,1.717,1.03,3.776,1.03,5.15l.687,5.15c0,2.747.344,5.15,1.03,7.553,2.06,10.986,1.717,21.629,1.717,32.272v5.15c-.344,5.836-.344,10.986,1.029,15.793.344,1.717.344,4.807,0,6.523-.343,4.807-.343,9.613-.687,14.763,0,5.15,0,10.299-.343,15.449-.344,8.24-.344,16.479-.344,25.063v8.583c0,14.419-.687,29.182-1.717,43.945-1.373,12.359-4.807,21.973-10.643,29.869-3.09,4.463-6.18,8.583-9.613,13.046-1.373,2.06-3.776,3.777-6.18,5.15l-4.12,2.06c-4.807,2.403-10.3,5.15-16.479,6.523-2.403.687-4.807,1.03-7.553,1.03l-57.335-.343ZM1092.307,468.441c7.21-1.374,13.39-5.15,19.913-8.24,1.373-.687,3.09-2.06,4.119-3.434,3.434-4.463,6.523-8.583,9.613-13.046,6.18-8.24,8.583-17.51,9.613-27.466,1.03-14.42,1.717-28.839,1.717-43.259,0-11.33-.344-22.659.343-33.989.687-10.299.344-20.256,1.03-30.556.344-1.373.344-3.09,0-4.463-1.717-7.21-1.03-14.763-1.03-22.316,0-10.643.344-20.943-1.717-31.243-1.029-4.463-1.029-8.926-1.716-13.39,0-1.716-.687-3.776-1.03-5.149-2.06-5.15-4.12-10.3-6.866-14.763-1.717-3.433-4.12-6.523-7.21-9.27-8.583-6.867-18.883-9.957-29.869-11.33-6.18-1.03-13.046-1.374-19.569-1.717-10.3,0-20.942-.343-31.242,0-6.18.343-12.36.343-18.54,0-4.119-.343-8.583-.687-12.702.687-2.747.687-4.807,2.403-4.807,5.493-.344,10.643-.687,20.943,0,31.586.687,6.18,1.029,12.359,1.029,18.539-.343,28.153-1.373,56.648-.687,84.801,0,2.747,0,5.837.687,8.927,1.03,3.776-.343,7.553-.687,11.33-.343,9.613.344,19.226,0,28.839-.343,9.27-.343,18.54-.343,27.809,0,7.21,0,14.42-.344,21.629.687,9.27.344,18.54.344,27.809q.343,6.523,7.553,6.867c12.359.687,25.062-.687,31.586,0l44.632.343c2.06,0,4.12-.343,6.18-1.03ZM1052.481,423.122c0-11.673-1.373-23.346,0-35.019,0-10.986-1.717-21.629-.344-32.616,0-4.806-1.373-9.956-1.029-15.106.343-17.166-.344-34.676.343-51.842.687-13.39-1.373-20.256,0-34.675v-12.36c0-1.374,1.03-2.747,2.747-2.747l2.746-.343c5.493.343,11.673.343,17.166.687,7.554.343,13.39,5.15,15.45,12.703,1.373,4.12,1.716,8.583,1.716,13.046,0,11.673-.343,23.002.687,34.332.688,9.613.344,19.226.688,28.496,1.373,26.779-.688,48.065-.344,72.098v6.18c.344,13.39-5.836,17.853-17.166,20.256-6.18,1.717-13.046,1.03-19.569.343-2.06-.343-3.09-1.373-3.09-3.433ZM1073.768,421.062c10.643-2.06,13.732-5.493,13.39-15.106v-6.18c0-9.957,0-19.226.343-28.839.344-13.733.687-27.466,0-42.916l-.343-11.673c0-5.493,0-11.33-.344-16.823-.687-9.27-.687-18.54-.687-27.809v-6.866c0-4.12-.344-7.553-1.03-10.3h-1.029l-16.823-.687h-.344v10.643c-.687,7.553-.343,13.046-.343,18.883.343,4.463.687,9.613.343,15.793-.343,9.613-.343,19.226-.343,29.183v22.659c-.344,2.403,0,4.807.343,7.553.344,2.403.688,5.15.688,7.553-1.03,6.867-.344,13.39,0,20.256,0,4.12.343,8.24.343,12.359-1.03,7.553-.687,14.763-.343,22.659v.687c2.402,0,4.463-.343,6.18-1.03Z"/>
      <path class="cls-2" d="M1175.731,295.407c-2.747-1.717-4.12-5.15-3.09-8.24-2.747,0-5.15-.687-7.21-2.06-3.434-2.403-4.807-7.21-1.717-10.643l4.12-3.433c1.373-.687,2.746-2.06,3.776-4.12l1.373-2.06c1.717-2.747,2.403-4.12,3.434-7.21l1.029-4.463c-3.09-2.06-5.492-5.15-7.553-8.583-6.523-3.433-11.329-9.613-13.39-18.54-3.09-16.479,7.896-33.646,24.033-37.765,3.09-.687,6.522-1.03,9.27-.343,10.643,2.403,19.226,7.896,25.062,16.479,6.18,4.12,10.986,10.299,14.419,17.509,3.09,7.209,3.777,15.106,2.061,23.689l-1.03,3.434c-1.03,4.463-2.403,9.613-3.776,14.419-3.09,9.613-8.24,16.823-15.106,22.659-5.149,3.777-9.613,6.867-14.763,8.926-4.12,1.717-8.927,2.403-13.39,2.403-2.746,0-5.493-.687-7.553-2.06ZM1184.314,279.957c5.149-2.06,9.27-4.807,13.39-8.24,6.866-5.493,10.986-12.359,13.732-20.256,1.717-5.837,3.09-11.673,4.464-17.167,1.373-7.209,1.029-14.076-1.717-20.599-4.807-10.986-13.39-18.196-25.75-20.6-2.06-.687-4.119-.343-6.522.344-14.42,3.433-22.659,18.882-20.256,31.585,1.716,7.21,5.493,13.39,12.702,15.793,1.717.343,8.584,3.776,8.584,7.553.343,3.776-.344,6.523-1.717,10.643-1.374,4.807-2.747,6.523-5.15,10.643-1.373,2.403-3.09,4.463-5.493,5.836-1.029.687-2.06,1.717-3.09,2.747-.687.687,0,2.06,1.03,2.747,1.373,1.03,3.09,1.03,4.463,1.03,4.12,0,7.896-.687,11.33-2.06Z"/>
      <path class="cls-2" d="M1249.54,474.278c-7.553,0-10.3-2.747-10.3-10.3v-41.199c-.343-18.196-.687-36.735.687-55.275l.344-7.896c-.687-8.24-.344-16.479-.344-24.719l.344-12.016.343-5.493c0-2.403.344-4.463,0-6.18,0-2.403-.343-4.12-.343-6.523v-8.926c.343-7.896.343-15.45,0-23.346,0-1.716,0-2.747-.344-3.09-1.029-4.463-1.029-8.926,0-14.763.344-1.374.344-2.747,0-6.18l-.343-2.403-.344-3.09v-5.837c.687-8.24.687-16.479.344-25.062v-10.3c0-1.373,0-3.433.343-5.493,1.03-3.776,3.777-6.18,7.21-6.866,1.373-.343,3.09-.343,5.493-.343,9.613.343,19.913.343,29.526.343l4.806.343c6.523.343,9.613,3.433,10.3,9.613v.687c6.523.687,9.613,3.433,10.3,9.613v6.523c0,3.09-.343,6.18-.343,9.27-.344,5.15-.688,9.613,0,14.419.687,6.523.343,13.39.343,19.57l-.343,8.926.343,7.553c.344,5.493.687,11.33-.343,16.823v2.06c.687,3.434,1.029,6.867,1.029,9.957l3.777.343c4.119.343,8.239.343,13.046,0l7.553-.343c-.343,0-.687-.343-.687-1.717l-.343-7.553c0-6.867,0-13.733-.688-20.6-.343-2.747,0-5.493,0-7.896v-12.359c0-5.836,0-12.36,1.03-18.883.687-3.09.344-6.867-.343-11.673-.688-4.807-.688-9.613-.688-14.076v-7.896c0-.687.344-3.09,1.03-4.807v-1.03c1.03-3.09,3.434-5.493,7.21-6.18l3.09-.343h.344c8.926.687,18.882.687,28.495.343h10.986c5.837,0,8.927,2.747,8.927,8.583v1.717h1.373c5.837,0,8.927,2.747,8.927,8.583v23.003c0,12.359-.344,24.375-.687,36.392l-.344,18.54v7.553l-.343,8.24c.687,5.493.343,12.36-.344,19.913-.344,3.434-.344,6.523-.344,9.27.344,2.403.688,3.433.688,4.807v14.076c0,8.24.343,16.823,0,25.406,0,12.359-.344,24.719,1.373,37.079.343,3.09,0,6.18-.344,8.926,0,1.373-.343,2.747-.343,4.12-.344,7.896,0,15.793,0,24.033l.343,16.479v3.433c0,11.673-2.403,14.42-13.046,14.42h-4.807c-3.09,0-5.493-.344-7.896,0-8.927,1.03-16.479,1.03-25.062,0-4.807-.687-7.553-4.12-8.24-8.927v-1.03l-2.06-.343c-4.807-.687-7.553-4.12-8.239-8.927v-2.746l-.344-3.09v-9.613c0-9.957-.344-20.256.344-30.212.343-8.926.343-17.509.343-26.436v-25.406l-3.434-.343c-6.522-.343-12.359-.687-20.599.343l-.344,7.553c0,3.776-.343,7.553,0,11.33,0,12.703,0,31.585.344,40.855.343,2.403.343,3.776,0,6.18-.344,9.27-.344,17.166,0,25.406v10.986l-.344,3.434v3.09c-.687,4.463-4.807,8.24-9.27,7.553-4.807-.687-9.27-.343-14.42-.343-3.776.343-7.553.343-11.673.343-2.403-.343-4.463,0-7.21,0l-5.149.344c-7.553,0-10.3-2.747-10.3-10.3ZM1262.243,468.785c8.927.343,17.853-1.03,26.436,0,1.374.343,3.09-1.374,3.434-2.747,0-2.06.343-4.12.343-6.18,0-13.046-.687-24.719.344-39.482-.687-7.896-.687-29.526-.687-43.945-.344-6.523.343-12.703.343-18.883,0-4.12.688-4.806,4.464-5.15,13.046-1.373,20.942,0,31.585,0,1.717,0,3.777,0,5.494.344,1.029.343,2.06,1.03,2.402,2.403,0,6.18.688,12.017.688,17.853-.344,15.793.343,31.242-.344,47.035-.687,13.046-.344,26.436-.344,39.482,0,1.717.344,3.434.344,5.493.344,2.403,1.373,3.777,3.776,4.12,8.24,1.03,15.45,1.03,23.689,0,4.12-.343,8.583,0,13.39,0,7.21,0,7.896-.343,7.896-9.27v-3.433c0-13.733-.687-27.123-.344-40.512,0-4.12,1.374-8.239.687-12.359-1.716-12.703-1.373-25.406-1.373-37.766.344-12.703,0-25.406,0-37.766v-2.746c-1.03-4.463-.687-8.927-.343-13.39.687-6.523,1.029-13.39.343-19.569.344-5.493,0-10.986.344-16.136.343-18.196,1.029-36.393,1.029-54.588v-23.003c0-2.747-.687-3.433-3.776-3.433-12.703,0-27.122.687-39.825-.343-.687,0-1.717.343-2.747.343-1.029.343-2.06,1.03-2.402,2.403-.344,1.374-1.03,2.747-1.03,4.12.343,7.21-.344,14.42.687,21.629.687,4.463,1.03,8.927.344,13.39-1.717,8.926-.688,17.853-1.03,26.779,0,3.776-.344,7.21,0,10.986,1.03,10.3.687,20.943,1.03,31.242,0,3.09-1.03,4.12-3.777,4.12-7.209,0-14.419,1.03-21.629.343-3.434-.343-7.21-.343-10.643.687-1.374.687-3.091.343-4.464.343-2.06,0-3.433-1.03-3.433-3.09,0-7.896,0-15.449-1.374-23.346v-2.747c1.374-7.896,0-16.136,0-24.033,0-9.27,1.03-18.54,0-27.809-1.029-8.24.344-16.136.344-24.376v-6.18c-.344-3.434-1.717-4.463-5.493-4.807-1.373,0-2.747-.343-4.463-.343-9.613,0-19.913,0-29.526-.343-1.717,0-3.09,0-4.463.343-1.717.343-2.747,1.373-3.09,2.747-.344,1.717-.344,3.09-.344,4.463,0,12.017.687,24.033-.343,36.049-.344,2.403.343,5.15.343,7.896.344,3.434,1.03,6.867.344,9.957-.687,4.12-1.03,8.24,0,12.36.343,1.373.343,3.09.343,4.463.688,11.673,0,23.346,0,35.019,1.03,5.15,0,10.3,0,15.45,0,12.359-1.029,24.376,0,36.735l-.343,8.24c-2.061,28.152-.344,56.648-.687,85.144v10.986c0,4.807.687,5.15,5.149,5.15,4.12,0,8.24-.687,12.703-.343Z"/>
      <path class="cls-2" d="M1462.738,484.921c-4.807,0-10.3,0-15.793-1.03l-4.463.343h-1.717l-4.119.344c-6.181,0-9.957-4.12-9.957-10.3h-.343c-6.18,0-9.957-4.12-9.957-10.3,0-8.583-.343-17.166-.687-25.749l-.343-13.733c0-7.553.343-15.45.687-23.346.343-9.613,1.029-18.883.343-28.152-1.029-13.39-.343-26.779,0-39.482.344-7.896.687-15.449.687-23.002v-22.316l-.343-22.659v-7.553c.343-4.807.343-8.926,0-13.39v-7.896c0-2.06.343-4.12,0-6.18,0-2.403,0-4.12.343-6.523.344-3.09.344-6.18,0-9.613v-7.553l-.343-3.776c0-1.374-.344-3.09-.344-4.807-.687-4.806,3.777-9.27,8.927-8.583h9.27c3.434,0,6.523,0,9.957.343h7.553c6.523-.343,9.27,0,11.673.343,6.866,0,10.3,2.747,10.3,9.613v.687c7.21.343,10.3,2.747,10.3,9.613.343,2.403.343,4.806.343,6.866l-.343,3.09v7.553c0,2.403-.344,4.807,0,7.553v1.716l.343,2.747-.343,33.989.343,7.209c.344,9.957.687,19.913,0,29.869-.687,13.046-.687,26.093-.687,39.139v10.3c-1.373,10.643-1.03,21.629-.687,32.616.344,5.15.344,10.3.344,15.45,0,4.12-.344,7.553-.688,11.33-.343,3.776-.687,7.209,0,10.643.688,6.866.688,13.733.688,20.599v5.15l-.344,17.166c0,6.867-3.434,10.643-10.3,11.33-1.03.343-2.403.343-3.09.343h-7.21ZM1462.052,469.128c4.464-.343,5.837-2.06,5.837-6.18l.343-17.167c0-8.583.344-16.823-.687-25.062-.687-4.12-.343-7.896,0-11.673.344-3.776.687-7.21.687-10.986,0-16.136-1.716-32.272.344-48.409,0-16.479-.344-32.959.687-49.438.687-12.359,0-24.375-.344-36.735l.344-33.989c0-1.374-.344-3.09-.344-4.463-.343-5.493.344-10.3,0-15.106l.344-3.434c0-2.06,0-4.12-.344-6.18,0-4.12-1.029-4.807-5.836-4.807-4.12-1.03-12.703,0-18.883-.343s-13.046,0-19.227-.343c-2.06-.343-3.776,1.373-3.433,3.09,0,3.09.687,5.836.687,8.926-.344,6.867,1.03,13.733-.687,20.6,1.03,5.15,0,10.643.343,16.823.688,6.866,0,14.076,0,21.286,0,15.106.344,30.212.344,44.975,0,20.6-2.06,41.199-.687,62.142,1.03,17.166-1.373,34.675-1.03,51.842.344,13.389,1.03,26.436,1.03,39.482,0,3.433,1.717,5.15,4.807,5.15,2.403,0,4.807-.343,7.21-.343,1.373-.343,3.09-.687,4.463-.343,7.21,1.716,14.419.687,21.629,1.03.687,0,1.717,0,2.403-.343Z"/>
      <path class="cls-2" d="M1535.521,477.024l-.687-2.747c-4.464,0-8.583-3.09-9.613-7.553-1.373-5.836-2.403-12.016-3.434-17.853l-3.776-21.286c-1.03-6.867-2.403-14.076-3.776-20.943-.687-3.433-1.03-6.866-1.373-9.956l-.687-8.24c-.687-6.523-1.374-13.046-2.747-19.226-.343-2.403-.687-4.807-1.717-7.553-1.029-4.807-1.373-9.613-1.717-14.419-.343-6.523-1.716-13.046-3.09-19.913l-1.029-4.12c-1.03-6.18-1.717-12.017-2.403-17.51l-.344-1.373c-.343-2.403-1.029-5.15-1.373-7.896l-1.03-6.18c-1.717-10.3-3.09-20.256-6.18-30.212-1.029-4.12-1.373-7.21-1.373-9.957,0-5.836-1.03-10.986-2.06-16.823l-2.061-13.39-1.03-6.18-1.029-5.493c-.344-2.403-1.03-3.776-1.373-6.18v-3.434c0-4.806,3.776-8.583,8.239-8.583,5.149-.343,9.956-.343,14.763-.343l6.18.343,5.15-.343c7.21-.343,10.986.343,13.39.687,3.433-.343,5.493-.343,9.27,2.06,2.746,1.717,4.463,4.463,4.463,7.896v2.747c2.061-1.03,3.776-1.374,5.837-.343,2.746,1.717,4.463,4.463,4.463,7.896.344,11.33,3.09,24.032,5.493,35.706,1.03,6.523,2.06,13.046,2.747,19.569l1.373,9.957c0,2.746.687,5.149,1.373,7.896l.687,4.12c1.374,7.553,2.403,15.106,3.09,22.659s2.061,14.763,3.434,21.973l1.717-8.24,2.746-15.449c.344-1.03.344-2.403.344-4.463.343-10.643,2.403-20.943,4.463-30.899,1.717-6.523,2.747-13.046,3.434-20.6.687-8.926,3.433-23.689,6.18-32.272,4.807-15.792,12.359-24.376,26.093-30.556,4.463-2.06,11.673-3.433,17.853-3.433,5.836-.687,14.076.343,19.569,2.747,3.434,1.03,5.836,4.12,5.149,7.896l-.343.687c2.06.343,4.12,1.03,5.493,1.717,3.433,1.03,5.836,4.12,5.149,7.896-.343,2.403-2.403,3.776-4.463,4.806-3.776,1.717-6.866,6.18-8.927,11.673-1.716,7.209-3.776,15.449-5.149,26.092l-1.717,8.926c-1.717,8.583-3.434,17.51-3.776,25.062l-.344,1.03-.687,2.403c-1.717,6.523-2.746,13.046-4.12,19.913l-1.716,10.643-7.554,40.855c-.687,3.09-1.029,6.18-1.373,9.27l-1.03,9.957c-.687,3.776-1.373,7.209-1.717,10.986-2.06,16.479-4.463,32.959-7.896,49.095-1.03,4.463-1.717,8.583-2.403,13.046-.688,5.837-1.374,11.673-3.09,17.51l-.344,1.373c-.687,1.717-1.03,2.747-1.03,4.12-1.373,6.18-6.18,9.613-13.046,10.3-1.03.343-2.06,0-3.434,0-3.09-.687-6.522-.687-10.643-.344-2.747.344-5.837.344-8.927.344-5.836-.344-12.016-.344-18.539,0h-12.359c-4.464,0-8.583-3.09-9.613-7.553ZM1537.58,469.128c9.613,0,19.227-.687,28.496,0,6.866.343,13.732-1.374,20.6,0,.687.343,1.373,0,2.06,0,3.776-.343,6.866-2.06,7.896-6.18.344-2.06,1.03-3.777,1.717-5.836,2.403-9.957,3.09-20.256,5.149-30.213,3.434-16.136,5.837-32.272,7.896-48.751.344-3.777,1.03-7.553,1.717-11.33,1.03-6.18,1.373-12.703,2.403-18.883,2.403-13.733,5.149-27.466,7.553-41.199,2.061-10.3,3.434-20.943,6.18-30.899.344-1.03.344-2.403.688-3.434.687-10.3,3.776-23.689,5.493-33.646,1.373-8.926,3.09-17.853,5.493-26.436,1.716-5.493,5.493-12.359,11.673-15.106,1.029-.343,1.373-.687,1.373-1.03.344-1.03-.687-1.716-1.717-2.06-4.807-2.06-12.359-3.09-17.51-2.403-4.806,0-11.673,1.03-16.136,3.09-13.39,5.836-19.226,13.733-23.346,27.123-2.403,8.24-5.15,22.659-5.837,31.242-.687,7.21-1.717,14.076-3.433,21.286-2.061,9.957-4.12,19.913-4.464,30.212,0,1.717,0,3.433-.343,5.15-1.717,9.613-3.776,18.883-5.493,28.152-1.374,5.836-1.717,10.643-2.061,17.853,0,.343,0,1.03-.343,1.716l-5.15,30.899c0,.344-.343.344-.343.687-.344-.343-1.03-.343-1.03-.687-.687-2.06-1.373-4.12-1.717-6.18l-4.12-28.152c-1.373-9.27-2.402-18.54-4.119-27.466-1.717-8.583-3.09-17.166-4.12-25.749-.687-7.553-1.717-15.106-3.09-22.316-.687-4.12-1.717-8.239-2.06-12.359-1.374-9.613-2.403-19.569-4.12-29.183-2.403-11.673-5.15-24.719-5.493-36.735,0-2.06-1.373-3.776-3.776-4.12-3.777-.687-7.896-1.03-11.673-1.03q-3.777-.343-7.896-.343c0,.343-3.777.343-3.777.343-2.06,0-4.119-.343-6.18-.343-4.807,0-9.613,0-14.419.343-2.061,0-3.434,1.374-3.434,3.433,0,1.717,0,3.434.344,5.15,1.029,2.747,1.373,5.15,2.06,8.926,1.03,6.523,1.717,13.046,3.09,19.57,1.03,5.836,2.06,11.673,2.06,17.853,0,2.747.687,5.836,1.374,8.583,3.433,12.36,5.149,24.719,7.209,37.079.344,3.09,1.03,5.836,1.717,8.926.687,5.836,1.373,11.673,2.403,17.509,1.717,8.24,3.776,16.479,4.12,24.719.344,4.807.687,9.27,1.717,13.39.687,2.747,1.373,5.493,1.717,7.896,2.06,9.27,2.402,18.54,3.433,27.809.344,3.09.687,6.523,1.373,9.613,2.747,14.076,4.807,28.152,7.554,42.229,1.029,6.18,2.06,12.016,3.433,17.853.344,2.06,2.403,3.433,4.464,3.433,1.029.343,1.717,0,2.746,0Z"/>
      <path class="cls-2" d="M1755.241,484.234c-8.583-.343-16.137-.343-24.032-.343l-29.526.687c-4.807.343-9.613,0-14.076,0l-9.27-.344c-5.15-.687-8.24-3.09-8.927-8.24v-2.06h-1.373c-5.149-.687-8.24-3.09-8.927-8.24-.687-7.553-.687-15.106-.343-21.973v-8.583c0-2.06.343-4.807.687-5.837.687-2.06.687-3.776-.344-7.896-.343-1.716,0-4.806.687-7.209l.344-2.403c-1.373-4.12-1.373-8.24-1.03-11.673v-8.926l-.343-6.523v-.343c-.344-1.374,0-2.747.343-4.12,1.374-4.807,1.03-9.613,1.03-15.45-.344-4.12-.687-8.583,0-13.046-.687-12.703-.687-25.406-.687-38.109v-12.359l-.344-3.09-.343-.687c-.344-2.403-.687-5.149-.344-6.866.687-3.776.687-7.553.344-11.673-.344-2.747-.344-6.18-.344-9.613.687-7.553.687-15.106-.343-22.316-.344-1.374-.344-2.747,0-5.15v-1.717c0-4.463.343-8.926.687-13.046.343-6.523.687-13.046,0-19.226-.344-2.747-.344-5.836,0-8.24,2.403-8.24,3.776-9.957,12.359-9.957,12.017.343,23.346.687,35.019.687h2.403c2.747,0,4.807,0,7.21-.343.687-.343,2.747-.343,4.12-.343l4.463.343,2.403.343c2.403,0,3.776-1.03,4.807-1.03,1.373,0,2.747.343,4.807.343,5.493.687,11.329.343,17.51,0,5.149-.343,10.643-.687,16.136-.343l13.39.687c4.12,0,7.553,3.777,8.239,8.24v2.06h2.061c4.12,0,7.553,3.776,8.239,8.24v6.523l-.343,8.927c0,4.12-.344,8.24,0,12.703v4.463c0,8.583-3.09,11.673-10.986,11.673l-4.807.343c-2.06,0-3.776,0-5.837.343-2.403.344-4.119,0-6.866-.343-1.03,0-2.746,0-5.493.343-2.403,0-5.149.344-8.239,0-3.09-.343-6.523-.343-10.3,0l-21.973.344c.687,8.926.343,17.509,0,25.749,0,4.463-.344,8.926-.344,13.39v.343c0,2.403-.343,4.12-.687,6.523l-.344,2.403h8.927c7.21.687,12.017,1.03,16.823.343,3.776-.343,7.209.343,9.956.687l4.12.343c3.776,0,6.18,2.747,7.21,6.523l.343,3.433,2.747.343c3.776,0,6.18,2.747,7.209,6.523.344,1.716.688,3.776.688,6.18v12.016l.343,12.36c0,1.717-.687,6.523-1.03,8.583-.343,3.776-3.433,6.866-7.553,6.866h-18.539c-4.464,0-9.957.344-15.106-.343h-4.463c-3.777-.343-6.867-.343-10.3.343l-.344,2.747v2.06c.687,5.836.344,11.673,0,16.823v10.643c.344,6.867.687,13.733.687,20.256l4.464.343c5.493.343,11.673.687,24.376-.343,5.149-.343,11.673,0,17.853,0h7.896c4.12,0,7.896,2.747,8.239,7.209l.344,3.09h1.717c4.119,0,7.896,2.747,8.239,7.21.687,5.493.687,10.643.344,15.793,0,4.463,0,8.926.343,13.39v3.776c-1.717,13.046-4.119,15.45-16.136,15.45-11.33.343-20.942-.343-29.869-.687ZM1785.797,458.828c.344-1.03,0-2.403,0-3.433-1.03-9.613.687-19.226-.687-28.839,0-1.373-1.03-2.403-3.09-2.403-7.554,0-18.196-.344-25.406,0-23.689,1.716-24.719-.687-41.198.343-2.061,0-3.434-1.03-3.434-3.434,0-10.643,0-21.286-.687-32.272-.344-8.927,1.03-17.853,0-26.779-.344-1.717.343-4.12.343-6.18,0-3.09,1.03-4.463,4.12-4.807,5.493-1.03,10.644-.343,16.137-.343,8.239,1.03,16.479,0,24.376.343h8.926c1.373,0,2.403-1.03,2.403-2.403.344-1.373,1.03-6.18,1.03-7.896,0-9.27-.344-15.106-.344-24.376,0-1.716-.343-3.433-.687-5.15-.343-1.373-1.03-2.403-2.403-2.403-4.463-.344-8.583-1.374-13.39-1.03-5.836.687-11.673.343-17.509-.343-6.181-.343-12.703.687-18.883.343-2.747-.343-4.12-1.03-4.12-3.776-.344-6.18-2.06-12.36,0-18.54v-2.747c0-12.703,1.717-26.779.343-40.855-.343-2.06,1.03-3.433,3.09-3.433,6.181,0,12.017-.343,18.196-.343,5.493,0,11.33-.687,16.823,0,5.836.687,11.329-1.374,16.822.343,4.464-1.03,8.927-.687,13.39-1.03,5.493,0,6.181-1.03,6.181-6.523v-4.463c-.344-7.21.343-14.42.343-21.629v-6.18c-.343-1.716-1.717-3.433-3.434-3.433-4.463-.343-8.926-.343-13.39-.687-12.359-.687-24.719,2.06-36.735,0h-1.716c-3.777,1.716-7.21.343-10.644.343-1.373,0-2.403-.343-3.434,0-3.776,1.03-7.209.687-10.986.687-11.673,0-23.002-.343-35.019-.687-5.836,0-5.493,0-7.21,5.836-.343,2.06-.343,4.463,0,6.523,1.03,10.986-.687,21.973-.687,32.959,0,2.06-.343,4.12,0,6.18,1.03,7.896,1.03,15.792.344,23.346-.344,7.896,1.373,14.076,0,21.973-.344,2.06.343,4.12.687,6.18,0,2.06.343,4.12.343,6.18,0,16.136-.343,31.929.688,47.722-1.374,9.957,1.716,20.256-1.374,30.212-.343.687,0,1.717,0,2.747,0,4.12.344,8.24.344,12.36,0,4.463-.687,8.583.687,12.703,1.373,3.434-1.373,6.867-.687,10.643.687,3.433,1.373,6.867,0,10.643-.344,1.03-.344,2.747-.344,4.12,0,9.956-.687,19.913.344,29.869.343,2.403,1.373,3.434,4.12,3.777,7.553,0,15.105.687,22.659.343,9.956-.343,19.569-.343,29.525-.687,17.166-.343,32.616,1.373,54.245,1.03,9.27,0,9.613-1.03,10.986-10.643Z"/>
      <path class="cls-2" d="M1937.199,490.071c-13.046-4.807-20.942-10.3-27.122-18.883-5.15-3.777-9.271-8.24-13.047-14.076-7.553-12.017-10.643-24.376-14.763-36.736-1.717-4.807-3.09-9.27-4.463-14.076,0,4.807-.344,9.957-.687,14.763-.344,5.15-.344,9.27.687,12.703v1.374c.343,2.403.343,3.776,0,6.18-.344,4.807,0,9.27,0,14.419.343,4.12.343,8.24.343,12.36-.343,12.359-1.716,14.763-12.359,16.136-2.403.344-4.12,0-6.523,0-1.716,0-3.776,0-6.18.344-3.776.343-8.926.687-13.732-.687h-3.776c-1.374.343-3.09.343-5.15.343-6.523,0-10.3-3.776-10.3-10.299-6.866,0-10.3-3.777-10.3-10.643,0-15.45,0-28.496.344-44.289l-.344-5.15c.344-10.643.688-20.943.688-31.586,0-5.15,0-10.3-1.03-15.449-.344-2.06,0-4.463,0-6.523v-3.09l.687-52.872c0-5.493-.344-11.33-1.03-17.509-.687-3.777-.343-7.553-.343-10.986v-3.09c0-13.046.343-25.062.687-37.079,0-10.986.343-21.973.343-32.616l.344-2.403c.344-6.866,4.12-10.3,12.017-10.986h6.522c8.583.343,17.166.343,26.093,0,9.613-.343,19.569-.687,29.525,0,4.807.343,9.957.343,14.764.343,1.373,0,2.746.343,4.119.687,5.15,1.374,10.644,3.09,16.137,4.807,6.866,1.717,13.39,6.867,19.569,14.763,3.776,2.747,7.896,6.866,11.329,11.673,7.554,10.986,12.36,22.659,14.764,35.019.343,2.06.687,3.433.687,5.149,1.029,10.986.687,28.153,0,39.139-.344,7.209-1.373,13.39-2.403,18.883-1.03,3.433-4.12,15.449-6.523,19.569-5.836,9.27-9.956,13.39-15.793,17.509-3.433,2.403-8.583,5.15-10.3,6.18,1.03,2.747,1.717,5.493,2.403,8.24,1.374,5.15,2.403,9.27,4.464,13.39,1.029,2.06,1.716,4.12,2.06,5.836,2.06,9.27,4.807,18.54,7.896,27.81l1.03,3.433c2.403,4.806,4.463,9.956,6.522,15.106,2.403,6.18,4.807,12.017,7.896,17.51l.687,1.03c1.374.687,3.09,1.03,5.493,1.717h2.061c5.149,0,6.522,5.15,4.807,9.27l3.433,1.03h2.061c5.149,0,6.866,5.493,4.807,9.613-3.777,8.24-8.584,12.016-16.137,13.733-10.986,2.403-23.346,2.06-32.959-1.03ZM1971.188,465.008c.343-.687.687-2.403,0-2.403h-2.747c-8.583-2.06-11.329-3.434-16.479-9.957-1.373-1.717-2.746-3.777-3.776-5.836-5.836-10.643-9.27-21.973-14.763-32.959-.344-.687-.344-1.03-.344-1.717-3.433-10.3-6.522-20.256-8.926-30.899,0-1.374-.687-2.747-1.374-4.12-3.776-7.209-4.806-15.449-7.553-23.346-.687-2.06-.344-3.09,1.717-4.12,12.703-8.24,17.166-9.956,25.062-23.002,2.06-3.433,4.807-14.419,5.836-18.196,1.374-5.836,2.061-12.016,2.403-17.853.688-10.986,1.03-27.809,0-38.452,0-1.717-.343-3.09-.687-4.463-2.06-12.016-6.866-23.002-13.732-32.959-4.463-6.18-10.3-12.359-17.853-14.419-5.493-1.717-10.986-3.433-16.137-4.807-.687-.343-1.717-.343-2.746-.343-4.807,0-9.957,0-15.106-.343-18.883-1.373-36.735,1.03-55.618,0h-6.18c-5.15.343-6.867,1.717-6.867,6.523-.343.687-.343,1.374-.343,1.717,0,22.316-1.03,44.632-1.03,69.694,0,4.463-.343,8.927.344,13.39.687,6.18,1.029,12.017,1.029,18.196-.343,17.509-.343,35.362-.687,52.872,0,3.09-.343,6.18,0,8.926,1.03,5.493,1.03,10.986,1.03,16.136,0,12.017-.344,23.689-.687,35.362.343,0,0,2.06.343,2.06-.343,15.45-.343,28.496-.343,43.602,0,4.12,1.373,5.493,5.149,5.493,1.717,0,3.09,0,4.464-.343,2.06,0,3.776-.343,5.493,0,7.553,2.403,14.763-.687,22.315.687,10.3-1.03,9.956-1.03,10.3-11.33.344-9.957-1.373-20.256,0-30.212,0-1.03,0-2.06-.344-2.747-1.029-4.807-1.029-9.613-.687-14.42,1.374-13.389,0-27.122,0-40.512,0-3.434,0-8.24.344-12.017,0-2.06,2.06-2.06,4.463-2.403,2.747-.343,4.463.687,4.807,3.434,1.717,9.27,5.493,17.509,5.837,26.436,3.09,10.986,6.18,22.316,9.956,33.303,4.12,12.703,7.21,24.375,14.42,35.705,7.209,11.33,15.449,16.136,27.122,20.6,9.27,2.747,20.6,2.747,30.212.687,6.867-1.373,9.613-4.807,12.36-10.643ZM1861.668,314.633c-1.029-7.21-.343-14.42-.343-20.256,0-7.896.343-14.419-.344-20.942-.343-2.06-.343-7.21,0-9.27,1.373-5.836.687-11.33,0-16.823v-8.24c0-1.373,1.03-2.06,2.403-2.403,8.24-.687,16.823-1.03,25.062.687,5.837,1.373,9.957,5.149,12.359,10.299,3.09,5.493,4.807,11.673,4.807,18.196.344,5.493,0,14.419-.343,19.913-.344,5.493-1.03,10.643-1.717,16.136-.344,1.717-1.373,3.433-2.06,4.807-1.03,2.06-2.403,3.433-3.434,5.493-2.747,4.806-7.553,7.209-12.703,7.209-6.523.344-12.359-.687-19.912.344-2.747,0-3.777-2.06-3.777-5.15ZM1893.598,309.826c.687-1.374,1.373-2.403,2.06-3.433l1.373-2.06.344-.687,1.03-2.747c.687-5.15,1.373-10.3,1.716-15.45.344-7.21.687-15.106.344-19.569,0-4.463-1.03-8.926-2.747-13.046-7.209-1.717-14.763-1.373-22.315-.687.343,0,1.03,0,1.03,1.373v3.777c.687,5.493,1.373,11.673,0,18.196-.344,1.717-.344,6.18,0,7.553.343,5.15.343,10.3.343,15.793v10.986l-.343,4.463h8.926c3.776,0,6.523-1.374,8.24-4.463Z"/>
    </g>
    <g>
      <rect class="cls-1" y="133.124" width="1999.215" height="397.585"/>
      <path class="cls-4" d="M84.681,464.778l-7.21-4.12c-7.896-3.777-13.046-10.643-16.823-18.196-5.836-12.016-8.583-24.719-8.583-37.766,0-13.39-1.03-26.779.687-40.168.344-3.09-.343-5.836-.343-8.926,0-8.24-.343-16.136-.343-24.376,1.374-24.376,0-41.542,0-61.798,0-4.807-.343-9.613.343-14.419,1.374-10.643,2.747-21.286,8.583-30.899,10.986-17.51,26.093-27.809,47.036-30.556,4.12-.343,8.239-1.03,12.359-1.373,16.479-.687,30.899,4.463,43.259,14.763,7.553,6.523,14.076,13.39,16.823,23.689l1.373,5.15c1.03,4.463,1.374,7.896,2.06,12.359,1.03,4.807,1.03,12.36.343,17.167,0,1.716-.343,3.09-.343,4.12,0,4.807-1.03,8.24-1.717,12.703-1.373,6.18-4.806,11.673-10.643,15.106-10.3,5.493-20.256,6.867-31.586,3.434-3.433-1.03-7.21-3.777-9.27-5.837-1.374-1.373-.687-2.06.343-2.747,7.209-4.12,8.24-11.33,9.27-17.509.687-7.553,1.03-15.793-1.03-23.346-2.06-8.927-8.24-13.733-17.166-14.077-5.15,0-9.957.343-14.42,3.09-4.12,2.403-6.866,5.836-7.209,10.643-.343,3.777-1.717,7.896-1.03,12.017l-.687,16.479c0,10.3.687,20.599.343,30.899-.343,15.45-1.373,30.899-.343,46.692.687,14.763.687,29.869.687,44.632,0,5.15,0,10.3,2.06,14.763.687,2.747,2.06,5.15,3.776,7.209,3.777,5.15,9.27,5.836,15.106,5.15,2.403-.343,4.463-1.03,6.866-2.403,3.777-2.06,6.18-5.493,6.867-9.613,1.717-7.896,2.403-15.793,2.403-23.689-.343-7.21,0-14.419,0-21.973v-2.747c.343-1.373.687-2.747,2.06-3.09l7.209.343c10.643.343,18.54-.343,27.809-.343h6.18c3.09.687,2.403,2.403,2.747,5.15.343,1.373.343,2.403.343,3.776,0,7.21-.343,14.42,0,21.973.687,3.09.343,6.867-.343,10.3-.687,6.523-.687,12.359-2.06,18.54-1.717,8.24-4.463,16.823-10.3,23.689-1.716,2.403-3.433,4.463-5.493,5.837l-14.419,10.299c-4.12,3.09-8.926,4.807-14.076,5.493-8.583,1.374-17.166,1.717-26.093,1.717-8.926-.343-17.853-2.06-25.406-7.21Z"/>
      <path class="cls-4" d="M228.871,468.555c-1.374-.344-3.09,0-4.463.343-2.403,0-4.807.343-7.21.343-3.09,0-4.806-1.717-4.806-5.15,0-13.046-.687-26.092-1.03-39.482-.343-17.167,2.06-34.676,1.03-51.842-1.374-20.943.687-41.542.687-62.142,0-14.763-.343-29.869-.343-44.975,0-7.21.687-14.419,0-21.286-.343-6.18.687-11.673-.343-16.823,1.716-6.867.343-13.733.687-20.6,0-3.09-.687-5.836-.687-8.926-.343-1.716,1.373-3.433,3.433-3.09,6.18.343,13.046,0,19.226.343s14.763-.687,18.883.343c4.806,0,5.836.687,5.836,4.807.343,2.06.343,4.12.343,6.18l-.343,3.433c.343,4.807-.343,9.613,0,15.106,0,1.373.343,3.09.343,4.463l-.343,33.989c.343,12.359,1.03,24.376.343,36.735-1.03,16.479-.687,32.959-.687,49.438-2.06,16.136-.343,32.272-.343,48.409,0,3.776-.344,7.21-.687,10.986s-.687,7.553,0,11.673c1.03,8.24.687,16.479.687,25.062l-.344,17.167c0,4.12-1.373,5.836-5.836,6.18-.687.343-1.716.343-2.403.343-7.21-.343-14.42.687-21.629-1.03Z"/>
      <path class="cls-4" d="M409.456,475.078c-11.673-4.463-19.913-9.27-27.123-20.599-7.209-11.33-10.3-23.003-14.419-35.706-3.776-10.986-6.867-22.316-9.957-33.302-.343-8.926-4.12-17.166-5.836-26.436-.343-2.747-2.06-3.777-4.807-3.433-2.403.343-4.463.343-4.463,2.403-.343,3.777-.343,8.583-.343,12.017,0,13.39,1.373,27.123,0,40.512-.343,4.806-.343,9.613.687,14.419.343.687.343,1.716.343,2.747-1.373,9.956.343,20.256,0,30.212-.343,10.299,0,10.299-10.3,11.33-7.553-1.374-14.763,1.717-22.316-.687-1.716-.344-3.433,0-5.493,0-1.373.343-2.747.343-4.463.343-3.776,0-5.149-1.374-5.149-5.493,0-15.106,0-28.153.343-43.602-.343,0,0-2.06-.343-2.06.343-11.673.687-23.346.687-35.362,0-5.15,0-10.643-1.03-16.136-.343-2.747,0-5.836,0-8.926.344-17.509.344-35.362.687-52.872,0-6.18-.343-12.017-1.03-18.196-.687-4.463-.343-8.926-.343-13.39,0-25.062,1.03-47.378,1.03-69.694,0-.343,0-1.03.343-1.717,0-4.806,1.716-6.18,6.866-6.523h6.18c18.882,1.03,36.735-1.374,55.618,0,5.15.343,10.3.343,15.106.343,1.03,0,2.06,0,2.747.343,5.15,1.374,10.643,3.09,16.136,4.807,7.553,2.06,13.39,8.24,17.853,14.419,6.866,9.957,11.673,20.943,13.733,32.959.343,1.374.687,2.747.687,4.463,1.03,10.643.687,27.466,0,38.452-.343,5.836-1.03,12.016-2.403,17.853-1.03,3.777-3.776,14.763-5.836,18.196-7.896,13.046-12.36,14.763-25.062,23.002-2.06,1.03-2.403,2.06-1.717,4.12,2.747,7.896,3.776,16.136,7.553,23.346.687,1.374,1.373,2.747,1.373,4.12,2.403,10.643,5.493,20.599,8.927,30.899,0,.687,0,1.03.343,1.717,5.493,10.986,8.926,22.316,14.763,32.959,1.03,2.06,2.403,4.12,3.776,5.836,5.15,6.523,7.896,7.896,16.479,9.956h2.747c.687,0,.343,1.717,0,2.403-2.747,5.837-5.493,9.27-12.36,10.643-9.613,2.06-20.943,2.06-30.212-.687ZM366.197,319.553c5.15,0,9.957-2.403,12.703-7.209,1.03-2.06,2.403-3.434,3.433-5.493.687-1.374,1.717-3.09,2.06-4.807.687-5.493,1.373-10.643,1.717-16.136.343-5.493.687-14.419.343-19.913,0-6.523-1.717-12.703-4.807-18.196-2.403-5.15-6.523-8.926-12.36-10.3-8.24-1.716-16.823-1.373-25.062-.687-1.373.343-2.403,1.03-2.403,2.403v8.24c.687,5.493,1.374,10.986,0,16.823-.343,2.06-.343,7.21,0,9.27.687,6.523.344,13.046.344,20.942,0,5.836-.687,13.046.343,20.256,0,3.09,1.03,5.149,3.776,5.149,7.553-1.03,13.39,0,19.913-.343Z"/>
      <path class="cls-4" d="M507.988,496.364c-3.777-5.15-6.523-9.957-6.867-16.479,0-.687,0-1.717-.343-2.747-.343-2.06-.343-4.807-1.717-6.867-1.03-2.06-4.12-1.716-6.523-2.06-7.21-1.373-13.046-6.18-19.226-9.27-3.776-3.776-7.896-7.21-10.3-12.359-2.403-5.837-3.776-12.017-5.15-18.196-.343-.343-.343-1.03-.343-1.717-2.403-10.986-4.12-21.629-2.747-32.959.343-1.373,0-3.09,0-4.463h-.343v-10.643c0-11.33-.343-22.316-.343-33.302,0-15.106.343-29.869.687-44.976,0-12.359.343-24.376.687-36.735v-1.717c-1.373-7.209,0-14.419.344-21.629.343-9.613,4.12-17.853,10.643-25.063,13.733-15.106,31.586-21.629,51.842-22.659l6.18-.343c7.896,1.717,14.419,1.373,22.316,4.12,9.956,3.776,17.166,6.866,23.689,16.136,2.403,3.777,5.493,7.21,7.896,10.986,6.18,9.613,7.553,23.003,6.866,34.333-.687,9.957-1.03,19.913-.344,29.869v2.403c-.343,5.15-.687,10.299,0,15.106.687,6.18-.343,12.017-.343,18.196,0,1.03-.687,2.403-.344,3.433,1.373,9.613.344,19.226,0,28.839,0,12.359,0,25.062-.687,37.765-.343,7.896.344,20.6-.687,28.496-.344,3.09-1.373,6.523-2.06,9.613-3.777,13.733-13.39,23.003-23.689,31.929-1.03,1.03-2.403,1.373-3.776,2.06-5.15,2.403-5.493,2.403-5.15,7.896,0,3.777.344,2.747,2.061,5.836,2.06,5.15,5.836,8.24,11.329,9.27,5.149,1.03,9.956,1.716,15.106-.687,1.373-.687,3.09-1.374,4.807-1.717,1.029-.343,2.403,1.03,2.403,2.06-.344,1.03-.344,2.06-.687,2.747-3.091,6.866-7.896,12.016-14.764,15.106-5.836,2.747-12.016,5.493-18.539,6.523-17.166,2.747-31.242-2.06-41.885-16.136ZM540.946,410.877v-24.376c-.343-2.403-.343-4.463,0-6.867.344-5.15,1.03-10.3,0-15.449-1.029-4.807-1.029-9.957-.687-15.106,0-10.986.344-22.316.687-33.302h-.343c0-6.18,0-12.703.343-18.883,1.374-14.076-.343-28.152-.687-42.229,0-5.493-2.06-10.643-5.149-15.106-.687-1.03-1.374-2.06-2.403-2.403-4.463-2.06-10.3-4.463-15.45-2.403l-5.15,2.06c-8.926,3.09-12.703,13.046-12.703,23.003,0,6.18.344,12.703.344,18.883,0,10.299.343,20.256.687,30.556.343,11.33-.343,22.659-.343,33.989,0,12.016-.343,24.033-.343,36.049,0,5.15.687,10.3.687,15.106.343,6.523,1.03,12.703,2.06,18.882,2.06,10.643,13.046,16.479,21.286,15.106,8.583-1.373,17.166-6.523,17.166-17.509Z"/>
      <path class="cls-4" d="M657.671,468.211c-8.926-2.746-16.136-7.896-22.315-14.763-3.777-4.12-7.21-6.523-10.3-11.673-3.434-5.836-4.807-10.986-6.866-17.51-3.091-9.27-3.777-19.226-3.777-28.496-.687-14.763,0-29.526,0-44.289,0-4.807,0-9.27-.343-14.076-.687-8.24-1.03-16.479,0-24.376.687-15.45.687-31.242.687-46.692,0-8.583.687-17.509-.344-26.092-.343-1.03,0-2.403,0-3.434.344-1.716.687-3.09.687-4.463-1.029-8.24,0-15.793-.343-24.033v-9.957c0-2.06,1.03-3.09,3.434-2.747,6.18-.687,12.359-1.373,18.882,0,5.15.687,10.3.687,15.793.687,2.403.343,4.464.343,6.867.343,1.029.343,1.716,1.03,1.716,1.716.344,5.15.688,10.3.688,15.45l-.688,16.136v21.629c0,4.806,0,9.613.688,14.076.343,1.716,0,3.09,0,4.463,0,8.24-.344,16.136,0,24.376.343,7.553,0,15.45,0,23.346l-.344,3.433c2.403,10.986,1.03,22.316,0,33.302,0,1.03-.344,2.403,0,3.433,1.717,10.986.344,22.316.344,33.302,0,3.09,0,5.837.343,8.927.687,2.747.687,5.836.687,8.926.344,11.673,8.583,19.226,19.569,20.599,4.464.687,10.3-.687,14.076-3.09,1.03-.687,2.403-2.06,3.09-3.433.687-2.06,1.717-4.463,1.717-6.866,1.03-9.957,3.776-20.256,1.717-30.212-.687-3.09-.344-6.18-.344-9.27.688-5.493,1.03-10.986,1.374-16.823.343-6.18,0-12.359.343-18.54,0-4.463.344-8.926.344-13.389,0-7.21-.687-14.42-1.373-21.629,0-1.717-.344-3.434-.344-5.15.687-8.927,1.03-17.853.344-27.123v-27.466c.343-9.27.343-18.196.343-27.123.344-4.12.344-8.24-.343-12.703-.688-2.06-.344-4.463-.344-6.866,0-2.06,1.03-3.09,3.434-3.433,5.493-.687,11.329-1.717,16.822-1.03,7.554,0,16.137,1.03,23.689.343,2.403,0,2.06.344,3.09,3.434,0,5.493-.687,10.643.687,16.136-.687,2.747-1.373,4.807-1.373,7.553,0,17.51.687,35.019.344,52.185-.344,9.613-1.717,19.226-1.03,29.183,1.373,13.046,1.03,26.092,1.373,39.482-.343,5.836-.687,12.017-.687,17.853v8.926c0,4.12,1.03,7.896-.344,11.673-.343.343-.343,1.03,0,1.717,1.374,10.3-.687,20.256-1.029,30.556-1.03,11.673-5.493,21.629-11.673,32.272-3.777,5.836-7.896,8.583-12.703,13.39-7.896,7.896-18.196,12.359-29.526,12.359-14.763.687-22.659,0-36.735-4.463Z"/>
      <path class="cls-4" d="M839.969,468.555c-9.956.343-19.569.343-29.525.687-7.554.343-15.106-.343-22.659-.343-2.747-.343-3.777-1.374-4.12-3.777-1.03-9.956-.344-19.913-.344-29.869,0-1.373,0-3.09.344-4.12,1.373-3.776.687-7.21,0-10.643-.687-3.776,2.06-7.21.687-10.643-1.373-4.12-.687-8.24-.687-12.703,0-4.12-.344-8.24-.344-12.36,0-1.03-.343-2.06,0-2.747,3.09-9.956,0-20.256,1.373-30.212-1.029-15.793-.687-31.585-.687-47.722,0-2.06-.343-4.12-.343-6.18-.344-2.06-1.03-4.12-.687-6.18,1.373-7.896-.344-14.076,0-21.973.687-7.553.687-15.449-.344-23.346-.343-2.06,0-4.12,0-6.18,0-10.986,1.717-21.973.687-32.959-.343-2.06-.343-4.463,0-6.523,1.717-5.836,1.373-5.836,7.21-5.836,12.017.343,23.346.687,35.019.687,3.777,0,7.21.343,10.986-.687,1.03-.343,2.061,0,3.434,0,3.434,0,6.866,1.374,10.643-.343h1.717c12.017,2.06,24.376-.687,36.736,0,4.463.343,8.926.343,13.389.687,1.717,0,3.09,1.717,3.434,3.433v6.18c0,7.209-.687,14.419-.344,21.629v4.463c0,5.493-.687,6.523-6.18,6.523-4.463.344-8.926,0-13.39,1.03-5.493-1.717-10.986.343-16.822-.343-5.493-.687-11.33,0-16.823,0-6.18,0-12.016.343-18.195.343-2.061,0-3.434,1.373-3.091,3.433,1.374,14.076-.343,28.152-.343,40.855v2.747c-2.061,6.18-.344,12.359,0,18.54,0,2.747,1.373,3.433,4.12,3.776,6.18.343,12.702-.687,18.883-.343,5.836.687,11.673,1.03,17.509.343,4.807-.343,8.927.687,13.39,1.03,1.373,0,2.061,1.03,2.403,2.403.344,1.717.687,3.434.687,5.15,0,9.27.344,15.106.344,24.376,0,1.717-.687,6.523-1.03,7.896,0,1.374-1.03,2.403-2.403,2.403h-8.926c-7.896-.343-16.137.687-24.376-.343-5.493,0-10.644-.687-16.137.343-3.09.343-4.12,1.716-4.12,4.807,0,2.06-.687,4.463-.343,6.18,1.03,8.926-.344,17.853,0,26.779.687,10.986.687,21.629.687,32.272,0,2.403,1.373,3.434,3.434,3.434,16.479-1.03,17.509,1.373,41.198-.344,7.21-.343,17.853,0,25.406,0,2.06,0,3.09,1.03,3.09,2.403,1.373,9.613-.344,19.226.687,28.839,0,1.03.343,2.403,0,3.433-1.373,9.613-1.717,10.643-10.986,10.643-21.63.343-37.079-1.374-54.245-1.03Z"/>
      <path class="cls-4" d="M1041.495,469.242c-6.523-.687-19.227.687-31.586,0q-7.21-.343-7.553-6.867c0-9.27.343-18.539-.344-27.809.344-7.209.344-14.419.344-21.629,0-9.27,0-18.539.343-27.809.344-9.613-.343-19.226,0-28.839.344-3.777,1.717-7.553.687-11.33-.687-3.09-.687-6.18-.687-8.927-.687-28.152.344-56.648.687-84.8,0-6.18-.343-12.36-1.029-18.54-.687-10.643-.344-20.943,0-31.586,0-3.09,2.06-4.806,4.807-5.493,4.119-1.373,8.583-1.03,12.702-.687,6.18.343,12.36.343,18.54,0,10.3-.343,20.942,0,31.242,0,6.523.343,13.39.687,19.569,1.717,10.986,1.373,21.286,4.463,29.869,11.33,3.09,2.747,5.493,5.836,7.21,9.27,2.746,4.463,4.807,9.613,6.866,14.763.344,1.374,1.03,3.434,1.03,5.15.687,4.463.687,8.927,1.716,13.39,2.061,10.3,1.717,20.6,1.717,31.243,0,7.553-.687,15.106,1.03,22.316.344,1.373.344,3.09,0,4.463-.687,10.3-.344,20.256-1.03,30.556-.687,11.33-.343,22.659-.343,33.989,0,14.419-.687,28.839-1.717,43.259-1.03,9.956-3.434,19.226-9.613,27.466-3.09,4.463-6.18,8.583-9.613,13.046-1.029,1.374-2.746,2.747-4.119,3.434-6.523,3.09-12.703,6.866-19.913,8.24-2.06.687-4.12,1.03-6.18,1.03l-44.632-.343ZM1075.141,426.326c11.33-2.403,17.51-6.866,17.166-20.256v-6.18c-.344-24.033,1.717-45.319.344-72.098-.344-9.27,0-18.883-.688-28.496-1.029-11.33-.687-22.659-.687-34.333,0-4.463-.343-8.926-1.716-13.046-2.061-7.553-7.896-12.36-15.45-12.703-5.493-.343-11.673-.343-17.166-.687l-2.746.343c-1.717,0-2.747,1.374-2.747,2.747v12.359c-1.373,14.42.687,21.286,0,34.676-.687,17.166,0,34.676-.343,51.842-.344,5.15,1.029,10.3,1.029,15.106-1.373,10.986.344,21.629.344,32.615-1.373,11.673,0,23.346,0,35.019,0,2.06,1.03,3.09,3.09,3.433,6.523.687,13.39,1.374,19.569-.343Z"/>
      <path class="cls-4" d="M1168.521,281.101c-1.03-.687-1.717-2.06-1.03-2.747,1.03-1.03,2.061-2.06,3.09-2.747,2.403-1.373,4.12-3.433,5.493-5.836,2.403-4.12,3.776-5.836,5.15-10.643,1.373-4.12,2.06-6.866,1.717-10.643,0-3.776-6.867-7.209-8.584-7.553-7.209-2.403-10.986-8.583-12.702-15.793-2.403-12.703,5.836-28.152,20.256-31.586,2.403-.687,4.463-1.03,6.522-.343,12.36,2.403,20.943,9.613,25.75,20.6,2.746,6.523,3.09,13.39,1.717,20.599-1.374,5.493-2.747,11.33-4.464,17.167-2.746,7.896-6.866,14.763-13.732,20.256-4.12,3.433-8.24,6.18-13.39,8.24-3.434,1.373-7.21,2.06-11.33,2.06-1.373,0-3.09,0-4.463-1.03Z"/>
      <path class="cls-4" d="M1244.391,464.092v-10.986c.343-28.496-1.374-56.992.687-85.144l.343-8.24c-1.029-12.36,0-24.376,0-36.735,0-5.15,1.03-10.3,0-15.45,0-11.673.688-23.346,0-35.019,0-1.373,0-3.09-.343-4.463-1.03-4.12-.687-8.24,0-12.36.687-3.09,0-6.523-.344-9.956,0-2.747-.687-5.493-.343-7.896,1.029-12.017.343-24.033.343-36.049,0-1.374,0-2.747.344-4.463.343-1.374,1.373-2.403,3.09-2.747,1.373-.343,2.746-.343,4.463-.343,9.613.343,19.913.343,29.526.343,1.716,0,3.09.343,4.463.343,3.776.343,5.149,1.374,5.493,4.807v6.18c0,8.24-1.373,16.136-.344,24.376,1.03,9.27,0,18.54,0,27.809,0,7.896,1.374,16.136,0,24.033v2.747c1.374,7.896,1.374,15.449,1.374,23.346,0,2.06,1.373,3.09,3.433,3.09,1.373,0,3.09.344,4.464-.343,3.433-1.03,7.209-1.03,10.643-.687,7.21.687,14.42-.343,21.629-.343,2.747,0,3.777-1.03,3.777-4.12-.344-10.299,0-20.942-1.03-31.242-.344-3.776,0-7.21,0-10.986.343-8.926-.687-17.853,1.03-26.779.687-4.463.343-8.926-.344-13.39-1.03-7.209-.344-14.419-.687-21.629,0-1.374.687-2.747,1.03-4.12.343-1.373,1.373-2.06,2.402-2.403,1.03,0,2.061-.343,2.747-.343,12.703,1.03,27.122.343,39.825.343,3.09,0,3.776.687,3.776,3.433v23.003c0,18.196-.687,36.392-1.029,54.588-.344,5.149,0,10.643-.344,16.136.687,6.18.344,13.046-.343,19.57-.344,4.463-.688,8.926.343,13.389v2.747c0,12.359.344,25.062,0,37.765,0,12.36-.343,25.062,1.373,37.766.688,4.12-.687,8.24-.687,12.36-.343,13.389.344,26.779.344,40.512v3.434c0,8.926-.687,9.27-7.896,9.27-4.807,0-9.27-.343-13.39,0-8.239,1.03-15.449,1.03-23.689,0-2.403-.343-3.433-1.717-3.776-4.12,0-2.06-.344-3.776-.344-5.493,0-13.046-.343-26.436.344-39.482.687-15.793,0-31.242.344-47.035,0-5.836-.688-11.673-.688-17.853-.343-1.373-1.373-2.06-2.402-2.403-1.717-.343-3.777-.343-5.494-.343-10.643,0-18.539-1.373-31.585,0-3.776.343-4.464,1.03-4.464,5.15,0,6.18-.687,12.36-.343,18.883,0,14.419,0,36.049.687,43.945-1.03,14.763-.344,26.436-.344,39.482,0,2.06-.343,4.12-.343,6.18-.344,1.373-2.06,3.09-3.434,2.747-8.583-1.03-17.509.343-26.436,0-4.463-.343-8.583.343-12.703.343-4.463,0-5.149-.343-5.149-5.15Z"/>
      <path class="cls-4" d="M1438.02,468.555c-1.373-.344-3.09,0-4.463.343-2.403,0-4.807.343-7.21.343-3.09,0-4.807-1.717-4.807-5.15,0-13.046-.687-26.092-1.03-39.482-.343-17.167,2.061-34.676,1.03-51.842-1.373-20.943.687-41.542.687-62.142,0-14.763-.344-29.869-.344-44.975,0-7.21.688-14.419,0-21.286-.343-6.18.688-11.673-.343-16.823,1.717-6.867.343-13.733.687-20.6,0-3.09-.687-5.836-.687-8.926-.344-1.716,1.373-3.433,3.433-3.09,6.181.343,13.047,0,19.227.343s14.763-.687,18.883.343c4.807,0,5.836.687,5.836,4.807.344,2.06.344,4.12.344,6.18l-.344,3.433c.344,4.807-.343,9.613,0,15.106,0,1.373.344,3.09.344,4.463l-.344,33.989c.344,12.359,1.03,24.376.344,36.735-1.03,16.479-.687,32.959-.687,49.438-2.06,16.136-.344,32.272-.344,48.409,0,3.776-.343,7.21-.687,10.986-.343,3.776-.687,7.553,0,11.673,1.03,8.24.687,16.479.687,25.062l-.343,17.167c0,4.12-1.373,5.836-5.837,6.18-.687.343-1.717.343-2.403.343-7.21-.343-14.419.687-21.629-1.03Z"/>
      <path class="cls-4" d="M1530.37,465.809c-1.373-5.836-2.403-11.673-3.433-17.853-2.747-14.076-4.807-28.152-7.554-42.229-.687-3.09-1.029-6.523-1.373-9.613-1.03-9.27-1.373-18.539-3.433-27.809-.344-2.403-1.03-5.15-1.717-7.896-1.03-4.12-1.373-8.583-1.717-13.39-.344-8.24-2.403-16.479-4.12-24.719-1.03-5.836-1.717-11.673-2.403-17.509-.687-3.09-1.373-5.836-1.717-8.926-2.06-12.36-3.776-24.719-7.209-37.079-.688-2.747-1.374-5.836-1.374-8.583,0-6.18-1.029-12.016-2.06-17.853-1.373-6.523-2.06-13.046-3.09-19.569-.687-3.777-1.03-6.18-2.06-8.927-.344-1.716-.344-3.433-.344-5.15,0-2.06,1.373-3.433,3.434-3.433,4.806-.343,9.612-.343,14.419-.343,2.061,0,4.12.343,6.18.343,0,0,3.777,0,3.777-.343q4.119,0,7.896.343c3.776,0,7.896.343,11.673,1.03,2.403.343,3.776,2.06,3.776,4.12.343,12.016,3.09,25.062,5.493,36.735,1.717,9.613,2.746,19.57,4.12,29.183.343,4.12,1.373,8.24,2.06,12.36,1.373,7.209,2.403,14.763,3.09,22.316,1.03,8.583,2.403,17.166,4.12,25.749,1.717,8.926,2.746,18.196,4.119,27.466l4.12,28.152c.344,2.06,1.03,4.12,1.717,6.18,0,.343.687.343,1.03.687,0-.343.343-.343.343-.687l5.15-30.899c.343-.687.343-1.373.343-1.716.344-7.21.687-12.017,2.061-17.853,1.717-9.27,3.776-18.54,5.493-28.152.343-1.717.343-3.433.343-5.15.344-10.3,2.403-20.256,4.464-30.212,1.716-7.21,2.746-14.076,3.433-21.286.687-8.583,3.434-23.002,5.837-31.242,4.12-13.39,9.956-21.286,23.346-27.123,4.463-2.06,11.33-3.09,16.136-3.09,5.15-.687,12.703.343,17.51,2.403,1.03.343,2.061,1.03,1.717,2.06,0,.343-.344.687-1.373,1.03-6.18,2.747-9.957,9.613-11.673,15.106-2.403,8.583-4.12,17.51-5.493,26.436-1.717,9.957-4.807,23.346-5.493,33.646-.344,1.03-.344,2.403-.688,3.433-2.746,9.957-4.119,20.6-6.18,30.899-2.403,13.733-5.149,27.466-7.553,41.199-1.03,6.18-1.373,12.703-2.403,18.883-.687,3.776-1.373,7.553-1.717,11.33-2.06,16.479-4.463,32.616-7.896,48.752-2.06,9.956-2.746,20.256-5.149,30.212-.687,2.06-1.373,3.777-1.717,5.837-1.03,4.12-4.12,5.836-7.896,6.18-.687,0-1.373.343-2.06,0-6.867-1.374-13.733.343-20.6,0-9.27-.687-18.883,0-28.496,0-1.029,0-1.717.343-2.746,0-2.061,0-4.12-1.374-4.464-3.433Z"/>
      <path class="cls-4" d="M1720.565,468.555c-9.956.343-19.569.343-29.525.687-7.554.343-15.106-.343-22.659-.343-2.747-.343-3.777-1.374-4.12-3.777-1.03-9.956-.344-19.913-.344-29.869,0-1.373,0-3.09.344-4.12,1.373-3.776.687-7.21,0-10.643-.687-3.776,2.06-7.21.687-10.643-1.373-4.12-.687-8.24-.687-12.703,0-4.12-.344-8.24-.344-12.36,0-1.03-.343-2.06,0-2.747,3.09-9.956,0-20.256,1.374-30.212-1.03-15.793-.688-31.585-.688-47.722,0-2.06-.343-4.12-.343-6.18-.344-2.06-1.03-4.12-.687-6.18,1.373-7.896-.344-14.076,0-21.973.687-7.553.687-15.449-.344-23.346-.343-2.06,0-4.12,0-6.18,0-10.986,1.717-21.973.687-32.959-.343-2.06-.343-4.463,0-6.523,1.717-5.836,1.374-5.836,7.21-5.836,12.017.343,23.346.687,35.019.687,3.777,0,7.21.343,10.986-.687,1.03-.343,2.061,0,3.434,0,3.434,0,6.866,1.374,10.644-.343h1.716c12.017,2.06,24.376-.687,36.735,0,4.464.343,8.927.343,13.39.687,1.717,0,3.091,1.717,3.434,3.433v6.18c0,7.209-.687,14.419-.343,21.629v4.463c0,5.493-.688,6.523-6.181,6.523-4.463.344-8.926,0-13.39,1.03-5.493-1.717-10.986.343-16.822-.343-5.493-.687-11.33,0-16.823,0-6.18,0-12.016.343-18.196.343-2.06,0-3.433,1.373-3.09,3.433,1.374,14.076-.343,28.152-.343,40.855v2.747c-2.06,6.18-.344,12.359,0,18.54,0,2.747,1.373,3.433,4.12,3.776,6.18.343,12.702-.687,18.883-.343,5.836.687,11.673,1.03,17.509.343,4.807-.343,8.927.687,13.39,1.03,1.373,0,2.061,1.03,2.403,2.403.344,1.717.687,3.434.687,5.15,0,9.27.344,15.106.344,24.376,0,1.717-.687,6.523-1.03,7.896,0,1.374-1.03,2.403-2.403,2.403h-8.926c-7.896-.343-16.137.687-24.376-.343-5.493,0-10.644-.687-16.137.343-3.09.343-4.12,1.716-4.12,4.807,0,2.06-.687,4.463-.343,6.18,1.03,8.926-.344,17.853,0,26.779.687,10.986.687,21.629.687,32.272,0,2.403,1.373,3.434,3.434,3.434,16.479-1.03,17.509,1.373,41.198-.344,7.21-.343,17.853,0,25.406,0,2.06,0,3.09,1.03,3.09,2.403,1.373,9.613-.344,19.226.687,28.839,0,1.03.344,2.403,0,3.433-1.373,9.613-1.717,10.643-10.986,10.643-21.629.343-37.079-1.374-54.245-1.03Z"/>
      <path class="cls-4" d="M1928.616,475.078c-11.673-4.463-19.913-9.27-27.122-20.599-7.21-11.33-10.3-23.003-14.42-35.706-3.776-10.986-6.866-22.316-9.956-33.302-.344-8.926-4.12-17.166-5.837-26.436-.344-2.747-2.06-3.777-4.807-3.433-2.403.343-4.463.343-4.463,2.403-.344,3.777-.344,8.583-.344,12.017,0,13.39,1.374,27.123,0,40.512-.343,4.806-.343,9.613.687,14.419.344.687.344,1.716.344,2.747-1.373,9.956.344,20.256,0,30.212-.344,10.299,0,10.299-10.3,11.33-7.553-1.374-14.763,1.717-22.315-.687-1.717-.344-3.434,0-5.493,0-1.374.343-2.747.343-4.464.343-3.776,0-5.149-1.374-5.149-5.493,0-15.106,0-28.153.343-43.602-.343,0,0-2.06-.343-2.06.343-11.673.687-23.346.687-35.362,0-5.15,0-10.643-1.03-16.136-.343-2.747,0-5.836,0-8.926.344-17.509.344-35.362.687-52.872,0-6.18-.343-12.017-1.029-18.196-.687-4.463-.344-8.926-.344-13.39,0-25.062,1.03-47.378,1.03-69.694,0-.343,0-1.03.343-1.717,0-4.806,1.717-6.18,6.867-6.523h6.18c18.883,1.03,36.735-1.374,55.618,0,5.149.343,10.3.343,15.106.343,1.029,0,2.06,0,2.746.343,5.15,1.374,10.644,3.09,16.137,4.807,7.553,2.06,13.39,8.24,17.853,14.419,6.866,9.957,11.673,20.943,13.732,32.959.344,1.374.687,2.747.687,4.463,1.03,10.643.688,27.466,0,38.452-.343,5.836-1.029,12.016-2.403,17.853-1.029,3.777-3.776,14.763-5.836,18.196-7.896,13.046-12.359,14.763-25.062,23.002-2.061,1.03-2.403,2.06-1.717,4.12,2.747,7.896,3.776,16.136,7.553,23.346.688,1.374,1.374,2.747,1.374,4.12,2.403,10.643,5.493,20.599,8.926,30.899,0,.687,0,1.03.344,1.717,5.493,10.986,8.927,22.316,14.763,32.959,1.03,2.06,2.403,4.12,3.776,5.836,5.15,6.523,7.896,7.896,16.479,9.956h2.747c.687,0,.343,1.717,0,2.403-2.747,5.837-5.493,9.27-12.36,10.643-9.612,2.06-20.942,2.06-30.212-.687ZM1885.357,319.553c5.15,0,9.956-2.403,12.703-7.209,1.03-2.06,2.403-3.434,3.434-5.493.687-1.374,1.716-3.09,2.06-4.807.687-5.493,1.373-10.643,1.717-16.136.343-5.493.687-14.419.343-19.913,0-6.523-1.717-12.703-4.807-18.196-2.402-5.15-6.522-8.926-12.359-10.3-8.239-1.716-16.822-1.373-25.062-.687-1.373.343-2.403,1.03-2.403,2.403v8.24c.687,5.493,1.373,10.986,0,16.823-.343,2.06-.343,7.21,0,9.27.687,6.523.344,13.046.344,20.942,0,5.836-.687,13.046.343,20.256,0,3.09,1.03,5.149,3.777,5.149,7.553-1.03,13.389,0,19.912-.343Z"/>
    </g>
  </g>
</svg>