<?xml version="1.0" encoding="UTF-8"?>
<svg id="Layer_2" data-name="Layer 2" xmlns="http://www.w3.org/2000/svg" viewBox="0 0 5358.152 7147.692">
  <defs>
    <style>
      .cls-1 {
        fill: #fff;
      }
    </style>
  </defs>
  <g>
    <path class="cls-1" d="M2270.345,2532.996l-62.948-18.187c-8.989-2.652-18.664.762-23.998,8.467l-28.044,40.517c-3.411,4.928-4.633,11.047-3.378,16.907l15.398,71.858c1.625,7.583,7.17,13.723,14.549,16.109l34.93,10.148,55.412-48.306,15.58-42-17.501-55.514Z"/>
    <path d="M2279.697,2527.865c-15.543-4.491-31.085-8.981-46.628-13.472-5.437-1.571-10.858-3.23-16.32-4.715-15.512-4.218-34.93,1.015-44.46,14.474-9.294,13.125-18.648,26.307-27.502,39.733-5.197,7.881-5.308,15.689-3.428,24.461l5.585,26.066c2.132,9.947,4.263,19.895,6.395,29.842,1.269,5.92,1.978,12.717,5.053,18.026,5.528,9.544,14.972,11.749,24.676,14.568,8.092,2.351,16.153,4.897,24.297,7.059,10.597,2.813,17.862-3.211,25.004-9.437,7.351-6.408,14.702-12.817,22.053-19.225,7.097-6.187,14.193-12.373,21.29-18.56,3.417-2.979,7.21-5.548,8.821-9.893l9.742-26.262,4.262-11.49c.596-1.606.995-2.673.665-4.375-1.455-7.487-4.742-15.041-7.032-22.307l-8.711-27.63c-.508-1.613-1.017-3.225-1.525-4.838-2.18-6.914-25.271-.415-23.182,6.212,4.481,14.212,8.961,28.424,13.442,42.636l3.1,9.832c.219.696.362,1.933.797,2.529.667.912.329-.941.11-.555-1.23,2.161-1.85,4.986-2.711,7.309l-4.957,13.362c-2.597,7-5.193,14-7.79,21l2.407-2.94c-18.471,16.102-36.942,32.204-55.412,48.306,6.156-1.299,12.312-2.597,18.468-3.896l-25.73-7.475c-3.057-.888-6.182-1.658-9.2-2.673-6.657-2.239-10.768-7.68-12.368-14.358-4.405-18.378-7.931-37.011-11.891-55.489-1.336-6.237-3.559-12.893-3.89-19.309-.474-9.185,7.545-17.543,12.437-24.611,5.862-8.469,11.679-16.971,17.587-25.408.448-.639.879-1.287,1.351-1.909.003-.003,3.201-3.577,3.281-3.235.381,1.616-4.789-.602-.519.58,1.897.525,3.813,1.018,5.711,1.566,19.339,5.587,38.678,11.175,58.017,16.762,5.305,1.533,11.574.144,16.325-2.509,2.323-1.297,7.759-6.198,2.38-7.752Z"/>
  </g>
  <path d="M2278.376,2573.087c-20.012.736-30.112,2.829-51.602-4.123-2.218-.718-3.874,2.072-2.192,3.687,23.888,22.931,26.682,23.506,38.106,25.186,1.475.217,2.243,1.811,1.58,3.146-4.026,8.114-2.836,23.41-.043,30.19.627,1.523,2.667,1.801,3.718.533l23.225-28.027c.517-.624.649-1.482.343-2.233l-11.007-26.989c-.348-.854-1.205-1.403-2.127-1.369Z"/>
  <g>
    <path class="cls-1" d="M2321.512,2423.969s-44.637,59.488-47.668,98.894c-3.031,39.406,17.534,49.329,12.987,78.125-4.547,28.797-63.174,76.198-98.247,108.292-10.883,9.958-10.689,38.266-6.406,43.33,15.421,18.229,45.207,36.293,46.557,42.377,2.018,9.094-7.076,34.859-11.622,45.468s-.697,26.191,11.622,35.699c-5.832,14.694-8.433,19.88,1.943,30.252,10.376,10.372,44.085,38.895,40.628,65.689-3.457,26.794.792,74.745,33.457,95.16,32.665,20.415,113.097,19.257,144.949,8.166,138.949-48.383,331.566-159.603,331.566-159.603l101.985-214.023-307.198-264.645-254.553-13.181Z"/>
    <path d="M2312.956,2420.724c-17.453,23.301-33.616,49.529-43.333,77.038-6.731,19.056-8.602,39.164-2.999,58.811,4.447,15.595,13.224,29.832,9.618,46.625-1.055,4.914-5.603,12.613-9.267,17.686-5.676,7.857-12.166,15.119-18.857,22.117-15.228,15.926-31.821,30.495-48.274,45.127-3.792,3.373-7.585,6.744-11.36,10.136-3.752,3.371-8.085,6.647-11.048,10.756-5.51,7.642-7.726,17.477-8.203,26.755-.346,6.731-.463,15.386,3.549,21.214,5.983,8.692,15.937,15.933,24.061,22.508,4.533,3.669,9.151,7.23,13.68,10.904,3.121,2.532,5.918,5.453,7.848,7.115.607.523.776,1.963.116-.17.13.421.057,1.692.219.569-.326,2.266-.184,4.621-.55,6.916-.77,4.832-2.048,9.57-3.496,14.238-1.627,5.244-3.449,10.432-5.455,15.544-1.875,4.78-3.933,9.398-4.203,14.617-.676,13.073,5.992,24.915,15.964,32.956l-1.976-7.375c-4.073,10.239-8.707,20.617-2.062,30.833,4.686,7.205,12.441,12.797,18.411,18.934,7.313,7.518,14.285,15.58,19.576,24.677,2.463,4.235,4.399,8.725,5.514,13.509,1.103,4.731.608,9.021.155,13.788-3.713,39.019,8.022,85.489,47.099,102.28,19.177,8.24,41.027,10.843,61.699,11.814,21.649,1.017,43.37.191,64.735-3.593,19.84-3.515,38.785-11.84,57.426-19.222,22.155-8.774,44.043-18.216,65.746-28.051,72.227-32.73,142.752-69.4,211.901-108.19,5.398-3.028,10.83-6.015,16.162-9.158,5.068-2.987,6.405-6.812,8.749-11.731,9.933-20.845,19.866-41.689,29.798-62.534,22.594-47.416,45.188-94.831,67.783-142.247.443-.929.885-1.858,1.328-2.787,1.345-2.823.232-5.473-1.976-7.375-24.553-21.152-49.107-42.304-73.66-63.457-47.179-40.643-94.357-81.287-141.536-121.93-30.082-25.915-60.163-51.829-90.245-77.744-2.378-2.049-4.927-3.1-8.109-3.265l-19.213-.995c-26.601-1.377-53.202-2.755-79.803-4.132-50.218-2.6-100.436-5.2-150.653-7.801l-2.873-.149c-4.942-.256-11,1.329-13.174,6.339-1.912,4.407,1.76,8.785,6.317,9.021,28.692,1.486,57.384,2.971,86.076,4.457,45.705,2.367,91.409,4.733,137.114,7.1,10.454.541,20.908,1.083,31.362,1.624l-4.341-1.646c10.201,8.788,20.403,17.577,30.604,26.365,24.493,21.1,48.985,42.2,73.478,63.3,29.493,25.408,58.987,50.816,88.48,76.224,25.607,22.06,51.214,44.12,76.822,66.18,8.437,7.268,16.873,14.536,25.31,21.804,3.873,3.337,7.687,7.465,11.955,10.299.197.131.37.319.55.474l-1.976-7.375c-11.501,24.135-23.001,48.27-34.502,72.405-18.314,38.433-36.627,76.865-54.941,115.298-4.181,8.773-8.361,17.547-12.542,26.32l5.162-4.982c-21.955,12.674-44.227,24.821-66.555,36.82-49.239,26.461-99.099,51.837-149.859,75.261-27.173,12.539-54.621,24.521-82.497,35.419-11.501,4.496-22.962,9.3-34.94,12.647-2.31.645-4.644,1.202-6.989,1.704-1.354.289-2.712.548-4.071.811-2.119.409-.44.12-2.624.452-6.122.93-12.276,1.611-18.449,2.079-25.616,1.942-53.087,1.426-77.877-5.37-11.196-3.07-20.633-6.851-28.986-14.742-9.119-8.614-14.859-20.299-18.366-32.187-3.41-11.56-4.952-23.628-4.868-35.668.085-12.149,2.736-23.6-1.752-35.377-4.958-13.009-13.793-24.127-23.296-34.117-4.046-4.253-8.266-8.338-12.505-12.398-.839-.803-1.678-1.607-2.517-2.41-.37-.354-.741-.71-1.105-1.071.253.251,1.124,1.168-.05-.071-2.082-2.199-4.568-4.663-5.251-7.726-1.091-4.894,2.477-11.363,4.344-16.056,1.139-2.862.407-5.454-1.976-7.375-7.421-5.984-12.722-16.145-10.462-25.86.72-3.093,2.333-6.088,3.464-9.065,1.845-4.856,3.539-9.773,5.044-14.745,2.515-8.31,5.825-17.918,4.545-26.734-.973-6.699-8.161-11.428-13.034-15.38-7.998-6.488-16.228-12.688-23.926-19.54-3.764-3.35-7.511-6.83-10.697-10.748-1.102-1.355-.113.94-.569-1.23-.344-1.635-.763-3.225-.941-4.894-.809-7.579.096-16.536,3.234-23.66,2.96-6.72,11.05-12.026,17.123-17.431,16.776-14.932,33.629-29.806,49.476-45.735,12.654-12.72,26.016-26.624,33.673-43.094,7.075-15.217,4.287-31.275-1.452-46.371-6.71-17.651-10.43-35.018-6.218-53.859,4.478-20.031,15.066-39.027,25.565-56.462,5.788-9.612,11.997-19.094,18.739-28.095,2.861-3.82,1.818-8.548-2.768-10.332s-11.326-.185-14.343,3.843Z"/>
  </g>
  <path d="M2341.287,2279.792c-.395.057-.772.149-1.148.283-8.155,2.891-101.639,37.372-110.396,101.588-9.157,67.151,45.523,114.494,54.734,104.318,6.018-6.647-12.002-26.485-8.95-60.06s16.788,14.383,38.154,31.61,76.402,28.021,114.462,31.266c44.753,3.816,99.038,9.08,124.487,32.818,28.707,26.778,45.533,34.029,91.009,73.71,37.059,32.335,40.878,92.809,38.544,132.355-.353,5.981,7.185,8.808,10.874,4.087,33.554-42.933,75.931-56.245,113.572-38.769,42.732,19.84,19.84,91.569-10.683,117.514-19.707,16.751-40.051,34.775-51.994,45.445-3.805,3.4-1.988,9.691,3.047,10.52,14.971,2.465,38.856,10.539,53.678,36.521,2.431,4.26,8.581,4.046,10.743-.357,18.118-36.892,71.208-60.698,119.71-57.519,51.975,3.407-63.112-358.016-72.064-385.892-.359-1.117-1.028-2.093-1.936-2.835l-259.036-211.916c-1.322-1.081-3.037-1.557-4.727-1.312l-252.081,36.624Z"/>
  <g>
    <path class="cls-1" d="M2521.95,2164.25c83.925-83.925,741.734-478.734,886.243-486.762,0,0,43.888-19.278,38.729,33.604-5.159,52.882-147.467,316.398-217.479,518.932-62.939,182.074-143.972,408.161-161.534,475.386-1.647,6.304,9.399,32.28,12.324,46.396-42.803,36.508-149.103,93.317-149.103,93.317,0,0-39.468-177.484-107.897-289.765-65.674-107.761-180.192-199.753-296.27-241.622-68.97-24.877-186.257-33.859-186.257-33.859,0,0,99.814-119.228,127.296-128.508,8.542-2.884,53.948,12.881,53.948,12.881Z"/>
    <path d="M2531.282,2164.046c.45-.449.907-.891,1.359-1.338.235-.232.478-.457.714-.688.645-.628-1.338,1.237-.114.11,1.123-1.033,2.243-2.068,3.381-3.084,2.651-2.364,5.357-4.666,8.092-6.931,6.847-5.67,13.88-11.115,20.982-16.46,19.004-14.3,38.533-27.902,58.206-41.262,25.217-17.126,50.19-33.438,75.197-49.423,29.733-19.005,59.689-37.659,89.804-56.051,32.681-19.959,65.552-39.606,98.594-58.961,34.073-19.96,68.328-39.61,102.777-58.915,33.915-19.005,68.017-37.679,102.353-55.912,32.056-17.023,64.315-33.672,96.867-49.729,15.122-7.459,30.309-14.784,45.576-21.943.414-.194,2.503-1.171,1.113-.522.851-.397,1.702-.793,2.554-1.189,1.971-.916,3.944-1.829,5.918-2.739,3.469-1.599,6.943-3.187,10.421-4.765,6.862-3.112,13.743-6.182,20.646-9.201,24.099-10.539,48.47-20.57,73.36-29.102,1.353-.464,2.709-.921,4.064-1.376.616-.207,1.234-.409,1.85-.615-1.86.621-1.245.406.088-.024,2.566-.826,5.135-1.642,7.714-2.428,4.701-1.433,9.428-2.788,14.184-4.027,2.153-.561,4.311-1.098,6.477-1.607,1.079-.253,2.16-.497,3.241-.738.488-.109.979-.206,1.466-.318,1.598-.365-2.71.522-.574.122,3.8-.713,7.591-1.425,11.429-1.915.893-.114,1.788-.21,2.682-.313,2.917-.334-1.413.058.439-.05,3.498-.204,6.815-.725,10.136-1.916.359-.129.711-.283,1.069-.415,2.081-.771.612-.043-.374.097.804-.114,1.663-.479,2.448-.698.535-.149,1.117-.205,1.637-.394-1.411.512-2.184.37-.444.122.683-.097,3.815-.438,2.325-.339-1.416.094,2.044-.015,2.831.015-2.722-.103,2.278.43,1.631.287-.128-.028,2.282.727,3.149,1.122,4.99,2.272,8.269,8.279,9.571,14.144,2.635,11.871.264,23.709-3.221,35.074-3.748,12.222-8.444,24.158-13.257,35.993-14.643,36.005-31,71.319-47.203,106.64-20.844,45.436-41.862,90.792-62.296,136.415-21.758,48.579-42.943,97.435-62.538,146.931-19.608,49.529-36.589,99.987-54.121,150.273-18.769,53.834-37.633,107.636-56.368,161.482-16.428,47.216-32.804,94.453-48.672,141.861-10.459,31.248-21.17,62.55-29.774,94.375-1.93,7.138.026,13.402,2.171,20.354,3.122,10.121,7.004,20.081,9.246,30.451l2.166-3.798c-20.816,17.665-44.304,32.277-67.558,46.466-21.674,13.225-43.697,25.883-65.928,38.146-4.568,2.52-9.141,5.031-13.742,7.491,5.414-.141,10.829-.282,16.243-.424-7.256-32.589-16.49-64.834-26.387-96.703-19.31-62.181-42.121-124.34-74.439-181.055-36.966-64.871-88.61-121.135-147.409-166.856-56.178-43.683-121.015-80.536-190.304-98.35-49.836-12.813-101.428-19.893-152.662-24.241-.999-.085-1.999-.169-2.999-.246l2.964,4.72c17.187-20.524,34.897-40.639,52.979-60.377,13.525-14.764,27.262-29.41,41.816-43.172,5.749-5.436,11.654-10.76,17.923-15.595,1.214-.936,2.443-1.854,3.697-2.738.574-.404,1.156-.797,1.736-1.192.974-.664-1.424.882-.449.289.307-.186.605-.389.918-.565.593-.334,3.744-2.017,2.035-1.19s-.036.002.383-.132c1.441-.463-1.732.549-1.564.504-1.132.302-2.242.426-3.398.559,2.176-.249-.755-.215,1.255.04,1.028.13,2.054.248,3.079.408,2.411.378,4.808.873,7.186,1.421,5.349,1.232,10.638,2.753,15.898,4.319,6.787,2.021,13.545,4.166,20.237,6.486,4.482,1.553,10.277.042,14.285-2.195,2.218-1.238,6.632-5.206,2.082-6.783-15.649-5.424-32.073-11.184-48.544-13.327-17.305-2.252-30.629,7.959-42.974,18.687-31.131,27.056-58.577,58.694-85.619,89.735-7.274,8.35-14.513,16.734-21.623,25.225-2.102,2.51.383,4.521,2.964,4.72,43.835,3.371,87.831,9.462,130.814,18.658,68.588,14.673,132.084,46.202,188.933,86.902,60.832,43.552,115.253,98.165,155.228,161.62,34.848,55.317,58.754,117.449,78.985,179.37,8.189,25.065,15.68,50.361,22.507,75.831,3.454,12.885,6.229,25.976,9.767,38.83.165.601.281,1.221.416,1.83,1.2,5.388,13.719.926,16.243-.424,39.292-21.008,78.054-43.467,115.13-68.185,12.332-8.221,24.538-16.748,35.848-26.346,1.032-.875,2.506-2.225,2.166-3.798-2.152-9.954-5.827-19.536-8.868-29.238-2.03-6.477-4.407-12.687-2.669-19.117,3.272-12.105,6.973-24.096,10.734-36.056,11.403-36.255,23.641-72.25,35.938-108.21,32.887-96.169,66.796-191.986,100.164-287.988,15.763-45.353,31.772-90.497,49.819-135.005,18.371-45.309,37.943-90.124,57.981-134.718,33.957-75.57,70.477-150.115,102.44-226.564,5.001-11.96,9.871-23.995,14.129-36.243,2.764-7.951,5.557-16.142,6.737-24.511,1.81-12.84,1.592-30.608-10.908-38.294-9.907-6.092-23.104-4.605-33.806-1.626-2.579.718-5.205,1.524-7.668,2.597l7.93-1.666c-20.62,1.19-40.883,6.918-60.429,13.28-27.684,9.012-54.706,19.919-81.391,31.534-33.159,14.433-65.839,29.973-98.238,46.031-36.352,18.018-72.348,36.75-108.103,55.922-38.029,20.391-75.784,41.293-113.316,62.586-37.512,21.281-74.801,42.956-111.87,65-35.303,20.994-70.41,42.321-105.269,64.045-31.275,19.489-62.358,39.293-93.129,59.57-24.532,16.166-48.894,32.615-72.741,49.779-16.141,11.618-32.316,23.439-47.173,36.69-2.748,2.451-5.444,4.966-8.052,7.567-3.429,3.419,2.936,4.867,5.195,4.833,4.814-.071,10.027-1.809,13.468-5.241Z"/>
  </g>
  <g>
    <path class="cls-1" d="M2521.95,2164.25c177.735,39.29,223.177,85.88,316.882,173.01,93.705,87.129,221.124,322.742,241.935,413.555"/>
    <path d="M2515.604,2169.252c61.122,13.554,122.565,30.892,177.409,61.837,42.843,24.173,79.497,57.128,115.365,90.421,18.652,17.313,36.99,34.566,53.524,53.958,18.244,21.398,35.016,44.04,50.977,67.178,35.458,51.403,67.144,105.514,95.697,161.032,22.673,44.085,45.063,89.787,58.848,137.578,1.172,4.064,2.249,8.155,3.202,12.276,1.397,6.042,21.754.921,20.284-5.435-4.598-19.889-11.797-39.182-19.429-58.077-10.096-24.993-21.455-49.475-33.439-73.613-27.856-56.106-59.142-110.655-93.753-162.869-30.3-45.711-63.232-89.548-103.457-127.01-36.72-34.197-73.417-69.014-116.274-95.54-51.277-31.738-108.764-50.557-167.007-64.915-9.723-2.397-19.478-4.657-29.254-6.825-4.468-.991-10.895.918-14.343,3.843-3.267,2.771-2.371,5.269,1.651,6.161h0Z"/>
  </g>
  <path d="M2368.293,2628.505c4.958-7.163,9.916-14.326,14.874-21.489l9.607-13.879c1.6-2.312,3.202-5.429,5.457-7.192.62-.485,1.886-.911,1.586-.888-1.179.09,2.416.552,2.655.613.364.093.722.216,1.083.32,2.444.701,4.879,1.44,7.318,2.159,9.633,2.843,19.266,5.685,28.9,8.528,21.309,6.288,42.618,12.576,63.926,18.864,7.009,2.068,13.588,3.688,16.775,11.394,2.671,6.458,3.743,13.933,5.459,20.667,2.994,11.746,5.987,23.492,8.981,35.238,1.711,6.715,3.933,13.492,5.124,20.329,1.804,10.356-6.55,16.931-12.718,23.771-7.748,8.591-15.496,17.182-23.244,25.773-1.805,2.002-3.594,4.015-5.452,5.968-1.991,2.093-2.956,1.388-6.281.35-6.658-2.079-13.276-4.294-19.912-6.441-22.279-7.206-44.558-14.412-66.837-21.618-4.793-1.55-9.938-2.747-14.581-4.716-9.113-3.864-10.15-13.448-11.955-21.872-4.351-20.305-8.842-40.586-13.054-60.92-1.112-5.367-.745-10.199,2.292-14.958,2.966-4.647-2.564-7.274-6.46-7.477-5.21-.272-12.279,1.838-15.255,6.502-6.775,10.617-4.058,20.748-1.666,31.911l7.811,36.452c1.707,7.964,3.19,16.015,5.127,23.927,2.92,11.928,12.213,17.466,23.037,20.967,21.63,6.996,43.259,13.992,64.889,20.988,9.585,3.1,19.17,6.2,28.755,9.301,12.999,4.205,26.884,3.781,38.512-4.387,7.993-5.614,14.269-14.439,20.742-21.617,7.082-7.852,14.239-15.643,21.248-23.56,5.278-5.962,8.778-12.453,8.531-20.618-.105-3.47-.969-6.604-1.815-9.924l-8.282-32.498-8.142-31.948c-2.859-11.219-9.529-18.735-20.805-22.246-18.782-5.847-37.755-11.141-56.622-16.709-17.111-5.049-34.157-10.592-51.402-15.168-11.123-2.951-23.895-.545-33.298,6.086-4.637,3.27-7.872,7.509-11.038,12.083-6.848,9.894-13.696,19.787-20.544,29.681-1.679,2.426-3.359,4.853-5.038,7.279-3.169,4.579,2.724,7.282,6.46,7.477,5.387.282,12.067-1.896,15.255-6.502Z"/>
  <path d="M2403.08,2652.455c1.12-13.907-.577-32.423-5.411-42.222-.844-1.711.627-3.672,2.509-3.363,38.908,6.383,89.94,33.353,98.02,61.183,7.224,24.883-28.131,55.26-59.058,65.865-2.626.901-4.36-2.718-2.042-4.247,17.033-11.237,17.62-17.138,20.168-23.612.345-.878.107-1.861-.552-2.537-12.859-13.193-16.059-37.614-4.644-48.881.44-.434.734-1.008.747-1.625.345-16.853-21.827-28.381-35.077-29.098-1.525-.083-2.686,1.257-2.475,2.77,1.326,9.515-3.503,20.026-7.788,27.17-1.282,2.137-4.598,1.082-4.398-1.402Z"/>
  <path d="M2219.164,2841.499c5.449,4.978,13.473,19.903,13.473,19.903,0,0,9.682-13.293,24.655-11.471,11.396,1.387,56.276,34.078,77.066,49.616,1.911,1.428.323,4.426-1.93,3.644-19.64-6.817-56.239-19.226-65.341-20.268-12.605-1.444-28.543-6.366-30.573-6.69s-15.287-7.973-15.287-7.973l-5.307-12.198,3.245-14.562Z"/>
  <g>
    <path class="cls-1" d="M2278.207,3045.52c-11.31-15.822-20.633-9.843-25.116,8.888-9.909,41.396,1.016,79.61-.215,114.096-1.616,45.236-102.842,92.094-62.758,189.14,40.084,97.046,348.101,101.266,531.645,29.536,183.544-71.73,466.244-162.447,518.987-170.886,52.743-8.439,71.73-69.62,54.852-94.937-16.878-25.316-101.266-94.937-88.607-141.35,12.658-46.413,124.472-257.384,14.768-282.7s-362.948,102.61-428.468,130.82c-107.902,46.458-116.894,142.371-227.295,194.582-21.564,10.198-59.704,27.076-85.454,35.535-78.824,25.896-165.636,38.615-202.338-12.726Z"/>
    <path d="M2287.466,3040.957c-5.014-6.759-11.745-12.761-20.718-12.307-8.654.438-15.274,5.826-19.33,13.171-4.652,8.424-6.172,18.994-7.401,28.404-1.35,10.332-1.617,20.776-1.291,31.182.601,19.151,3.416,38.164,3.885,57.317.141,5.764.307,11.58-.989,17.229-.27,1.176.376-1.246.036-.075-.126.435-.255.871-.403,1.299-.302.874-.6,1.745-.937,2.607-.789,2.021-1.706,3.99-2.703,5.917-.939,1.815-1.955,3.59-3.021,5.334-.713,1.168.672-1.05-.076.118-.291.454-.584.905-.881,1.355-.757,1.15-1.533,2.286-2.323,3.414-2.765,3.952-5.697,7.786-8.671,11.582-6.764,8.632-13.766,17.078-20.301,25.888-14.591,19.67-27.025,41.38-30.78,65.919-3.699,24.175,1.196,52.371,14.662,73.038,9.454,14.508,23.981,25.329,39.022,33.487,42.71,23.163,93.154,31.386,141.007,35.513,60.86,5.249,122.483,3.013,183.024-4.785,60.345-7.773,120.274-20.962,177.067-43.062,60.727-23.631,122.033-45.741,183.608-67.06,61.163-21.177,122.594-41.602,184.337-61.024,42.753-13.448,85.66-27.066,129.219-37.711,5.689-1.39,11.396-2.627,17.14-3.758,2.29-.451-1.23.199-.889.141,2.05-.352,4.106-.658,6.143-1.077,3.487-.718,6.896-1.709,10.244-2.917,7.324-2.643,14.131-6.105,20.511-10.589,20.275-14.251,34.415-39.118,35.196-64.036.32-10.196-1.517-20.568-7.308-29.141-5.038-7.458-11.526-14.032-17.624-20.61-18.087-19.511-36.735-38.756-51.885-60.719-6.909-10.016-13.29-20.667-16.766-32.407-1.484-5.013-2.397-9.857-2.246-14.585.075-2.368.427-4.657.851-6.982.379-2.078-.319.943.201-.877.206-.719.428-1.433.652-2.146,4.767-15.145,11.264-29.796,17.17-44.516,17.426-43.431,34.828-87.997,42.209-134.433,6.013-37.828,4.516-84.561-34.688-103.671-18.555-9.045-41.213-9.785-61.442-8.947-24.846,1.03-49.583,5.591-73.736,11.315-55.77,13.217-109.869,33.453-162.822,55.154-44.24,18.13-87.702,38.013-131.174,57.89-20.19,9.232-40.61,17.648-59.406,29.628-25.538,16.277-46.951,37.876-66.406,60.901-18.905,22.373-36.48,45.907-57.276,66.616-22.623,22.529-48.8,39.319-77.7,52.623-31.184,14.356-62.789,27.62-95.809,37.155-32.178,9.292-66.46,17.053-100.179,15.157-26.526-1.492-52.786-9.619-69.003-31.919-5.673-7.8-24.908.34-18.519,9.125,17.302,23.792,45.306,34.837,73.83,37.63,34.189,3.348,68.972-2.612,102.018-11.081,34.133-8.747,66.86-21.235,99.068-35.424,30.203-13.307,59.276-27.905,84.618-49.386,44.329-37.576,73.033-89.978,118.191-126.543,11.918-9.65,24.74-17.999,38.445-24.884,8.462-4.251,17.236-7.856,25.865-11.752,17.151-7.744,34.216-15.678,51.353-23.454,47.609-21.605,96.663-42.863,145.029-60.633,26.119-9.596,52.535-18.456,79.356-25.891,12.774-3.541,25.643-6.753,38.618-9.469,12.577-2.633,21.657-4.223,34.49-5.677,10.718-1.215,21.495-1.876,32.283-1.705.61.01,1.221.025,1.83.044-.404-.012-1.859-.081.096.011,1.189.056,2.378.117,3.565.195,2.457.161,4.91.378,7.356.659,4.492.517,8.971,1.237,13.375,2.266,1.856.434.744.187.345.081.585.155,1.172.317,1.752.492,1.134.342,2.264.694,3.382,1.084,2.402.836,4.736,1.825,7.033,2.916.49.232.98.48,1.457.735-.323-.173-1.314-.747.132.107.906.535,1.807,1.076,2.688,1.654,1.82,1.193,3.567,2.497,5.226,3.905,2.702,2.294,4.592,4.322,7.29,8.135,2.487,3.515,4.255,6.879,5.412,9.672,7.434,17.944,7.106,36.73,4.94,55.82-2.573,22.681-8.336,44.937-15.188,66.666-12.126,38.451-28.92,75.019-42.474,112.917-2.536,7.09-5.008,14.367-4.919,21.984.139,11.835,4.091,22.75,9.29,33.236,11.788,23.777,30.133,44.131,47.96,63.514,7.79,8.47,15.772,16.767,23.429,25.358,2.813,3.156,5.603,6.349,8.153,9.724,2.765,3.658,3.988,5.769,5.16,9.516,6.074,19.432-2.445,42.866-15.919,57.947-7.808,8.739-17.874,14.69-28.993,17.392-.83.202-1.664.379-2.499.56-.38.083-3.042.59-1.349.276,1.441-.267-2.532.419-3.134.525-1.157.203-2.312.417-3.465.644-2.799.55-5.585,1.164-8.364,1.804-16.37,3.767-32.564,8.327-48.708,12.951-52.141,14.936-103.845,31.429-155.385,48.307-63.065,20.652-125.865,42.132-188.312,64.586-30.596,11.002-61.105,22.25-91.478,33.854-26.673,10.191-51.827,19.846-79.763,27.575-58.053,16.061-117.816,24.911-177.938,28.264-55.856,3.115-112.582,1.702-167.65-8.874-21.816-4.19-42.909-9.768-63.764-18.87-9.172-4.003-15.243-7.115-23.544-12.663-3.523-2.355-6.933-4.882-10.172-7.616-3.865-3.262-4.749-4.1-7.807-7.558-2.479-2.804-4.761-5.786-6.773-8.943-.948-1.488-1.808-3.018-2.654-4.566-.209-.383-.401-.775-.597-1.165-.532-1.058.527,1.155.037.08-.52-1.142-1.003-2.298-1.471-3.463-5.21-12.983-8.693-26.905-8.664-40.956.049-23.664,9.633-45.652,22.508-64.442,11.699-17.073,26.098-32.176,37.43-49.494,5.03-7.687,9.432-15.654,11.398-24.708,1.234-5.683.984-11.62.82-17.395-.273-9.604-1.137-19.185-1.972-28.753-1.629-18.672-3.032-37.429-.939-56.128.963-8.606,1.868-18.959,6.331-26.604.421-.722,1.434-2.206,1.548-2.173.115.033-6.256,2.97-5.096,1.169.396-.614,5.094,4.955,5.883,6.017,5.747,7.747,24.98-.416,18.519-9.125Z"/>
  </g>
  <path d="M3183.995,2969.229c11.998-26.747,22.52-54.27,31.982-82.003,7.871-23.069,14.97-46.516,20.001-70.383,4.102-19.461,7.417-40.144,4.3-60.003-1.129-7.193-3.519-14.735-8.116-20.502-5.983-7.504-14.559-10.567-23.603-12.827-31.489-7.869-67.619-5.004-97.932,6.196-34.194,12.634-58.813,39.206-72.515,72.664-10.974,26.795-16.288,57.381-11.724,86.172,4.473,28.215,14.73,55.653,24.641,82.318,12.109,32.578,25.356,64.717,38.078,97.056,5.99,15.227,11.889,30.496,17.389,45.908,5.544,15.536,12.525,31.836,11.4,48.607-.571,8.514-2.606,16.76-5.991,24.585-1.099,2.54-2.324,5.028-3.729,7.414,1.015-1.723-.9,1.283-1.178,1.66-.754,1.024-1.551,2.015-2.375,2.983-.702.825-1.427,1.629-2.168,2.418-.484.515-.979,1.018-1.473,1.523-1.041,1.064.971-.911-.133.144-2.147,2.052-4.408,3.988-6.72,5.851-4.939,3.979-10.16,7.642-15.548,10.987-11.078,6.878-25.709,13.959-38.972,19.104-5.583,2.166-13.424,4.722-20.071,6.554-6.547,1.804-14.388,3.571-19.869,4.373-6.751.988-13.568,1.543-20.393,1.476-1.301-.013-5.214-.27-7.917-.613-1.506-.191-3.007-.425-4.5-.706-1.377-.259-3.322-.728-3.375-.743-11.486-3.225-21.445-10.496-29.259-20.48-21.155-27.031-12.045-61.499-4.825-91.901,7.872-33.148,17.251-65.917,25.155-99.058,7.817-32.775,14.755-66.223,15.892-99.999.945-28.062-2.117-57.669-17.193-82.036-6.034-9.753-14.159-19.585-24.823-24.379-9.28-4.171-20.057-4.857-30.081-4.299-27.401,1.527-54.478,12.218-78.761,24.355-28.679,14.334-55.877,32.599-79.384,54.441-22.464,20.873-43.943,45.65-50.883,76.265-7.794,34.383.639,71.674,12.644,104.066,6.177,16.668,13.734,32.879,22.404,48.395,8.151,14.588,18.054,28.07,25.914,42.83,9.128,17.142,16.402,35.391,21.348,54.178,4.339,16.482,7.07,33.74,5.111,50.788-1.34,11.66-5.163,21.027-12.162,29.97-7.551,9.648-15.919,16.595-26.436,23.838-21.845,15.043-48.069,25.866-73.957,32.892-13.155,3.57-23.377,5.656-35.933,6.841-2.824.266-5.655.466-8.49.579-1.203.048-2.406.082-3.61.097-.733.009-1.467.012-2.2.009-.296-.001-2.994-.05-1.693-.012.898.027-2.274-.125-2.826-.166-1.055-.077-2.11-.171-3.161-.288-2.342-.259-4.633-.696-6.948-1.112-2.201-.395,1.219.493-1.278-.331-.818-.27-1.643-.508-2.453-.804-2.757-1.007-5.321-2.373-7.814-3.918-6.782-4.204-12.659-9.461-17.488-15.813-9.251-12.168-14.092-26.842-16.618-41.777-1.947-11.514-2.565-23.023-1.28-34.633,1.356-12.254,3.824-24.376,6.191-36.466,5.485-28.005,11.582-56.566,10.52-85.265-.981-26.515-9.089-53.461-32.603-68.481-21.505-13.737-50.487-10.299-74.088-4.838-28.442,6.581-57.486,19.407-78.957,39.557-10.238,9.608-19.461,21.185-23.483,34.851-4.99,16.956-3.734,34.934-1.045,52.191,3.131,20.094,8.608,39.766,14.193,59.291,4.929,17.232,11.395,34.566,11.409,52.699.013,15.856-3.655,31.515-11.569,45.313-3.156,5.502-7.49,10.988-12.024,15.045-4.631,4.144-10.57,7.857-14.918,9.498-11.868,4.481-23.121,2.659-35.982-.499-1.049-.258-2.098-.517-3.147-.776-.489-.12-.977-.242-1.465-.364,1.859.464.474.119.091.022-2.703-.688-5.403-1.388-8.095-2.119-5.395-1.465-10.762-3.037-16.077-4.77-21.468-7.002-45.194-16.518-57.86-35.635-5.918-8.933-7.783-19.642-5.814-30.663,1.65-9.231,5.236-18.334,8.625-27.042,3.222-8.278,6.873-16.393,11.017-24.252,5.367-10.178,11.598-19.891,19.007-28.711,2.067-2.461,4.342-4.701,6.483-7.085.805-.896-2.054,1.817-.435.431.264-.226.518-.472.773-.708.208-.192.423-.377.641-.557,3.423-2.826,5.092-7.909.96-10.971-4.05-3.001-10.859-1.974-14.579,1.097-13.359,11.03-23.321,27.071-31.415,42.081-8.987,16.666-16.374,34.844-20.865,53.257-3.046,12.487-1.792,25.28,3.938,36.779,10.917,21.907,35.762,34.338,57.628,42.547,10.631,3.991,21.547,7.173,32.539,9.999,12.016,3.089,23.952,6.529,36.473,6.364,32.616-.431,59.501-24.226,70.303-53.939,5.696-15.667,7.401-32.205,5.607-48.74-2.097-19.318-9.524-38.189-14.657-56.851-5.199-18.905-10.076-38.119-11.98-57.68-1.49-15.312-.775-31.412,7.083-45.002,12.871-22.26,40.081-36.922,63.24-44.823,13.376-4.563,25.518-7.379,38.575-8.425,6.724-.539,11.099-.583,16.503-.027,2.45.252,4.869.644,7.284,1.122.534.105,1.073.231,1.601.364-1.847-.465-.121-.017.33.138,1.199.413,2.405.775,3.584,1.249,1.002.403,1.986.845,2.949,1.333-1.79-.908,1.452.916,2.077,1.315,2.964,1.893,5.809,4.03,8.378,6.437,3.989,3.738,7.497,8.62,10.205,13.543,5.719,10.399,8.143,23.132,8.828,34.988,1.654,28.632-4.365,57.333-9.841,85.273-2.437,12.431-5.011,24.879-6.531,37.464-1.444,11.955-.971,23.801.659,35.73,4.221,30.895,19.726,62.279,50.195,74.581,20.858,8.422,46.645,4.425,67.944.158,27.926-5.595,55.517-15.53,80.516-29.184,22.688-12.393,45.642-28.646,58.315-51.816,15.397-28.15,7.723-65.47-1.751-94.225-6.072-18.432-14.212-36.296-23.976-53.063-8.347-14.336-17.914-27.785-25.602-42.531-16.137-30.949-29.077-66.123-30.963-101.256-.868-16.179.523-32.904,6.769-47.994,5.474-13.226,14.463-24.936,23.844-35.624,20.22-23.037,45.246-42.238,71.655-57.656,24.642-14.386,49.325-25.982,77.117-30.785-2.076.359,1.242-.174,1.932-.267,1.364-.184,2.731-.344,4.101-.477,2.736-.266,5.484-.427,8.233-.442.667-.004,3.715.134,1.459,0,1.3.077,2.596.167,3.891.314.993.113,1.984.25,2.97.418.742.127,4.094.94,1.844.319,1.966.543,3.812,1.272,5.702,2.023,2.183.867-.284-.305.853.42.966.615,1.921,1.213,2.827,1.918,4.417,3.434,8.085,8.078,11.299,12.615,15.727,22.197,18.813,50.887,18.05,77.364-.972,33.722-7.834,67.141-15.596,99.864-7.925,33.409-17.385,66.432-25.339,99.833-7.593,31.887-15.839,66.605,3.682,96.041,7.652,11.539,19.078,21.428,31.737,27.092,12.016,5.376,25.79,6.536,38.795,6.053,30.564-1.136,61.262-11.659,88.366-25.334,21.501-10.848,46.397-25.353,57.816-47.578,8.564-16.669,11.762-36.916,7.368-55.223-3.466-14.438-9.174-28.608-14.33-42.506-12.007-32.367-25.208-64.277-37.833-96.405-11.75-29.902-23.528-60.019-32.074-91.027-3.027-10.984-6-23.43-6.864-34.083-1.059-13.052.613-28.458,3.446-41.953,6.543-31.173,22.476-63.877,50.417-81.095,26.222-16.158,61.453-19.79,91.397-15.112,6.284.982,10.492,1.813,16.387,4.173.291.116,3.089,1.38,1.653.654-1.351-.683.866.534,1.154.741.534.384,1.049.798,1.585,1.177.27.191.491.438.75.64,1.297,1.011-1.077-1.247-.072-.089s1.963,2.302,2.799,3.588c.381.587.705,1.206,1.074,1.799,1.058,1.695-.221-.941.648,1.334,1.329,3.477,2.351,6.971,2.983,10.645.857,4.973.887,6.085.967,11.064.076,4.702-.139,9.406-.53,14.091-.904,10.829-2.742,21.572-4.995,32.195-9.067,42.751-24.484,84.592-41.137,125.201-3.116,7.598-6.276,15.187-9.637,22.681-4.842,10.794,15.606,11.342,19.491,2.682h0Z"/>
  <path d="M2398.877,2767.501c26.55,15.676,59.328,23.908,81.971,27.684,5.631.939,7.233,8.217,2.562,11.5-26.718,18.785-45.823,47.776-54.434,76.26-1.843,6.094-11.174,2.739-11.686-3.608-2.718-33.654-17.252-76.18-27.658-104.087-2.123-5.692,4.013-10.838,9.244-7.749Z"/>
  <path d="M2520.728,2577.223c-23.957-14.652-53.692-22.613-74.26-26.372-5.115-.935-6.47-7.585-2.171-10.509,24.599-16.729,43.421-44.959,56.417-66.808,2.965-4.984,11.279-2.307,10.592,3.451-3.774,31.607,8.869,67.75,17.951,93.312,1.852,5.214-3.808,9.814-8.529,6.926Z"/>
  <path d="M2771.448,2710.985c-13.361,3.82-27.709,7.303-39.006,15.805-11.148,8.39-17.453,21.516-22.874,33.996-2.223,5.119-6.982,13.153-5.657,19.047,1.736,7.719,12.07,6.593,17.34,3.837,2.204-1.153,4.259-2.706,6.314-4.109.963-.657,1.923-1.32,2.906-1.945-1.968,1.251,1.5-.822,2.147-1.15.695-.352,3.567-1.43,1.308-.706.672-.216,1.345-.398,2.025-.582,1.237-.334-2.15-.38.096.026.375.068,1.977.287-.17-.019,2.003.285.235.116.06-.042.198.18,1.977,1.008,1.994,1.025,4.38,4.14,3.399,12.329,1.825,17.975-1.96,7.032-6.301,14.868-11.212,19.109-3.375,2.915-5.11,7.949-.933,11.073,3.992,2.986,10.931,2.086,14.586-1.07,11.014-9.513,19.421-24.851,19.435-39.667.007-7.089-1.897-13.897-7.336-18.732-5.76-5.121-13.752-6.153-21.076-4.69-6.267,1.251-11.804,4.415-17.08,7.887-1.751,1.152-3.506,2.325-5.215,3.539,2.106-1.496.776.059.184-.229l13.126,3.326.123,1.412c-.08-.027.172-1.301.245-1.478-.628,1.538.725-1.923.935-2.484.714-1.91,1.498-3.794,2.29-5.673,1.655-3.929,3.38-7.835,5.252-11.666,2.757-5.642,5.209-9.847,9.23-14.614.365-.433.772-.847,1.168-1.253-1.354,1.389.363-.319.69-.588,1.067-.88,2.15-1.705,3.269-2.516,2.156-1.562-1.188.649.252-.175.621-.355,1.241-.709,1.873-1.043,1.326-.7,2.685-1.335,4.06-1.93.73-.316,1.467-.612,2.205-.908.703-.274.603-.24-.299.102.487-.178.975-.352,1.465-.522,1.745-.595,3.491-1.179,5.249-1.731,4.363-1.369,8.764-2.618,13.16-3.875,4.182-1.196,9.513-5.067,8.165-10.098-1.326-4.948-7.984-5.846-12.12-4.663h0Z"/>
  <path d="M2234.543,2771.943c8.21.29,19.225,4.133,19.648,13.968.142,3.296,20.522.088,20.284-5.435-.548-12.743-16.877-16.296-26.733-16.644-4.698-.166-10.406,1.225-14.343,3.843-3.079,2.047-2.918,4.125,1.144,4.268h0Z"/>
</svg>