<?xml version="1.0" encoding="UTF-8"?>
<svg xmlns="http://www.w3.org/2000/svg" viewBox="0 0 2205.229 530.022">
  <defs>
    <style>
      .cls-1 {
        fill: none;
      }

      .cls-2, .cls-3 {
        fill: #fff;
      }

      .cls-4 {
        fill: #e44424;
      }

      .cls-3 {
        stroke: #e44424;
        stroke-miterlimit: 10;
        stroke-width: 4px;
      }
    </style>
  </defs>
  <g id="Layer_2" data-name="Layer 2">
    <g>
      <path class="cls-2" d="M1858.767,242.022l-19.94-5.761c-2.847-.84-5.912.241-7.602,2.682l-8.884,12.834c-1.08,1.561-1.468,3.499-1.07,5.356l4.878,22.763c.515,2.402,2.271,4.347,4.609,5.103l11.065,3.214,17.553-15.302,4.935-13.304-5.544-17.585Z"/>
      <path class="cls-4" d="M1861.104,240.738c-5.365-1.55-10.73-3.1-16.095-4.65-5.645-1.631-11.492-2.596-15.975,2.36-3.464,3.83-6.427,8.774-9.185,13.134-2.973,4.7-.631,10.273.444,15.286,1.038,4.844,1.254,11.67,3.862,16.026,2.501,4.177,10.788,5.807,15.23,6.573,4.488.774,7.853-3.68,10.894-6.331,3.637-3.171,9.308-6.574,11.976-10.651,1.525-2.33,2.171-5.853,3.133-8.446.63-1.698,1.788-3.665,1.738-5.465-.08-2.89-2.129-6.754-2.988-9.477-.825-2.617-1.65-5.235-2.475-7.852-.546-1.731-6.319-.106-5.796,1.553,1.559,4.946,3.118,9.892,4.678,14.837.594,1.884.807,2.144.453,3.557-.723,2.89-2.137,5.76-3.173,8.554-.382,1.03-.726,2.085-1.149,3.099-.41.981.862-.769-.081.193-1.741,1.775-3.804,3.317-5.679,4.95-3.791,3.305-7.583,6.61-11.374,9.916l4.617-.974c-3.397-.987-6.911-1.799-10.245-2.976-3.663-1.294-4.645-3.794-5.376-7.201l-2.653-12.383c-.634-2.958-1.758-6.182-1.735-9.231.029-3.821,3.77-7.626,5.853-10.635,1.632-2.358,3.574-6.975,6.978-6.816,3.334.155,7.208,2.083,10.411,3.008,3.012.87,6.024,1.741,9.037,2.611,1.562.451,6.759-1.965,4.676-2.567Z"/>
    </g>
    <path class="cls-4" d="M1861.311,254.722c-6.339.233-9.538.896-16.346-1.306-.703-.227-1.227.656-.694,1.168,7.567,7.264,8.452,7.446,12.071,7.978.467.069.71.574.501.997-1.275,2.57-.898,7.416-.014,9.563.199.482.845.571,1.178.169l7.357-8.878c.164-.198.206-.47.109-.707l-3.487-8.549c-.11-.271-.382-.444-.674-.434Z"/>
    <path class="cls-3" d="M1874.975,207.485s-14.14,18.844-15.1,31.327,5.554,15.626,4.114,24.748c-1.44,9.122-20.012,24.137-31.122,34.304-3.447,3.155-3.386,12.121-2.029,13.725,4.885,5.774,14.32,11.496,14.748,13.424.639,2.881-2.241,11.042-3.682,14.403s-.221,8.297,3.682,11.308c-1.847,4.655-2.671,6.297.616,9.583,3.287,3.286,13.965,12.321,12.87,20.808s.251,23.677,10.598,30.144c10.347,6.467,35.826,6.1,45.916,2.587,44.015-15.326,105.03-50.557,105.03-50.557l32.306-67.796-97.311-83.832-80.635-4.175Z"/>
    <path class="cls-4" d="M1881.239,161.814c-.125.018-.245.047-.364.09-2.583.916-32.196,11.838-34.97,32.18-2.901,21.271,14.42,36.268,17.338,33.045,1.906-2.106-3.802-8.39-2.835-19.025.967-10.636,5.318,4.556,12.086,10.013,6.768,5.457,24.202,8.876,36.258,9.904,14.176,1.209,31.372,2.876,39.434,10.396,9.094,8.482,14.424,10.78,28.829,23.349,11.739,10.243,12.949,29.399,12.21,41.926-.112,1.895,2.276,2.79,3.445,1.295,10.629-13.6,24.053-17.817,35.976-12.281,13.536,6.285,6.285,29.006-3.384,37.225-6.243,5.306-12.687,11.016-16.47,14.396-1.205,1.077-.63,3.07.965,3.333,4.742.781,12.308,3.338,17.004,11.569.77,1.35,2.718,1.282,3.403-.113,5.739-11.686,22.557-19.227,37.921-18.22,16.464,1.079-19.992-113.409-22.828-122.239-.114-.354-.326-.663-.613-.898l-82.055-67.129c-.419-.342-.962-.493-1.497-.415l-79.852,11.601Z"/>
    <g>
      <path class="cls-2" d="M1938.468,125.214c26.585-26.585,205.664-119.606,251.44-122.149,0,0,13.903-6.107,12.268,10.645-1.634,16.752-26.671,64.209-48.848,128.365-19.937,57.676-39.993,125.484-45.557,146.779-.522,1.997,6.618,18.008,7.544,22.48-13.559,11.565-47.231,29.56-47.231,29.56,0,0-12.502-56.222-34.179-91.789-20.803-34.136-57.079-63.276-93.85-76.539-21.848-7.88-59.001-10.726-59.001-10.726,0,0,31.618-37.768,40.324-40.707,2.706-.914,17.089,4.08,17.089,4.08Z"/>
      <path class="cls-4" d="M1940.86,125.944c8.103-8.018,18.452-14.112,28.052-20.117,15.929-9.965,32.318-19.197,48.844-28.131,37.077-20.043,75.025-38.851,114.037-54.849,14.669-6.015,29.609-11.863,45.032-15.663,4.775-1.177,9.761-1.45,14.468-2.641,1.126-.285,3.842-1.095,5.661.151,3.452,2.364,2.57,8.413,1.904,11.911-1.45,7.616-4.559,14.973-7.416,22.141-4.418,11.086-9.139,22.051-13.742,33.061-12.19,29.156-23.398,58.614-33.432,88.583-9.65,28.822-18.763,57.828-27.463,86.951-3.141,10.513-6.232,21.043-9.188,31.61-.897,3.208-2.577,6.978-2.783,10.309-.204,3.313,1.923,7.14,3.065,10.148,1.582,4.169,3.494,8.349,4.518,12.701l1.017-1.947c-13.923,11.692-30.607,20.64-46.588,29.192l4.136.762c-6.785-30.387-16.804-61.579-32.297-88.66-11.714-20.476-28.134-38.154-46.696-52.604-17.762-13.827-38.284-25.455-60.185-31.142-16.179-4.201-33.047-6.533-49.705-7.825l1.348,2.685c7.447-8.888,15.145-17.603,23.184-25.959,4.164-4.328,9.044-10.593,14.567-13.258,1.349-.651.4-.359,1.88-.201,1.885.201,3.817.844,5.639,1.359,2.704.764,5.388,1.613,8.045,2.53,2.263.782,6.806-2.486,3.412-3.657-5.463-1.886-13.423-5.62-19.28-4.061-5.64,1.501-10.71,7.467-14.671,11.381-9.718,9.605-18.787,19.935-27.56,30.405-1.092,1.304-.231,2.563,1.348,2.685,13.945,1.082,27.96,2.987,41.624,5.968,21.777,4.751,41.866,14.814,59.895,27.803,19.241,13.862,36.314,31.252,48.881,51.424,10.855,17.424,18.299,36.952,24.624,56.408,3.876,11.923,7.418,24.03,10.151,36.273.361,1.616,3.145,1.292,4.136.762,16.403-8.779,33.586-17.928,47.875-29.928.586-.493,1.217-1.094,1.017-1.947-1.067-4.533-3.077-8.885-4.718-13.228-1.246-3.298-3.203-6.795-2.386-10.314,2.13-9.176,5.07-18.237,7.715-27.273,8.49-28.997,17.458-57.861,26.877-86.569,10.565-32.203,22.144-63.946,35.145-95.248,4.931-11.871,10.017-23.679,14.843-35.593,3.153-7.784,6.455-15.687,8.477-23.861,1.526-6.165,2.534-15.876-5.215-18.062-2.63-.742-5.542-.39-8.13.355-.475.137-2.873.769-1.591.56,1.296-.211-.564-.079-.902-.065-.672.027-1.353.15-2.017.24-14.039,1.906-27.722,6.98-40.914,11.935-40.005,15.026-78.658,34.015-116.443,53.892-17.918,9.426-35.671,19.195-53.049,29.587-11.996,7.173-24.238,14.473-35.076,23.351-1.638,1.342-3.246,2.726-4.752,4.216-2.521,2.495,3.101,3.126,4.784,1.461Z"/>
    </g>
    <g>
      <path class="cls-2" d="M1938.468,125.214c56.301,12.446,70.696,27.204,100.379,54.804s70.045,102.235,76.638,131.002"/>
      <path class="cls-4" d="M1936.787,127.139c19.396,4.33,38.98,9.7,56.384,19.555,13.614,7.709,25.272,18.103,36.684,28.694,26.697,24.778,46.089,56.143,62.744,88.317,7.876,15.216,16.036,31.306,19.987,48.091.618,2.627,6.423,1.112,5.796-1.553-3.4-14.443-10.088-28.259-16.634-41.488-8.875-17.935-18.838-35.377-29.896-52.057-9.695-14.623-20.253-28.543-33.118-40.523-11.539-10.745-23.068-21.689-36.507-30.065-18.894-11.777-40.521-18.008-62.079-22.821-2.442-.545-6.852,3.071-3.361,3.85h0Z"/>
    </g>
    <path class="cls-4" d="M1889.012,272.03c1.481-2.139,2.961-4.278,4.442-6.417,1.344-1.942,2.689-4.831,4.442-6.417,2.271-2.055,3.896-.958,6.298-.25l10.172,3.002c6.301,1.859,12.696,3.531,18.936,5.588,6.049,1.994,6.312,7.093,7.705,12.559,1.313,5.15,3.951,11.133,4.064,16.493.069,3.263-2.597,5.465-4.587,7.672-2.534,2.81-4.932,5.944-7.693,8.53-3.349,3.137-7.503.415-11.407-.848-6.844-2.214-13.688-4.427-20.531-6.641-2.13-.689-4.817-1.202-6.357-2.947-1.782-2.019-2.037-5.7-2.578-8.223l-2.593-12.099c-.77-3.593-2.001-6.889-.094-10.355.633-1.151-4.866-.722-5.752.888-1.807,3.285-1.014,6.05-.29,9.429l2.653,12.381c1.264,5.897,1.788,10.584,8.185,12.734,7.524,2.529,15.111,4.887,22.663,7.33,5.902,1.909,11.911,4.828,17.874,1.28,2.459-1.463,4.247-3.895,6.141-5.995,2.578-2.858,5.297-5.637,7.755-8.599,4.421-5.326.931-12.431-.583-18.371-1.522-5.97-1.887-14.766-8.435-17.292-6.235-2.406-13.033-3.846-19.439-5.736-6.082-1.795-14.53-6.007-21.018-4.324-7.327,1.9-11.293,11.039-15.288,16.81-1.279,1.848,4.401,1.137,5.314-.183Z"/>
    <path class="cls-4" d="M1900.813,279.863c.355-4.405-.183-10.271-1.714-13.375-.267-.542.198-1.163.795-1.065,12.325,2.022,28.49,10.565,31.05,19.381,2.288,7.882-8.911,17.505-18.708,20.864-.832.285-1.381-.861-.647-1.345,5.395-3.56,5.582-5.429,6.389-7.48.109-.278.034-.59-.175-.804-4.073-4.179-5.087-11.915-1.471-15.484.139-.137.232-.319.236-.515.109-5.338-6.914-8.99-11.111-9.217-.483-.026-.851.398-.784.877.42,3.014-1.11,6.344-2.467,8.607-.406.677-1.456.343-1.393-.444Z"/>
    <path class="cls-4" d="M1842.554,339.746c1.726,1.577,4.268,6.305,4.268,6.305,0,0,3.067-4.211,7.81-3.634,3.61.439,17.827,10.795,24.412,15.717.605.452.102,1.402-.612,1.154-6.221-2.159-17.815-6.09-20.698-6.42-3.993-.457-9.042-2.016-9.685-2.119s-4.843-2.526-4.843-2.526l-1.681-3.864,1.028-4.613Z"/>
    <g>
      <path class="cls-2" d="M1861.257,404.374c-3.583-5.012-6.536-3.118-7.956,2.815-3.139,13.113.322,25.218-.068,36.142-.512,14.329-32.577,29.173-19.88,59.914,12.698,30.741,110.268,32.078,168.409,9.356,58.141-22.722,147.692-51.458,164.399-54.132,16.707-2.673,22.722-22.054,17.376-30.073s-32.078-30.073-28.068-44.775c4.01-14.702,39.429-81.531,4.678-89.551-34.751-8.019-114.971,32.504-135.726,41.44-34.18,14.716-37.029,45.099-72,61.638-6.831,3.23-18.912,8.577-27.069,11.257-24.969,8.203-52.469,12.232-64.095-4.031Z"/>
      <path class="cls-4" d="M1863.951,403.25c-2.204-2.748-4.766-4.119-8.24-2.855-3.833,1.395-4.977,5.384-5.71,9.034-1.205,6.006-1.05,12.213-.6,18.289.414,5.595,1.706,11.691.809,17.272-.946,5.889-5.897,10.866-9.458,15.353-4.528,5.705-8.947,11.642-11.391,18.581-4.641,13.181-.682,28.401,10.912,36.395,11.462,7.903,26.234,10.887,39.793,12.654,37.525,4.892,78.017.943,113.914-11.01,19.346-6.442,38.251-14.351,57.496-21.124,19.967-7.028,40.035-13.775,60.198-20.219,14.976-4.786,29.998-9.554,45.214-13.53,4.614-1.206,9.594-1.773,14.075-3.365,7.168-2.548,12.859-8.029,15.678-15.097,2.254-5.652,2.613-12.278-1.118-17.342-4.486-6.089-10.337-11.225-15.235-16.984-5.169-6.076-11.657-13.693-12.27-22.032-.35-4.765,2.322-9.767,4.048-14.079,5.407-13.508,11.014-27.067,14.153-41.323,2.42-10.989,4.682-26.843-5.186-35.058s-26.584-5.682-38.129-3.551c-17.349,3.203-34.18,9.022-50.59,15.395-15.369,5.969-30.434,12.674-45.42,19.539-14.062,6.442-27.732,12.291-38.805,23.545-13.951,14.18-24.029,31.49-41.765,41.617-9.755,5.57-20.717,10.058-31.351,13.637-11.131,3.746-23.009,6.828-34.817,6.952-10.044.105-19.912-2.354-26.206-10.695-1.157-1.534-6.755.436-5.387,2.249,11.356,15.05,33.617,12.614,49.823,9.108,10.524-2.277,20.735-5.699,30.66-9.847,9.126-3.813,18.421-7.726,26.592-13.369,15.092-10.422,24.427-25.888,37.083-38.752,10.741-10.917,24.053-16.464,37.683-22.702,29.918-13.692,61.185-28.439,93.869-33.925,10.913-1.832,27.835-4.167,34.792,6.944s2.334,27.439-1.04,38.912c-3.672,12.486-8.86,24.384-13.505,36.515-1.838,4.798-3.085,9.054-1.539,14.199,2.257,7.514,7.688,14.085,12.727,19.912,4.66,5.389,10.251,10.258,14.426,16.041,3.968,5.497,2.497,13.204-.7,18.736-6.129,10.605-20.437,11.11-31.232,14.162-35.293,9.978-70.126,21.829-104.677,34.102-18.396,6.535-36.492,14.457-55.159,20.152-17.909,5.464-36.524,8.577-55.171,10.038-18.383,1.44-37.158,1.319-55.383-1.707-12.498-2.075-27.117-5.367-36.551-14.488-11.058-10.691-9.335-28.217-1.651-40.227,3.622-5.66,8.239-10.562,12.084-16.056,3.736-5.339,4.692-9.738,4.356-16.255-.291-5.649-1.068-11.265-1.16-16.926-.057-3.509.138-6.999.741-10.458.251-1.442.495-2.925.99-4.309,1.165-3.257.654-1.408,1.943.198,1.213,1.512,6.79-.5,5.387-2.249Z"/>
    </g>
    <path class="cls-4" d="M2147.973,379.339c3.853-8.602,7.237-17.449,10.265-26.371,4.103-12.089,9.463-26.743,7.493-39.736-2.261-14.906-24.742-11.89-35.196-9.343-20.201,4.922-31.595,22.79-32.382,43.015-.311,7.987,2.05,15.741,4.524,23.252,3.315,10.065,7.279,19.91,11.201,29.749,3.99,10.009,8.1,19.997,11.525,30.217,3.165,9.444,3.019,19.688-4.922,26.617-11.949,10.426-37.821,21.517-50.645,7.316-7.838-8.679-5.203-20.254-2.78-30.529,2.566-10.885,5.669-21.635,8.239-32.519,3.998-16.935,9.586-39.666-.081-55.748-3.298-5.485-7.448-8.696-13.907-8.949-7.451-.291-15.013,2.07-21.827,4.863-16.839,6.901-34.402,18.68-43.974,34.524-10.987,18.184-.89,43.417,9.148,59.762,9.526,15.512,24.264,41.524,8.115,57.545-6.497,6.446-15.318,10.644-23.884,13.566-7.317,2.495-15.902,4.797-23.697,3.588-9.618-1.492-15.042-11.175-16.775-19.933-1.589-8.028-.381-15.508,1.162-23.429,2.783-14.285,8.977-37.2-5.318-47.55-5.493-3.977-12.749-3.774-19.175-2.846-8.543,1.234-17.034,4.269-24.331,8.891-6.776,4.292-12.931,10.359-14.048,18.642-1.506,11.173,2.595,22.957,5.636,33.53,3.17,11.02,4.982,22.75-2.834,32.437-6.6,8.18-15.331,5.736-24.018,3.175-7.152-2.109-15.05-4.899-20.141-10.626-7.095-7.981-2.511-18.461,1.513-26.874,2.38-4.975,5.964-11.166,9.939-14.493,2.387-1.998-3.343-1.52-4.533-.524-3.922,3.282-6.86,7.88-9.305,12.3-4.112,7.433-9.835,18.316-6.167,26.919,2.761,6.476,9.499,10.288,15.69,12.891,6.282,2.642,13.587,4.999,20.389,5.843,18.993,2.358,30.912-16.529,27.657-33.734-2.298-12.146-7.599-23.506-8.226-36.022-.563-11.231,5.424-18.887,14.99-24.094,7.527-4.097,17.62-7.46,26.276-5.649,8.319,1.741,12.449,10.114,13.4,17.863,2.096,17.076-6.688,33.352-5.023,50.268.912,9.266,4.525,18.649,12.96,23.495,5.43,3.12,12.047,2.805,18.063,2.069,15.668-1.917,33.305-8.353,44.765-19.541,15.217-14.857,5.258-39.697-4.49-54.941-10.561-16.516-23.167-41.814-13.186-61.313,4.727-9.234,13.309-16.771,21.594-22.725,8.062-5.794,17.121-10.84,26.705-13.606,6.878-1.985,13.828-2.791,18.823,3.12,5.752,6.806,7.225,16.172,7.243,24.808.046,21.985-7.738,43.49-12.817,64.637-2.261,9.416-5.189,19.961-.096,28.989,4.07,7.215,11.206,11.015,19.313,11.3,15.594.548,34.751-6.831,45.945-17.759,6.507-6.352,7.92-15.91,5.317-24.394-3.014-9.824-7.009-19.38-10.81-28.917-3.985-9.998-8.046-19.977-11.577-30.148-2.592-7.467-5.424-15.418-5.763-23.39-.465-10.922,3.029-23.06,9.823-31.679,7.844-9.952,20.581-13.114,32.795-12.056,6.296.545,11.681,1.722,13.16,8.437,1.397,6.341.029,13.333-1.306,19.558-2.916,13.588-7.755,26.806-13.008,39.647-1.027,2.51-2.07,5.016-3.178,7.491-.592,1.321,5.009.771,5.752-.888h0Z"/>
    <path class="cls-4" d="M1899.482,316.306c8.41,4.966,18.793,7.573,25.966,8.769,1.784.297,2.291,2.603.812,3.643-8.464,5.95-14.515,15.134-17.243,24.157-.584,1.931-3.539.868-3.702-1.143-.861-10.661-5.465-24.132-8.761-32.972-.672-1.803,1.271-3.433,2.928-2.455Z"/>
    <path class="cls-4" d="M1938.081,256.032c-7.589-4.641-17.008-7.163-23.523-8.354-1.62-.296-2.05-2.403-.688-3.329,7.792-5.299,13.755-14.242,17.871-21.163.939-1.579,3.573-.731,3.355,1.093-1.195,10.012,2.809,21.461,5.686,29.559.587,1.652-1.206,3.109-2.702,2.194Z"/>
    <path class="cls-4" d="M2017.685,299.088c-4.762,1.365-10.077,2.61-13.766,6.153-1.772,1.702-3.063,3.821-4.168,5.996-1.048,2.063-3.198,5.421-3.25,7.818-.081,3.769,4.139,2.176,6.238.896.706-.431,1.911-1.684,2.754-1.708,2.395-.069,2.745,2.567,2.701,4.305-.089,3.464-1.999,6.909-4.483,9.215-2.532,2.35,3.144,2.706,4.724,1.239,3.571-3.314,6.991-9.537,5.23-14.547-1.461-4.157-6.131-4.614-9.772-3.293-1.078.391-4.942,1.889-5.343,3.05,2.279,1.575,3.537,1.649,3.775.224.085-.392.204-.774.357-1.146,1.006-1.778,1.587-3.888,2.52-5.725,3.039-5.984,7.177-7.396,13.368-9.171,3.48-.998,2.638-4.316-.886-3.306h0Z"/>
    <path class="cls-4" d="M1847.889,319.129c.387.014.773.028,1.158.069.379.041-.122-.054.429.075.29.068.578.144.861.239.372.125-.3-.179.214.106.205.114.406.232.608.35.141.082.528.465.108.068.27.255.486.531.728.809.448.516.008-.264.197.325.064.2.151.39.205.594.058.221.11.449.12.678.032.733,1.207,1.246,1.737,1.39.996.271,2.29.181,3.266-.107,1.741-.514,3.779-1.561,3.691-3.612-.048-1.118-.736-2.321-1.436-3.141-2.08-2.436-5.592-3.137-8.629-3.244-1.97-.07-4.654.633-5.712,2.472-1.028,1.787.882,2.875,2.457,2.931h0Z"/>
  </g>
  <g id="Layer_5" data-name="Layer 5">
    <g>
      <rect class="cls-1" y="110.679" width="1746.961" height="347.419"/>
      <path class="cls-4" d="M85.096,418.036l-13.8-7.8c-3.601-2.4-6.601-5.4-9.3-9.3-5.101-3.3-9.601-8.7-12.9-15.6-5.4-11.1-8.101-22.8-8.101-35.101v-9.6c-.3-8.4-.6-17.1.601-26.1.3-.9,0-2.1,0-3.6l-.301-3.6v-10.5l-.3-10.8c.9-14.1.601-25.5.3-36.9-.3-5.7-.3-11.1-.3-17.1v-3c0-3.3-.3-6.6.3-10.2,1.2-9.3,2.7-19.5,8.101-28.8,10.5-16.8,25.5-26.4,44.4-28.8l11.101-1.2c15.3-.6,29.1,4.2,41.1,14.1,3.601,3,6.301,5.7,8.7,8.7l.3.3c9.001,7.8,13.801,14.4,15.9,22.8l1.5,4.8c.601,3,.9,5.4,1.2,8.1l.6,2.7c.9,4.5.9,11.4.301,16.2l-.301,2.4v.9c0,3.3-.6,6.3-.899,8.7l-.601,3.3c-1.5,6.9-5.699,12.9-11.699,16.2-10.2,5.4-20.4,6.6-30.9,3.3-3.301-.9-7.2-3.3-10.2-6-1.2-1.2-1.801-2.7-1.801-4.2-2.699-1.2-5.1-3-7.199-4.8-3-3-2.7-7.2,1.199-9.6,4.5-2.4,5.101-6.6,6-12,.601-6.3.9-12.6-.6-18.3l-1.8-.3c-5.4,0-7.8.6-10.2,2.1-3,1.5-3.9,3.3-4.2,5.7l-.6,3.6v.9l-.9,20.1.3,10.8c0,5.4.301,10.8,0,16.2l-.3,10.2c-.3,10.2-.6,20.101,0,30.301.601,13.2.601,26.4.601,39.3,0,3.6,0,6.3.6,8.7l.6,1.8,3-.3c1.5-.3,2.7-.6,4.5-1.5,2.101-1.2,3.301-3,3.601-5.4,1.5-6.3,2.1-12.6,2.1-19.8-.3-4.2,0-8.4,0-12.6v-6.9c0-1.8,0-3.3.9-5.4.6-1.2,1.2-2.4,2.399-3,1.801-1.2,3.301-.9,5.4-.9l3.9.3c5.7.3,10.2,0,15,0l9.3-.3h3c2.101,0,3.601,0,5.4.9,2.4,1.2,3.6,3.3,3.9,6.6v1.5c2.1,0,3.3,0,5.1.9,2.4,1.2,3.6,3.3,3.9,6.6v.6c.3,1.2.3,2.7.3,4.2v6.3c0,4.2-.3,8.1,0,12.3.6,3,.3,6.3-.3,10.2l-.601,5.1c0,3.6-.3,7.5-1.2,11.4-2.1,9.9-5.399,17.1-9.899,22.5-2.101,2.7-3.9,4.8-5.7,6l-12.601,9c-3.899,3-9,4.8-14.399,5.7-6.9.9-14.101,1.5-23.4,1.5-7.801-.3-14.4-1.8-20.101-4.5ZM118.997,407.536c4.5-.6,8.7-2.1,12.3-4.8l12.601-9c1.8-1.2,3.3-3,4.8-5.1,5.101-6,7.5-13.5,9-20.7,1.2-5.4,1.2-10.5,1.801-16.2.6-3,.899-6.3.3-9-.3-6.6,0-12.9,0-19.2,0-1.2,0-2.1-.3-3.3-.301-2.4.3-3.9-2.4-4.5h-5.4c-8.1,0-15,.6-24.3.3l-6.3-.3c-1.2.3-1.501,1.5-1.801,2.7v2.4c0,6.6-.3,12.9,0,19.2,0,6.9-.6,13.8-2.1,20.7-.601,3.6-2.7,6.6-6,8.4-2.101,1.2-3.9,1.8-6,2.1-5.101.6-9.9,0-13.2-4.5-1.5-1.8-2.7-3.9-3.3-6.3-1.801-3.9-1.801-8.4-1.801-12.9,0-12.9,0-26.101-.6-39-.9-13.8,0-27.3.3-40.801.3-9-.3-18-.3-27l.6-14.4c-.6-3.6.601-7.2.9-10.5.3-4.2,2.7-7.2,6.3-9.3,3.9-2.4,8.101-2.7,12.601-2.7,7.8.3,13.2,4.5,15,12.3,1.8,6.6,1.5,13.8.9,20.4-.9,5.4-1.801,11.7-8.101,15.3-.9.6-1.5,1.2-.3,2.4,1.8,1.8,5.1,4.2,8.1,5.1,9.9,3,18.601,1.8,27.601-3,5.1-3,8.1-7.8,9.3-13.2.601-3.9,1.5-6.9,1.5-11.1,0-.9.301-2.1.301-3.6.6-4.2.6-10.8-.301-15-.6-3.9-.899-6.9-1.8-10.8l-1.2-4.5c-2.399-9-8.1-15-14.7-20.7-10.8-9-23.4-13.5-37.8-12.9-3.601.3-7.2.9-10.801,1.2-18.3,2.4-31.5,11.4-41.1,26.701-5.101,8.4-6.301,17.7-7.5,27-.601,4.2-.301,8.4-.301,12.6,0,17.7,1.2,32.7,0,54,0,7.2.301,14.1.301,21.3,0,2.7.6,5.1.3,7.8-1.5,11.7-.601,23.4-.601,35.1,0,11.4,2.4,22.5,7.5,33,3.301,6.6,7.801,12.6,14.7,15.9l6.301,3.6c6.6,4.5,14.399,6,22.2,6.3,7.8,0,15.3-.3,22.8-1.5Z"/>
      <path class="cls-4" d="M221.592,420.436c-4.2,0-9,0-13.8-.9l-3.9.3h-1.5l-3.6.3c-5.4,0-8.7-3.6-8.7-9h-.3c-5.4,0-8.7-3.6-8.7-9,0-7.5-.3-15-.601-22.5l-.3-12c0-6.6.3-13.5.601-20.4.3-8.4.899-16.5.3-24.6-.9-11.7-.3-23.4,0-34.5.3-6.9.6-13.5.6-20.1v-19.5l-.3-19.8v-6.6c.3-4.2.3-7.8,0-11.7v-6.9c0-1.8.3-3.6,0-5.4,0-2.1,0-3.6.3-5.7.3-2.7.3-5.4,0-8.4v-6.6l-.3-3.3c0-1.2-.3-2.7-.3-4.2-.601-4.2,3.3-8.1,7.8-7.5h8.1c3.001,0,5.7,0,8.7.3h6.601c5.7-.3,8.1,0,10.2.3,6,0,9,2.4,9,8.4v.6c6.3.3,9,2.4,9,8.4.3,2.1.3,4.2.3,6l-.3,2.7v6.6c0,2.1-.3,4.2,0,6.6v1.5l.3,2.4-.3,29.7.3,6.3c.3,8.7.601,17.4,0,26.1-.6,11.4-.6,22.8-.6,34.201v9c-1.2,9.3-.9,18.9-.601,28.5.301,4.5.301,9,.301,13.5,0,3.6-.301,6.6-.601,9.9-.3,3.3-.6,6.3,0,9.3.601,6,.601,12,.601,18v4.5l-.301,15c0,6-3,9.3-9,9.9-.899.3-2.1.3-2.7.3h-6.3ZM220.993,406.636c3.899-.3,5.1-1.8,5.1-5.4l.3-15c0-7.5.301-14.7-.6-21.9-.6-3.6-.3-6.9,0-10.2.3-3.3.6-6.3.6-9.601,0-14.1-1.5-28.2.301-42.3,0-14.4-.301-28.8.6-43.2.6-10.8,0-21.3-.3-32.101l.3-29.7c0-1.2-.3-2.7-.3-3.9-.3-4.8.3-9,0-13.2l.3-3c0-1.8,0-3.6-.3-5.4,0-3.6-.9-4.2-5.101-4.2-3.6-.9-11.1,0-16.5-.3-5.399-.3-11.4,0-16.8-.3-1.8-.3-3.3,1.2-3,2.7,0,2.7.6,5.1.6,7.8-.3,6,.9,12-.6,18,.899,4.5,0,9.3.3,14.7.6,6,0,12.3,0,18.601,0,13.2.3,26.4.3,39.3,0,18-1.8,36-.6,54.3.899,15-1.2,30.3-.9,45.301.3,11.7.9,23.1.9,34.5,0,3,1.5,4.5,4.2,4.5,2.1,0,4.199-.3,6.3-.3,1.2-.3,2.7-.6,3.9-.3,6.3,1.5,12.6.6,18.899.9.601,0,1.5,0,2.101-.3Z"/>
      <path class="cls-4" d="M365.291,424.936c-11.4-4.2-18.3-9-23.7-16.5-4.5-3.3-8.1-7.2-11.4-12.3-6.6-10.5-9.3-21.3-12.899-32.1-1.5-4.2-2.7-8.1-3.9-12.3,0,4.2-.3,8.7-.6,12.9-.301,4.5-.301,8.1.6,11.1v1.2c.3,2.1.3,3.3,0,5.4-.3,4.2,0,8.1,0,12.6.3,3.6.3,7.2.3,10.8-.3,10.8-1.5,12.9-10.8,14.1-2.101.3-3.601,0-5.7,0-1.5,0-3.3,0-5.4.3-3.3.3-7.8.6-12-.6h-3.3c-1.2.3-2.7.3-4.5.3-5.7,0-9-3.3-9-9-6,0-9-3.3-9-9.3,0-13.5,0-24.9.3-38.701l-.3-4.5c.3-9.3.6-18.3.6-27.6,0-4.5,0-9-.899-13.5-.301-1.8,0-3.9,0-5.7v-2.7l.6-46.2c0-4.8-.3-9.9-.9-15.3-.6-3.3-.3-6.6-.3-9.6v-2.7c0-11.4.3-21.9.601-32.4,0-9.6.3-19.2.3-28.5l.3-2.1c.3-6,3.6-9,10.5-9.6h5.7c7.5.3,15,.3,22.8,0,8.4-.3,17.101-.6,25.801,0,4.2.3,8.7.3,12.9.3,1.199,0,2.399.3,3.6.6,4.5,1.2,9.3,2.7,14.101,4.2,6,1.5,11.699,6,17.1,12.9,3.3,2.4,6.9,6,9.9,10.2,6.6,9.6,10.8,19.8,12.9,30.601.3,1.8.6,3,.6,4.5.9,9.6.6,24.6,0,34.2-.3,6.3-1.2,11.7-2.1,16.5-.9,3-3.601,13.5-5.7,17.1-5.101,8.1-8.7,11.7-13.801,15.3-3,2.1-7.5,4.5-9,5.4.9,2.4,1.5,4.8,2.101,7.2,1.199,4.5,2.1,8.1,3.899,11.7.9,1.8,1.5,3.6,1.8,5.1,1.801,8.1,4.2,16.2,6.9,24.3l.9,3c2.1,4.2,3.899,8.7,5.7,13.2,2.1,5.4,4.199,10.5,6.899,15.3l.601.9c1.2.6,2.7.9,4.8,1.5h1.8c4.5,0,5.7,4.5,4.2,8.1l3,.9h1.8c4.5,0,6,4.8,4.2,8.4-3.3,7.2-7.5,10.5-14.1,12-9.601,2.1-20.4,1.8-28.801-.9ZM394.992,403.036c.3-.6.601-2.1,0-2.1h-2.399c-7.501-1.8-9.9-3-14.4-8.7-1.2-1.5-2.4-3.3-3.3-5.1-5.101-9.3-8.101-19.2-12.9-28.8-.3-.6-.3-.9-.3-1.5-3-9-5.7-17.7-7.801-27,0-1.2-.6-2.4-1.199-3.6-3.301-6.3-4.2-13.5-6.601-20.4-.6-1.8-.3-2.7,1.5-3.6,11.101-7.2,15-8.7,21.9-20.1,1.8-3,4.2-12.6,5.1-15.9,1.2-5.1,1.801-10.5,2.101-15.6.6-9.6.899-24.3,0-33.6,0-1.5-.3-2.7-.601-3.9-1.8-10.5-6-20.101-12-28.8-3.899-5.4-9-10.8-15.6-12.601-4.801-1.5-9.601-3-14.101-4.2-.6-.3-1.5-.3-2.399-.3-4.2,0-8.7,0-13.2-.3-16.501-1.2-32.101.9-48.601,0h-5.4c-4.5.3-6,1.5-6,5.7-.3.6-.3,1.2-.3,1.5,0,19.5-.9,39-.9,60.9,0,3.9-.3,7.8.3,11.7.601,5.4.9,10.5.9,15.9-.3,15.3-.3,30.9-.6,46.2,0,2.7-.301,5.4,0,7.8.899,4.8.899,9.6.899,14.1,0,10.5-.3,20.7-.6,30.9.3,0,0,1.8.3,1.8-.3,13.5-.3,24.9-.3,38.101,0,3.6,1.2,4.8,4.5,4.8,1.5,0,2.7,0,3.899-.3,1.801,0,3.301-.3,4.801,0,6.6,2.1,12.899-.6,19.5.6,9-.9,8.7-.9,9-9.9.3-8.7-1.2-17.7,0-26.4,0-.9,0-1.8-.3-2.4-.9-4.2-.9-8.4-.601-12.6,1.2-11.7,0-23.7,0-35.4,0-3,0-7.2.301-10.5,0-1.8,1.8-1.8,3.899-2.1,2.4-.3,3.9.6,4.2,3,1.5,8.1,4.8,15.3,5.101,23.1,2.699,9.6,5.399,19.5,8.699,29.101,3.601,11.1,6.301,21.3,12.601,31.2,6.3,9.9,13.5,14.1,23.7,18,8.1,2.4,18,2.4,26.4.6,6-1.2,8.4-4.2,10.8-9.3ZM299.291,271.635c-.899-6.3-.3-12.6-.3-17.7,0-6.9.3-12.6-.3-18.3-.3-1.8-.3-6.3,0-8.1,1.2-5.1.6-9.9,0-14.7v-7.2c0-1.2.9-1.8,2.1-2.1,7.2-.6,14.7-.9,21.9.6,5.101,1.2,8.7,4.5,10.801,9,2.699,4.8,4.199,10.2,4.199,15.9.301,4.8,0,12.6-.3,17.4-.3,4.8-.899,9.3-1.5,14.1-.3,1.5-1.2,3-1.8,4.2-.9,1.8-2.1,3-3,4.8-2.4,4.2-6.601,6.3-11.101,6.3-5.699.3-10.8-.6-17.399.3-2.4,0-3.301-1.8-3.301-4.5ZM327.191,267.434c.601-1.2,1.2-2.1,1.8-3l1.2-1.8.301-.6.899-2.4c.601-4.5,1.2-9,1.5-13.5.3-6.3.601-13.2.3-17.1,0-3.9-.899-7.8-2.399-11.4-6.301-1.5-12.9-1.2-19.5-.6.3,0,.899,0,.899,1.2v3.3c.601,4.8,1.2,10.2,0,15.9-.3,1.5-.3,5.4,0,6.6.3,4.5.3,9,.3,13.8v9.6l-.3,3.9h7.8c3.301,0,5.7-1.2,7.2-3.9Z"/>
      <path class="cls-4" d="M449.291,442.036c-3.301-2.4-6.301-5.4-9-9-4.2-5.7-6.301-10.2-6.9-15.3-3-1.2-5.7-3-8.101-4.5l-2.699-1.5c-2.101-1.2-3-1.8-3.601-2.4l-1.2-1.2c-1.8-1.8-3.899-3.9-6-6.3-.899-.6-1.5-.9-1.8-1.5l-1.2-1.2c-2.7-2.7-6.3-6-8.399-10.5-2.101-5.4-3.301-10.8-4.5-15.9-.301-.9-.601-1.8-.601-2.7-2.7-12.9-3.3-21.6-2.4-30.3-.3-.9-.3-1.8-.3-3v-9.3l-.3-14.7v-14.4c0-13.2.3-26.1.6-39.3,0-10.8.301-21.3.601-32.101v-1.2c-.9-4.8-.3-9.9,0-14.4l.3-5.1c.3-9,3.9-17.4,10.5-24.6,12-13.2,28.2-20.4,48.301-21.3l3.3-.3c2.101,0,3.601.3,5.4.6l5.399.6c3.601.6,7.801.9,12.601,2.7,9,3.3,16.5,6.6,22.8,15.6,3.301,2.4,6.301,5.1,9.001,9.3l3.3,4.5c1.2,1.5,2.7,3.3,3.899,5.1,5.101,7.8,7.5,19.8,6.601,32.7-.601,8.7-.9,17.1-.3,25.5v2.7c-.301,4.5-.601,8.4,0,12.3.3,3.9.3,7.5,0,10.8l-.301,5.7-.3,2.4c.9,6.9.601,13.8.3,20.4l-.3,5.4c0,10.8,0,21.9-.6,33.3v8.7c0,5.7,0,12-.601,16.5-.3,2.1-.899,4.5-1.199,6.3l-.601,2.7c-3.6,13.2-13.2,22.2-22.2,30-.899.9-2.399,1.8-3.6,2.1l-.9.6-2.1.9c-.9.6-.601,1.2-.3,1.5,5.1,1.2,7.5.9,9.899,0,1.8-.9,3.601-1.5,5.101-2.1,4.5-.9,9,3.9,7.5,8.4l-.3,1.2,1.8-.6c4.5-.9,9,3.9,7.5,8.4l-.601,2.1c-3.3,7.2-8.399,12.6-15.3,15.6-5.1,2.4-11.1,5.1-17.4,6-16.8,2.7-30.9-2.7-40.8-15.9ZM496.691,438.736c6-2.7,10.2-7.2,12.899-13.2.301-.6.301-1.5.601-2.4,0-.9-1.2-2.1-2.101-1.8-1.5.3-3,.9-4.199,1.5-4.5,2.1-8.7,1.5-13.2.6-4.801-.9-8.101-3.6-9.9-8.1-1.5-2.7-1.8-1.8-1.8-5.1-.3-4.8,0-4.8,4.5-6.9,1.2-.6,2.399-.9,3.3-1.8,9-7.8,17.4-15.9,20.7-27.9.6-2.7,1.5-5.7,1.8-8.4.9-6.9.3-18,.601-24.9.6-11.1.6-22.2.6-33,.3-8.4,1.2-16.8,0-25.2-.3-.9.3-2.1.3-3,0-5.4.9-10.5.301-15.9-.601-4.2-.301-8.7,0-13.2v-2.1c-.601-8.7-.301-17.4.3-26.101.6-9.9-.601-21.6-6-30-2.101-3.3-4.801-6.3-6.9-9.6-5.7-8.1-12-10.8-20.7-14.1-6.9-2.4-12.601-2.1-19.5-3.6l-5.4.3c-17.7.9-33.3,6.6-45.301,19.8-5.699,6.3-9,13.5-9.3,21.9-.3,6.3-1.5,12.6-.3,18.9v1.5c-.3,10.8-.6,21.3-.6,32.101-.301,13.2-.601,26.1-.601,39.3,0,9.6.3,19.2.3,29.1v9.3h.301c0,1.2.3,2.7,0,3.9-1.2,9.9.3,19.2,2.399,28.8,0,.6,0,1.2.3,1.5,1.2,5.4,2.4,10.8,4.5,15.9,2.101,4.5,5.7,7.5,9.001,10.8,5.399,2.7,10.5,6.9,16.8,8.1,2.1.3,4.8,0,5.7,1.8,1.2,1.8,1.2,4.2,1.5,6,.3.9.3,1.8.3,2.4.3,5.7,2.7,9.9,6,14.4,9.3,12.3,21.601,16.5,36.601,14.1,5.7-.9,11.1-3.3,16.2-5.7ZM439.09,357.735c-.9-5.4-1.5-10.8-1.8-16.5,0-4.2-.601-8.7-.601-13.2,0-10.5.3-21,.3-31.5,0-9.9.601-19.8.301-29.701-.301-9-.601-17.7-.601-26.7,0-5.4-.3-11.1-.3-16.5,0-8.7,3.3-17.4,11.1-20.1l4.501-1.8c4.5-1.8,9.6.3,13.5,2.1.899.3,1.5,1.2,2.1,2.1,2.7,3.9,4.5,8.4,4.5,13.2.3,12.3,1.8,24.6.601,36.9-.301,5.4-.301,11.1-.301,16.5h.301c-.301,9.6-.601,19.5-.601,29.1-.3,4.5-.3,9,.601,13.2.899,4.5.3,9,0,13.5-.301,2.1-.301,3.9,0,6v21.3c0,9.6-7.501,14.1-15.001,15.3-7.2,1.2-16.8-3.9-18.6-13.2ZM468.19,355.636v-21c-.3-2.4-.3-4.5,0-6.9l.301-2.1c.3-3.6.3-6.9-.301-9.9-.899-3.9-.899-8.7-.6-14.101,0-7.2.3-14.4.3-21.6.3-3.3,0-8.7,0-10.8,0-4.5,0-9,.3-13.5.9-8.4.301-16.5,0-24.9l-.6-11.7c0-1.5-.3-3-.6-4.2-1.801-.6-3.301-.6-4.2,0l-4.8,1.8c-5.101,1.8-8.101,7.8-8.101,15.9v8.1l.3,8.4c0,9,.3,17.4.601,26.7.3,6,0,12,0,18l-.301,11.7-.3,15.9v15.6c0,2.1,0,4.2.3,6.6,0,2.1.301,4.2.301,6.6.3,5.4.899,10.5,1.8,15.6v.3c1.5.6,3,.6,4.5.3,7.2-1.2,11.1-5.1,11.1-10.8Z"/>
      <path class="cls-4" d="M582.486,418.936c-8.1-2.4-15.299-7.2-21.6-14.1l-4.5-4.5c-1.5-1.2-3-2.7-4.5-4.5l-2.701-2.7c-2.398-2.1-4.799-4.5-6.898-8.1-3.301-5.7-4.5-10.8-6.301-16.2-2.4-7.2-3.6-15.6-3.6-26.4-.3-8.7-.3-17.4,0-25.8v-12.9c0-4.2,0-7.8-.3-12-.601-9-.9-15.9,0-21.9.6-13.5.6-27,.6-40.5v-6.6c.301-5.4.301-10.8-.3-15.9v-3.6l.3-1.5.301-1.8c-.601-4.5-.301-9-.301-12.9v-17.1c0-4.2,3-7.2,7.5-6.9,5.102-.6,11.102-1.2,17.4,0,3.301.6,6.9.6,10.5.6,2.102,0,3.301.3,5.4.3h.9c1.801,0,3.6,0,5.1.9,1.801,1.2,3,2.7,3,4.8l.301,3.3h.6c1.801,0,3.6,0,5.1.9,1.801,1.2,3,2.7,3,4.8.301,4.5.602,9.3.602,14.1l-.602,13.8v18.9c0,4.2,0,8.1.602,11.4,0,1.2.299,2.7,0,3.9v8.1c0,4.8-.301,9.3,0,13.8.299,4.5,0,9.3,0,13.8v7.2l-.301,2.4c2.1,10.2.9,20.4,0,29.701v1.5c1.199,7.2.9,14.7.6,21.6l-.299,8.7c0,2.7,0,4.8.299,6.9.6,3,.6,6,.6,8.7,0,1.2.301,2.4.602,3.6,1.199.6,2.398.9,3.6.9,3,.6,6.6-.3,9.299-1.8l.9-1.2.301-.6c.6-2.1.9-3,.9-3.9l.898-7.2c.9-6.6,1.801-12.3.602-18-.602-2.4-.301-5.1-.301-7.2v-2.1c.6-4.8.9-9.6,1.199-14.7.301-2.4.301-5.1.301-7.8v-8.1l.301-6v-5.7c0-6.3-.602-12.3-1.201-18.601v-2.1l-.299-3,.299-4.2v-43.5c.301-7.8.301-15.6.301-23.7.299-3.6.299-6.6-.301-9.9-.299-1.2-.299-3.6-.299-5.4v-1.5c0-4.2,2.398-6.9,6.898-7.5l2.102-.3c4.199-.6,9-1.2,13.5-.6l7.5.3c4.5.3,8.699.3,12.6,0,3.9,0,5.699,1.2,6.9,5.1,0,0,.6,2.1.6,3.9h1.5c3.9,0,5.699,1.2,6.9,5.1,0,0,.6,2.1.6,3.9v2.1c-.299,3-.299,5.4,0,7.8.301,2.1.6,3.3.301,3.9l-.301,1.2c-.299,1.8-.6,2.7-.6,4.2l.301,18.3c0,9.3.299,18.3,0,27.601l-.602,8.4c-.299,5.7-.6,10.8-.299,16.5.9,8.1.9,16.5.9,24.9l.299,9.9c-.299,5.1-.6,10.5-.6,15.601v7.8l.301,3c0,1.8.299,4.5-.301,7.2-.6,1.8-.301,5.4-.301,8.1.301,4.2,0,7.8-.299,11.4-.301,3-.602,6-.602,9-.898,9.6-4.199,18.6-10.799,30.3-2.701,4.2-5.701,6.6-8.4,9.3l-3.301,3.3c-7.799,7.5-18.299,12-29.1,12-13.801.6-21.301-.3-33.301-4.2ZM632.588,398.836c4.199-4.2,7.799-6.6,11.1-11.7,5.4-9.3,9.301-18,10.199-28.2.301-9,2.102-17.7.9-26.7-.299-.6-.299-1.2,0-1.5,1.201-3.3.301-6.6.301-10.2v-7.8c0-5.1.299-10.5.6-15.6-.301-11.7,0-23.1-1.199-34.5-.602-8.7.6-17.101.898-25.5.301-15-.299-30.3-.299-45.601,0-2.4.6-4.2,1.199-6.6-1.199-4.8-.6-9.3-.6-14.1-.9-2.7-.6-3-2.699-3-6.602.6-14.102-.3-20.701-.3-4.801-.6-9.9.3-14.699.9-2.102.3-3,1.2-3,3,0,2.1-.301,4.2.299,6,.6,3.9.6,7.5.301,11.1,0,7.8,0,15.6-.301,23.7v24c.6,8.1.301,15.9-.299,23.7,0,1.5.299,3,.299,4.5.6,6.3,1.201,12.6,1.201,18.9,0,3.9-.301,7.8-.301,11.7-.301,5.4,0,10.8-.301,16.2-.299,5.1-.6,9.9-1.199,14.7,0,2.7-.301,5.4.301,8.1,1.799,8.7-.602,17.7-1.5,26.4,0,2.1-.9,4.2-1.5,6-.602,1.2-1.801,2.4-2.701,3-3.299,2.1-8.4,3.3-12.299,2.7-9.602-1.2-16.801-7.8-17.102-18,0-2.7,0-5.4-.6-7.8-.301-2.7-.301-5.1-.301-7.8,0-9.6,1.201-19.5-.299-29.1-.301-.9,0-2.1,0-3,.9-9.6,2.1-19.5,0-29.1l.299-3c0-6.9.301-13.8,0-20.4-.299-7.2,0-14.1,0-21.3,0-1.2.301-2.4,0-3.9-.6-3.9-.6-8.1-.6-12.3v-18.9l.6-14.1c0-4.5-.299-9-.6-13.5,0-.6-.6-1.2-1.5-1.5-2.1,0-3.9,0-6-.3-4.799,0-9.299,0-13.799-.6-5.701-1.2-11.102-.6-16.502,0-2.1-.3-3,.6-3,2.4v8.7c.301,7.2-.6,13.8.301,21,0,1.2-.301,2.4-.6,3.9,0,.9-.301,2.1,0,3,.9,7.5.299,15.3.299,22.8,0,13.5,0,27.3-.6,40.801-.9,6.9-.6,14.1,0,21.3.301,4.2.301,8.1.301,12.3,0,12.9-.6,25.8,0,38.701,0,8.1.6,16.8,3.299,24.9,1.801,5.7,3,10.2,6,15.3,2.701,4.5,5.701,6.6,9.002,10.2,5.398,6,11.699,10.5,19.5,12.9,12.299,3.9,19.199,4.5,32.1,3.9,9.9,0,18.9-3.9,25.801-10.8Z"/>
      <path class="cls-4" d="M764.283,419.836c-7.5-.3-14.1-.3-21-.3l-25.801.6c-4.199.3-8.4,0-12.299,0l-8.102-.3c-4.5-.6-7.199-2.7-7.799-7.2v-1.8h-1.201c-4.5-.6-7.199-2.7-7.799-7.2-.602-6.6-.602-13.2-.301-19.2v-7.5c0-1.8.301-4.2.6-5.1.6-1.8.6-3.3-.299-6.9-.301-1.5,0-4.2.6-6.3l.299-2.1c-1.199-3.6-1.199-7.2-.898-10.2v-7.8l-.301-5.7v-.3c-.301-1.2,0-2.4.301-3.6,1.199-4.2.898-8.4.898-13.5-.299-3.6-.6-7.5,0-11.4-.6-11.1-.6-22.2-.6-33.3v-10.8l-.299-2.7-.301-.6c-.301-2.1-.6-4.5-.301-6,.602-3.3.602-6.6.301-10.2-.301-2.4-.301-5.4-.301-8.4.602-6.6.602-13.2-.299-19.5-.301-1.2-.301-2.4,0-4.5v-1.5c0-3.9.299-7.8.6-11.4.301-5.7.6-11.4,0-16.8-.301-2.4-.301-5.1,0-7.2,2.1-7.2,3.301-8.7,10.801-8.7,10.5.3,20.4.6,30.6.6h2.1c2.4,0,4.201,0,6.301-.3.6-.3,2.4-.3,3.6-.3l3.9.3,2.1.3c2.1,0,3.301-.9,4.201-.9,1.199,0,2.398.3,4.199.3,4.801.6,9.9.3,15.301,0,4.5-.3,9.299-.6,14.1-.3l11.699.6c3.602,0,6.602,3.3,7.201,7.2v1.8h1.799c3.602,0,6.602,3.3,7.201,7.2v5.7l-.301,7.8c0,3.6-.299,7.2,0,11.1v3.9c0,7.5-2.699,10.2-9.6,10.2l-4.199.3c-1.801,0-3.301,0-5.102.3-2.1.3-3.6,0-6-.3-.898,0-2.398,0-4.799.3-2.102,0-4.5.3-7.201,0-2.699-.3-5.699-.3-9,0l-19.199.3c.6,7.8.299,15.3,0,22.5,0,3.9-.301,7.8-.301,11.7v.3c0,2.1-.299,3.6-.6,5.7l-.301,2.1h7.801c6.301.6,10.5.9,14.699.3,3.301-.3,6.301.3,8.701.6l3.6.3c3.301,0,5.4,2.4,6.301,5.7l.299,3,2.4.3c3.301,0,5.4,2.4,6.301,5.7.299,1.5.6,3.3.6,5.4v10.5l.301,10.8c0,1.5-.602,5.7-.9,7.5-.301,3.3-3,6-6.6,6h-16.201c-3.9,0-8.699.3-13.199-.3h-3.9c-3.301-.3-6-.3-9,.3l-.301,2.4v1.8c.6,5.1.301,10.2,0,14.7v9.3c.301,6,.6,12,.6,17.7l3.9.3c4.801.3,10.201.6,21.301-.3,4.5-.3,10.199,0,15.6,0h6.9c3.6,0,6.9,2.4,7.199,6.3l.301,2.7h1.5c3.6,0,6.9,2.4,7.199,6.3.602,4.8.602,9.3.301,13.8,0,3.9,0,7.8.301,11.7v3.3c-1.5,11.4-3.602,13.5-14.102,13.5-9.898.3-18.299-.3-26.1-.6ZM790.984,397.636c.299-.9,0-2.1,0-3-.9-8.4.6-16.8-.602-25.2,0-1.2-.898-2.1-2.699-2.1-6.6,0-15.9-.3-22.201,0-20.699,1.5-21.6-.6-36,.3-1.799,0-3-.9-3-3,0-9.3,0-18.6-.6-28.2-.301-7.8.9-15.601,0-23.4-.301-1.5.301-3.6.301-5.4,0-2.7.898-3.9,3.6-4.2,4.799-.9,9.301-.3,14.1-.3,7.201.9,14.4,0,21.301.3h7.799c1.201,0,2.102-.9,2.102-2.1.299-1.2.9-5.4.9-6.9,0-8.1-.301-13.2-.301-21.3,0-1.5-.301-3-.6-4.5-.301-1.2-.9-2.1-2.102-2.1-3.898-.3-7.5-1.2-11.699-.9-5.1.6-10.199.3-15.301-.3-5.398-.3-11.1.6-16.5.3-2.4-.3-3.6-.9-3.6-3.3-.301-5.4-1.801-10.8,0-16.2v-2.4c0-11.1,1.5-23.4.301-35.7-.301-1.8.898-3,2.699-3,5.4,0,10.5-.3,15.9-.3,4.801,0,9.9-.6,14.699,0,5.102.6,9.9-1.2,14.701.3,3.9-.9,7.801-.6,11.699-.9,4.801,0,5.4-.9,5.4-5.7v-3.9c-.299-6.3.301-12.6.301-18.9v-5.4c-.301-1.5-1.5-3-3-3-3.9-.3-7.801-.3-11.701-.6-10.799-.6-21.6,1.8-32.1,0h-1.5c-3.301,1.5-6.301.3-9.301.3-1.199,0-2.1-.3-3,0-3.299.9-6.299.6-9.6.6-10.199,0-20.1-.3-30.6-.6-5.102,0-4.801,0-6.301,5.1-.301,1.8-.301,3.9,0,5.7.9,9.6-.6,19.2-.6,28.8,0,1.8-.301,3.6,0,5.4.9,6.9.9,13.8.299,20.4-.299,6.9,1.201,12.3,0,19.2-.299,1.8.301,3.6.602,5.4,0,1.8.299,3.6.299,5.4,0,14.1-.299,27.9.6,41.701-1.199,8.7,1.5,17.7-1.199,26.4-.301.6,0,1.5,0,2.4,0,3.6.301,7.2.301,10.8,0,3.9-.602,7.5.6,11.1,1.199,3-1.201,6-.6,9.3.6,3,1.199,6,0,9.3-.301.9-.301,2.4-.301,3.6,0,8.7-.6,17.4.301,26.101.299,2.1,1.199,3,3.6,3.3,6.6,0,13.199.6,19.801.3,8.699-.3,17.1-.3,25.799-.6,15-.3,28.5,1.2,47.4.9,8.102,0,8.4-.9,9.602-9.3Z"/>
      <path class="cls-4" d="M907.98,420.136c-4.801,0-10.5.3-16.201,0-9.299-.3-12.299.3-12.299-7.5,0-2.7-5.701,0-7.201-3.9-.9-2.1-.9-9.3-.9-11.1v-3c0-6.3.301-12.3-.299-18.3.299-6.3.299-12.601.299-18.9,0-8.1,0-16.2.301-24.6v-12.3c0-4.2-.301-8.4,0-12.9l.6-3.3c.301-3,.6-4.2,0-5.1-.6-3.3-.6-6.6-.6-9-.301-17.7,0-35.4.301-53.101l.299-21c0-5.4-.299-10.5-.9-15.9-.6-9.6-.299-18.6,0-27.9,0-4.5,3-7.8,7.5-9,4.5-1.5,9-1.2,12.602-.9,5.1.3,10.5.3,15.9,0,6-.3,12.299,0,18.299,0h9c5.701.3,12,.6,17.701,1.5,12,1.5,21,5.1,28.5,11.1,2.1,1.8,4.199,3.9,5.699,6.6l3.301,2.4c3,2.4,5.4,5.7,7.199,9.3,2.701,4.2,4.5,9,6.301,13.8l.301.9c.6,1.5.898,3.3.898,4.5l.602,4.5c0,2.4.299,4.5.9,6.6,1.799,9.6,1.5,18.9,1.5,28.2v4.5c-.301,5.1-.301,9.6.898,13.8.301,1.5.301,4.2,0,5.7-.299,4.2-.299,8.4-.6,12.9,0,4.5,0,9-.299,13.5-.301,7.2-.301,14.4-.301,21.9v7.5c0,12.6-.6,25.5-1.5,38.4-1.201,10.8-4.201,19.2-9.301,26.1-2.699,3.9-5.4,7.5-8.4,11.4-1.199,1.8-3.299,3.3-5.398,4.5l-3.602,1.8c-4.199,2.1-9,4.5-14.4,5.7-2.1.6-4.199.9-6.6.9l-50.1-.3ZM954.48,406.036c6.301-1.2,11.699-4.5,17.4-7.2,1.199-.6,2.699-1.8,3.6-3,3-3.9,5.701-7.5,8.4-11.4,5.4-7.2,7.5-15.3,8.4-24,.9-12.6,1.5-25.2,1.5-37.8,0-9.9-.301-19.8.299-29.7.602-9,.301-17.7.9-26.701.301-1.2.301-2.7,0-3.9-1.5-6.3-.9-12.9-.9-19.5,0-9.3.301-18.3-1.5-27.3-.898-3.9-.898-7.8-1.5-11.7,0-1.5-.6-3.3-.898-4.5-1.801-4.5-3.602-9-6-12.9-1.5-3-3.602-5.7-6.301-8.1-7.5-6-16.5-8.7-26.1-9.9-5.4-.9-11.4-1.2-17.102-1.5-9,0-18.299-.3-27.299,0-5.4.3-10.801.3-16.201,0-3.6-.3-7.5-.6-11.1.6-2.4.6-4.201,2.1-4.201,4.8-.299,9.3-.6,18.3,0,27.601.602,5.4.9,10.8.9,16.2-.299,24.6-1.199,49.5-.6,74.101,0,2.4,0,5.1.6,7.8.9,3.3-.299,6.6-.6,9.9-.301,8.4.301,16.8,0,25.2-.301,8.1-.301,16.2-.301,24.3,0,6.3,0,12.6-.299,18.9.6,8.1.299,16.2.299,24.3q.301,5.7,6.602,6c10.799.6,21.9-.6,27.6,0l39,.3c1.801,0,3.6-.3,5.4-.9ZM919.68,366.435c0-10.2-1.199-20.4,0-30.6,0-9.6-1.5-18.9-.299-28.5,0-4.2-1.201-8.7-.9-13.2.299-15-.301-30.3.299-45.3.602-11.7-1.199-17.7,0-30.3v-10.8c0-1.2.9-2.4,2.4-2.4l2.4-.3c4.801.3,10.201.3,15,.6,6.6.3,11.701,4.5,13.5,11.1,1.201,3.6,1.5,7.5,1.5,11.4,0,10.2-.299,20.1.6,30,.602,8.4.301,16.8.602,24.9,1.199,23.4-.602,42-.301,63.001v5.4c.301,11.7-5.1,15.6-15,17.7-5.4,1.5-11.4.9-17.1.3-1.801-.3-2.701-1.2-2.701-3ZM938.281,364.636c9.299-1.8,12-4.8,11.699-13.2v-5.4c0-8.7,0-16.8.301-25.201.299-12,.6-24,0-37.5l-.301-10.2c0-4.8,0-9.9-.301-14.7-.6-8.1-.6-16.2-.6-24.3v-6c0-3.6-.299-6.6-.9-9h-.898l-14.701-.6h-.299v9.3c-.602,6.6-.301,11.4-.301,16.5.301,3.9.6,8.4.301,13.8-.301,8.4-.301,16.8-.301,25.5v19.8c-.301,2.1,0,4.2.301,6.6.299,2.1.6,4.5.6,6.6-.9,6-.301,11.7,0,17.7,0,3.6.299,7.2.299,10.8-.898,6.6-.6,12.9-.299,19.8v.6c2.1,0,3.9-.3,5.4-.9Z"/>
      <path class="cls-4" d="M1027.379,254.834c-2.4-1.5-3.6-4.5-2.699-7.2-2.4,0-4.5-.6-6.301-1.8-3-2.1-4.199-6.3-1.5-9.3l3.6-3c1.201-.6,2.4-1.8,3.301-3.6l1.199-1.8c1.5-2.4,2.1-3.6,3-6.3l.9-3.9c-2.699-1.8-4.801-4.5-6.6-7.5-5.701-3-9.9-8.4-11.701-16.2-2.699-14.4,6.9-29.4,21-33,2.701-.6,5.701-.9,8.102-.3,9.299,2.1,16.799,6.9,21.9,14.4,5.398,3.6,9.6,9,12.6,15.3,2.699,6.3,3.301,13.2,1.801,20.7l-.9,3c-.9,3.9-2.102,8.4-3.301,12.6-2.699,8.4-7.199,14.7-13.199,19.8-4.5,3.3-8.4,6-12.9,7.8-3.6,1.5-7.801,2.1-11.701,2.1-2.4,0-4.799-.6-6.6-1.8ZM1034.879,241.334c4.5-1.8,8.1-4.2,11.701-7.2,6-4.8,9.6-10.8,12-17.7,1.5-5.1,2.699-10.2,3.898-15,1.201-6.3.9-12.3-1.5-18-4.199-9.6-11.699-15.9-22.5-18-1.799-.6-3.6-.3-5.699.3-12.6,3-19.801,16.5-17.701,27.601,1.5,6.3,4.801,11.7,11.102,13.8,1.5.3,7.5,3.3,7.5,6.6.299,3.3-.301,5.7-1.5,9.3-1.201,4.2-2.4,5.7-4.5,9.3-1.201,2.1-2.701,3.9-4.801,5.1-.9.6-1.801,1.5-2.699,2.4-.602.6,0,1.8.898,2.4,1.201.9,2.701.9,3.9.9,3.6,0,6.9-.6,9.9-1.8Z"/>
      <path class="cls-4" d="M1091.875,411.136c-6.6,0-9-2.4-9-9v-36c-.299-15.9-.6-32.101.602-48.301l.299-6.9c-.6-7.2-.299-14.4-.299-21.6l.299-10.5.301-4.8c0-2.1.299-3.9,0-5.4,0-2.1-.301-3.6-.301-5.7v-7.8c.301-6.9.301-13.5,0-20.4,0-1.5,0-2.4-.299-2.7-.9-3.9-.9-7.8,0-12.9.299-1.2.299-2.4,0-5.4l-.301-2.1-.301-2.7v-5.1c.602-7.2.602-14.4.301-21.9v-9c0-1.2,0-3,.301-4.8.898-3.3,3.299-5.4,6.299-6,1.201-.3,2.701-.3,4.801-.3,8.4.3,17.4.3,25.801.3l4.199.3c5.699.3,8.4,3,9,8.4v.6c5.699.6,8.4,3,9,8.4v5.7c0,2.7-.299,5.4-.299,8.1-.301,4.5-.602,8.4,0,12.6.6,5.7.299,11.7.299,17.1l-.299,7.8.299,6.6c.301,4.8.6,9.9-.299,14.7v1.8c.6,3,.898,6,.898,8.7l3.301.3c3.6.3,7.199.3,11.4,0l6.6-.3c-.301,0-.6-.3-.6-1.5l-.301-6.6c0-6,0-12-.6-18-.301-2.4,0-4.8,0-6.9v-10.8c0-5.1,0-10.8.9-16.5.6-2.7.299-6-.301-10.2-.6-4.2-.6-8.4-.6-12.3v-6.9c0-.6.301-2.7.9-4.2v-.9c.9-2.7,3-4.8,6.299-5.4l2.701-.3h.299c7.801.6,16.502.6,24.9.3h9.602c5.1,0,7.799,2.4,7.799,7.5v1.5h1.201c5.1,0,7.799,2.4,7.799,7.5v20.1c0,10.8-.299,21.3-.6,31.8l-.299,16.2v6.6l-.301,7.2c.6,4.8.301,10.8-.301,17.4-.299,3-.299,5.7-.299,8.1.299,2.1.6,3,.6,4.2v12.3c0,7.2.301,14.7,0,22.2,0,10.8-.301,21.601,1.199,32.4.301,2.7,0,5.4-.299,7.8,0,1.2-.301,2.4-.301,3.6-.299,6.9,0,13.8,0,21l.301,14.4v3c0,10.2-2.1,12.6-11.4,12.6h-4.201c-2.699,0-4.799-.3-6.898,0-7.801.9-14.4.9-21.9,0-4.201-.6-6.602-3.6-7.201-7.8v-.9l-1.799-.3c-4.201-.6-6.602-3.6-7.201-7.8v-2.4l-.299-2.7v-8.4c0-8.7-.301-17.7.299-26.4.301-7.8.301-15.3.301-23.1v-22.2l-3-.3c-5.701-.3-10.801-.6-18,.3l-.301,6.6c0,3.3-.299,6.6,0,9.9,0,11.1,0,27.6.301,35.7.299,2.1.299,3.3,0,5.4-.301,8.1-.301,15,0,22.2v9.6l-.301,3v2.7c-.6,3.9-4.199,7.2-8.1,6.6-4.201-.6-8.1-.3-12.6-.3-3.301.3-6.602.3-10.201.3-2.1-.3-3.9,0-6.299,0l-4.502.3c-6.6,0-9-2.4-9-9ZM1102.977,406.336c7.799.3,15.6-.9,23.1,0,1.199.3,2.699-1.2,3-2.4,0-1.8.301-3.6.301-5.4,0-11.4-.602-21.601.299-34.5-.6-6.9-.6-25.8-.6-38.4-.301-5.7.301-11.1.301-16.5,0-3.6.6-4.2,3.898-4.5,11.4-1.2,18.301,0,27.602,0,1.5,0,3.299,0,4.799.3.9.3,1.801.9,2.102,2.1,0,5.4.6,10.5.6,15.6-.301,13.8.299,27.3-.301,41.1-.6,11.4-.299,23.101-.299,34.5,0,1.5.299,3,.299,4.8.301,2.1,1.201,3.3,3.301,3.6,7.199.9,13.5.9,20.699,0,3.602-.3,7.5,0,11.701,0,6.299,0,6.9-.3,6.9-8.1v-3c0-12-.602-23.701-.301-35.4,0-3.6,1.199-7.2.6-10.8-1.5-11.1-1.199-22.2-1.199-33,.299-11.1,0-22.2,0-33v-2.4c-.9-3.9-.6-7.8-.301-11.7.6-5.7.9-11.7.301-17.101.299-4.8,0-9.6.299-14.1.301-15.9.9-31.8.9-47.7v-20.101c0-2.4-.6-3-3.299-3-11.102,0-23.701.6-34.801-.3-.6,0-1.5.3-2.4.3-.9.3-1.801.9-2.1,2.1-.301,1.2-.9,2.4-.9,3.6.301,6.3-.301,12.6.6,18.9.6,3.9.9,7.8.301,11.7-1.5,7.8-.6,15.6-.9,23.4,0,3.3-.301,6.3,0,9.6.9,9,.6,18.3.9,27.3,0,2.7-.9,3.6-3.301,3.6-6.299,0-12.6.9-18.9.3-3-.3-6.299-.3-9.299.6-1.201.6-2.701.3-3.9.3-1.801,0-3-.9-3-2.7,0-6.9,0-13.5-1.201-20.4v-2.4c1.201-6.9,0-14.1,0-21,0-8.1.9-16.2,0-24.3-.898-7.2.301-14.1.301-21.3v-5.4c-.301-3-1.5-3.9-4.801-4.2-1.199,0-2.398-.3-3.898-.3-8.4,0-17.4,0-25.801-.3-1.5,0-2.701,0-3.9.3-1.5.3-2.4,1.2-2.699,2.4-.301,1.5-.301,2.7-.301,3.9,0,10.5.6,21-.301,31.5-.299,2.1.301,4.5.301,6.9.301,3,.9,6,.301,8.7-.602,3.6-.9,7.2,0,10.8.299,1.2.299,2.7.299,3.9.6,10.2,0,20.4,0,30.6.9,4.5,0,9,0,13.5,0,10.8-.9,21.3,0,32.1l-.299,7.2c-1.801,24.6-.301,49.5-.602,74.401v9.6c0,4.2.602,4.5,4.5,4.5,3.602,0,7.201-.6,11.102-.3Z"/>
      <path class="cls-4" d="M1278.174,420.436c-4.201,0-9,0-13.801-.9l-3.9.3h-1.5l-3.6.3c-5.4,0-8.699-3.6-8.699-9h-.301c-5.4,0-8.699-3.6-8.699-9,0-7.5-.301-15-.602-22.5l-.299-12c0-6.6.299-13.5.6-20.4.301-8.4.9-16.5.301-24.6-.9-11.7-.301-23.4,0-34.5.299-6.9.6-13.5.6-20.1v-19.5l-.301-19.8v-6.6c.301-4.2.301-7.8,0-11.7v-6.9c0-1.8.301-3.6,0-5.4,0-2.1,0-3.6.301-5.7.299-2.7.299-5.4,0-8.4v-6.6l-.301-3.3c0-1.2-.299-2.7-.299-4.2-.602-4.2,3.299-8.1,7.799-7.5h8.1c3.002,0,5.701,0,8.701.3h6.6c5.701-.3,8.1,0,10.201.3,6,0,9,2.4,9,8.4v.6c6.299.3,9,2.4,9,8.4.299,2.1.299,4.2.299,6l-.299,2.7v6.6c0,2.1-.301,4.2,0,6.6v1.5l.299,2.4-.299,29.7.299,6.3c.301,8.7.602,17.4,0,26.1-.6,11.4-.6,22.8-.6,34.201v9c-1.199,9.3-.9,18.9-.6,28.5.301,4.5.301,9,.301,13.5,0,3.6-.301,6.6-.602,9.9-.299,3.3-.6,6.3,0,9.3.602,6,.602,12,.602,18v4.5l-.301,15c0,6-3,9.3-9,9.9-.9.3-2.1.3-2.701.3h-6.299ZM1277.574,406.636c3.898-.3,5.1-1.8,5.1-5.4l.299-15c0-7.5.301-14.7-.6-21.9-.6-3.6-.299-6.9,0-10.2.301-3.3.6-6.3.6-9.601,0-14.1-1.5-28.2.301-42.3,0-14.4-.301-28.8.6-43.2.6-10.8,0-21.3-.299-32.101l.299-29.7c0-1.2-.299-2.7-.299-3.9-.301-4.8.299-9,0-13.2l.299-3c0-1.8,0-3.6-.299-5.4,0-3.6-.9-4.2-5.102-4.2-3.6-.9-11.1,0-16.5-.3-5.398-.3-11.4,0-16.799-.3-1.801-.3-3.301,1.2-3,2.7,0,2.7.6,5.1.6,7.8-.301,6,.9,12-.6,18,.898,4.5,0,9.3.299,14.7.6,6,0,12.3,0,18.601,0,13.2.301,26.4.301,39.3,0,18-1.801,36-.6,54.3.898,15-1.201,30.3-.9,45.301.299,11.7.9,23.1.9,34.5,0,3,1.5,4.5,4.199,4.5,2.1,0,4.199-.3,6.301-.3,1.199-.3,2.699-.6,3.9-.3,6.299,1.5,12.6.6,18.898.9.602,0,1.5,0,2.102-.3Z"/>
      <path class="cls-4" d="M1341.771,413.536l-.6-2.4c-3.9,0-7.5-2.7-8.4-6.6-1.199-5.1-2.1-10.5-3-15.6l-3.301-18.601c-.898-6-2.1-12.3-3.299-18.3-.6-3-.9-6-1.201-8.7l-.6-7.2c-.6-5.7-1.199-11.4-2.4-16.8-.299-2.1-.6-4.2-1.5-6.6-.898-4.2-1.199-8.4-1.5-12.6-.299-5.7-1.5-11.4-2.699-17.4l-.9-3.6c-.9-5.4-1.5-10.5-2.1-15.3l-.301-1.2c-.299-2.1-.898-4.5-1.199-6.9l-.9-5.4c-1.5-9-2.699-17.7-5.4-26.4-.898-3.6-1.199-6.3-1.199-8.7,0-5.1-.9-9.6-1.801-14.7l-1.799-11.7-.9-5.4-.9-4.8c-.299-2.1-.9-3.3-1.199-5.4v-3c0-4.2,3.299-7.5,7.199-7.5,4.5-.3,8.701-.3,12.9-.3l5.4.3,4.5-.3c6.301-.3,9.6.3,11.699.6,3-.3,4.801-.3,8.102,1.8,2.398,1.5,3.898,3.9,3.898,6.9v2.4c1.801-.9,3.301-1.2,5.102-.3,2.398,1.5,3.898,3.9,3.898,6.9.301,9.9,2.701,21,4.801,31.2.9,5.7,1.801,11.4,2.4,17.1l1.199,8.7c0,2.4.6,4.5,1.201,6.9l.6,3.6c1.199,6.6,2.1,13.2,2.699,19.8.602,6.6,1.801,12.9,3,19.2l1.5-7.2,2.4-13.5c.301-.9.301-2.1.301-3.9.299-9.3,2.1-18.3,3.9-27,1.5-5.7,2.398-11.4,3-18,.6-7.8,3-20.7,5.398-28.201,4.201-13.8,10.801-21.3,22.801-26.7,3.9-1.8,10.201-3,15.6-3,5.102-.6,12.301.3,17.102,2.4,3,.9,5.1,3.6,4.5,6.9l-.301.6c1.801.3,3.6.9,4.801,1.5,3,.9,5.1,3.6,4.5,6.9-.301,2.1-2.1,3.3-3.9,4.2-3.301,1.5-6,5.4-7.801,10.2-1.5,6.3-3.299,13.5-4.5,22.8l-1.5,7.8c-1.5,7.5-3,15.3-3.299,21.9l-.301.9-.6,2.1c-1.5,5.7-2.4,11.4-3.6,17.4l-1.5,9.3-6.602,35.7c-.6,2.7-.898,5.4-1.199,8.1l-.9,8.7c-.6,3.3-1.199,6.3-1.5,9.6-1.799,14.4-3.9,28.8-6.9,42.9-.898,3.9-1.5,7.5-2.1,11.4-.6,5.1-1.199,10.2-2.699,15.3l-.301,1.2c-.6,1.5-.9,2.4-.9,3.6-1.199,5.4-5.4,8.4-11.4,9-.898.3-1.799,0-3,0-2.699-.6-5.699-.6-9.299-.3-2.4.3-5.1.3-7.801.3-5.1-.3-10.5-.3-16.199,0h-10.801c-3.9,0-7.5-2.7-8.4-6.6ZM1343.572,406.636c8.4,0,16.799-.6,24.9,0,6,.3,12-1.2,18,0,.6.3,1.199,0,1.799,0,3.301-.3,6-1.8,6.9-5.4.301-1.8.9-3.3,1.5-5.1,2.1-8.7,2.701-17.7,4.5-26.4,3-14.1,5.102-28.201,6.9-42.601.301-3.3.9-6.6,1.5-9.9.9-5.4,1.201-11.101,2.1-16.5,2.102-12,4.5-24,6.602-36,1.799-9,3-18.3,5.398-27,.301-.9.301-2.1.602-3,.6-9,3.299-20.7,4.799-29.4,1.201-7.8,2.701-15.6,4.801-23.1,1.5-4.8,4.799-10.8,10.199-13.2.9-.3,1.201-.6,1.201-.9.299-.9-.6-1.5-1.5-1.8-4.201-1.8-10.801-2.7-15.301-2.1-4.199,0-10.199.9-14.1,2.7-11.701,5.1-16.801,12-20.4,23.7-2.1,7.2-4.5,19.8-5.1,27.3-.602,6.3-1.5,12.3-3,18.6-1.801,8.7-3.602,17.4-3.9,26.4,0,1.5,0,3-.301,4.5-1.5,8.4-3.299,16.5-4.799,24.6-1.201,5.1-1.5,9.3-1.801,15.601,0,.3,0,.9-.301,1.5l-4.5,27c0,.3-.299.3-.299.6-.301-.3-.9-.3-.9-.6-.6-1.8-1.199-3.6-1.5-5.4l-3.6-24.601c-1.201-8.1-2.102-16.2-3.602-24-1.5-7.5-2.699-15-3.6-22.5-.6-6.6-1.5-13.2-2.699-19.5-.6-3.6-1.5-7.2-1.801-10.8-1.199-8.4-2.1-17.1-3.6-25.5-2.1-10.2-4.5-21.6-4.801-32.101,0-1.8-1.199-3.3-3.299-3.6-3.301-.6-6.9-.9-10.201-.9q-3.299-.3-6.9-.3c0,.3-3.299.3-3.299.3-1.801,0-3.6-.3-5.4-.3-4.199,0-8.4,0-12.6.3-1.801,0-3,1.2-3,3,0,1.5,0,3,.299,4.5.9,2.4,1.201,4.5,1.801,7.8.9,5.7,1.5,11.4,2.699,17.1.9,5.1,1.801,10.2,1.801,15.6,0,2.4.6,5.1,1.199,7.5,3,10.8,4.5,21.6,6.301,32.4.301,2.7.9,5.1,1.5,7.8.6,5.1,1.199,10.2,2.1,15.3,1.5,7.2,3.301,14.4,3.6,21.6.301,4.2.602,8.1,1.5,11.7.602,2.4,1.201,4.8,1.5,6.9,1.801,8.1,2.102,16.2,3,24.3.301,2.7.602,5.7,1.201,8.4,2.4,12.3,4.199,24.601,6.6,36.9.9,5.4,1.801,10.5,3,15.601.301,1.8,2.1,3,3.9,3,.9.3,1.5,0,2.4,0Z"/>
      <path class="cls-4" d="M1533.77,419.836c-7.5-.3-14.1-.3-21-.3l-25.801.6c-4.199.3-8.4,0-12.299,0l-8.102-.3c-4.5-.6-7.199-2.7-7.799-7.2v-1.8h-1.201c-4.5-.6-7.199-2.7-7.799-7.2-.602-6.6-.602-13.2-.301-19.2v-7.5c0-1.8.301-4.2.6-5.1.6-1.8.6-3.3-.299-6.9-.301-1.5,0-4.2.6-6.3l.299-2.1c-1.199-3.6-1.199-7.2-.898-10.2v-7.8l-.301-5.7v-.3c-.301-1.2,0-2.4.301-3.6,1.199-4.2.898-8.4.898-13.5-.299-3.6-.6-7.5,0-11.4-.6-11.1-.6-22.2-.6-33.3v-10.8l-.299-2.7-.301-.6c-.301-2.1-.6-4.5-.301-6,.602-3.3.602-6.6.301-10.2-.301-2.4-.301-5.4-.301-8.4.602-6.6.602-13.2-.299-19.5-.301-1.2-.301-2.4,0-4.5v-1.5c0-3.9.299-7.8.6-11.4.301-5.7.6-11.4,0-16.8-.301-2.4-.301-5.1,0-7.2,2.1-7.2,3.301-8.7,10.801-8.7,10.5.3,20.4.6,30.6.6h2.1c2.4,0,4.201,0,6.301-.3.6-.3,2.4-.3,3.6-.3l3.9.3,2.1.3c2.1,0,3.301-.9,4.201-.9,1.199,0,2.398.3,4.199.3,4.801.6,9.9.3,15.301,0,4.5-.3,9.299-.6,14.1-.3l11.699.6c3.602,0,6.602,3.3,7.201,7.2v1.8h1.799c3.602,0,6.602,3.3,7.201,7.2v5.7l-.301,7.8c0,3.6-.299,7.2,0,11.1v3.9c0,7.5-2.699,10.2-9.6,10.2l-4.199.3c-1.801,0-3.301,0-5.102.3-2.1.3-3.6,0-6-.3-.898,0-2.398,0-4.799.3-2.102,0-4.5.3-7.201,0-2.699-.3-5.699-.3-9,0l-19.199.3c.6,7.8.299,15.3,0,22.5,0,3.9-.301,7.8-.301,11.7v.3c0,2.1-.299,3.6-.6,5.7l-.301,2.1h7.801c6.301.6,10.5.9,14.699.3,3.301-.3,6.301.3,8.701.6l3.6.3c3.301,0,5.4,2.4,6.301,5.7l.299,3,2.4.3c3.301,0,5.4,2.4,6.301,5.7.299,1.5.6,3.3.6,5.4v10.5l.301,10.8c0,1.5-.602,5.7-.9,7.5-.301,3.3-3,6-6.6,6h-16.201c-3.9,0-8.699.3-13.199-.3h-3.9c-3.301-.3-6-.3-9,.3l-.301,2.4v1.8c.6,5.1.301,10.2,0,14.7v9.3c.301,6,.6,12,.6,17.7l3.9.3c4.801.3,10.201.6,21.301-.3,4.5-.3,10.199,0,15.6,0h6.9c3.6,0,6.9,2.4,7.199,6.3l.301,2.7h1.5c3.6,0,6.9,2.4,7.199,6.3.602,4.8.602,9.3.301,13.8,0,3.9,0,7.8.301,11.7v3.3c-1.5,11.4-3.602,13.5-14.102,13.5-9.898.3-18.299-.3-26.1-.6ZM1560.471,397.636c.299-.9,0-2.1,0-3-.9-8.4.6-16.8-.602-25.2,0-1.2-.898-2.1-2.699-2.1-6.6,0-15.9-.3-22.201,0-20.699,1.5-21.6-.6-36,.3-1.799,0-3-.9-3-3,0-9.3,0-18.6-.6-28.2-.301-7.8.9-15.601,0-23.4-.301-1.5.301-3.6.301-5.4,0-2.7.898-3.9,3.6-4.2,4.799-.9,9.301-.3,14.1-.3,7.201.9,14.4,0,21.301.3h7.799c1.201,0,2.102-.9,2.102-2.1.299-1.2.9-5.4.9-6.9,0-8.1-.301-13.2-.301-21.3,0-1.5-.301-3-.6-4.5-.301-1.2-.9-2.1-2.102-2.1-3.898-.3-7.5-1.2-11.699-.9-5.1.6-10.199.3-15.301-.3-5.398-.3-11.1.6-16.5.3-2.4-.3-3.6-.9-3.6-3.3-.301-5.4-1.801-10.8,0-16.2v-2.4c0-11.1,1.5-23.4.301-35.7-.301-1.8.898-3,2.699-3,5.4,0,10.5-.3,15.9-.3,4.801,0,9.9-.6,14.699,0,5.102.6,9.9-1.2,14.701.3,3.9-.9,7.801-.6,11.699-.9,4.801,0,5.4-.9,5.4-5.7v-3.9c-.299-6.3.301-12.6.301-18.9v-5.4c-.301-1.5-1.5-3-3-3-3.9-.3-7.801-.3-11.701-.6-10.799-.6-21.6,1.8-32.1,0h-1.5c-3.301,1.5-6.301.3-9.301.3-1.199,0-2.1-.3-3,0-3.299.9-6.299.6-9.6.6-10.199,0-20.1-.3-30.6-.6-5.102,0-4.801,0-6.301,5.1-.301,1.8-.301,3.9,0,5.7.9,9.6-.6,19.2-.6,28.8,0,1.8-.301,3.6,0,5.4.9,6.9.9,13.8.299,20.4-.299,6.9,1.201,12.3,0,19.2-.299,1.8.301,3.6.602,5.4,0,1.8.299,3.6.299,5.4,0,14.1-.299,27.9.6,41.701-1.199,8.7,1.5,17.7-1.199,26.4-.301.6,0,1.5,0,2.4,0,3.6.301,7.2.301,10.8,0,3.9-.602,7.5.6,11.1,1.199,3-1.201,6-.6,9.3.6,3,1.199,6,0,9.3-.301.9-.301,2.4-.301,3.6,0,8.7-.6,17.4.301,26.101.299,2.1,1.199,3,3.6,3.3,6.6,0,13.199.6,19.801.3,8.699-.3,17.1-.3,25.799-.6,15-.3,28.5,1.2,47.4.9,8.102,0,8.4-.9,9.602-9.3Z"/>
      <path class="cls-4" d="M1692.768,424.936c-11.4-4.2-18.299-9-23.699-16.5-4.5-3.3-8.1-7.2-11.4-12.3-6.6-10.5-9.301-21.3-12.9-32.1-1.5-4.2-2.699-8.1-3.9-12.3,0,4.2-.299,8.7-.6,12.9-.301,4.5-.301,8.1.6,11.1v1.2c.301,2.1.301,3.3,0,5.4-.299,4.2,0,8.1,0,12.6.301,3.6.301,7.2.301,10.8-.301,10.8-1.5,12.9-10.801,14.1-2.1.3-3.6,0-5.699,0-1.5,0-3.301,0-5.4.3-3.301.3-7.801.6-12-.6h-3.301c-1.199.3-2.699.3-4.5.3-5.699,0-9-3.3-9-9-6,0-9-3.3-9-9.3,0-13.5,0-24.9.301-38.701l-.301-4.5c.301-9.3.6-18.3.6-27.6,0-4.5,0-9-.898-13.5-.301-1.8,0-3.9,0-5.7v-2.7l.6-46.2c0-4.8-.301-9.9-.9-15.3-.6-3.3-.301-6.6-.301-9.6v-2.7c0-11.4.301-21.9.602-32.4,0-9.6.299-19.2.299-28.5l.301-2.1c.299-6,3.6-9,10.5-9.6h5.699c7.5.3,15,.3,22.801,0,8.4-.3,17.1-.6,25.801,0,4.199.3,8.699.3,12.9.3,1.199,0,2.398.3,3.6.6,4.5,1.2,9.299,2.7,14.1,4.2,6,1.5,11.699,6,17.1,12.9,3.301,2.4,6.9,6,9.9,10.2,6.6,9.6,10.801,19.8,12.9,30.601.301,1.8.6,3,.6,4.5.9,9.6.6,24.6,0,34.2-.299,6.3-1.199,11.7-2.1,16.5-.9,3-3.6,13.5-5.699,17.1-5.102,8.1-8.701,11.7-13.801,15.3-3,2.1-7.5,4.5-9,5.4.9,2.4,1.5,4.8,2.1,7.2,1.199,4.5,2.1,8.1,3.9,11.7.9,1.8,1.5,3.6,1.799,5.1,1.801,8.1,4.201,16.2,6.9,24.3l.9,3c2.1,4.2,3.9,8.7,5.701,13.2,2.1,5.4,4.199,10.5,6.898,15.3l.602.9c1.199.6,2.699.9,4.799,1.5h1.801c4.5,0,5.699,4.5,4.199,8.1l3,.9h1.801c4.5,0,6,4.8,4.199,8.4-3.299,7.2-7.5,10.5-14.1,12-9.6,2.1-20.4,1.8-28.801-.9ZM1722.469,403.036c.299-.6.6-2.1,0-2.1h-2.4c-7.5-1.8-9.9-3-14.4-8.7-1.199-1.5-2.4-3.3-3.299-5.1-5.102-9.3-8.102-19.2-12.9-28.8-.301-.6-.301-.9-.301-1.5-3-9-5.699-17.7-7.801-27,0-1.2-.6-2.4-1.199-3.6-3.301-6.3-4.199-13.5-6.6-20.4-.6-1.8-.301-2.7,1.5-3.6,11.1-7.2,15-8.7,21.9-20.1,1.799-3,4.199-12.6,5.1-15.9,1.199-5.1,1.801-10.5,2.1-15.6.6-9.6.9-24.3,0-33.6,0-1.5-.299-2.7-.6-3.9-1.801-10.5-6-20.101-12-28.8-3.9-5.4-9-10.8-15.6-12.601-4.801-1.5-9.602-3-14.102-4.2-.6-.3-1.5-.3-2.398-.3-4.201,0-8.701,0-13.201-.3-16.5-1.2-32.1.9-48.6,0h-5.4c-4.5.3-6,1.5-6,5.7-.301.6-.301,1.2-.301,1.5,0,19.5-.9,39-.9,60.9,0,3.9-.299,7.8.301,11.7.6,5.4.9,10.5.9,15.9-.301,15.3-.301,30.9-.6,46.2,0,2.7-.301,5.4,0,7.8.898,4.8.898,9.6.898,14.1,0,10.5-.299,20.7-.6,30.9.301,0,0,1.8.301,1.8-.301,13.5-.301,24.9-.301,38.101,0,3.6,1.201,4.8,4.5,4.8,1.5,0,2.701,0,3.9-.3,1.801,0,3.301-.3,4.801,0,6.6,2.1,12.898-.6,19.5.6,9-.9,8.699-.9,9-9.9.299-8.7-1.201-17.7,0-26.4,0-.9,0-1.8-.301-2.4-.9-4.2-.9-8.4-.6-12.6,1.199-11.7,0-23.7,0-35.4,0-3,0-7.2.301-10.5,0-1.8,1.799-1.8,3.898-2.1,2.4-.3,3.9.6,4.201,3,1.5,8.1,4.799,15.3,5.1,23.1,2.699,9.6,5.4,19.5,8.699,29.101,3.602,11.1,6.301,21.3,12.602,31.2,6.299,9.9,13.5,14.1,23.699,18,8.1,2.4,18,2.4,26.4.6,6-1.2,8.4-4.2,10.801-9.3ZM1626.768,271.635c-.9-6.3-.301-12.6-.301-17.7,0-6.9.301-12.6-.299-18.3-.301-1.8-.301-6.3,0-8.1,1.199-5.1.6-9.9,0-14.7v-7.2c0-1.2.9-1.8,2.1-2.1,7.199-.6,14.699-.9,21.9.6,5.1,1.2,8.699,4.5,10.801,9,2.699,4.8,4.199,10.2,4.199,15.9.301,4.8,0,12.6-.301,17.4-.299,4.8-.898,9.3-1.5,14.1-.299,1.5-1.199,3-1.799,4.2-.9,1.8-2.1,3-3,4.8-2.4,4.2-6.602,6.3-11.102,6.3-5.699.3-10.799-.6-17.398.3-2.4,0-3.301-1.8-3.301-4.5ZM1654.668,267.434c.6-1.2,1.199-2.1,1.799-3l1.201-1.8.301-.6.898-2.4c.602-4.5,1.201-9,1.5-13.5.301-6.3.602-13.2.301-17.1,0-3.9-.9-7.8-2.4-11.4-6.301-1.5-12.9-1.2-19.5-.6.301,0,.9,0,.9,1.2v3.3c.6,4.8,1.199,10.2,0,15.9-.301,1.5-.301,5.4,0,6.6.299,4.5.299,9,.299,13.8v9.6l-.299,3.9h7.799c3.301,0,5.701-1.2,7.201-3.9Z"/>
    </g>
    <g>
      <rect class="cls-1" y="113.028" width="1746.961" height="347.419"/>
      <path class="cls-2" d="M73.997,402.835l-6.301-3.6c-6.899-3.3-11.399-9.3-14.7-15.9-5.1-10.5-7.5-21.6-7.5-33,0-11.7-.899-23.4.601-35.1.3-2.7-.3-5.1-.3-7.8,0-7.2-.301-14.1-.301-21.3,1.2-21.3,0-36.3,0-54,0-4.2-.3-8.4.301-12.6,1.199-9.3,2.399-18.6,7.5-27,9.6-15.3,22.8-24.3,41.1-26.701,3.601-.3,7.2-.9,10.801-1.2,14.399-.6,27,3.9,37.8,12.9,6.601,5.7,12.301,11.7,14.7,20.7l1.2,4.5c.9,3.9,1.2,6.9,1.8,10.8.9,4.2.9,10.8.301,15,0,1.5-.301,2.7-.301,3.6,0,4.2-.899,7.2-1.5,11.1-1.2,5.4-4.2,10.2-9.3,13.2-9,4.8-17.7,6-27.601,3-3-.9-6.3-3.3-8.1-5.1-1.2-1.2-.601-1.8.3-2.4,6.3-3.6,7.2-9.9,8.101-15.3.6-6.6.899-13.8-.9-20.4-1.8-7.8-7.2-12-15-12.3-4.5,0-8.7.3-12.601,2.7-3.6,2.1-6,5.1-6.3,9.3-.3,3.3-1.5,6.9-.9,10.5l-.6,14.4c0,9,.6,18,.3,27-.3,13.5-1.2,27-.3,40.801.6,12.9.6,26.1.6,39,0,4.5,0,9,1.801,12.9.6,2.4,1.8,4.5,3.3,6.3,3.3,4.5,8.1,5.1,13.2,4.5,2.1-.3,3.899-.9,6-2.1,3.3-1.8,5.399-4.8,6-8.4,1.5-6.9,2.1-13.8,2.1-20.7-.3-6.3,0-12.6,0-19.2v-2.4c.3-1.2.601-2.4,1.801-2.7l6.3.3c9.3.3,16.2-.3,24.3-.3h5.4c2.7.6,2.1,2.1,2.4,4.5.3,1.2.3,2.1.3,3.3,0,6.3-.3,12.6,0,19.2.6,2.7.3,6-.3,9-.601,5.7-.601,10.8-1.801,16.2-1.5,7.2-3.899,14.7-9,20.7-1.5,2.1-3,3.9-4.8,5.1l-12.601,9c-3.6,2.7-7.8,4.2-12.3,4.8-7.5,1.2-15,1.5-22.8,1.5-7.801-.3-15.601-1.8-22.2-6.3Z"/>
      <path class="cls-2" d="M199.993,406.135c-1.2-.3-2.7,0-3.9.3-2.101,0-4.2.3-6.3.3-2.7,0-4.2-1.5-4.2-4.5,0-11.4-.601-22.8-.9-34.5-.3-15,1.8-30.3.9-45.301-1.2-18.3.6-36.3.6-54.3,0-12.9-.3-26.1-.3-39.3,0-6.3.6-12.6,0-18.601-.3-5.4.6-10.2-.3-14.7,1.5-6,.3-12,.6-18,0-2.7-.6-5.1-.6-7.8-.3-1.5,1.2-3,3-2.7,5.399.3,11.4,0,16.8.3,5.4.3,12.9-.6,16.5.3,4.2,0,5.101.6,5.101,4.2.3,1.8.3,3.6.3,5.4l-.3,3c.3,4.2-.3,8.4,0,13.2,0,1.2.3,2.7.3,3.9l-.3,29.7c.3,10.8.899,21.3.3,32.101-.9,14.4-.6,28.8-.6,43.2-1.801,14.1-.301,28.2-.301,42.3,0,3.3-.3,6.3-.6,9.601-.3,3.3-.6,6.6,0,10.2.9,7.2.6,14.4.6,21.9l-.3,15c0,3.6-1.2,5.1-5.1,5.4-.601.3-1.5.3-2.101.3-6.3-.3-12.6.6-18.899-.9Z"/>
      <path class="cls-2" d="M357.791,411.835c-10.2-3.9-17.4-8.1-23.7-18-6.3-9.9-9-20.1-12.601-31.2-3.3-9.6-6-19.5-8.699-29.101-.301-7.8-3.601-15-5.101-23.1-.3-2.4-1.8-3.3-4.2-3-2.1.3-3.899.3-3.899,2.1-.301,3.3-.301,7.5-.301,10.5,0,11.7,1.2,23.7,0,35.4-.3,4.2-.3,8.4.601,12.6.3.6.3,1.5.3,2.4-1.2,8.7.3,17.7,0,26.4-.3,9,0,9-9,9.9-6.601-1.2-12.9,1.5-19.5-.6-1.5-.3-3,0-4.801,0-1.199.3-2.399.3-3.899.3-3.3,0-4.5-1.2-4.5-4.8,0-13.2,0-24.601.3-38.101-.3,0,0-1.8-.3-1.8.3-10.2.6-20.4.6-30.9,0-4.5,0-9.3-.899-14.1-.301-2.4,0-5.1,0-7.8.3-15.3.3-30.9.6-46.2,0-5.4-.3-10.5-.9-15.9-.6-3.9-.3-7.8-.3-11.7,0-21.9.9-41.4.9-60.9,0-.3,0-.9.3-1.5,0-4.2,1.5-5.4,6-5.7h5.4c16.5.9,32.1-1.2,48.601,0,4.5.3,9,.3,13.2.3.899,0,1.8,0,2.399.3,4.5,1.2,9.3,2.7,14.101,4.2,6.6,1.8,11.7,7.2,15.6,12.601,6,8.7,10.2,18.3,12,28.8.301,1.2.601,2.4.601,3.9.899,9.3.6,24,0,33.6-.3,5.1-.9,10.5-2.101,15.6-.899,3.3-3.3,12.9-5.1,15.9-6.9,11.4-10.8,12.9-21.9,20.1-1.8.9-2.1,1.8-1.5,3.6,2.4,6.9,3.3,14.1,6.601,20.4.6,1.2,1.199,2.4,1.199,3.6,2.101,9.3,4.801,18,7.801,27,0,.6,0,.9.3,1.5,4.8,9.6,7.8,19.5,12.9,28.8.899,1.8,2.1,3.6,3.3,5.1,4.5,5.7,6.899,6.9,14.4,8.7h2.399c.601,0,.3,1.5,0,2.1-2.399,5.1-4.8,8.1-10.8,9.3-8.4,1.8-18.301,1.8-26.4-.6ZM319.991,275.933c4.5,0,8.7-2.1,11.101-6.3.9-1.8,2.1-3,3-4.8.6-1.2,1.5-2.7,1.8-4.2.601-4.8,1.2-9.3,1.5-14.1.3-4.8.601-12.6.3-17.4,0-5.7-1.5-11.1-4.199-15.9-2.101-4.5-5.7-7.8-10.801-9-7.2-1.5-14.7-1.2-21.9-.6-1.199.3-2.1.9-2.1,2.1v7.2c.6,4.8,1.2,9.6,0,14.7-.3,1.8-.3,6.3,0,8.1.6,5.7.3,11.4.3,18.3,0,5.1-.6,11.4.3,17.7,0,2.7.9,4.5,3.301,4.5,6.6-.9,11.7,0,17.399-.3Z"/>
      <path class="cls-2" d="M443.89,430.435c-3.3-4.5-5.7-8.7-6-14.4,0-.6,0-1.5-.3-2.4-.3-1.8-.3-4.2-1.5-6-.9-1.8-3.601-1.5-5.7-1.8-6.3-1.2-11.4-5.4-16.8-8.1-3.301-3.3-6.9-6.3-9.001-10.8-2.1-5.1-3.3-10.5-4.5-15.9-.3-.3-.3-.9-.3-1.5-2.1-9.6-3.6-18.9-2.399-28.8.3-1.2,0-2.7,0-3.9h-.301v-9.3c0-9.9-.3-19.5-.3-29.1,0-13.2.3-26.1.601-39.3,0-10.8.3-21.3.6-32.101v-1.5c-1.2-6.3,0-12.6.3-18.9.3-8.4,3.601-15.601,9.3-21.9,12.001-13.2,27.601-18.9,45.301-19.8l5.4-.3c6.899,1.5,12.6,1.2,19.5,3.6,8.7,3.3,15,6,20.7,14.1,2.1,3.3,4.8,6.3,6.9,9.6,5.399,8.4,6.6,20.1,6,30-.601,8.7-.9,17.4-.3,26.101v2.1c-.301,4.5-.601,9,0,13.2.6,5.4-.301,10.5-.301,15.9,0,.9-.6,2.1-.3,3,1.2,8.4.3,16.8,0,25.2,0,10.8,0,21.9-.6,33-.301,6.9.3,18-.601,24.9-.3,2.7-1.2,5.7-1.8,8.4-3.3,12-11.7,20.1-20.7,27.9-.9.9-2.1,1.2-3.3,1.8-4.5,2.1-4.8,2.1-4.5,6.9,0,3.3.3,2.4,1.8,5.1,1.8,4.5,5.1,7.2,9.9,8.1,4.5.9,8.7,1.5,13.2-.6,1.199-.6,2.699-1.2,4.199-1.5.9-.3,2.101.9,2.101,1.8-.3.9-.3,1.8-.601,2.4-2.699,6-6.899,10.5-12.899,13.2-5.101,2.4-10.5,4.8-16.2,5.7-15,2.4-27.301-1.8-36.601-14.1ZM472.691,355.735v-21.3c-.301-2.1-.301-3.9,0-6,.3-4.5.899-9,0-13.5-.9-4.2-.9-8.7-.601-13.2,0-9.6.3-19.5.601-29.1h-.301c0-5.4,0-11.1.301-16.5,1.199-12.3-.301-24.601-.601-36.9,0-4.8-1.8-9.3-4.5-13.2-.6-.9-1.2-1.8-2.1-2.1-3.9-1.8-9-3.9-13.5-2.1l-4.501,1.8c-7.8,2.7-11.1,11.4-11.1,20.1,0,5.4.3,11.1.3,16.5,0,9,.3,17.7.601,26.7.3,9.9-.301,19.8-.301,29.701,0,10.5-.3,21-.3,31.5,0,4.5.601,9,.601,13.2.3,5.7.899,11.1,1.8,16.5,1.8,9.3,11.399,14.4,18.6,13.2,7.5-1.2,15.001-5.7,15.001-15.3Z"/>
      <path class="cls-2" d="M574.687,405.835c-7.801-2.4-14.102-6.9-19.5-12.9-3.301-3.6-6.301-5.7-9.002-10.2-3-5.1-4.199-9.6-6-15.3-2.699-8.1-3.299-16.8-3.299-24.9-.6-12.9,0-25.8,0-38.701,0-4.2,0-8.1-.301-12.3-.6-7.2-.9-14.4,0-21.3.6-13.5.6-27.3.6-40.801,0-7.5.602-15.3-.299-22.8-.301-.9,0-2.1,0-3,.299-1.5.6-2.7.6-3.9-.9-7.2,0-13.8-.301-21v-8.7c0-1.8.9-2.7,3-2.4,5.4-.6,10.801-1.2,16.502,0,4.5.6,9,.6,13.799.6,2.1.3,3.9.3,6,.3.9.3,1.5.9,1.5,1.5.301,4.5.6,9,.6,13.5l-.6,14.1v18.9c0,4.2,0,8.4.6,12.3.301,1.5,0,2.7,0,3.9,0,7.2-.299,14.1,0,21.3.301,6.6,0,13.5,0,20.4l-.299,3c2.1,9.6.9,19.5,0,29.1,0,.9-.301,2.1,0,3,1.5,9.6.299,19.5.299,29.1,0,2.7,0,5.1.301,7.8.6,2.4.6,5.1.6,7.8.301,10.2,7.5,16.8,17.102,18,3.898.6,9-.6,12.299-2.7.9-.6,2.1-1.8,2.701-3,.6-1.8,1.5-3.9,1.5-6,.898-8.7,3.299-17.7,1.5-26.4-.602-2.7-.301-5.4-.301-8.1.6-4.8.9-9.6,1.199-14.7.301-5.4,0-10.8.301-16.2,0-3.9.301-7.8.301-11.7,0-6.3-.602-12.6-1.201-18.9,0-1.5-.299-3-.299-4.5.6-7.8.898-15.6.299-23.7v-24c.301-8.1.301-15.9.301-23.7.299-3.6.299-7.2-.301-11.1-.6-1.8-.299-3.9-.299-6,0-1.8.898-2.7,3-3,4.799-.6,9.898-1.5,14.699-.9,6.6,0,14.1.9,20.701.3,2.1,0,1.799.3,2.699,3,0,4.8-.6,9.3.6,14.1-.6,2.4-1.199,4.2-1.199,6.6,0,15.3.6,30.601.299,45.601-.299,8.4-1.5,16.8-.898,25.5,1.199,11.4.898,22.8,1.199,34.5-.301,5.1-.6,10.5-.6,15.6v7.8c0,3.6.9,6.9-.301,10.2-.299.3-.299.9,0,1.5,1.201,9-.6,17.7-.9,26.7-.898,10.2-4.799,18.9-10.199,28.2-3.301,5.1-6.9,7.5-11.1,11.7-6.9,6.9-15.9,10.8-25.801,10.8-12.9.6-19.801,0-32.1-3.9Z"/>
      <path class="cls-2" d="M733.982,406.135c-8.699.3-17.1.3-25.799.6-6.602.3-13.201-.3-19.801-.3-2.4-.3-3.301-1.2-3.6-3.3-.9-8.7-.301-17.4-.301-26.101,0-1.2,0-2.7.301-3.6,1.199-3.3.6-6.3,0-9.3-.602-3.3,1.799-6.3.6-9.3-1.201-3.6-.6-7.2-.6-11.1,0-3.6-.301-7.2-.301-10.8,0-.9-.301-1.8,0-2.4,2.699-8.7,0-17.7,1.199-26.4-.898-13.8-.6-27.601-.6-41.701,0-1.8-.299-3.6-.299-5.4-.301-1.8-.9-3.6-.602-5.4,1.201-6.9-.299-12.3,0-19.2.602-6.6.602-13.5-.299-20.4-.301-1.8,0-3.6,0-5.4,0-9.6,1.5-19.2.6-28.8-.301-1.8-.301-3.9,0-5.7,1.5-5.1,1.199-5.1,6.301-5.1,10.5.3,20.4.6,30.6.6,3.301,0,6.301.3,9.6-.6.9-.3,1.801,0,3,0,3,0,6,1.2,9.301-.3h1.5c10.5,1.8,21.301-.6,32.1,0,3.9.3,7.801.3,11.701.6,1.5,0,2.699,1.5,3,3v5.4c0,6.3-.6,12.6-.301,18.9v3.9c0,4.8-.6,5.7-5.4,5.7-3.898.3-7.799,0-11.699.9-4.801-1.5-9.6.3-14.701-.3-4.799-.6-9.898,0-14.699,0-5.4,0-10.5.3-15.9.3-1.801,0-3,1.2-2.699,3,1.199,12.3-.301,24.6-.301,35.7v2.4c-1.801,5.4-.301,10.8,0,16.2,0,2.4,1.199,3,3.6,3.3,5.4.3,11.102-.6,16.5-.3,5.102.6,10.201.9,15.301.3,4.199-.3,7.801.6,11.699.9,1.201,0,1.801.9,2.102,2.1.299,1.5.6,3,.6,4.5,0,8.1.301,13.2.301,21.3,0,1.5-.602,5.7-.9,6.9,0,1.2-.9,2.1-2.102,2.1h-7.799c-6.9-.3-14.1.6-21.301-.3-4.799,0-9.301-.6-14.1.3-2.701.3-3.6,1.5-3.6,4.2,0,1.8-.602,3.9-.301,5.4.9,7.8-.301,15.6,0,23.4.6,9.6.6,18.9.6,28.2,0,2.1,1.201,3,3,3,14.4-.9,15.301,1.2,36-.3,6.301-.3,15.602,0,22.201,0,1.801,0,2.699.9,2.699,2.1,1.201,8.4-.299,16.8.602,25.2,0,.9.299,2.1,0,3-1.201,8.4-1.5,9.3-9.602,9.3-18.9.3-32.4-1.2-47.4-.9Z"/>
      <path class="cls-2" d="M910.08,406.735c-5.699-.6-16.801.6-27.6,0q-6.301-.3-6.602-6c0-8.1.301-16.2-.299-24.3.299-6.3.299-12.601.299-18.9,0-8.1,0-16.2.301-24.3.301-8.4-.301-16.8,0-25.2.301-3.3,1.5-6.6.6-9.9-.6-2.7-.6-5.4-.6-7.8-.6-24.6.301-49.5.6-74.101,0-5.4-.299-10.8-.9-16.2-.6-9.3-.299-18.3,0-27.601,0-2.7,1.801-4.2,4.201-4.8,3.6-1.2,7.5-.9,11.1-.6,5.4.3,10.801.3,16.201,0,9-.3,18.299,0,27.299,0,5.701.3,11.701.6,17.102,1.5,9.6,1.2,18.6,3.9,26.1,9.9,2.699,2.4,4.801,5.1,6.301,8.1,2.398,3.9,4.199,8.4,6,12.9.299,1.2.898,3,.898,4.5.602,3.9.602,7.8,1.5,11.7,1.801,9,1.5,18,1.5,27.3,0,6.6-.6,13.2.9,19.5.301,1.2.301,2.7,0,3.9-.6,9-.299,17.7-.9,26.701-.6,9.9-.299,19.8-.299,29.7,0,12.6-.6,25.2-1.5,37.8-.9,8.7-3,16.8-8.4,24-2.699,3.9-5.4,7.5-8.4,11.4-.9,1.2-2.4,2.4-3.6,3-5.701,2.7-11.1,6-17.4,7.2-1.801.6-3.6.9-5.4.9l-39-.3ZM939.48,369.235c9.9-2.1,15.301-6,15-17.7v-5.4c-.301-21,1.5-39.601.301-63.001-.301-8.1,0-16.5-.602-24.9-.898-9.9-.6-19.8-.6-30,0-3.9-.299-7.8-1.5-11.4-1.799-6.6-6.9-10.8-13.5-11.1-4.799-.3-10.199-.3-15-.6l-2.4.3c-1.5,0-2.4,1.2-2.4,2.4v10.8c-1.199,12.6.602,18.6,0,30.3-.6,15,0,30.3-.299,45.3-.301,4.5.9,9,.9,13.2-1.201,9.6.299,18.9.299,28.5-1.199,10.2,0,20.4,0,30.6,0,1.8.9,2.7,2.701,3,5.699.6,11.699,1.2,17.1-.3Z"/>
      <path class="cls-2" d="M1021.078,242.333c-.898-.6-1.5-1.8-.898-2.4.898-.9,1.799-1.8,2.699-2.4,2.1-1.2,3.6-3,4.801-5.1,2.1-3.6,3.299-5.1,4.5-9.3,1.199-3.6,1.799-6,1.5-9.3,0-3.3-6-6.3-7.5-6.6-6.301-2.1-9.602-7.5-11.102-13.8-2.1-11.1,5.102-24.601,17.701-27.601,2.1-.6,3.9-.9,5.699-.3,10.801,2.1,18.301,8.4,22.5,18,2.4,5.7,2.701,11.7,1.5,18-1.199,4.8-2.398,9.9-3.898,15-2.4,6.9-6,12.9-12,17.7-3.602,3-7.201,5.4-11.701,7.2-3,1.2-6.301,1.8-9.9,1.8-1.199,0-2.699,0-3.9-.9Z"/>
      <path class="cls-2" d="M1087.375,402.235v-9.6c.301-24.9-1.199-49.801.602-74.401l.299-7.2c-.9-10.8,0-21.3,0-32.1,0-4.5.9-9,0-13.5,0-10.2.6-20.4,0-30.6,0-1.2,0-2.7-.299-3.9-.9-3.6-.602-7.2,0-10.8.6-2.7,0-5.7-.301-8.7,0-2.4-.6-4.8-.301-6.9.9-10.5.301-21,.301-31.5,0-1.2,0-2.4.301-3.9.299-1.2,1.199-2.1,2.699-2.4,1.199-.3,2.4-.3,3.9-.3,8.4.3,17.4.3,25.801.3,1.5,0,2.699.3,3.898.3,3.301.3,4.5,1.2,4.801,4.2v5.4c0,7.2-1.199,14.1-.301,21.3.9,8.1,0,16.2,0,24.3,0,6.9,1.201,14.1,0,21v2.4c1.201,6.9,1.201,13.5,1.201,20.4,0,1.8,1.199,2.7,3,2.7,1.199,0,2.699.3,3.9-.3,3-.9,6.299-.9,9.299-.6,6.301.6,12.602-.3,18.9-.3,2.4,0,3.301-.9,3.301-3.6-.301-9,0-18.3-.9-27.3-.301-3.3,0-6.3,0-9.6.301-7.8-.6-15.6.9-23.4.6-3.9.299-7.8-.301-11.7-.9-6.3-.299-12.6-.6-18.9,0-1.2.6-2.4.9-3.6.299-1.2,1.199-1.8,2.1-2.1.9,0,1.801-.3,2.4-.3,11.1.9,23.699.3,34.801.3,2.699,0,3.299.6,3.299,3v20.101c0,15.9-.6,31.8-.9,47.7-.299,4.5,0,9.3-.299,14.1.6,5.4.299,11.4-.301,17.101-.299,3.9-.6,7.8.301,11.7v2.4c0,10.8.299,21.9,0,33,0,10.8-.301,21.9,1.199,33,.6,3.6-.6,7.2-.6,10.8-.301,11.7.301,23.4.301,35.4v3c0,7.8-.602,8.1-6.9,8.1-4.201,0-8.1-.3-11.701,0-7.199.9-13.5.9-20.699,0-2.1-.3-3-1.5-3.301-3.6,0-1.8-.299-3.3-.299-4.8,0-11.4-.301-23.1.299-34.5.6-13.8,0-27.3.301-41.1,0-5.1-.6-10.2-.6-15.6-.301-1.2-1.201-1.8-2.102-2.1-1.5-.3-3.299-.3-4.799-.3-9.301,0-16.201-1.2-27.602,0-3.299.3-3.898.9-3.898,4.5,0,5.4-.602,10.8-.301,16.5,0,12.6,0,31.5.6,38.4-.9,12.9-.299,23.1-.299,34.5,0,1.8-.301,3.6-.301,5.4-.301,1.2-1.801,2.7-3,2.4-7.5-.9-15.301.3-23.1,0-3.9-.3-7.5.3-11.102.3-3.898,0-4.5-.3-4.5-4.5Z"/>
      <path class="cls-2" d="M1256.574,406.135c-1.201-.3-2.701,0-3.9.3-2.102,0-4.201.3-6.301.3-2.699,0-4.199-1.5-4.199-4.5,0-11.4-.602-22.8-.9-34.5-.301-15,1.799-30.3.9-45.301-1.201-18.3.6-36.3.6-54.3,0-12.9-.301-26.1-.301-39.3,0-6.3.6-12.6,0-18.601-.299-5.4.6-10.2-.299-14.7,1.5-6,.299-12,.6-18,0-2.7-.6-5.1-.6-7.8-.301-1.5,1.199-3,3-2.7,5.398.3,11.4,0,16.799.3,5.4.3,12.9-.6,16.5.3,4.201,0,5.102.6,5.102,4.2.299,1.8.299,3.6.299,5.4l-.299,3c.299,4.2-.301,8.4,0,13.2,0,1.2.299,2.7.299,3.9l-.299,29.7c.299,10.8.898,21.3.299,32.101-.9,14.4-.6,28.8-.6,43.2-1.801,14.1-.301,28.2-.301,42.3,0,3.3-.299,6.3-.6,9.601-.299,3.3-.6,6.6,0,10.2.9,7.2.6,14.4.6,21.9l-.299,15c0,3.6-1.201,5.1-5.1,5.4-.602.3-1.5.3-2.102.3-6.299-.3-12.6.6-18.898-.9Z"/>
      <path class="cls-2" d="M1337.271,403.735c-1.199-5.1-2.1-10.2-3-15.601-2.4-12.3-4.199-24.6-6.6-36.9-.6-2.7-.9-5.7-1.201-8.4-.898-8.1-1.199-16.2-3-24.3-.299-2.1-.898-4.5-1.5-6.9-.898-3.6-1.199-7.5-1.5-11.7-.299-7.2-2.1-14.4-3.6-21.6-.9-5.1-1.5-10.2-2.1-15.3-.6-2.7-1.199-5.1-1.5-7.8-1.801-10.8-3.301-21.6-6.301-32.4-.6-2.4-1.199-5.1-1.199-7.5,0-5.4-.9-10.5-1.801-15.6-1.199-5.7-1.799-11.4-2.699-17.1-.6-3.3-.9-5.4-1.801-7.8-.299-1.5-.299-3-.299-4.5,0-1.8,1.199-3,3-3,4.199-.3,8.4-.3,12.6-.3,1.801,0,3.6.3,5.4.3,0,0,3.299,0,3.299-.3q3.602,0,6.9.3c3.301,0,6.9.3,10.201.9,2.1.3,3.299,1.8,3.299,3.6.301,10.5,2.701,21.9,4.801,32.101,1.5,8.4,2.4,17.1,3.6,25.5.301,3.6,1.201,7.2,1.801,10.8,1.199,6.3,2.1,12.9,2.699,19.5.9,7.5,2.1,15,3.6,22.5,1.5,7.8,2.4,15.9,3.602,24l3.6,24.601c.301,1.8.9,3.6,1.5,5.4,0,.3.6.3.9.6,0-.3.299-.3.299-.6l4.5-27c.301-.6.301-1.2.301-1.5.301-6.3.6-10.5,1.801-15.601,1.5-8.1,3.299-16.2,4.799-24.6.301-1.5.301-3,.301-4.5.299-9,2.1-17.7,3.9-26.4,1.5-6.3,2.398-12.3,3-18.6.6-7.5,3-20.1,5.1-27.3,3.6-11.7,8.699-18.6,20.4-23.7,3.9-1.8,9.9-2.7,14.1-2.7,4.5-.6,11.1.3,15.301,2.1.9.3,1.799.9,1.5,1.8,0,.3-.301.6-1.201.9-5.4,2.4-8.699,8.4-10.199,13.2-2.1,7.5-3.6,15.3-4.801,23.1-1.5,8.7-4.199,20.4-4.799,29.4-.301.9-.301,2.1-.602,3-2.398,8.7-3.6,18-5.398,27-2.102,12-4.5,24-6.602,36-.898,5.4-1.199,11.1-2.1,16.5-.6,3.3-1.199,6.6-1.5,9.9-1.799,14.4-3.9,28.5-6.9,42.601-1.799,8.7-2.4,17.7-4.5,26.4-.6,1.8-1.199,3.3-1.5,5.1-.9,3.6-3.6,5.1-6.9,5.4-.6,0-1.199.3-1.799,0-6-1.2-12,.3-18,0-8.102-.6-16.5,0-24.9,0-.9,0-1.5.3-2.4,0-1.801,0-3.6-1.2-3.9-3Z"/>
      <path class="cls-2" d="M1503.469,406.135c-8.699.3-17.1.3-25.799.6-6.602.3-13.201-.3-19.801-.3-2.4-.3-3.301-1.2-3.6-3.3-.9-8.7-.301-17.4-.301-26.101,0-1.2,0-2.7.301-3.6,1.199-3.3.6-6.3,0-9.3-.602-3.3,1.799-6.3.6-9.3-1.201-3.6-.6-7.2-.6-11.1,0-3.6-.301-7.2-.301-10.8,0-.9-.301-1.8,0-2.4,2.699-8.7,0-17.7,1.199-26.4-.898-13.8-.6-27.601-.6-41.701,0-1.8-.299-3.6-.299-5.4-.301-1.8-.9-3.6-.602-5.4,1.201-6.9-.299-12.3,0-19.2.602-6.6.602-13.5-.299-20.4-.301-1.8,0-3.6,0-5.4,0-9.6,1.5-19.2.6-28.8-.301-1.8-.301-3.9,0-5.7,1.5-5.1,1.199-5.1,6.301-5.1,10.5.3,20.4.6,30.6.6,3.301,0,6.301.3,9.6-.6.9-.3,1.801,0,3,0,3,0,6,1.2,9.301-.3h1.5c10.5,1.8,21.301-.6,32.1,0,3.9.3,7.801.3,11.701.6,1.5,0,2.699,1.5,3,3v5.4c0,6.3-.6,12.6-.301,18.9v3.9c0,4.8-.6,5.7-5.4,5.7-3.898.3-7.799,0-11.699.9-4.801-1.5-9.6.3-14.701-.3-4.799-.6-9.898,0-14.699,0-5.4,0-10.5.3-15.9.3-1.801,0-3,1.2-2.699,3,1.199,12.3-.301,24.6-.301,35.7v2.4c-1.801,5.4-.301,10.8,0,16.2,0,2.4,1.199,3,3.6,3.3,5.4.3,11.102-.6,16.5-.3,5.102.6,10.201.9,15.301.3,4.199-.3,7.801.6,11.699.9,1.201,0,1.801.9,2.102,2.1.299,1.5.6,3,.6,4.5,0,8.1.301,13.2.301,21.3,0,1.5-.602,5.7-.9,6.9,0,1.2-.9,2.1-2.102,2.1h-7.799c-6.9-.3-14.1.6-21.301-.3-4.799,0-9.301-.6-14.1.3-2.701.3-3.6,1.5-3.6,4.2,0,1.8-.602,3.9-.301,5.4.9,7.8-.301,15.6,0,23.4.6,9.6.6,18.9.6,28.2,0,2.1,1.201,3,3,3,14.4-.9,15.301,1.2,36-.3,6.301-.3,15.602,0,22.201,0,1.801,0,2.699.9,2.699,2.1,1.201,8.4-.299,16.8.602,25.2,0,.9.299,2.1,0,3-1.201,8.4-1.5,9.3-9.602,9.3-18.9.3-32.4-1.2-47.4-.9Z"/>
      <path class="cls-2" d="M1685.268,411.835c-10.199-3.9-17.4-8.1-23.699-18-6.301-9.9-9-20.1-12.602-31.2-3.299-9.6-6-19.5-8.699-29.101-.301-7.8-3.6-15-5.1-23.1-.301-2.4-1.801-3.3-4.201-3-2.1.3-3.898.3-3.898,2.1-.301,3.3-.301,7.5-.301,10.5,0,11.7,1.199,23.7,0,35.4-.301,4.2-.301,8.4.6,12.6.301.6.301,1.5.301,2.4-1.201,8.7.299,17.7,0,26.4-.301,9,0,9-9,9.9-6.602-1.2-12.9,1.5-19.5-.6-1.5-.3-3,0-4.801,0-1.199.3-2.4.3-3.9.3-3.299,0-4.5-1.2-4.5-4.8,0-13.2,0-24.601.301-38.101-.301,0,0-1.8-.301-1.8.301-10.2.6-20.4.6-30.9,0-4.5,0-9.3-.898-14.1-.301-2.4,0-5.1,0-7.8.299-15.3.299-30.9.6-46.2,0-5.4-.301-10.5-.9-15.9-.6-3.9-.301-7.8-.301-11.7,0-21.9.9-41.4.9-60.9,0-.3,0-.9.301-1.5,0-4.2,1.5-5.4,6-5.7h5.4c16.5.9,32.1-1.2,48.6,0,4.5.3,9,.3,13.201.3.898,0,1.799,0,2.398.3,4.5,1.2,9.301,2.7,14.102,4.2,6.6,1.8,11.699,7.2,15.6,12.601,6,8.7,10.199,18.3,12,28.8.301,1.2.6,2.4.6,3.9.9,9.3.6,24,0,33.6-.299,5.1-.9,10.5-2.1,15.6-.9,3.3-3.301,12.9-5.1,15.9-6.9,11.4-10.801,12.9-21.9,20.1-1.801.9-2.1,1.8-1.5,3.6,2.4,6.9,3.299,14.1,6.6,20.4.6,1.2,1.199,2.4,1.199,3.6,2.102,9.3,4.801,18,7.801,27,0,.6,0,.9.301,1.5,4.799,9.6,7.799,19.5,12.9,28.8.898,1.8,2.1,3.6,3.299,5.1,4.5,5.7,6.9,6.9,14.4,8.7h2.4c.6,0,.299,1.5,0,2.1-2.4,5.1-4.801,8.1-10.801,9.3-8.4,1.8-18.301,1.8-26.4-.6ZM1647.467,275.933c4.5,0,8.701-2.1,11.102-6.3.9-1.8,2.1-3,3-4.8.6-1.2,1.5-2.7,1.799-4.2.602-4.8,1.201-9.3,1.5-14.1.301-4.8.602-12.6.301-17.4,0-5.7-1.5-11.1-4.199-15.9-2.102-4.5-5.701-7.8-10.801-9-7.201-1.5-14.701-1.2-21.9-.6-1.199.3-2.1.9-2.1,2.1v7.2c.6,4.8,1.199,9.6,0,14.7-.301,1.8-.301,6.3,0,8.1.6,5.7.299,11.4.299,18.3,0,5.1-.6,11.4.301,17.7,0,2.7.9,4.5,3.301,4.5,6.6-.9,11.699,0,17.398-.3Z"/>
    </g>
  </g>
</svg>