<?xml version="1.0" encoding="UTF-8"?>
<svg xmlns="http://www.w3.org/2000/svg" viewBox="0 0 2520.314 602.175">
  <defs>
    <style>
      .cls-1 {
        fill: none;
      }

      .cls-2 {
        fill: #fff;
      }

      .cls-3 {
        fill: #e44424;
      }
    </style>
  </defs>
  <g id="Layer_2" data-name="Layer 2">
    <g>
      <path class="cls-2" d="M2127.165,274.703l-22.819-6.593c-3.258-.962-6.766.276-8.7,3.07l-10.166,14.688c-1.237,1.786-1.68,4.004-1.224,6.129l5.582,26.049c.589,2.749,2.599,4.975,5.274,5.84l12.662,3.679,20.088-17.511,5.648-15.225-6.344-20.124Z"/>
      <path class="cls-3" d="M2129.828,272.347c-5.91-1.707-11.82-3.415-17.73-5.122-7.366-2.128-15.148-3.073-20.519,3.896-3.539,4.592-6.997,9.583-10.046,14.514-3.4,5.497-.602,12.3.646,18.123.813,3.794,1.626,7.588,2.439,11.382.496,2.316.789,4.836,2.062,6.881,2.04,3.279,5.481,4.137,8.92,5.136,3.054.887,6.275,2.249,9.419,2.736,5.758.892,10.916-5.698,14.781-9.067l8.679-7.566c1.371-1.195,2.872-2.235,3.754-3.825,1.697-3.06,2.578-6.95,3.793-10.225.781-2.104,1.909-4.036,1.615-6.228-.478-3.558-2.324-7.37-3.402-10.791-.909-2.884-1.819-5.768-2.728-8.653-.952-3.021-9.619-.605-8.693,2.329,1.784,5.66,3.569,11.32,5.353,16.98.274.87.878,1.998.92,2.918-.017-.379-.115.041-.415.922-1.125,3.301-2.431,6.552-3.644,9.822-.403,1.086-1.097,2.343-1.292,3.484-.182,1.063,1.33-.837.075-.16-2.336,1.26-4.513,3.935-6.508,5.674-4.339,3.782-8.678,7.565-13.017,11.347l6.147-1.647c-5.601-1.627-14.333-2.159-16.293-8.516-1.924-6.238-2.788-13.013-4.156-19.395-.453-2.115-1.124-4.292-1.38-6.442-.474-3.979,2.232-6.797,4.338-9.84,1.97-2.846,3.766-6.362,6.144-8.877,1.788-1.89,2.866-1.595,5.16-.932,6.751,1.95,13.502,3.901,20.253,5.851,2.759.797,10.191-3.307,5.326-4.712Z"/>
    </g>
    <path class="cls-3" d="M2130.076,289.237c-7.254.267-10.916,1.025-18.706-1.495-.804-.26-1.405.751-.795,1.336,8.66,8.313,9.672,8.521,13.814,9.13.535.079.813.656.573,1.141-1.459,2.941-1.028,8.486-.016,10.944.227.552.967.653,1.348.193l8.419-10.16c.188-.226.235-.537.124-.81l-3.99-9.784c-.126-.31-.437-.508-.771-.496Z"/>
    <g>
      <path class="cls-2" d="M2145.713,235.18s-16.181,21.565-17.28,35.85,6.356,17.882,4.708,28.321c-1.648,10.439-22.901,27.623-35.616,39.257-3.945,3.61-3.875,13.872-2.322,15.707,5.59,6.608,16.388,13.156,16.877,15.362.732,3.297-2.565,12.637-4.213,16.483s-.253,9.494,4.213,12.941c-2.114,5.327-3.057,7.207.705,10.967,3.761,3.76,15.981,14.1,14.728,23.813-1.253,9.713.287,27.096,12.128,34.496,11.841,7.401,40.999,6.981,52.546,2.96,50.371-17.539,120.196-57.858,120.196-57.858l36.971-77.585-111.363-95.937-92.278-4.778Z"/>
      <path class="cls-3" d="M2142.067,233.864c-6.268,8.395-12.107,17.786-15.662,27.665-2.391,6.644-3.262,13.587-1.617,20.536,1.375,5.807,5.213,11.413,3.946,17.605-1.277,6.241-7.09,11.636-11.361,16-5.969,6.1-12.443,11.68-18.802,17.361-5.105,4.561-8.456,8.367-8.739,15.543-.285,7.213,3.664,10.459,8.972,14.86,2.319,1.922,7.548,4.559,8.822,7.335,1.127,2.456-1.331,7.884-2.146,10.23-1.181,3.404-2.89,6.494-2.609,10.198.328,4.325,2.674,7.666,5.865,10.437l-.818-3.054c-1.193,3.005-2.806,6.362-1.69,9.632,1.001,2.936,3.928,5.043,6.063,7.149,5.426,5.352,11.393,11.65,10.706,19.771-1.138,13.461,1.961,29.775,14.94,36.699,12.709,6.78,30.306,6.597,44.208,4.802,15.355-1.983,30.204-9.409,44.228-15.62,27.559-12.205,54.395-26.118,80.697-40.824,3.633-2.031,8.172-3.684,10.107-7.514,3.601-7.129,6.881-14.44,10.317-21.65,8.674-18.203,17.348-36.406,26.022-54.609.572-1.2.12-2.246-.818-3.054-26.05-22.441-52.1-44.883-78.149-67.324-7.162-6.17-14.323-12.339-21.485-18.509-3.657-3.15-7.219-6.883-11.189-9.639-2.666-1.851-6.556-1.348-9.692-1.51-9.649-.5-19.298-.999-28.947-1.499-18.676-.967-37.352-1.934-56.028-2.901-1.947-.101-4.911.546-5.656,2.679-.666,1.906.622,3.615,2.668,3.721,15.546.805,31.091,1.61,46.637,2.415,10.593.548,21.186,1.097,31.779,1.645l10.476.542c.784.041,1.726.233,2.505.13,2.2-.293-1.533.971-.941-.598-.218.577,7.736,6.665,8.292,7.143,6.48,5.582,12.959,11.164,19.439,16.747,17.029,14.67,34.058,29.34,51.087,44.011,10.839,9.338,21.678,18.675,32.517,28.013l-.818-3.054c-10.784,22.632-21.569,45.264-32.353,67.896-1.539,3.23-3.078,6.46-4.617,9.69l2.225-2.086c-24.854,14.34-50.44,27.608-76.454,39.704-9.751,4.534-19.597,8.877-29.59,12.852-8.247,3.281-16.169,6.345-25.063,7.132-9.391.831-19.34.678-28.521-1.67-9.226-2.36-15.041-8.254-17.636-17.454-1.368-4.852-1.845-9.93-1.536-14.956.285-4.646.344-8.393-1.793-12.676-2.265-4.54-5.653-8.366-9.227-11.92-1.269-1.262-2.645-2.437-3.867-3.745-2.819-3.018-1.944-4.926-.518-8.518.496-1.25.168-2.197-.818-3.054-6.79-5.896-1.855-12.885.032-19.819,1.596-5.862,1.6-8.917-3.091-12.859-4.359-3.663-13.329-8.13-13.734-14.324-.174-2.66.129-6.18,1.607-8.464,1.953-3.018,5.703-5.43,8.389-7.823,5.814-5.179,11.639-10.384,17.034-16.004,4.168-4.342,8.792-9.283,10.975-15.008,1.954-5.124,1.079-10.379-.757-15.38-2.358-6.42-3.977-12.517-2.569-19.418,2.266-11.11,9.336-21.984,16.049-30.974,3.309-4.431-4.871-5.876-7.293-2.631Z"/>
    </g>
    <path class="cls-3" d="M2152.882,182.914c-.143.021-.28.054-.416.102-2.956,1.048-36.845,13.548-40.02,36.827-3.319,24.343,16.503,41.505,19.842,37.817,2.181-2.41-4.351-9.601-3.244-21.772,1.106-12.171,6.086,5.214,13.831,11.459,7.745,6.245,27.697,10.158,41.494,11.334,16.223,1.383,35.902,3.291,45.128,11.897,10.407,9.707,16.506,12.336,32.992,26.72,13.434,11.722,14.819,33.644,13.973,47.98-.128,2.168,2.604,3.193,3.942,1.482,12.164-15.564,27.526-20.389,41.171-14.054,15.491,7.192,7.192,33.195-3.873,42.6-7.144,6.073-14.519,12.606-18.848,16.474-1.379,1.232-.721,3.513,1.105,3.814,5.427.894,14.086,3.82,19.459,13.239.881,1.544,3.111,1.467,3.894-.129,6.568-13.374,25.814-22.004,43.396-20.851,18.841,1.235-22.879-129.785-26.124-139.89-.13-.405-.373-.759-.702-1.028l-93.903-76.822c-.479-.392-1.101-.564-1.713-.475l-91.382,13.277Z"/>
    <path class="cls-3" d="M2218.374,141.029c30.424-30.424,235.361-136.876,287.747-139.786,0,0,15.91-6.988,14.04,12.182-1.87,19.17-30.522,73.48-55.902,146.901-22.816,66.004-45.768,143.604-52.135,167.973-.597,2.285,7.574,20.609,8.634,25.726-15.516,13.235-54.051,33.828-54.051,33.828,0,0-14.308-64.34-39.114-105.043-23.807-39.065-65.321-72.413-107.401-87.59-25.002-9.018-67.52-12.274-67.52-12.274,0,0,36.184-43.221,46.146-46.585,3.097-1.046,19.557,4.669,19.557,4.669Z"/>
    <path class="cls-2" d="M2219.98,141.433c21.734,5.569,43.626,12.564,62.705,24.65,14.77,9.357,27.341,21.536,39.997,33.485,30.275,28.582,52.424,64.186,71.438,101.019,8.863,17.17,18.043,35.312,22.485,54.242,1.004,4.278,9.707,1.991,8.693-2.329-3.942-16.799-11.781-32.874-19.402-48.251-10.135-20.449-21.523-40.338-34.153-59.35-11.125-16.747-23.264-32.602-37.96-46.371-13.152-12.322-25.941-25.255-40.937-35.379-21.106-14.249-45.486-22.139-69.957-28.409-4.489-1.15-8.587,5.238-2.91,6.692h0Z"/>
    <path class="cls-2" d="M2163.547,181.138c17.968,4.009,35.99,8.929,52.492,17.263,11.96,6.04,22.499,14.26,32.36,23.259,11.954,10.909,24.251,21.942,34.952,34.084,13.609,15.442,25.182,32.66,35.474,50.454,10.067,17.405,19.043,35.534,26.182,54.344,1.575,4.15,10.238,1.74,8.693-2.329-13.877-36.563-33.748-72.397-58.941-102.369-10.998-13.084-23.816-24.594-36.288-36.249-10.091-9.431-20.671-18.195-32.813-24.881-18.389-10.126-38.828-15.722-59.202-20.269-4.508-1.006-8.645,5.413-2.91,6.692h0Z"/>
    <path class="cls-3" d="M2162.842,309.46c1.694-2.448,3.389-4.896,5.083-7.344,1.436-2.075,3.234-6.272,5.409-7.637,1.558-.978,3.895.232,5.541.717l10.185,3.005c7.437,2.195,14.875,4.389,22.312,6.584,3.056.902,5.352,1.503,6.642,4.99.728,1.969,1.064,4.176,1.583,6.209,1.656,6.499,4,13.157,5.042,19.784.652,4.145-1.831,6.093-4.29,8.82l-7.978,8.846c-1.561,1.731-2.425,3.195-4.979,2.852-2.387-.321-4.943-1.599-7.231-2.339l-23.244-7.518c-2.013-.651-4.562-1.072-6.426-2.127-3.311-1.874-3.537-6.415-4.255-9.767-.966-4.507-1.931-9.013-2.897-13.52-.804-3.751-2.476-7.956-.496-11.556,2.191-3.983-6.583-3.582-8.212-.621-2.15,3.909-1.538,7.263-.669,11.321,1.006,4.697,2.013,9.394,3.019,14.091.627,2.927,1.003,6.065,1.971,8.906,1.373,4.031,4.489,5.864,8.278,7.145,8.254,2.792,16.588,5.365,24.878,8.047,7.519,2.432,15.901,6.625,23.259,1.285,2.819-2.046,5.059-5.177,7.365-7.734,2.627-2.913,5.398-5.748,7.906-8.766,5.537-6.664,1.16-15.714-.725-23.11-1.849-7.256-2.321-16.907-10.492-19.719-7.029-2.419-14.332-4.229-21.461-6.333l-14.213-4.194c-3.68-1.086-7.122-2.089-11.026-1.067-8.463,2.216-13.483,13.474-18.09,20.13-2.503,3.616,6.313,3.365,8.212.621Z"/>
    <path class="cls-3" d="M2172.591,303.526c-.328-.664.243-1.425.974-1.305,15.097,2.477,34.897,12.941,38.032,23.739,2.803,9.655-8.929,21.014-17.914,15.29-7.611-4.849-5.881-14.222-1.452-18.594.171-.168.276-.391.29-.631.308-5.367-7.515-8.444-12.16-10.663-1.283-.613-5.894-4.035-7.769-7.837Z"/>
    <path class="cls-3" d="M2109.391,383.608c2.141,2.308,5.203,9.326,5.203,9.326,0,0,4.069-6.451,10.093-5.762,3.859.442,17.03,11.169,26,18.823,1.562,1.333.188,4.322-1.667,3.626-7.883-2.959-17.84-6.53-20.772-6.841-5.073-.538-11.451-2.694-12.266-2.824s-6.078-3.618-6.078-3.618l-1.997-5.751,1.484-6.98Z"/>
    <path class="cls-3" d="M2130.281,462.581c-4.1-5.736-10.655-2.832-12.281,3.958-3.592,15.006,3.278,26.041,2.832,38.543-.586,16.398-37.281,33.385-22.75,68.565,14.531,35.18,126.19,36.71,192.727,10.707,66.537-26.003,169.018-58.889,188.138-61.948s26.003-25.238,19.885-34.415c-6.118-9.177-36.71-34.415-32.121-51.241,4.589-16.825,45.123-93.304,5.354-102.482-39.769-9.177-131.572,37.197-155.324,47.424-39.116,16.841-38.859,54.601-78.88,73.528-7.817,3.697-24.241,10.403-33.576,13.47-28.574,9.387-60.697,12.503-74.002-6.108Z"/>
    <path class="cls-2" d="M2458.976,432.781c4.298-9.592,8.077-19.454,11.48-29.394,4.909-14.34,10.785-30.771,9.183-46.176-.556-5.343-2.712-10.269-7.906-12.447-9.247-3.878-21.007-3.285-30.623-1.482-11.711,2.195-22.361,7.683-29.577,17.361-6.888,9.237-10.706,20.854-11.423,32.311-.559,8.939,1.613,17.483,4.28,25.948,3.559,11.294,7.952,22.321,12.324,33.318,4.503,11.327,9.149,22.61,13.209,34.106,3.543,10.032,6.557,21.914-1.583,30.674-6.488,6.982-16.42,11.542-25.295,14.54-8.431,2.848-19.855,5.814-28.112.956-11.599-6.823-12.306-19.651-9.845-31.552,2.383-11.523,5.619-22.857,8.529-34.253,5.322-20.845,12.651-46.144,5.379-67.396-2.411-7.046-7.114-15.006-14.67-17.274-7.638-2.292-16.444-.299-23.797,2.099-20.281,6.613-40.602,19.714-53.652,36.749-6.895,9-10.026,18.688-9.393,30.065.711,12.777,5.04,25.186,10.698,36.57,5.598,11.264,13.262,21.096,17.613,33.022,3.68,10.089,7.474,23.931,1.86,34.018-4.465,8.021-13.421,13.304-21.451,17.122-8.729,4.151-18.247,7.23-27.876,8.33-9.213,1.053-16.702-.485-22.402-8.592-5.741-8.164-7.078-19.535-5.41-29.188,2.937-16.994,13.832-40.269,1.931-56.075-11.675-15.505-36.554-8.586-50.86-1.069-8.391,4.409-16.904,10.86-20.309,20.054-5.046,13.625.485,29.293,4.223,42.545,3.27,11.591,3.812,25.226-5.566,34.364-7.191,7.008-16.223,4.077-24.705,1.62-7.967-2.308-17.027-5.349-22.689-11.755-7.974-9.023-2.05-21.335,2.633-30.586,1.997-3.946,4.291-7.767,7.111-11.184.75-.909,1.548-1.766,2.349-2.628.565-.608,1.227-1.123.533-.544,4.521-3.773-2.482-6.402-5.699-3.717-4.462,3.724-7.875,8.808-10.731,13.805-4.878,8.537-11.422,21.142-8.354,31.243,4.7,15.47,25.819,20.376,39.529,23.548,23.725,5.489,40.08-17.224,36.133-39.24-2.625-14.643-11.14-30.157-6.902-45.344,2.833-10.154,13.012-16.441,22.223-20.103,7.412-2.947,18.469-6.179,26.28-2.821,9.366,4.027,11.547,14.823,10.959,23.947-1.266,19.636-11.654,37.814-5.213,57.589,3.028,9.297,10.082,17.887,20.017,19.942,8.049,1.665,16.736.249,24.626-1.596,17.054-3.989,38.896-12.618,47.889-28.818,5.309-9.563,3.243-22.011.288-31.969-3.679-12.399-10.516-22.439-16.802-33.528-6.354-11.211-11.237-23.798-12.827-36.642-1.526-12.329,1.452-22.873,9.393-32.378,7.377-8.829,16.665-16.068,26.515-21.947,8.492-5.068,18.053-9.685,27.901-11.28,8.471-1.373,13.492,1.262,17.691,8.871,5.001,9.063,5.261,20.208,4.482,30.265-1.884,24.316-10.184,47.589-15.481,71.254-2.506,11.195-4.128,23.159,3.614,32.772,6.001,7.45,14.481,10.4,23.819,10.218,10.71-.209,21.479-3.696,31.095-8.227,7.785-3.669,16.459-8.471,21.682-15.541,6.958-9.419,5.687-20.565,2.119-30.961-3.83-11.157-8.304-22.087-12.671-33.041-4.527-11.356-9.104-22.72-12.911-34.343-2.9-8.854-5.589-17.898-4.902-27.304.862-11.809,5.001-24.246,13.408-32.849,8.767-8.972,22.516-11.438,34.604-10.406,6.64.567,12.124,1.497,13.613,8.588,1.445,6.876-.038,14.454-1.457,21.212-3.282,15.636-8.861,30.817-14.912,45.571-1.128,2.75-2.273,5.496-3.488,8.209-1.976,4.41,6.769,4.205,8.273.849h0Z"/>
    <path class="cls-3" d="M2173.759,359.714c9.625,5.683,21.507,8.667,29.715,10.036,2.041.34,2.622,2.979.929,4.169-9.686,6.81-16.611,17.319-19.733,27.645-.668,2.209-4.051.993-4.236-1.308-.985-12.2-6.254-27.616-10.026-37.733-.769-2.064,1.455-3.929,3.351-2.809Z"/>
    <path class="cls-3" d="M2217.931,290.736c-8.685-5.312-19.464-8.198-26.92-9.56-1.854-.339-2.346-2.75-.787-3.81,8.917-6.064,15.741-16.298,20.452-24.219,1.075-1.807,4.089-.836,3.84,1.251-1.368,11.458,3.215,24.56,6.507,33.827.672,1.89-1.38,3.558-3.092,2.511Z"/>
  </g>
  <g id="Layer_5" data-name="Layer 5">
    <g>
      <rect class="cls-1" y="124.395" width="1999.215" height="397.585"/>
      <path class="cls-3" d="M97.384,476.133l-15.793-8.927c-4.12-2.747-7.553-6.18-10.643-10.643-5.836-3.777-10.986-9.957-14.763-17.853-6.18-12.703-9.27-26.092-9.27-40.169v-10.986c-.343-9.613-.687-19.569.687-29.869.343-1.03,0-2.403,0-4.12l-.344-4.12v-12.016l-.343-12.359c1.03-16.136.687-29.183.343-42.229-.343-6.523-.343-12.703-.343-19.569v-3.433c0-3.777-.343-7.553.343-11.673,1.374-10.643,3.09-22.316,9.27-32.959,12.016-19.226,29.182-30.212,50.812-32.959l12.703-1.374c17.509-.687,33.302,4.807,47.035,16.136,4.12,3.433,7.21,6.523,9.957,9.957l.343.343c10.299,8.926,15.792,16.479,18.196,26.092l1.717,5.493c.687,3.434,1.03,6.18,1.373,9.27l.687,3.09c1.03,5.15,1.03,13.046.343,18.54l-.343,2.746v1.03c0,3.776-.687,7.21-1.03,9.956l-.687,3.777c-1.716,7.896-6.523,14.763-13.39,18.54-11.673,6.18-23.346,7.553-35.362,3.776-3.776-1.03-8.24-3.776-11.673-6.866-1.373-1.374-2.06-3.09-2.06-4.807-3.09-1.374-5.836-3.434-8.24-5.493-3.433-3.434-3.09-8.24,1.374-10.986,5.15-2.747,5.836-7.553,6.866-13.733.687-7.21,1.03-14.419-.687-20.943l-2.06-.343c-6.18,0-8.926.687-11.673,2.403-3.433,1.716-4.463,3.776-4.807,6.523l-.687,4.12v1.03l-1.03,23.002.343,12.36c0,6.18.343,12.36,0,18.54l-.343,11.673c-.343,11.673-.687,23.002,0,34.676.687,15.106.687,30.212.687,44.975,0,4.12,0,7.21.687,9.957l.687,2.06,3.434-.343c1.716-.343,3.09-.687,5.15-1.716,2.403-1.374,3.776-3.434,4.12-6.18,1.717-7.209,2.403-14.419,2.403-22.659-.343-4.807,0-9.613,0-14.419v-7.896c0-2.06,0-3.776,1.03-6.18.687-1.374,1.374-2.747,2.747-3.434,2.06-1.373,3.777-1.03,6.18-1.03l4.463.343c6.523.343,11.673,0,17.167,0l10.643-.343h3.434c2.403,0,4.12,0,6.18,1.03,2.747,1.374,4.12,3.777,4.463,7.553v1.717c2.403,0,3.777,0,5.837,1.03,2.747,1.374,4.12,3.777,4.463,7.553v.687c.343,1.374.343,3.09.343,4.807v7.21c0,4.806-.343,9.27,0,14.076.687,3.433.343,7.209-.343,11.673l-.687,5.836c0,4.12-.343,8.583-1.373,13.046-2.403,11.33-6.18,19.569-11.33,25.749-2.403,3.09-4.463,5.493-6.523,6.867l-14.419,10.3c-4.463,3.433-10.3,5.493-16.479,6.523-7.896,1.03-16.136,1.716-26.779,1.716-8.926-.343-16.479-2.06-23.002-5.149ZM136.18,464.117c5.15-.687,9.956-2.403,14.076-5.493l14.419-10.3c2.06-1.373,3.777-3.433,5.493-5.836,5.836-6.866,8.583-15.449,10.3-23.689,1.373-6.18,1.373-12.017,2.06-18.54.687-3.433,1.03-7.21.343-10.3-.343-7.553,0-14.763,0-21.973,0-1.373,0-2.403-.343-3.776-.344-2.747.343-4.463-2.747-5.15h-6.18c-9.27,0-17.166.687-27.809.343l-7.209-.343c-1.374.343-1.717,1.717-2.06,3.09v2.747c0,7.553-.343,14.763,0,21.973,0,7.896-.687,15.793-2.403,23.689-.687,4.12-3.09,7.553-6.867,9.613-2.403,1.374-4.463,2.06-6.866,2.403-5.836.687-11.33,0-15.106-5.15-1.716-2.06-3.09-4.463-3.776-7.209-2.06-4.463-2.06-9.613-2.06-14.763,0-14.763,0-29.869-.687-44.632-1.03-15.793,0-31.242.343-46.692.343-10.3-.343-20.6-.343-30.899l.687-16.479c-.687-4.12.687-8.24,1.03-12.017.343-4.806,3.09-8.24,7.209-10.643,4.463-2.746,9.27-3.09,14.42-3.09,8.926.344,15.106,5.15,17.166,14.076,2.06,7.553,1.717,15.793,1.03,23.346-1.03,6.18-2.06,13.39-9.27,17.509-1.03.687-1.717,1.374-.343,2.747,2.06,2.06,5.836,4.807,9.27,5.836,11.33,3.434,21.286,2.06,31.586-3.433,5.836-3.433,9.27-8.926,10.643-15.106.687-4.463,1.717-7.896,1.717-12.703,0-1.03.343-2.403.343-4.12.687-4.807.687-12.36-.343-17.167-.687-4.463-1.03-7.896-2.06-12.359l-1.373-5.15c-2.747-10.3-9.27-17.166-16.823-23.689-12.36-10.299-26.779-15.449-43.259-14.763-4.12.343-8.24,1.03-12.359,1.374-20.943,2.746-36.049,13.046-47.036,30.556-5.836,9.613-7.209,20.256-8.583,30.899-.687,4.807-.343,9.613-.343,14.419,0,20.256,1.374,37.422,0,61.798,0,8.24.343,16.136.343,24.375,0,3.09.687,5.837.343,8.927-1.716,13.39-.687,26.779-.687,40.168,0,13.046,2.747,25.75,8.583,37.766,3.777,7.553,8.927,14.419,16.823,18.196l7.21,4.12c7.553,5.15,16.479,6.867,25.406,7.21,8.927,0,17.51-.343,26.093-1.717Z"/>
      <path class="cls-3" d="M253.59,478.88c-4.807,0-10.3,0-15.793-1.03l-4.463.343h-1.716l-4.12.344c-6.18,0-9.956-4.12-9.956-10.3h-.344c-6.18,0-9.956-4.12-9.956-10.3,0-8.583-.343-17.166-.687-25.749l-.344-13.733c0-7.553.344-15.45.687-23.346.343-9.613,1.03-18.883.343-28.152-1.03-13.39-.343-26.779,0-39.482.343-7.896.687-15.449.687-23.002v-22.316l-.343-22.659v-7.553c.343-4.807.343-8.926,0-13.39v-7.896c0-2.06.343-4.12,0-6.18,0-2.403,0-4.12.343-6.523.343-3.09.343-6.18,0-9.613v-7.553l-.343-3.776c0-1.374-.343-3.09-.343-4.807-.687-4.806,3.776-9.27,8.926-8.583h9.27c3.434,0,6.523,0,9.957.343h7.553c6.523-.343,9.27,0,11.673.343,6.867,0,10.3,2.747,10.3,9.613v.687c7.209.343,10.299,2.747,10.299,9.613.344,2.403.344,4.806.344,6.866l-.344,3.09v7.553c0,2.403-.343,4.807,0,7.553v1.716l.344,2.747-.344,33.989.344,7.209c.343,9.957.687,19.913,0,29.869-.687,13.046-.687,26.093-.687,39.139v10.3c-1.373,10.643-1.03,21.629-.687,32.616.343,5.15.343,10.3.343,15.45,0,4.12-.343,7.553-.687,11.33-.343,3.776-.687,7.209,0,10.643.687,6.866.687,13.733.687,20.599v5.15l-.343,17.166c0,6.867-3.433,10.643-10.3,11.33-1.03.343-2.403.343-3.09.343h-7.209ZM252.903,463.087c4.463-.343,5.836-2.06,5.836-6.18l.344-17.167c0-8.583.343-16.823-.687-25.062-.687-4.12-.343-7.896,0-11.673s.687-7.21.687-10.986c0-16.136-1.717-32.272.343-48.409,0-16.479-.343-32.959.687-49.438.687-12.359,0-24.375-.343-36.735l.343-33.989c0-1.374-.343-3.09-.343-4.463-.343-5.493.343-10.3,0-15.106l.343-3.434c0-2.06,0-4.12-.343-6.18,0-4.12-1.03-4.807-5.836-4.807-4.12-1.03-12.703,0-18.883-.343s-13.046,0-19.226-.343c-2.06-.343-3.776,1.373-3.433,3.09,0,3.09.687,5.836.687,8.926-.343,6.867,1.03,13.733-.687,20.6,1.03,5.15,0,10.643.343,16.823.687,6.866,0,14.076,0,21.286,0,15.106.343,30.212.343,44.975,0,20.6-2.06,41.199-.687,62.142,1.03,17.166-1.374,34.675-1.03,51.842.343,13.389,1.03,26.436,1.03,39.482,0,3.433,1.716,5.15,4.806,5.15,2.403,0,4.807-.343,7.21-.343,1.373-.343,3.09-.687,4.463-.343,7.209,1.716,14.419.687,21.629,1.03.687,0,1.716,0,2.403-.343Z"/>
      <path class="cls-3" d="M418.039,484.03c-13.046-4.807-20.942-10.3-27.123-18.883-5.15-3.777-9.27-8.24-13.046-14.076-7.553-12.017-10.643-24.376-14.763-36.736-1.717-4.807-3.09-9.27-4.463-14.076,0,4.807-.344,9.957-.687,14.763-.343,5.15-.343,9.27.687,12.703v1.374c.343,2.403.343,3.776,0,6.18-.344,4.807,0,9.27,0,14.419.343,4.12.343,8.24.343,12.36-.343,12.359-1.717,14.763-12.36,16.136-2.403.344-4.12,0-6.523,0-1.717,0-3.777,0-6.18.344-3.776.343-8.926.687-13.732-.687h-3.777c-1.373.343-3.09.343-5.15.343-6.523,0-10.3-3.776-10.3-10.299-6.866,0-10.299-3.777-10.299-10.643,0-15.45,0-28.496.343-44.289l-.343-5.15c.343-10.643.687-20.943.687-31.586,0-5.15,0-10.3-1.03-15.449-.344-2.06,0-4.463,0-6.523v-3.09l.687-52.872c0-5.493-.343-11.33-1.03-17.509-.687-3.777-.343-7.553-.343-10.986v-3.09c0-13.046.343-25.062.687-37.079,0-10.986.343-21.973.343-32.616l.343-2.403c.343-6.866,4.12-10.3,12.016-10.986h6.523c8.583.343,17.166.343,26.092,0,9.613-.343,19.569-.687,29.526,0,4.807.343,9.957.343,14.763.343,1.374,0,2.747.343,4.12.687,5.15,1.374,10.643,3.09,16.136,4.807,6.866,1.717,13.39,6.867,19.569,14.763,3.776,2.747,7.896,6.866,11.33,11.673,7.553,10.986,12.359,22.659,14.763,35.019.343,2.06.687,3.433.687,5.149,1.03,10.986.687,28.153,0,39.139-.344,7.209-1.374,13.39-2.403,18.883-1.03,3.433-4.12,15.449-6.523,19.569-5.836,9.27-9.956,13.39-15.793,17.509-3.433,2.403-8.583,5.15-10.299,6.18,1.03,2.747,1.716,5.493,2.403,8.24,1.373,5.15,2.403,9.27,4.463,13.39,1.03,2.06,1.717,4.12,2.06,5.836,2.06,9.27,4.807,18.54,7.896,27.81l1.03,3.433c2.403,4.806,4.463,9.956,6.523,15.106,2.403,6.18,4.806,12.017,7.896,17.51l.687,1.03c1.373.687,3.09,1.03,5.493,1.717h2.06c5.149,0,6.523,5.15,4.806,9.27l3.433,1.03h2.06c5.15,0,6.867,5.493,4.807,9.613-3.776,8.24-8.583,12.016-16.136,13.733-10.986,2.403-23.346,2.06-32.959-1.03ZM452.028,458.967c.343-.687.687-2.403,0-2.403h-2.747c-8.583-2.06-11.33-3.434-16.479-9.957-1.373-1.717-2.746-3.777-3.776-5.836-5.836-10.643-9.27-21.973-14.763-32.959-.343-.687-.343-1.03-.343-1.717-3.434-10.3-6.523-20.256-8.927-30.899,0-1.374-.687-2.747-1.373-4.12-3.777-7.209-4.807-15.449-7.553-23.346-.687-2.06-.343-3.09,1.717-4.12,12.703-8.24,17.166-9.956,25.062-23.002,2.06-3.433,4.807-14.419,5.836-18.196,1.374-5.836,2.06-12.016,2.403-17.853.687-10.986,1.03-27.809,0-38.452,0-1.717-.343-3.09-.687-4.463-2.06-12.016-6.867-23.002-13.733-32.959-4.463-6.18-10.3-12.359-17.853-14.419-5.493-1.717-10.986-3.433-16.136-4.807-.687-.343-1.716-.343-2.747-.343-4.806,0-9.956,0-15.106-.343-18.883-1.373-36.736,1.03-55.618,0h-6.18c-5.15.343-6.866,1.717-6.866,6.523-.343.687-.343,1.374-.343,1.717,0,22.316-1.03,44.632-1.03,69.694,0,4.463-.343,8.927.343,13.39.687,6.18,1.03,12.017,1.03,18.196-.343,17.509-.343,35.362-.687,52.872,0,3.09-.343,6.18,0,8.926,1.03,5.493,1.03,10.986,1.03,16.136,0,12.017-.343,23.689-.687,35.362.343,0,0,2.06.343,2.06-.343,15.45-.343,28.496-.343,43.602,0,4.12,1.373,5.493,5.149,5.493,1.717,0,3.09,0,4.463-.343,2.06,0,3.777-.343,5.493,0,7.553,2.403,14.763-.687,22.316.687,10.3-1.03,9.957-1.03,10.3-11.33.343-9.957-1.373-20.256,0-30.212,0-1.03,0-2.06-.343-2.747-1.03-4.807-1.03-9.613-.687-14.42,1.373-13.389,0-27.122,0-40.512,0-3.434,0-8.24.343-12.017,0-2.06,2.06-2.06,4.463-2.403,2.747-.343,4.463.687,4.807,3.434,1.717,9.27,5.493,17.509,5.836,26.436,3.09,10.986,6.18,22.316,9.957,33.303,4.12,12.703,7.21,24.375,14.419,35.705,7.21,11.33,15.45,16.136,27.123,20.6,9.27,2.747,20.6,2.747,30.212.687,6.867-1.373,9.613-4.807,12.36-10.643ZM342.508,308.592c-1.03-7.21-.343-14.42-.343-20.256,0-7.896.343-14.419-.344-20.942-.343-2.06-.343-7.21,0-9.27,1.374-5.836.687-11.33,0-16.823v-8.24c0-1.373,1.03-2.06,2.403-2.403,8.24-.687,16.823-1.03,25.062.687,5.837,1.373,9.957,5.149,12.36,10.299,3.09,5.493,4.807,11.673,4.807,18.196.343,5.493,0,14.419-.343,19.913-.344,5.493-1.03,10.643-1.717,16.136-.343,1.717-1.374,3.433-2.06,4.807-1.03,2.06-2.403,3.433-3.433,5.493-2.747,4.806-7.553,7.209-12.703,7.209-6.523.344-12.359-.687-19.913.344-2.747,0-3.776-2.06-3.776-5.15ZM374.437,303.785c.687-1.374,1.374-2.403,2.06-3.433l1.373-2.06.344-.687,1.03-2.747c.687-5.15,1.374-10.3,1.717-15.45.343-7.21.687-15.106.343-19.569,0-4.463-1.03-8.926-2.747-13.046-7.21-1.717-14.763-1.373-22.316-.687.343,0,1.03,0,1.03,1.373v3.777c.687,5.493,1.374,11.673,0,18.196-.343,1.717-.343,6.18,0,7.553.343,5.15.343,10.3.343,15.793v10.986l-.343,4.463h8.926c3.777,0,6.523-1.374,8.24-4.463Z"/>
      <path class="cls-3" d="M514.167,503.599c-3.777-2.747-7.21-6.18-10.3-10.3-4.807-6.523-7.209-11.673-7.896-17.51-3.433-1.373-6.523-3.433-9.27-5.149l-3.09-1.717c-2.403-1.373-3.433-2.06-4.12-2.747l-1.373-1.374c-2.06-2.06-4.463-4.463-6.867-7.209-1.03-.687-1.716-1.03-2.06-1.717l-1.374-1.373c-3.09-3.09-7.21-6.867-9.613-12.017-2.403-6.18-3.777-12.359-5.15-18.196-.343-1.03-.687-2.06-.687-3.09-3.09-14.763-3.776-24.719-2.747-34.676-.343-1.03-.343-2.06-.343-3.433v-10.643l-.343-16.823v-16.479c0-15.106.343-29.869.687-44.976,0-12.359.343-24.375.687-36.735v-1.374c-1.03-5.493-.344-11.33,0-16.479l.343-5.836c.343-10.299,4.463-19.913,12.016-28.152,13.733-15.106,32.272-23.346,55.275-24.376l3.777-.343c2.403,0,4.12.343,6.18.687l6.18.687c4.12.687,8.927,1.03,14.42,3.09,10.3,3.776,18.883,7.553,26.092,17.853,3.777,2.747,7.21,5.836,10.3,10.643l3.776,5.15c1.374,1.717,3.091,3.776,4.464,5.836,5.836,8.926,8.583,22.659,7.553,37.422-.687,9.956-1.03,19.569-.343,29.182v3.09c-.344,5.15-.688,9.613,0,14.077.343,4.463.343,8.583,0,12.359l-.344,6.523-.344,2.747c1.03,7.896.688,15.792.344,23.346l-.344,6.18c0,12.36,0,25.062-.687,38.109v9.957c0,6.523,0,13.733-.687,18.883-.343,2.403-1.029,5.149-1.373,7.209l-.687,3.09c-4.12,15.106-15.106,25.406-25.406,34.333-1.029,1.03-2.746,2.06-4.12,2.403l-1.029.687-2.403,1.03c-1.03.687-.687,1.374-.344,1.717,5.837,1.374,8.583,1.03,11.33,0,2.06-1.03,4.12-1.717,5.836-2.403,5.15-1.03,10.3,4.463,8.583,9.613l-.343,1.373,2.06-.687c5.15-1.03,10.3,4.463,8.583,9.613l-.687,2.403c-3.776,8.24-9.613,14.42-17.509,17.853-5.837,2.747-12.703,5.836-19.913,6.866-19.227,3.09-35.362-3.09-46.692-18.196ZM568.412,499.822c6.867-3.09,11.673-8.24,14.764-15.106.343-.687.343-1.717.687-2.747,0-1.03-1.374-2.403-2.403-2.06-1.717.343-3.434,1.03-4.807,1.717-5.15,2.403-9.957,1.716-15.106.687-5.493-1.03-9.27-4.12-11.329-9.27-1.717-3.09-2.061-2.06-2.061-5.837-.343-5.493,0-5.493,5.15-7.896,1.373-.687,2.746-1.03,3.776-2.06,10.3-8.927,19.912-18.196,23.689-31.929.687-3.09,1.716-6.523,2.06-9.613,1.03-7.896.344-20.6.687-28.496.687-12.703.687-25.406.687-37.766.344-9.613,1.373-19.226,0-28.839-.343-1.03.344-2.403.344-3.433,0-6.18,1.029-12.017.343-18.196-.687-4.807-.343-9.957,0-15.106v-2.403c-.687-9.957-.343-19.913.344-29.869.687-11.33-.687-24.719-6.866-34.333-2.403-3.776-5.493-7.209-7.896-10.986-6.523-9.27-13.733-12.359-23.689-16.136-7.896-2.746-14.42-2.403-22.316-4.12l-6.18.343c-20.256,1.03-38.108,7.553-51.842,22.659-6.523,7.21-10.299,15.45-10.643,25.062-.344,7.21-1.717,14.42-.344,21.629v1.717c-.343,12.36-.687,24.376-.687,36.735-.343,15.106-.687,29.869-.687,44.976,0,10.986.343,21.973.343,33.302v10.643h.343c0,1.373.343,3.09,0,4.463-1.373,11.33.343,21.973,2.747,32.959,0,.687,0,1.374.343,1.717,1.374,6.18,2.747,12.36,5.15,18.196,2.403,5.15,6.523,8.583,10.3,12.359,6.18,3.09,12.016,7.896,19.226,9.27,2.403.343,5.493,0,6.523,2.06,1.374,2.06,1.374,4.807,1.717,6.867.343,1.03.343,2.06.343,2.747.343,6.523,3.09,11.33,6.867,16.479,10.643,14.076,24.719,18.883,41.885,16.136,6.523-1.03,12.703-3.777,18.539-6.523ZM502.495,407.125c-1.03-6.18-1.717-12.36-2.06-18.883,0-4.807-.687-9.957-.687-15.106,0-12.016.343-24.033.343-36.049,0-11.33.687-22.659.343-33.989-.343-10.3-.687-20.256-.687-30.556,0-6.18-.344-12.703-.344-18.882,0-9.957,3.777-19.913,12.703-23.003l5.15-2.06c5.15-2.06,10.986.344,15.45,2.403,1.03.344,1.716,1.374,2.403,2.403,3.09,4.463,5.149,9.613,5.149,15.106.344,14.076,2.061,28.152.687,42.229-.343,6.18-.343,12.703-.343,18.883h.343c-.343,10.986-.687,22.316-.687,33.302-.343,5.15-.343,10.3.687,15.106,1.03,5.15.344,10.299,0,15.449-.343,2.403-.343,4.463,0,6.867v24.376c0,10.986-8.583,16.136-17.166,17.509-8.24,1.374-19.226-4.463-21.286-15.106ZM535.797,404.722v-24.033c-.344-2.747-.344-5.15,0-7.896l.343-2.403c.344-4.12.344-7.896-.343-11.33-1.03-4.463-1.03-9.957-.687-16.136,0-8.24.343-16.479.343-24.719.344-3.776,0-9.956,0-12.359,0-5.15,0-10.3.344-15.45,1.03-9.613.343-18.883,0-28.496l-.687-13.39c0-1.717-.344-3.434-.687-4.807-2.06-.687-3.776-.687-4.806,0l-5.493,2.06c-5.837,2.06-9.27,8.926-9.27,18.196v9.27l.343,9.613c0,10.3.343,19.913.687,30.556.344,6.867,0,13.733,0,20.6l-.343,13.39-.343,18.196v17.853c0,2.403,0,4.807.343,7.553,0,2.403.343,4.806.343,7.553.344,6.18,1.03,12.017,2.06,17.853v.343c1.717.687,3.433.687,5.15.343,8.24-1.373,12.703-5.836,12.703-12.359Z"/>
      <path class="cls-3" d="M666.598,477.163c-9.27-2.747-17.51-8.24-24.72-16.136l-5.149-5.15c-1.717-1.373-3.434-3.09-5.15-5.15l-3.09-3.09c-2.746-2.403-5.493-5.15-7.896-9.27-3.776-6.523-5.149-12.36-7.209-18.54-2.747-8.24-4.12-17.853-4.12-30.212-.344-9.956-.344-19.913,0-29.526v-14.763c0-4.807,0-8.926-.344-13.733-.687-10.3-1.029-18.196,0-25.062.687-15.45.687-30.899.687-46.349v-7.553c.344-6.18.344-12.359-.343-18.196v-4.12l.343-1.717.344-2.06c-.687-5.15-.344-10.3-.344-14.763v-19.569c0-4.806,3.434-8.24,8.584-7.896,5.836-.687,12.702-1.373,19.912,0,3.776.687,7.896.687,12.017.687,2.403,0,3.776.343,6.18.343h1.03c2.06,0,4.119,0,5.836,1.03,2.061,1.374,3.434,3.09,3.434,5.493l.343,3.776h.687c2.061,0,4.12,0,5.837,1.03,2.06,1.373,3.434,3.09,3.434,5.493.343,5.15.687,10.643.687,16.136l-.687,15.792v21.629c0,4.807,0,9.27.687,13.046,0,1.374.343,3.09,0,4.463v9.27c0,5.493-.344,10.643,0,15.793.343,5.15,0,10.643,0,15.793v8.24l-.344,2.747c2.403,11.673,1.03,23.346,0,33.989v1.717c1.373,8.24,1.03,16.823.687,24.719l-.343,9.956c0,3.09,0,5.493.343,7.896.687,3.433.687,6.867.687,9.957,0,1.373.344,2.747.688,4.12,1.373.687,2.746,1.03,4.119,1.03,3.434.687,7.554-.343,10.644-2.06l1.03-1.374.343-.687c.687-2.403,1.03-3.433,1.03-4.463l1.029-8.239c1.03-7.553,2.061-14.077.688-20.6-.688-2.747-.344-5.836-.344-8.24v-2.403c.687-5.493,1.03-10.986,1.373-16.823.344-2.747.344-5.836.344-8.926v-9.27l.343-6.866v-6.523c0-7.209-.687-14.076-1.373-21.286v-2.403l-.343-3.433.343-4.807v-49.782c.344-8.926.344-17.853.344-27.123.343-4.12.343-7.553-.344-11.33-.343-1.374-.343-4.12-.343-6.18v-1.716c0-4.807,2.746-7.896,7.896-8.583l2.402-.343c4.807-.687,10.3-1.374,15.45-.687l8.583.343c5.149.344,9.956.344,14.419,0,4.464,0,6.523,1.374,7.896,5.837,0,0,.687,2.403.687,4.463h1.717c4.464,0,6.523,1.374,7.896,5.836,0,0,.687,2.403.687,4.463v2.403c-.343,3.433-.343,6.18,0,8.926.344,2.403.687,3.777.344,4.463l-.344,1.373c-.343,2.06-.687,3.09-.687,4.807l.344,20.943c0,10.643.343,20.942,0,31.585l-.687,9.613c-.344,6.523-.687,12.359-.344,18.883,1.03,9.27,1.03,18.882,1.03,28.496l.343,11.33c-.343,5.836-.687,12.016-.687,17.853v8.927l.344,3.433c0,2.06.343,5.15-.344,8.24-.687,2.06-.343,6.18-.343,9.27.343,4.807,0,8.927-.344,13.046-.343,3.433-.687,6.867-.687,10.3-1.03,10.986-4.807,21.286-12.359,34.675-3.09,4.807-6.523,7.553-9.613,10.643l-3.776,3.777c-8.927,8.583-20.942,13.733-33.303,13.733-15.793.687-24.376-.343-38.108-4.807ZM723.933,454.161c4.807-4.807,8.926-7.553,12.703-13.39,6.18-10.643,10.643-20.6,11.673-32.272.343-10.3,2.403-20.256,1.029-30.556-.343-.687-.343-1.374,0-1.717,1.374-3.776.344-7.553.344-11.673v-8.926c0-5.836.344-12.017.687-17.853-.343-13.39,0-26.436-1.373-39.482-.687-9.957.687-19.569,1.03-29.183.343-17.166-.344-34.675-.344-52.185,0-2.747.687-4.807,1.373-7.553-1.373-5.493-.687-10.643-.687-16.136-1.03-3.09-.687-3.434-3.09-3.434-7.553.687-16.136-.343-23.689-.343-5.493-.687-11.329.343-16.822,1.03-2.403.343-3.434,1.373-3.434,3.433,0,2.403-.344,4.807.344,6.866.687,4.463.687,8.583.343,12.703,0,8.926,0,17.853-.343,27.123v27.466c.687,9.27.343,18.196-.344,27.123,0,1.716.344,3.433.344,5.15.687,7.209,1.373,14.419,1.373,21.629,0,4.463-.344,8.927-.344,13.39-.343,6.18,0,12.36-.343,18.54-.344,5.836-.687,11.33-1.374,16.823,0,3.09-.343,6.18.344,9.27,2.06,9.956-.687,20.256-1.717,30.212,0,2.403-1.03,4.806-1.717,6.866-.687,1.374-2.06,2.747-3.09,3.433-3.776,2.403-9.612,3.777-14.076,3.09-10.986-1.374-19.226-8.927-19.569-20.6,0-3.09,0-6.18-.687-8.926-.343-3.09-.343-5.836-.343-8.926,0-10.986,1.373-22.316-.344-33.303-.344-1.03,0-2.403,0-3.433,1.03-10.986,2.403-22.316,0-33.302l.344-3.433c0-7.896.343-15.793,0-23.346-.344-8.24,0-16.136,0-24.376,0-1.373.343-2.747,0-4.463-.688-4.463-.688-9.27-.688-14.076v-21.629l.688-16.136c0-5.15-.344-10.3-.688-15.45,0-.687-.687-1.373-1.716-1.716-2.403,0-4.464,0-6.867-.344-5.493,0-10.643,0-15.793-.687-6.522-1.373-12.702-.687-18.882,0-2.403-.343-3.434.687-3.434,2.747v9.957c.343,8.24-.687,15.793.343,24.033,0,1.373-.343,2.747-.687,4.463,0,1.03-.343,2.403,0,3.433,1.03,8.583.344,17.51.344,26.093,0,15.45,0,31.242-.687,46.692-1.03,7.896-.687,16.136,0,24.376.343,4.807.343,9.27.343,14.076,0,14.763-.687,29.526,0,44.289,0,9.27.687,19.226,3.777,28.496,2.06,6.523,3.433,11.673,6.866,17.509,3.09,5.15,6.522,7.553,10.3,11.673,6.18,6.867,13.39,12.016,22.315,14.763,14.076,4.463,21.973,5.149,36.735,4.463,11.33,0,21.63-4.463,29.526-12.359Z"/>
      <path class="cls-3" d="M874.645,478.193c-8.583-.343-16.137-.343-24.033-.343l-29.525.687c-4.807.343-9.613,0-14.076,0l-9.27-.344c-5.15-.687-8.24-3.09-8.927-8.24v-2.06h-1.373c-5.149-.687-8.239-3.09-8.927-8.24-.687-7.553-.687-15.106-.343-21.973v-8.583c0-2.06.343-4.807.687-5.837.687-2.06.687-3.776-.344-7.896-.343-1.716,0-4.806.688-7.209l.343-2.403c-1.373-4.12-1.373-8.24-1.03-11.673v-8.926l-.343-6.523v-.343c-.344-1.374,0-2.747.343-4.12,1.374-4.807,1.03-9.613,1.03-15.45-.343-4.12-.687-8.583,0-13.046-.687-12.703-.687-25.406-.687-38.109v-12.359l-.344-3.09-.343-.687c-.344-2.403-.687-5.149-.344-6.866.687-3.776.687-7.553.344-11.673-.344-2.747-.344-6.18-.344-9.613.687-7.553.687-15.106-.343-22.316-.344-1.374-.344-2.747,0-5.15v-1.717c0-4.463.343-8.926.687-13.046.343-6.523.687-13.046,0-19.226-.344-2.747-.344-5.836,0-8.24,2.403-8.24,3.776-9.957,12.359-9.957,12.017.343,23.346.687,35.019.687h2.403c2.747,0,4.807,0,7.21-.343.687-.343,2.747-.343,4.12-.343l4.463.343,2.403.343c2.403,0,3.776-1.03,4.807-1.03,1.373,0,2.747.343,4.807.343,5.493.687,11.33.343,17.51,0,5.149-.343,10.643-.687,16.136-.343l13.39.687c4.12,0,7.553,3.777,8.24,8.24v2.06h2.06c4.12,0,7.553,3.776,8.239,8.24v6.523l-.343,8.927c0,4.12-.344,8.24,0,12.703v4.463c0,8.583-3.09,11.673-10.986,11.673l-4.807.343c-2.06,0-3.776,0-5.837.343-2.403.344-4.119,0-6.866-.343-1.03,0-2.746,0-5.493.343-2.403,0-5.149.344-8.239,0-3.09-.343-6.523-.343-10.3,0l-21.973.344c.687,8.926.343,17.509,0,25.749,0,4.463-.344,8.926-.344,13.39v.343c0,2.403-.343,4.12-.687,6.523l-.343,2.403h8.926c7.21.687,12.017,1.03,16.823.343,3.776-.343,7.21.343,9.956.687l4.12.343c3.776,0,6.18,2.747,7.21,6.523l.343,3.433,2.747.343c3.776,0,6.18,2.747,7.209,6.523.344,1.716.688,3.776.688,6.18v12.016l.343,12.36c0,1.717-.687,6.523-1.03,8.583-.343,3.776-3.433,6.866-7.553,6.866h-18.539c-4.464,0-9.957.344-15.106-.343h-4.463c-3.777-.343-6.867-.343-10.3.343l-.344,2.747v2.06c.687,5.836.344,11.673,0,16.823v10.643c.344,6.867.687,13.733.687,20.256l4.464.343c5.493.343,11.673.687,24.376-.343,5.149-.343,11.673,0,17.853,0h7.896c4.119,0,7.896,2.747,8.239,7.209l.344,3.09h1.717c4.119,0,7.896,2.747,8.239,7.21.687,5.493.687,10.643.344,15.793,0,4.463,0,8.926.343,13.39v3.776c-1.717,13.046-4.12,15.45-16.136,15.45-11.33.343-20.943-.343-29.869-.687ZM905.2,452.787c.343-1.03,0-2.403,0-3.433-1.03-9.613.687-19.226-.687-28.839,0-1.373-1.03-2.403-3.09-2.403-7.554,0-18.196-.344-25.406,0-23.689,1.716-24.719-.687-41.198.343-2.061,0-3.434-1.03-3.434-3.434,0-10.643,0-21.286-.687-32.272-.344-8.927,1.03-17.853,0-26.779-.344-1.717.343-4.12.343-6.18,0-3.09,1.03-4.463,4.12-4.807,5.493-1.03,10.644-.343,16.137-.343,8.239,1.03,16.479,0,24.376.343h8.926c1.373,0,2.403-1.03,2.403-2.403.344-1.373,1.03-6.18,1.03-7.896,0-9.27-.344-15.106-.344-24.376,0-1.716-.343-3.433-.687-5.15-.343-1.373-1.03-2.403-2.403-2.403-4.463-.344-8.583-1.374-13.39-1.03-5.836.687-11.673.343-17.509-.343-6.181-.343-12.703.687-18.883.343-2.747-.343-4.12-1.03-4.12-3.776-.344-6.18-2.061-12.36,0-18.54v-2.747c0-12.703,1.717-26.779.343-40.855-.343-2.06,1.03-3.433,3.091-3.433,6.18,0,12.016-.343,18.195-.343,5.493,0,11.33-.687,16.823,0,5.836.687,11.329-1.374,16.822.343,4.464-1.03,8.927-.687,13.39-1.03,5.493,0,6.18-1.03,6.18-6.523v-4.463c-.343-7.21.344-14.42.344-21.629v-6.18c-.344-1.716-1.717-3.433-3.434-3.433-4.463-.343-8.926-.343-13.389-.687-12.36-.687-24.72,2.06-36.736,0h-1.717c-3.776,1.716-7.209.343-10.643.343-1.373,0-2.403-.343-3.434,0-3.776,1.03-7.209.687-10.986.687-11.673,0-23.002-.343-35.019-.687-5.837,0-5.493,0-7.21,5.836-.343,2.06-.343,4.463,0,6.523,1.03,10.986-.687,21.973-.687,32.959,0,2.06-.343,4.12,0,6.18,1.03,7.896,1.03,15.792.344,23.346-.344,7.896,1.373,14.076,0,21.973-.344,2.06.343,4.12.687,6.18,0,2.06.343,4.12.343,6.18,0,16.136-.343,31.929.687,47.722-1.373,9.957,1.717,20.256-1.373,30.212-.343.687,0,1.717,0,2.747,0,4.12.344,8.24.344,12.36,0,4.463-.687,8.583.687,12.703,1.373,3.434-1.373,6.867-.687,10.643.687,3.433,1.373,6.867,0,10.643-.344,1.03-.344,2.747-.344,4.12,0,9.956-.687,19.913.344,29.869.343,2.403,1.373,3.434,4.12,3.777,7.553,0,15.105.687,22.659.343,9.956-.343,19.569-.343,29.525-.687,17.166-.343,32.615,1.373,54.245,1.03,9.27,0,9.613-1.03,10.986-10.643Z"/>
      <path class="cls-3" d="M1039.092,478.537c-5.493,0-12.017.343-18.539,0-10.644-.344-14.077.343-14.077-8.583,0-3.09-6.522,0-8.239-4.463-1.03-2.403-1.03-10.643-1.03-12.703v-3.433c0-7.21.344-14.076-.343-20.943.343-7.209.343-14.419.343-21.629,0-9.27,0-18.539.344-28.152v-14.076c0-4.807-.344-9.613,0-14.763l.687-3.777c.344-3.433.687-4.806,0-5.836-.687-3.776-.687-7.553-.687-10.3-.344-20.256,0-40.512.343-60.768l.344-24.033c0-6.18-.344-12.016-1.03-18.196-.687-10.986-.343-21.286,0-31.929,0-5.15,3.434-8.926,8.583-10.3,5.15-1.716,10.3-1.373,14.42-1.03,5.836.343,12.017.343,18.196,0,6.866-.343,14.076,0,20.942,0h10.3c6.523.343,13.732.687,20.256,1.717,13.733,1.716,24.032,5.836,32.616,12.703,2.402,2.06,4.806,4.463,6.522,7.553l3.776,2.747c3.434,2.747,6.181,6.523,8.24,10.643,3.09,4.807,5.149,10.3,7.21,15.793l.343,1.03c.687,1.717,1.03,3.776,1.03,5.15l.687,5.15c0,2.747.344,5.15,1.03,7.553,2.06,10.986,1.717,21.629,1.717,32.272v5.15c-.344,5.836-.344,10.986,1.029,15.793.344,1.717.344,4.807,0,6.523-.343,4.807-.343,9.613-.687,14.763,0,5.15,0,10.299-.343,15.449-.344,8.24-.344,16.479-.344,25.063v8.583c0,14.419-.687,29.182-1.717,43.945-1.373,12.359-4.807,21.973-10.643,29.869-3.09,4.463-6.18,8.583-9.613,13.046-1.373,2.06-3.776,3.777-6.18,5.15l-4.12,2.06c-4.807,2.403-10.3,5.15-16.479,6.523-2.403.687-4.807,1.03-7.553,1.03l-57.335-.343ZM1092.307,462.4c7.21-1.374,13.39-5.15,19.913-8.24,1.373-.687,3.09-2.06,4.119-3.434,3.434-4.463,6.523-8.583,9.613-13.046,6.18-8.24,8.583-17.51,9.613-27.466,1.03-14.42,1.717-28.839,1.717-43.259,0-11.33-.344-22.659.343-33.989.687-10.299.344-20.256,1.03-30.556.344-1.373.344-3.09,0-4.463-1.717-7.21-1.03-14.763-1.03-22.316,0-10.643.344-20.943-1.717-31.243-1.029-4.463-1.029-8.926-1.716-13.39,0-1.716-.687-3.776-1.03-5.149-2.06-5.15-4.12-10.3-6.866-14.763-1.717-3.433-4.12-6.523-7.21-9.27-8.583-6.867-18.883-9.957-29.869-11.33-6.18-1.03-13.046-1.374-19.569-1.717-10.3,0-20.942-.343-31.242,0-6.18.343-12.36.343-18.54,0-4.119-.343-8.583-.687-12.702.687-2.747.687-4.807,2.403-4.807,5.493-.344,10.643-.687,20.943,0,31.586.687,6.18,1.029,12.359,1.029,18.539-.343,28.153-1.373,56.648-.687,84.801,0,2.747,0,5.837.687,8.927,1.03,3.776-.343,7.553-.687,11.33-.343,9.613.344,19.226,0,28.839-.343,9.27-.343,18.54-.343,27.809,0,7.21,0,14.42-.344,21.629.687,9.27.344,18.54.344,27.809q.343,6.523,7.553,6.867c12.359.687,25.062-.687,31.586,0l44.632.343c2.06,0,4.12-.343,6.18-1.03ZM1052.481,417.081c0-11.673-1.373-23.346,0-35.019,0-10.986-1.717-21.629-.344-32.616,0-4.806-1.373-9.956-1.029-15.106.343-17.166-.344-34.676.343-51.842.687-13.39-1.373-20.256,0-34.675v-12.36c0-1.374,1.03-2.747,2.747-2.747l2.746-.343c5.493.343,11.673.343,17.166.687,7.554.343,13.39,5.15,15.45,12.703,1.373,4.12,1.716,8.583,1.716,13.046,0,11.673-.343,23.002.687,34.332.688,9.613.344,19.226.688,28.496,1.373,26.779-.688,48.065-.344,72.098v6.18c.344,13.39-5.836,17.853-17.166,20.256-6.18,1.717-13.046,1.03-19.569.343-2.06-.343-3.09-1.373-3.09-3.433ZM1073.768,415.021c10.643-2.06,13.732-5.493,13.39-15.106v-6.18c0-9.957,0-19.226.343-28.839.344-13.733.687-27.466,0-42.916l-.343-11.673c0-5.493,0-11.33-.344-16.823-.687-9.27-.687-18.54-.687-27.809v-6.866c0-4.12-.344-7.553-1.03-10.3h-1.029l-16.823-.687h-.344v10.643c-.687,7.553-.343,13.046-.343,18.883.343,4.463.687,9.613.343,15.793-.343,9.613-.343,19.226-.343,29.183v22.659c-.344,2.403,0,4.807.343,7.553.344,2.403.688,5.15.688,7.553-1.03,6.867-.344,13.39,0,20.256,0,4.12.343,8.24.343,12.359-1.03,7.553-.687,14.763-.343,22.659v.687c2.402,0,4.463-.343,6.18-1.03Z"/>
      <path class="cls-3" d="M1175.731,289.366c-2.747-1.717-4.12-5.15-3.09-8.24-2.747,0-5.15-.687-7.21-2.06-3.434-2.403-4.807-7.21-1.717-10.643l4.12-3.433c1.373-.687,2.746-2.06,3.776-4.12l1.373-2.06c1.717-2.747,2.403-4.12,3.434-7.21l1.029-4.463c-3.09-2.06-5.492-5.15-7.553-8.583-6.523-3.433-11.329-9.613-13.39-18.54-3.09-16.479,7.896-33.646,24.033-37.765,3.09-.687,6.522-1.03,9.27-.343,10.643,2.403,19.226,7.896,25.062,16.479,6.18,4.12,10.986,10.299,14.419,17.509,3.09,7.209,3.777,15.106,2.061,23.689l-1.03,3.434c-1.03,4.463-2.403,9.613-3.776,14.419-3.09,9.613-8.24,16.823-15.106,22.659-5.149,3.777-9.613,6.867-14.763,8.926-4.12,1.717-8.927,2.403-13.39,2.403-2.746,0-5.493-.687-7.553-2.06ZM1184.314,273.916c5.149-2.06,9.27-4.807,13.39-8.24,6.866-5.493,10.986-12.359,13.732-20.256,1.717-5.837,3.09-11.673,4.464-17.167,1.373-7.209,1.029-14.076-1.717-20.599-4.807-10.986-13.39-18.196-25.75-20.6-2.06-.687-4.119-.343-6.522.344-14.42,3.433-22.659,18.882-20.256,31.585,1.716,7.21,5.493,13.39,12.702,15.793,1.717.343,8.584,3.776,8.584,7.553.343,3.776-.344,6.523-1.717,10.643-1.374,4.807-2.747,6.523-5.15,10.643-1.373,2.403-3.09,4.463-5.493,5.836-1.029.687-2.06,1.717-3.09,2.747-.687.687,0,2.06,1.03,2.747,1.373,1.03,3.09,1.03,4.463,1.03,4.12,0,7.896-.687,11.33-2.06Z"/>
      <path class="cls-3" d="M1249.54,468.237c-7.553,0-10.3-2.747-10.3-10.3v-41.199c-.343-18.196-.687-36.735.687-55.275l.344-7.896c-.687-8.24-.344-16.479-.344-24.719l.344-12.016.343-5.493c0-2.403.344-4.463,0-6.18,0-2.403-.343-4.12-.343-6.523v-8.926c.343-7.896.343-15.45,0-23.346,0-1.716,0-2.747-.344-3.09-1.029-4.463-1.029-8.926,0-14.763.344-1.374.344-2.747,0-6.18l-.343-2.403-.344-3.09v-5.837c.687-8.24.687-16.479.344-25.062v-10.3c0-1.373,0-3.433.343-5.493,1.03-3.776,3.777-6.18,7.21-6.866,1.373-.343,3.09-.343,5.493-.343,9.613.343,19.913.343,29.526.343l4.806.343c6.523.343,9.613,3.433,10.3,9.613v.687c6.523.687,9.613,3.433,10.3,9.613v6.523c0,3.09-.343,6.18-.343,9.27-.344,5.15-.688,9.613,0,14.419.687,6.523.343,13.39.343,19.57l-.343,8.926.343,7.553c.344,5.493.687,11.33-.343,16.823v2.06c.687,3.434,1.029,6.867,1.029,9.957l3.777.343c4.119.343,8.239.343,13.046,0l7.553-.343c-.343,0-.687-.343-.687-1.717l-.343-7.553c0-6.867,0-13.733-.688-20.6-.343-2.747,0-5.493,0-7.896v-12.359c0-5.836,0-12.36,1.03-18.883.687-3.09.344-6.867-.343-11.673-.688-4.807-.688-9.613-.688-14.076v-7.896c0-.687.344-3.09,1.03-4.807v-1.03c1.03-3.09,3.434-5.493,7.21-6.18l3.09-.343h.344c8.926.687,18.882.687,28.495.343h10.986c5.837,0,8.927,2.747,8.927,8.583v1.717h1.373c5.837,0,8.927,2.747,8.927,8.583v23.003c0,12.359-.344,24.375-.687,36.392l-.344,18.54v7.553l-.343,8.24c.687,5.493.343,12.36-.344,19.913-.344,3.434-.344,6.523-.344,9.27.344,2.403.688,3.433.688,4.807v14.076c0,8.24.343,16.823,0,25.406,0,12.359-.344,24.719,1.373,37.079.343,3.09,0,6.18-.344,8.926,0,1.373-.343,2.747-.343,4.12-.344,7.896,0,15.793,0,24.033l.343,16.479v3.433c0,11.673-2.403,14.42-13.046,14.42h-4.807c-3.09,0-5.493-.344-7.896,0-8.927,1.03-16.479,1.03-25.062,0-4.807-.687-7.553-4.12-8.24-8.927v-1.03l-2.06-.343c-4.807-.687-7.553-4.12-8.239-8.927v-2.746l-.344-3.09v-9.613c0-9.957-.344-20.256.344-30.212.343-8.926.343-17.509.343-26.436v-25.406l-3.434-.343c-6.522-.343-12.359-.687-20.599.343l-.344,7.553c0,3.776-.343,7.553,0,11.33,0,12.703,0,31.585.344,40.855.343,2.403.343,3.776,0,6.18-.344,9.27-.344,17.166,0,25.406v10.986l-.344,3.434v3.09c-.687,4.463-4.807,8.24-9.27,7.553-4.807-.687-9.27-.343-14.42-.343-3.776.343-7.553.343-11.673.343-2.403-.343-4.463,0-7.21,0l-5.149.344c-7.553,0-10.3-2.747-10.3-10.3ZM1262.243,462.744c8.927.343,17.853-1.03,26.436,0,1.374.343,3.09-1.374,3.434-2.747,0-2.06.343-4.12.343-6.18,0-13.046-.687-24.719.344-39.482-.687-7.896-.687-29.526-.687-43.945-.344-6.523.343-12.703.343-18.883,0-4.12.688-4.806,4.464-5.15,13.046-1.373,20.942,0,31.585,0,1.717,0,3.777,0,5.494.344,1.029.343,2.06,1.03,2.402,2.403,0,6.18.688,12.017.688,17.853-.344,15.793.343,31.242-.344,47.035-.687,13.046-.344,26.436-.344,39.482,0,1.717.344,3.434.344,5.493.344,2.403,1.373,3.777,3.776,4.12,8.24,1.03,15.45,1.03,23.689,0,4.12-.343,8.583,0,13.39,0,7.21,0,7.896-.343,7.896-9.27v-3.433c0-13.733-.687-27.123-.344-40.512,0-4.12,1.374-8.239.687-12.359-1.716-12.703-1.373-25.406-1.373-37.766.344-12.703,0-25.406,0-37.766v-2.746c-1.03-4.463-.687-8.927-.343-13.39.687-6.523,1.029-13.39.343-19.569.344-5.493,0-10.986.344-16.136.343-18.196,1.029-36.393,1.029-54.588v-23.003c0-2.747-.687-3.433-3.776-3.433-12.703,0-27.122.687-39.825-.343-.687,0-1.717.343-2.747.343-1.029.343-2.06,1.03-2.402,2.403-.344,1.374-1.03,2.747-1.03,4.12.343,7.21-.344,14.42.687,21.629.687,4.463,1.03,8.927.344,13.39-1.717,8.926-.688,17.853-1.03,26.779,0,3.776-.344,7.21,0,10.986,1.03,10.3.687,20.943,1.03,31.242,0,3.09-1.03,4.12-3.777,4.12-7.209,0-14.419,1.03-21.629.343-3.434-.343-7.21-.343-10.643.687-1.374.687-3.091.343-4.464.343-2.06,0-3.433-1.03-3.433-3.09,0-7.896,0-15.449-1.374-23.346v-2.747c1.374-7.896,0-16.136,0-24.033,0-9.27,1.03-18.54,0-27.809-1.029-8.24.344-16.136.344-24.376v-6.18c-.344-3.434-1.717-4.463-5.493-4.807-1.373,0-2.747-.343-4.463-.343-9.613,0-19.913,0-29.526-.343-1.717,0-3.09,0-4.463.343-1.717.343-2.747,1.373-3.09,2.747-.344,1.717-.344,3.09-.344,4.463,0,12.017.687,24.033-.343,36.049-.344,2.403.343,5.15.343,7.896.344,3.434,1.03,6.867.344,9.957-.687,4.12-1.03,8.24,0,12.36.343,1.373.343,3.09.343,4.463.688,11.673,0,23.346,0,35.019,1.03,5.15,0,10.3,0,15.45,0,12.359-1.029,24.376,0,36.735l-.343,8.24c-2.061,28.152-.344,56.648-.687,85.144v10.986c0,4.807.687,5.15,5.149,5.15,4.12,0,8.24-.687,12.703-.343Z"/>
      <path class="cls-3" d="M1462.738,478.88c-4.807,0-10.3,0-15.793-1.03l-4.463.343h-1.717l-4.119.344c-6.181,0-9.957-4.12-9.957-10.3h-.343c-6.18,0-9.957-4.12-9.957-10.3,0-8.583-.343-17.166-.687-25.749l-.343-13.733c0-7.553.343-15.45.687-23.346.343-9.613,1.029-18.883.343-28.152-1.029-13.39-.343-26.779,0-39.482.344-7.896.687-15.449.687-23.002v-22.316l-.343-22.659v-7.553c.343-4.807.343-8.926,0-13.39v-7.896c0-2.06.343-4.12,0-6.18,0-2.403,0-4.12.343-6.523.344-3.09.344-6.18,0-9.613v-7.553l-.343-3.776c0-1.374-.344-3.09-.344-4.807-.687-4.806,3.777-9.27,8.927-8.583h9.27c3.434,0,6.523,0,9.957.343h7.553c6.523-.343,9.27,0,11.673.343,6.866,0,10.3,2.747,10.3,9.613v.687c7.21.343,10.3,2.747,10.3,9.613.343,2.403.343,4.806.343,6.866l-.343,3.09v7.553c0,2.403-.344,4.807,0,7.553v1.716l.343,2.747-.343,33.989.343,7.209c.344,9.957.687,19.913,0,29.869-.687,13.046-.687,26.093-.687,39.139v10.3c-1.373,10.643-1.03,21.629-.687,32.616.344,5.15.344,10.3.344,15.45,0,4.12-.344,7.553-.688,11.33-.343,3.776-.687,7.209,0,10.643.688,6.866.688,13.733.688,20.599v5.15l-.344,17.166c0,6.867-3.434,10.643-10.3,11.33-1.03.343-2.403.343-3.09.343h-7.21ZM1462.052,463.087c4.464-.343,5.837-2.06,5.837-6.18l.343-17.167c0-8.583.344-16.823-.687-25.062-.687-4.12-.343-7.896,0-11.673.344-3.776.687-7.21.687-10.986,0-16.136-1.716-32.272.344-48.409,0-16.479-.344-32.959.687-49.438.687-12.359,0-24.375-.344-36.735l.344-33.989c0-1.374-.344-3.09-.344-4.463-.343-5.493.344-10.3,0-15.106l.344-3.434c0-2.06,0-4.12-.344-6.18,0-4.12-1.029-4.807-5.836-4.807-4.12-1.03-12.703,0-18.883-.343s-13.046,0-19.227-.343c-2.06-.343-3.776,1.373-3.433,3.09,0,3.09.687,5.836.687,8.926-.344,6.867,1.03,13.733-.687,20.6,1.03,5.15,0,10.643.343,16.823.688,6.866,0,14.076,0,21.286,0,15.106.344,30.212.344,44.975,0,20.6-2.06,41.199-.687,62.142,1.03,17.166-1.373,34.675-1.03,51.842.344,13.389,1.03,26.436,1.03,39.482,0,3.433,1.717,5.15,4.807,5.15,2.403,0,4.807-.343,7.21-.343,1.373-.343,3.09-.687,4.463-.343,7.21,1.716,14.419.687,21.629,1.03.687,0,1.717,0,2.403-.343Z"/>
      <path class="cls-3" d="M1535.521,470.983l-.687-2.747c-4.464,0-8.583-3.09-9.613-7.553-1.373-5.836-2.403-12.016-3.434-17.853l-3.776-21.286c-1.03-6.867-2.403-14.076-3.776-20.943-.687-3.433-1.03-6.866-1.373-9.956l-.687-8.24c-.687-6.523-1.374-13.046-2.747-19.226-.343-2.403-.687-4.807-1.717-7.553-1.029-4.807-1.373-9.613-1.717-14.419-.343-6.523-1.716-13.046-3.09-19.913l-1.029-4.12c-1.03-6.18-1.717-12.017-2.403-17.51l-.344-1.373c-.343-2.403-1.029-5.15-1.373-7.896l-1.03-6.18c-1.717-10.3-3.09-20.256-6.18-30.212-1.029-4.12-1.373-7.21-1.373-9.957,0-5.836-1.03-10.986-2.06-16.823l-2.061-13.39-1.03-6.18-1.029-5.493c-.344-2.403-1.03-3.776-1.373-6.18v-3.434c0-4.806,3.776-8.583,8.239-8.583,5.149-.343,9.956-.343,14.763-.343l6.18.343,5.15-.343c7.21-.343,10.986.343,13.39.687,3.433-.343,5.493-.343,9.27,2.06,2.746,1.717,4.463,4.463,4.463,7.896v2.747c2.061-1.03,3.776-1.374,5.837-.343,2.746,1.717,4.463,4.463,4.463,7.896.344,11.33,3.09,24.032,5.493,35.706,1.03,6.523,2.06,13.046,2.747,19.569l1.373,9.957c0,2.746.687,5.149,1.373,7.896l.687,4.12c1.374,7.553,2.403,15.106,3.09,22.659s2.061,14.763,3.434,21.973l1.717-8.24,2.746-15.449c.344-1.03.344-2.403.344-4.463.343-10.643,2.403-20.943,4.463-30.899,1.717-6.523,2.747-13.046,3.434-20.6.687-8.926,3.433-23.689,6.18-32.272,4.807-15.792,12.359-24.376,26.093-30.556,4.463-2.06,11.673-3.433,17.853-3.433,5.836-.687,14.076.343,19.569,2.747,3.434,1.03,5.836,4.12,5.149,7.896l-.343.687c2.06.343,4.12,1.03,5.493,1.717,3.433,1.03,5.836,4.12,5.149,7.896-.343,2.403-2.403,3.776-4.463,4.806-3.776,1.717-6.866,6.18-8.927,11.673-1.716,7.209-3.776,15.449-5.149,26.092l-1.717,8.926c-1.717,8.583-3.434,17.51-3.776,25.062l-.344,1.03-.687,2.403c-1.717,6.523-2.746,13.046-4.12,19.913l-1.716,10.643-7.554,40.855c-.687,3.09-1.029,6.18-1.373,9.27l-1.03,9.957c-.687,3.776-1.373,7.209-1.717,10.986-2.06,16.479-4.463,32.959-7.896,49.095-1.03,4.463-1.717,8.583-2.403,13.046-.688,5.837-1.374,11.673-3.09,17.51l-.344,1.373c-.687,1.717-1.03,2.747-1.03,4.12-1.373,6.18-6.18,9.613-13.046,10.3-1.03.343-2.06,0-3.434,0-3.09-.687-6.522-.687-10.643-.344-2.747.344-5.837.344-8.927.344-5.836-.344-12.016-.344-18.539,0h-12.359c-4.464,0-8.583-3.09-9.613-7.553ZM1537.58,463.087c9.613,0,19.227-.687,28.496,0,6.866.343,13.732-1.374,20.6,0,.687.343,1.373,0,2.06,0,3.776-.343,6.866-2.06,7.896-6.18.344-2.06,1.03-3.777,1.717-5.836,2.403-9.957,3.09-20.256,5.149-30.213,3.434-16.136,5.837-32.272,7.896-48.751.344-3.777,1.03-7.553,1.717-11.33,1.03-6.18,1.373-12.703,2.403-18.883,2.403-13.733,5.149-27.466,7.553-41.199,2.061-10.3,3.434-20.943,6.18-30.899.344-1.03.344-2.403.688-3.434.687-10.3,3.776-23.689,5.493-33.646,1.373-8.926,3.09-17.853,5.493-26.436,1.716-5.493,5.493-12.359,11.673-15.106,1.029-.343,1.373-.687,1.373-1.03.344-1.03-.687-1.716-1.717-2.06-4.807-2.06-12.359-3.09-17.51-2.403-4.806,0-11.673,1.03-16.136,3.09-13.39,5.836-19.226,13.733-23.346,27.123-2.403,8.24-5.15,22.659-5.837,31.242-.687,7.21-1.717,14.076-3.433,21.286-2.061,9.957-4.12,19.913-4.464,30.212,0,1.717,0,3.433-.343,5.15-1.717,9.613-3.776,18.883-5.493,28.152-1.374,5.836-1.717,10.643-2.061,17.853,0,.343,0,1.03-.343,1.716l-5.15,30.899c0,.344-.343.344-.343.687-.344-.343-1.03-.343-1.03-.687-.687-2.06-1.373-4.12-1.717-6.18l-4.12-28.152c-1.373-9.27-2.402-18.54-4.119-27.466-1.717-8.583-3.09-17.166-4.12-25.749-.687-7.553-1.717-15.106-3.09-22.316-.687-4.12-1.717-8.239-2.06-12.359-1.374-9.613-2.403-19.569-4.12-29.183-2.403-11.673-5.15-24.719-5.493-36.735,0-2.06-1.373-3.776-3.776-4.12-3.777-.687-7.896-1.03-11.673-1.03q-3.777-.343-7.896-.343c0,.343-3.777.343-3.777.343-2.06,0-4.119-.343-6.18-.343-4.807,0-9.613,0-14.419.343-2.061,0-3.434,1.374-3.434,3.433,0,1.717,0,3.434.344,5.15,1.029,2.747,1.373,5.15,2.06,8.926,1.03,6.523,1.717,13.046,3.09,19.57,1.03,5.836,2.06,11.673,2.06,17.853,0,2.747.687,5.836,1.374,8.583,3.433,12.36,5.149,24.719,7.209,37.079.344,3.09,1.03,5.836,1.717,8.926.687,5.836,1.373,11.673,2.403,17.509,1.717,8.24,3.776,16.479,4.12,24.719.344,4.807.687,9.27,1.717,13.39.687,2.747,1.373,5.493,1.717,7.896,2.06,9.27,2.402,18.54,3.433,27.809.344,3.09.687,6.523,1.373,9.613,2.747,14.076,4.807,28.152,7.554,42.229,1.029,6.18,2.06,12.016,3.433,17.853.344,2.06,2.403,3.433,4.464,3.433,1.029.343,1.717,0,2.746,0Z"/>
      <path class="cls-3" d="M1755.241,478.193c-8.583-.343-16.137-.343-24.032-.343l-29.526.687c-4.807.343-9.613,0-14.076,0l-9.27-.344c-5.15-.687-8.24-3.09-8.927-8.24v-2.06h-1.373c-5.149-.687-8.24-3.09-8.927-8.24-.687-7.553-.687-15.106-.343-21.973v-8.583c0-2.06.343-4.807.687-5.837.687-2.06.687-3.776-.344-7.896-.343-1.716,0-4.806.687-7.209l.344-2.403c-1.373-4.12-1.373-8.24-1.03-11.673v-8.926l-.343-6.523v-.343c-.344-1.374,0-2.747.343-4.12,1.374-4.807,1.03-9.613,1.03-15.45-.344-4.12-.687-8.583,0-13.046-.687-12.703-.687-25.406-.687-38.109v-12.359l-.344-3.09-.343-.687c-.344-2.403-.687-5.149-.344-6.866.687-3.776.687-7.553.344-11.673-.344-2.747-.344-6.18-.344-9.613.687-7.553.687-15.106-.343-22.316-.344-1.374-.344-2.747,0-5.15v-1.717c0-4.463.343-8.926.687-13.046.343-6.523.687-13.046,0-19.226-.344-2.747-.344-5.836,0-8.24,2.403-8.24,3.776-9.957,12.359-9.957,12.017.343,23.346.687,35.019.687h2.403c2.747,0,4.807,0,7.21-.343.687-.343,2.747-.343,4.12-.343l4.463.343,2.403.343c2.403,0,3.776-1.03,4.807-1.03,1.373,0,2.747.343,4.807.343,5.493.687,11.329.343,17.51,0,5.149-.343,10.643-.687,16.136-.343l13.39.687c4.12,0,7.553,3.777,8.239,8.24v2.06h2.061c4.12,0,7.553,3.776,8.239,8.24v6.523l-.343,8.927c0,4.12-.344,8.24,0,12.703v4.463c0,8.583-3.09,11.673-10.986,11.673l-4.807.343c-2.06,0-3.776,0-5.837.343-2.403.344-4.119,0-6.866-.343-1.03,0-2.746,0-5.493.343-2.403,0-5.149.344-8.239,0-3.09-.343-6.523-.343-10.3,0l-21.973.344c.687,8.926.343,17.509,0,25.749,0,4.463-.344,8.926-.344,13.39v.343c0,2.403-.343,4.12-.687,6.523l-.344,2.403h8.927c7.21.687,12.017,1.03,16.823.343,3.776-.343,7.209.343,9.956.687l4.12.343c3.776,0,6.18,2.747,7.21,6.523l.343,3.433,2.747.343c3.776,0,6.18,2.747,7.209,6.523.344,1.716.688,3.776.688,6.18v12.016l.343,12.36c0,1.717-.687,6.523-1.03,8.583-.343,3.776-3.433,6.866-7.553,6.866h-18.539c-4.464,0-9.957.344-15.106-.343h-4.463c-3.777-.343-6.867-.343-10.3.343l-.344,2.747v2.06c.687,5.836.344,11.673,0,16.823v10.643c.344,6.867.687,13.733.687,20.256l4.464.343c5.493.343,11.673.687,24.376-.343,5.149-.343,11.673,0,17.853,0h7.896c4.12,0,7.896,2.747,8.239,7.209l.344,3.09h1.717c4.119,0,7.896,2.747,8.239,7.21.687,5.493.687,10.643.344,15.793,0,4.463,0,8.926.343,13.39v3.776c-1.717,13.046-4.119,15.45-16.136,15.45-11.33.343-20.942-.343-29.869-.687ZM1785.797,452.787c.344-1.03,0-2.403,0-3.433-1.03-9.613.687-19.226-.687-28.839,0-1.373-1.03-2.403-3.09-2.403-7.554,0-18.196-.344-25.406,0-23.689,1.716-24.719-.687-41.198.343-2.061,0-3.434-1.03-3.434-3.434,0-10.643,0-21.286-.687-32.272-.344-8.927,1.03-17.853,0-26.779-.344-1.717.343-4.12.343-6.18,0-3.09,1.03-4.463,4.12-4.807,5.493-1.03,10.644-.343,16.137-.343,8.239,1.03,16.479,0,24.376.343h8.926c1.373,0,2.403-1.03,2.403-2.403.344-1.373,1.03-6.18,1.03-7.896,0-9.27-.344-15.106-.344-24.376,0-1.716-.343-3.433-.687-5.15-.343-1.373-1.03-2.403-2.403-2.403-4.463-.344-8.583-1.374-13.39-1.03-5.836.687-11.673.343-17.509-.343-6.181-.343-12.703.687-18.883.343-2.747-.343-4.12-1.03-4.12-3.776-.344-6.18-2.06-12.36,0-18.54v-2.747c0-12.703,1.717-26.779.343-40.855-.343-2.06,1.03-3.433,3.09-3.433,6.181,0,12.017-.343,18.196-.343,5.493,0,11.33-.687,16.823,0,5.836.687,11.329-1.374,16.822.343,4.464-1.03,8.927-.687,13.39-1.03,5.493,0,6.181-1.03,6.181-6.523v-4.463c-.344-7.21.343-14.42.343-21.629v-6.18c-.343-1.716-1.717-3.433-3.434-3.433-4.463-.343-8.926-.343-13.39-.687-12.359-.687-24.719,2.06-36.735,0h-1.716c-3.777,1.716-7.21.343-10.644.343-1.373,0-2.403-.343-3.434,0-3.776,1.03-7.209.687-10.986.687-11.673,0-23.002-.343-35.019-.687-5.836,0-5.493,0-7.21,5.836-.343,2.06-.343,4.463,0,6.523,1.03,10.986-.687,21.973-.687,32.959,0,2.06-.343,4.12,0,6.18,1.03,7.896,1.03,15.792.344,23.346-.344,7.896,1.373,14.076,0,21.973-.344,2.06.343,4.12.687,6.18,0,2.06.343,4.12.343,6.18,0,16.136-.343,31.929.688,47.722-1.374,9.957,1.716,20.256-1.374,30.212-.343.687,0,1.717,0,2.747,0,4.12.344,8.24.344,12.36,0,4.463-.687,8.583.687,12.703,1.373,3.434-1.373,6.867-.687,10.643.687,3.433,1.373,6.867,0,10.643-.344,1.03-.344,2.747-.344,4.12,0,9.956-.687,19.913.344,29.869.343,2.403,1.373,3.434,4.12,3.777,7.553,0,15.105.687,22.659.343,9.956-.343,19.569-.343,29.525-.687,17.166-.343,32.616,1.373,54.245,1.03,9.27,0,9.613-1.03,10.986-10.643Z"/>
      <path class="cls-3" d="M1937.199,484.03c-13.046-4.807-20.942-10.3-27.122-18.883-5.15-3.777-9.271-8.24-13.047-14.076-7.553-12.017-10.643-24.376-14.763-36.736-1.717-4.807-3.09-9.27-4.463-14.076,0,4.807-.344,9.957-.687,14.763-.344,5.15-.344,9.27.687,12.703v1.374c.343,2.403.343,3.776,0,6.18-.344,4.807,0,9.27,0,14.419.343,4.12.343,8.24.343,12.36-.343,12.359-1.716,14.763-12.359,16.136-2.403.344-4.12,0-6.523,0-1.716,0-3.776,0-6.18.344-3.776.343-8.926.687-13.732-.687h-3.776c-1.374.343-3.09.343-5.15.343-6.523,0-10.3-3.776-10.3-10.299-6.866,0-10.3-3.777-10.3-10.643,0-15.45,0-28.496.344-44.289l-.344-5.15c.344-10.643.688-20.943.688-31.586,0-5.15,0-10.3-1.03-15.449-.344-2.06,0-4.463,0-6.523v-3.09l.687-52.872c0-5.493-.344-11.33-1.03-17.509-.687-3.777-.343-7.553-.343-10.986v-3.09c0-13.046.343-25.062.687-37.079,0-10.986.343-21.973.343-32.616l.344-2.403c.344-6.866,4.12-10.3,12.017-10.986h6.522c8.583.343,17.166.343,26.093,0,9.613-.343,19.569-.687,29.525,0,4.807.343,9.957.343,14.764.343,1.373,0,2.746.343,4.119.687,5.15,1.374,10.644,3.09,16.137,4.807,6.866,1.717,13.39,6.867,19.569,14.763,3.776,2.747,7.896,6.866,11.329,11.673,7.554,10.986,12.36,22.659,14.764,35.019.343,2.06.687,3.433.687,5.149,1.029,10.986.687,28.153,0,39.139-.344,7.209-1.373,13.39-2.403,18.883-1.03,3.433-4.12,15.449-6.523,19.569-5.836,9.27-9.956,13.39-15.793,17.509-3.433,2.403-8.583,5.15-10.3,6.18,1.03,2.747,1.717,5.493,2.403,8.24,1.374,5.15,2.403,9.27,4.464,13.39,1.029,2.06,1.716,4.12,2.06,5.836,2.06,9.27,4.807,18.54,7.896,27.81l1.03,3.433c2.403,4.806,4.463,9.956,6.522,15.106,2.403,6.18,4.807,12.017,7.896,17.51l.687,1.03c1.374.687,3.09,1.03,5.493,1.717h2.061c5.149,0,6.522,5.15,4.807,9.27l3.433,1.03h2.061c5.149,0,6.866,5.493,4.807,9.613-3.777,8.24-8.584,12.016-16.137,13.733-10.986,2.403-23.346,2.06-32.959-1.03ZM1971.188,458.967c.343-.687.687-2.403,0-2.403h-2.747c-8.583-2.06-11.329-3.434-16.479-9.957-1.373-1.717-2.746-3.777-3.776-5.836-5.836-10.643-9.27-21.973-14.763-32.959-.344-.687-.344-1.03-.344-1.717-3.433-10.3-6.522-20.256-8.926-30.899,0-1.374-.687-2.747-1.374-4.12-3.776-7.209-4.806-15.449-7.553-23.346-.687-2.06-.344-3.09,1.717-4.12,12.703-8.24,17.166-9.956,25.062-23.002,2.06-3.433,4.807-14.419,5.836-18.196,1.374-5.836,2.061-12.016,2.403-17.853.688-10.986,1.03-27.809,0-38.452,0-1.717-.343-3.09-.687-4.463-2.06-12.016-6.866-23.002-13.732-32.959-4.463-6.18-10.3-12.359-17.853-14.419-5.493-1.717-10.986-3.433-16.137-4.807-.687-.343-1.717-.343-2.746-.343-4.807,0-9.957,0-15.106-.343-18.883-1.373-36.735,1.03-55.618,0h-6.18c-5.15.343-6.867,1.717-6.867,6.523-.343.687-.343,1.374-.343,1.717,0,22.316-1.03,44.632-1.03,69.694,0,4.463-.343,8.927.344,13.39.687,6.18,1.029,12.017,1.029,18.196-.343,17.509-.343,35.362-.687,52.872,0,3.09-.343,6.18,0,8.926,1.03,5.493,1.03,10.986,1.03,16.136,0,12.017-.344,23.689-.687,35.362.343,0,0,2.06.343,2.06-.343,15.45-.343,28.496-.343,43.602,0,4.12,1.373,5.493,5.149,5.493,1.717,0,3.09,0,4.464-.343,2.06,0,3.776-.343,5.493,0,7.553,2.403,14.763-.687,22.315.687,10.3-1.03,9.956-1.03,10.3-11.33.344-9.957-1.373-20.256,0-30.212,0-1.03,0-2.06-.344-2.747-1.029-4.807-1.029-9.613-.687-14.42,1.374-13.389,0-27.122,0-40.512,0-3.434,0-8.24.344-12.017,0-2.06,2.06-2.06,4.463-2.403,2.747-.343,4.463.687,4.807,3.434,1.717,9.27,5.493,17.509,5.837,26.436,3.09,10.986,6.18,22.316,9.956,33.303,4.12,12.703,7.21,24.375,14.42,35.705,7.209,11.33,15.449,16.136,27.122,20.6,9.27,2.747,20.6,2.747,30.212.687,6.867-1.373,9.613-4.807,12.36-10.643ZM1861.668,308.592c-1.029-7.21-.343-14.42-.343-20.256,0-7.896.343-14.419-.344-20.942-.343-2.06-.343-7.21,0-9.27,1.373-5.836.687-11.33,0-16.823v-8.24c0-1.373,1.03-2.06,2.403-2.403,8.24-.687,16.823-1.03,25.062.687,5.837,1.373,9.957,5.149,12.359,10.299,3.09,5.493,4.807,11.673,4.807,18.196.344,5.493,0,14.419-.343,19.913-.344,5.493-1.03,10.643-1.717,16.136-.344,1.717-1.373,3.433-2.06,4.807-1.03,2.06-2.403,3.433-3.434,5.493-2.747,4.806-7.553,7.209-12.703,7.209-6.523.344-12.359-.687-19.912.344-2.747,0-3.777-2.06-3.777-5.15ZM1893.598,303.785c.687-1.374,1.373-2.403,2.06-3.433l1.373-2.06.344-.687,1.03-2.747c.687-5.15,1.373-10.3,1.716-15.45.344-7.21.687-15.106.344-19.569,0-4.463-1.03-8.926-2.747-13.046-7.209-1.717-14.763-1.373-22.315-.687.343,0,1.03,0,1.03,1.373v3.777c.687,5.493,1.373,11.673,0,18.196-.344,1.717-.344,6.18,0,7.553.343,5.15.343,10.3.343,15.793v10.986l-.343,4.463h8.926c3.776,0,6.523-1.374,8.24-4.463Z"/>
    </g>
    <g>
      <rect class="cls-1" y="127.083" width="1999.215" height="397.585"/>
      <path class="cls-2" d="M84.681,458.737l-7.21-4.12c-7.896-3.777-13.046-10.643-16.823-18.196-5.836-12.016-8.583-24.719-8.583-37.766,0-13.39-1.03-26.779.687-40.168.344-3.09-.343-5.836-.343-8.926,0-8.24-.343-16.136-.343-24.376,1.374-24.376,0-41.542,0-61.798,0-4.807-.343-9.613.343-14.419,1.374-10.643,2.747-21.286,8.583-30.899,10.986-17.51,26.093-27.809,47.036-30.556,4.12-.343,8.239-1.03,12.359-1.373,16.479-.687,30.899,4.463,43.259,14.763,7.553,6.523,14.076,13.39,16.823,23.689l1.373,5.15c1.03,4.463,1.374,7.896,2.06,12.359,1.03,4.807,1.03,12.36.343,17.167,0,1.716-.343,3.09-.343,4.12,0,4.807-1.03,8.24-1.717,12.703-1.373,6.18-4.806,11.673-10.643,15.106-10.3,5.493-20.256,6.867-31.586,3.434-3.433-1.03-7.21-3.777-9.27-5.837-1.374-1.373-.687-2.06.343-2.747,7.209-4.12,8.24-11.33,9.27-17.509.687-7.553,1.03-15.793-1.03-23.346-2.06-8.927-8.24-13.733-17.166-14.077-5.15,0-9.957.343-14.42,3.09-4.12,2.403-6.866,5.836-7.209,10.643-.343,3.777-1.717,7.896-1.03,12.017l-.687,16.479c0,10.3.687,20.599.343,30.899-.343,15.45-1.373,30.899-.343,46.692.687,14.763.687,29.869.687,44.632,0,5.15,0,10.3,2.06,14.763.687,2.747,2.06,5.15,3.776,7.209,3.777,5.15,9.27,5.836,15.106,5.15,2.403-.343,4.463-1.03,6.866-2.403,3.777-2.06,6.18-5.493,6.867-9.613,1.717-7.896,2.403-15.793,2.403-23.689-.343-7.21,0-14.419,0-21.973v-2.747c.343-1.373.687-2.747,2.06-3.09l7.209.343c10.643.343,18.54-.343,27.809-.343h6.18c3.09.687,2.403,2.403,2.747,5.15.343,1.373.343,2.403.343,3.776,0,7.21-.343,14.42,0,21.973.687,3.09.343,6.867-.343,10.3-.687,6.523-.687,12.359-2.06,18.54-1.717,8.24-4.463,16.823-10.3,23.689-1.716,2.403-3.433,4.463-5.493,5.837l-14.419,10.299c-4.12,3.09-8.926,4.807-14.076,5.493-8.583,1.374-17.166,1.717-26.093,1.717-8.926-.343-17.853-2.06-25.406-7.21Z"/>
      <path class="cls-2" d="M228.871,462.514c-1.374-.344-3.09,0-4.463.343-2.403,0-4.807.343-7.21.343-3.09,0-4.806-1.717-4.806-5.15,0-13.046-.687-26.092-1.03-39.482-.343-17.167,2.06-34.676,1.03-51.842-1.374-20.943.687-41.542.687-62.142,0-14.763-.343-29.869-.343-44.975,0-7.21.687-14.419,0-21.286-.343-6.18.687-11.673-.343-16.823,1.716-6.867.343-13.733.687-20.6,0-3.09-.687-5.836-.687-8.926-.343-1.716,1.373-3.433,3.433-3.09,6.18.343,13.046,0,19.226.343s14.763-.687,18.883.343c4.806,0,5.836.687,5.836,4.807.343,2.06.343,4.12.343,6.18l-.343,3.433c.343,4.807-.343,9.613,0,15.106,0,1.373.343,3.09.343,4.463l-.343,33.989c.343,12.359,1.03,24.376.343,36.735-1.03,16.479-.687,32.959-.687,49.438-2.06,16.136-.343,32.272-.343,48.409,0,3.776-.344,7.21-.687,10.986s-.687,7.553,0,11.673c1.03,8.24.687,16.479.687,25.062l-.344,17.167c0,4.12-1.373,5.836-5.836,6.18-.687.343-1.716.343-2.403.343-7.21-.343-14.42.687-21.629-1.03Z"/>
      <path class="cls-2" d="M409.456,469.037c-11.673-4.463-19.913-9.27-27.123-20.599-7.209-11.33-10.3-23.003-14.419-35.706-3.776-10.986-6.867-22.316-9.957-33.302-.343-8.926-4.12-17.166-5.836-26.436-.343-2.747-2.06-3.777-4.807-3.433-2.403.343-4.463.343-4.463,2.403-.343,3.777-.343,8.583-.343,12.017,0,13.39,1.373,27.123,0,40.512-.343,4.806-.343,9.613.687,14.419.343.687.343,1.716.343,2.747-1.373,9.956.343,20.256,0,30.212-.343,10.299,0,10.299-10.3,11.33-7.553-1.374-14.763,1.717-22.316-.687-1.716-.344-3.433,0-5.493,0-1.373.343-2.747.343-4.463.343-3.776,0-5.149-1.374-5.149-5.493,0-15.106,0-28.153.343-43.602-.343,0,0-2.06-.343-2.06.343-11.673.687-23.346.687-35.362,0-5.15,0-10.643-1.03-16.136-.343-2.747,0-5.836,0-8.926.344-17.509.344-35.362.687-52.872,0-6.18-.343-12.017-1.03-18.196-.687-4.463-.343-8.926-.343-13.39,0-25.062,1.03-47.378,1.03-69.694,0-.343,0-1.03.343-1.717,0-4.806,1.716-6.18,6.866-6.523h6.18c18.882,1.03,36.735-1.374,55.618,0,5.15.343,10.3.343,15.106.343,1.03,0,2.06,0,2.747.343,5.15,1.374,10.643,3.09,16.136,4.807,7.553,2.06,13.39,8.24,17.853,14.419,6.866,9.957,11.673,20.943,13.733,32.959.343,1.374.687,2.747.687,4.463,1.03,10.643.687,27.466,0,38.452-.343,5.836-1.03,12.016-2.403,17.853-1.03,3.777-3.776,14.763-5.836,18.196-7.896,13.046-12.36,14.763-25.062,23.002-2.06,1.03-2.403,2.06-1.717,4.12,2.747,7.896,3.776,16.136,7.553,23.346.687,1.374,1.373,2.747,1.373,4.12,2.403,10.643,5.493,20.599,8.927,30.899,0,.687,0,1.03.343,1.717,5.493,10.986,8.926,22.316,14.763,32.959,1.03,2.06,2.403,4.12,3.776,5.836,5.15,6.523,7.896,7.896,16.479,9.956h2.747c.687,0,.343,1.717,0,2.403-2.747,5.837-5.493,9.27-12.36,10.643-9.613,2.06-20.943,2.06-30.212-.687ZM366.197,313.512c5.15,0,9.957-2.403,12.703-7.209,1.03-2.06,2.403-3.434,3.433-5.493.687-1.374,1.717-3.09,2.06-4.807.687-5.493,1.373-10.643,1.717-16.136.343-5.493.687-14.419.343-19.913,0-6.523-1.717-12.703-4.807-18.196-2.403-5.15-6.523-8.926-12.36-10.3-8.24-1.716-16.823-1.373-25.062-.687-1.373.343-2.403,1.03-2.403,2.403v8.24c.687,5.493,1.374,10.986,0,16.823-.343,2.06-.343,7.21,0,9.27.687,6.523.344,13.046.344,20.942,0,5.836-.687,13.046.343,20.256,0,3.09,1.03,5.149,3.776,5.149,7.553-1.03,13.39,0,19.913-.343Z"/>
      <path class="cls-2" d="M507.988,490.323c-3.777-5.15-6.523-9.957-6.867-16.479,0-.687,0-1.717-.343-2.747-.343-2.06-.343-4.807-1.717-6.867-1.03-2.06-4.12-1.716-6.523-2.06-7.21-1.373-13.046-6.18-19.226-9.27-3.776-3.776-7.896-7.21-10.3-12.359-2.403-5.837-3.776-12.017-5.15-18.196-.343-.343-.343-1.03-.343-1.717-2.403-10.986-4.12-21.629-2.747-32.959.343-1.373,0-3.09,0-4.463h-.343v-10.643c0-11.33-.343-22.316-.343-33.302,0-15.106.343-29.869.687-44.976,0-12.359.343-24.376.687-36.735v-1.717c-1.373-7.209,0-14.419.344-21.629.343-9.613,4.12-17.853,10.643-25.063,13.733-15.106,31.586-21.629,51.842-22.659l6.18-.343c7.896,1.717,14.419,1.373,22.316,4.12,9.956,3.776,17.166,6.866,23.689,16.136,2.403,3.777,5.493,7.21,7.896,10.986,6.18,9.613,7.553,23.003,6.866,34.333-.687,9.957-1.03,19.913-.344,29.869v2.403c-.343,5.15-.687,10.299,0,15.106.687,6.18-.343,12.017-.343,18.196,0,1.03-.687,2.403-.344,3.433,1.373,9.613.344,19.226,0,28.839,0,12.359,0,25.062-.687,37.765-.343,7.896.344,20.6-.687,28.496-.344,3.09-1.373,6.523-2.06,9.613-3.777,13.733-13.39,23.003-23.689,31.929-1.03,1.03-2.403,1.373-3.776,2.06-5.15,2.403-5.493,2.403-5.15,7.896,0,3.777.344,2.747,2.061,5.836,2.06,5.15,5.836,8.24,11.329,9.27,5.149,1.03,9.956,1.716,15.106-.687,1.373-.687,3.09-1.374,4.807-1.717,1.029-.343,2.403,1.03,2.403,2.06-.344,1.03-.344,2.06-.687,2.747-3.091,6.866-7.896,12.016-14.764,15.106-5.836,2.747-12.016,5.493-18.539,6.523-17.166,2.747-31.242-2.06-41.885-16.136ZM540.946,404.836v-24.376c-.343-2.403-.343-4.463,0-6.867.344-5.15,1.03-10.3,0-15.449-1.029-4.807-1.029-9.957-.687-15.106,0-10.986.344-22.316.687-33.302h-.343c0-6.18,0-12.703.343-18.883,1.374-14.076-.343-28.152-.687-42.229,0-5.493-2.06-10.643-5.149-15.106-.687-1.03-1.374-2.06-2.403-2.403-4.463-2.06-10.3-4.463-15.45-2.403l-5.15,2.06c-8.926,3.09-12.703,13.046-12.703,23.003,0,6.18.344,12.703.344,18.883,0,10.299.343,20.256.687,30.556.343,11.33-.343,22.659-.343,33.989,0,12.016-.343,24.033-.343,36.049,0,5.15.687,10.3.687,15.106.343,6.523,1.03,12.703,2.06,18.882,2.06,10.643,13.046,16.479,21.286,15.106,8.583-1.373,17.166-6.523,17.166-17.509Z"/>
      <path class="cls-2" d="M657.671,462.17c-8.926-2.746-16.136-7.896-22.315-14.763-3.777-4.12-7.21-6.523-10.3-11.673-3.434-5.836-4.807-10.986-6.866-17.51-3.091-9.27-3.777-19.226-3.777-28.496-.687-14.763,0-29.526,0-44.289,0-4.807,0-9.27-.343-14.076-.687-8.24-1.03-16.479,0-24.376.687-15.45.687-31.242.687-46.692,0-8.583.687-17.509-.344-26.092-.343-1.03,0-2.403,0-3.434.344-1.716.687-3.09.687-4.463-1.029-8.24,0-15.793-.343-24.033v-9.957c0-2.06,1.03-3.09,3.434-2.747,6.18-.687,12.359-1.373,18.882,0,5.15.687,10.3.687,15.793.687,2.403.343,4.464.343,6.867.343,1.029.343,1.716,1.03,1.716,1.716.344,5.15.688,10.3.688,15.45l-.688,16.136v21.629c0,4.806,0,9.613.688,14.076.343,1.716,0,3.09,0,4.463,0,8.24-.344,16.136,0,24.376.343,7.553,0,15.45,0,23.346l-.344,3.433c2.403,10.986,1.03,22.316,0,33.302,0,1.03-.344,2.403,0,3.433,1.717,10.986.344,22.316.344,33.302,0,3.09,0,5.837.343,8.927.687,2.747.687,5.836.687,8.926.344,11.673,8.583,19.226,19.569,20.599,4.464.687,10.3-.687,14.076-3.09,1.03-.687,2.403-2.06,3.09-3.433.687-2.06,1.717-4.463,1.717-6.866,1.03-9.957,3.776-20.256,1.717-30.212-.687-3.09-.344-6.18-.344-9.27.688-5.493,1.03-10.986,1.374-16.823.343-6.18,0-12.359.343-18.54,0-4.463.344-8.926.344-13.389,0-7.21-.687-14.42-1.373-21.629,0-1.717-.344-3.434-.344-5.15.687-8.927,1.03-17.853.344-27.123v-27.466c.343-9.27.343-18.196.343-27.123.344-4.12.344-8.24-.343-12.703-.688-2.06-.344-4.463-.344-6.866,0-2.06,1.03-3.09,3.434-3.433,5.493-.687,11.329-1.717,16.822-1.03,7.554,0,16.137,1.03,23.689.343,2.403,0,2.06.344,3.09,3.434,0,5.493-.687,10.643.687,16.136-.687,2.747-1.373,4.807-1.373,7.553,0,17.51.687,35.019.344,52.185-.344,9.613-1.717,19.226-1.03,29.183,1.373,13.046,1.03,26.092,1.373,39.482-.343,5.836-.687,12.017-.687,17.853v8.926c0,4.12,1.03,7.896-.344,11.673-.343.343-.343,1.03,0,1.717,1.374,10.3-.687,20.256-1.029,30.556-1.03,11.673-5.493,21.629-11.673,32.272-3.777,5.836-7.896,8.583-12.703,13.39-7.896,7.896-18.196,12.359-29.526,12.359-14.763.687-22.659,0-36.735-4.463Z"/>
      <path class="cls-2" d="M839.969,462.514c-9.956.343-19.569.343-29.525.687-7.554.343-15.106-.343-22.659-.343-2.747-.343-3.777-1.374-4.12-3.777-1.03-9.956-.344-19.913-.344-29.869,0-1.373,0-3.09.344-4.12,1.373-3.776.687-7.21,0-10.643-.687-3.776,2.06-7.21.687-10.643-1.373-4.12-.687-8.24-.687-12.703,0-4.12-.344-8.24-.344-12.36,0-1.03-.343-2.06,0-2.747,3.09-9.956,0-20.256,1.373-30.212-1.029-15.793-.687-31.585-.687-47.722,0-2.06-.343-4.12-.343-6.18-.344-2.06-1.03-4.12-.687-6.18,1.373-7.896-.344-14.076,0-21.973.687-7.553.687-15.449-.344-23.346-.343-2.06,0-4.12,0-6.18,0-10.986,1.717-21.973.687-32.959-.343-2.06-.343-4.463,0-6.523,1.717-5.836,1.373-5.836,7.21-5.836,12.017.343,23.346.687,35.019.687,3.777,0,7.21.343,10.986-.687,1.03-.343,2.061,0,3.434,0,3.434,0,6.866,1.374,10.643-.343h1.717c12.017,2.06,24.376-.687,36.736,0,4.463.343,8.926.343,13.389.687,1.717,0,3.09,1.717,3.434,3.433v6.18c0,7.209-.687,14.419-.344,21.629v4.463c0,5.493-.687,6.523-6.18,6.523-4.463.344-8.926,0-13.39,1.03-5.493-1.717-10.986.343-16.822-.343-5.493-.687-11.33,0-16.823,0-6.18,0-12.016.343-18.195.343-2.061,0-3.434,1.373-3.091,3.433,1.374,14.076-.343,28.152-.343,40.855v2.747c-2.061,6.18-.344,12.359,0,18.54,0,2.747,1.373,3.433,4.12,3.776,6.18.343,12.702-.687,18.883-.343,5.836.687,11.673,1.03,17.509.343,4.807-.343,8.927.687,13.39,1.03,1.373,0,2.061,1.03,2.403,2.403.344,1.717.687,3.434.687,5.15,0,9.27.344,15.106.344,24.376,0,1.717-.687,6.523-1.03,7.896,0,1.374-1.03,2.403-2.403,2.403h-8.926c-7.896-.343-16.137.687-24.376-.343-5.493,0-10.644-.687-16.137.343-3.09.343-4.12,1.716-4.12,4.807,0,2.06-.687,4.463-.343,6.18,1.03,8.926-.344,17.853,0,26.779.687,10.986.687,21.629.687,32.272,0,2.403,1.373,3.434,3.434,3.434,16.479-1.03,17.509,1.373,41.198-.344,7.21-.343,17.853,0,25.406,0,2.06,0,3.09,1.03,3.09,2.403,1.373,9.613-.344,19.226.687,28.839,0,1.03.343,2.403,0,3.433-1.373,9.613-1.717,10.643-10.986,10.643-21.63.343-37.079-1.374-54.245-1.03Z"/>
      <path class="cls-2" d="M1041.495,463.201c-6.523-.687-19.227.687-31.586,0q-7.21-.343-7.553-6.867c0-9.27.343-18.539-.344-27.809.344-7.209.344-14.419.344-21.629,0-9.27,0-18.539.343-27.809.344-9.613-.343-19.226,0-28.839.344-3.777,1.717-7.553.687-11.33-.687-3.09-.687-6.18-.687-8.927-.687-28.152.344-56.648.687-84.8,0-6.18-.343-12.36-1.029-18.54-.687-10.643-.344-20.943,0-31.586,0-3.09,2.06-4.806,4.807-5.493,4.119-1.373,8.583-1.03,12.702-.687,6.18.343,12.36.343,18.54,0,10.3-.343,20.942,0,31.242,0,6.523.343,13.39.687,19.569,1.717,10.986,1.373,21.286,4.463,29.869,11.33,3.09,2.747,5.493,5.836,7.21,9.27,2.746,4.463,4.807,9.613,6.866,14.763.344,1.374,1.03,3.434,1.03,5.15.687,4.463.687,8.927,1.716,13.39,2.061,10.3,1.717,20.6,1.717,31.243,0,7.553-.687,15.106,1.03,22.316.344,1.373.344,3.09,0,4.463-.687,10.3-.344,20.256-1.03,30.556-.687,11.33-.343,22.659-.343,33.989,0,14.419-.687,28.839-1.717,43.259-1.03,9.956-3.434,19.226-9.613,27.466-3.09,4.463-6.18,8.583-9.613,13.046-1.029,1.374-2.746,2.747-4.119,3.434-6.523,3.09-12.703,6.866-19.913,8.24-2.06.687-4.12,1.03-6.18,1.03l-44.632-.343ZM1075.141,420.285c11.33-2.403,17.51-6.866,17.166-20.256v-6.18c-.344-24.033,1.717-45.319.344-72.098-.344-9.27,0-18.883-.688-28.496-1.029-11.33-.687-22.659-.687-34.333,0-4.463-.343-8.926-1.716-13.046-2.061-7.553-7.896-12.36-15.45-12.703-5.493-.343-11.673-.343-17.166-.687l-2.746.343c-1.717,0-2.747,1.374-2.747,2.747v12.359c-1.373,14.42.687,21.286,0,34.676-.687,17.166,0,34.676-.343,51.842-.344,5.15,1.029,10.3,1.029,15.106-1.373,10.986.344,21.629.344,32.615-1.373,11.673,0,23.346,0,35.019,0,2.06,1.03,3.09,3.09,3.433,6.523.687,13.39,1.374,19.569-.343Z"/>
      <path class="cls-2" d="M1168.521,275.059c-1.03-.687-1.717-2.06-1.03-2.747,1.03-1.03,2.061-2.06,3.09-2.747,2.403-1.373,4.12-3.433,5.493-5.836,2.403-4.12,3.776-5.836,5.15-10.643,1.373-4.12,2.06-6.866,1.717-10.643,0-3.776-6.867-7.209-8.584-7.553-7.209-2.403-10.986-8.583-12.702-15.793-2.403-12.703,5.836-28.152,20.256-31.586,2.403-.687,4.463-1.03,6.522-.343,12.36,2.403,20.943,9.613,25.75,20.6,2.746,6.523,3.09,13.39,1.717,20.599-1.374,5.493-2.747,11.33-4.464,17.167-2.746,7.896-6.866,14.763-13.732,20.256-4.12,3.433-8.24,6.18-13.39,8.24-3.434,1.373-7.21,2.06-11.33,2.06-1.373,0-3.09,0-4.463-1.03Z"/>
      <path class="cls-2" d="M1244.391,458.051v-10.986c.343-28.496-1.374-56.992.687-85.144l.343-8.24c-1.029-12.36,0-24.376,0-36.735,0-5.15,1.03-10.3,0-15.45,0-11.673.688-23.346,0-35.019,0-1.373,0-3.09-.343-4.463-1.03-4.12-.687-8.24,0-12.36.687-3.09,0-6.523-.344-9.956,0-2.747-.687-5.493-.343-7.896,1.029-12.017.343-24.033.343-36.049,0-1.374,0-2.747.344-4.463.343-1.374,1.373-2.403,3.09-2.747,1.373-.343,2.746-.343,4.463-.343,9.613.343,19.913.343,29.526.343,1.716,0,3.09.343,4.463.343,3.776.343,5.149,1.374,5.493,4.807v6.18c0,8.24-1.373,16.136-.344,24.376,1.03,9.27,0,18.54,0,27.809,0,7.896,1.374,16.136,0,24.033v2.747c1.374,7.896,1.374,15.449,1.374,23.346,0,2.06,1.373,3.09,3.433,3.09,1.373,0,3.09.344,4.464-.343,3.433-1.03,7.209-1.03,10.643-.687,7.21.687,14.42-.343,21.629-.343,2.747,0,3.777-1.03,3.777-4.12-.344-10.299,0-20.942-1.03-31.242-.344-3.776,0-7.21,0-10.986.343-8.926-.687-17.853,1.03-26.779.687-4.463.343-8.926-.344-13.39-1.03-7.209-.344-14.419-.687-21.629,0-1.374.687-2.747,1.03-4.12.343-1.373,1.373-2.06,2.402-2.403,1.03,0,2.061-.343,2.747-.343,12.703,1.03,27.122.343,39.825.343,3.09,0,3.776.687,3.776,3.433v23.003c0,18.196-.687,36.392-1.029,54.588-.344,5.149,0,10.643-.344,16.136.687,6.18.344,13.046-.343,19.57-.344,4.463-.688,8.926.343,13.389v2.747c0,12.359.344,25.062,0,37.765,0,12.36-.343,25.062,1.373,37.766.688,4.12-.687,8.24-.687,12.36-.343,13.389.344,26.779.344,40.512v3.434c0,8.926-.687,9.27-7.896,9.27-4.807,0-9.27-.343-13.39,0-8.239,1.03-15.449,1.03-23.689,0-2.403-.343-3.433-1.717-3.776-4.12,0-2.06-.344-3.776-.344-5.493,0-13.046-.343-26.436.344-39.482.687-15.793,0-31.242.344-47.035,0-5.836-.688-11.673-.688-17.853-.343-1.373-1.373-2.06-2.402-2.403-1.717-.343-3.777-.343-5.494-.343-10.643,0-18.539-1.373-31.585,0-3.776.343-4.464,1.03-4.464,5.15,0,6.18-.687,12.36-.343,18.883,0,14.419,0,36.049.687,43.945-1.03,14.763-.344,26.436-.344,39.482,0,2.06-.343,4.12-.343,6.18-.344,1.373-2.06,3.09-3.434,2.747-8.583-1.03-17.509.343-26.436,0-4.463-.343-8.583.343-12.703.343-4.463,0-5.149-.343-5.149-5.15Z"/>
      <path class="cls-2" d="M1438.02,462.514c-1.373-.344-3.09,0-4.463.343-2.403,0-4.807.343-7.21.343-3.09,0-4.807-1.717-4.807-5.15,0-13.046-.687-26.092-1.03-39.482-.343-17.167,2.061-34.676,1.03-51.842-1.373-20.943.687-41.542.687-62.142,0-14.763-.344-29.869-.344-44.975,0-7.21.688-14.419,0-21.286-.343-6.18.688-11.673-.343-16.823,1.717-6.867.343-13.733.687-20.6,0-3.09-.687-5.836-.687-8.926-.344-1.716,1.373-3.433,3.433-3.09,6.181.343,13.047,0,19.227.343s14.763-.687,18.883.343c4.807,0,5.836.687,5.836,4.807.344,2.06.344,4.12.344,6.18l-.344,3.433c.344,4.807-.343,9.613,0,15.106,0,1.373.344,3.09.344,4.463l-.344,33.989c.344,12.359,1.03,24.376.344,36.735-1.03,16.479-.687,32.959-.687,49.438-2.06,16.136-.344,32.272-.344,48.409,0,3.776-.343,7.21-.687,10.986-.343,3.776-.687,7.553,0,11.673,1.03,8.24.687,16.479.687,25.062l-.343,17.167c0,4.12-1.373,5.836-5.837,6.18-.687.343-1.717.343-2.403.343-7.21-.343-14.419.687-21.629-1.03Z"/>
      <path class="cls-2" d="M1530.37,459.767c-1.373-5.836-2.403-11.673-3.433-17.853-2.747-14.076-4.807-28.152-7.554-42.229-.687-3.09-1.029-6.523-1.373-9.613-1.03-9.27-1.373-18.539-3.433-27.809-.344-2.403-1.03-5.15-1.717-7.896-1.03-4.12-1.373-8.583-1.717-13.39-.344-8.24-2.403-16.479-4.12-24.719-1.03-5.836-1.717-11.673-2.403-17.509-.687-3.09-1.373-5.836-1.717-8.926-2.06-12.36-3.776-24.719-7.209-37.079-.688-2.747-1.374-5.836-1.374-8.583,0-6.18-1.029-12.016-2.06-17.853-1.373-6.523-2.06-13.046-3.09-19.569-.687-3.777-1.03-6.18-2.06-8.927-.344-1.716-.344-3.433-.344-5.15,0-2.06,1.373-3.433,3.434-3.433,4.806-.343,9.612-.343,14.419-.343,2.061,0,4.12.343,6.18.343,0,0,3.777,0,3.777-.343q4.119,0,7.896.343c3.776,0,7.896.343,11.673,1.03,2.403.343,3.776,2.06,3.776,4.12.343,12.016,3.09,25.062,5.493,36.735,1.717,9.613,2.746,19.57,4.12,29.183.343,4.12,1.373,8.24,2.06,12.36,1.373,7.209,2.403,14.763,3.09,22.316,1.03,8.583,2.403,17.166,4.12,25.749,1.717,8.926,2.746,18.196,4.119,27.466l4.12,28.152c.344,2.06,1.03,4.12,1.717,6.18,0,.343.687.343,1.03.687,0-.343.343-.343.343-.687l5.15-30.899c.343-.687.343-1.373.343-1.716.344-7.21.687-12.017,2.061-17.853,1.717-9.27,3.776-18.54,5.493-28.152.343-1.717.343-3.433.343-5.15.344-10.3,2.403-20.256,4.464-30.212,1.716-7.21,2.746-14.076,3.433-21.286.687-8.583,3.434-23.002,5.837-31.242,4.12-13.39,9.956-21.286,23.346-27.123,4.463-2.06,11.33-3.09,16.136-3.09,5.15-.687,12.703.343,17.51,2.403,1.03.343,2.061,1.03,1.717,2.06,0,.343-.344.687-1.373,1.03-6.18,2.747-9.957,9.613-11.673,15.106-2.403,8.583-4.12,17.51-5.493,26.436-1.717,9.957-4.807,23.346-5.493,33.646-.344,1.03-.344,2.403-.688,3.433-2.746,9.957-4.119,20.6-6.18,30.899-2.403,13.733-5.149,27.466-7.553,41.199-1.03,6.18-1.373,12.703-2.403,18.883-.687,3.776-1.373,7.553-1.717,11.33-2.06,16.479-4.463,32.616-7.896,48.752-2.06,9.956-2.746,20.256-5.149,30.212-.687,2.06-1.373,3.777-1.717,5.837-1.03,4.12-4.12,5.836-7.896,6.18-.687,0-1.373.343-2.06,0-6.867-1.374-13.733.343-20.6,0-9.27-.687-18.883,0-28.496,0-1.029,0-1.717.343-2.746,0-2.061,0-4.12-1.374-4.464-3.433Z"/>
      <path class="cls-2" d="M1720.565,462.514c-9.956.343-19.569.343-29.525.687-7.554.343-15.106-.343-22.659-.343-2.747-.343-3.777-1.374-4.12-3.777-1.03-9.956-.344-19.913-.344-29.869,0-1.373,0-3.09.344-4.12,1.373-3.776.687-7.21,0-10.643-.687-3.776,2.06-7.21.687-10.643-1.373-4.12-.687-8.24-.687-12.703,0-4.12-.344-8.24-.344-12.36,0-1.03-.343-2.06,0-2.747,3.09-9.956,0-20.256,1.374-30.212-1.03-15.793-.688-31.585-.688-47.722,0-2.06-.343-4.12-.343-6.18-.344-2.06-1.03-4.12-.687-6.18,1.373-7.896-.344-14.076,0-21.973.687-7.553.687-15.449-.344-23.346-.343-2.06,0-4.12,0-6.18,0-10.986,1.717-21.973.687-32.959-.343-2.06-.343-4.463,0-6.523,1.717-5.836,1.374-5.836,7.21-5.836,12.017.343,23.346.687,35.019.687,3.777,0,7.21.343,10.986-.687,1.03-.343,2.061,0,3.434,0,3.434,0,6.866,1.374,10.644-.343h1.716c12.017,2.06,24.376-.687,36.735,0,4.464.343,8.927.343,13.39.687,1.717,0,3.091,1.717,3.434,3.433v6.18c0,7.209-.687,14.419-.343,21.629v4.463c0,5.493-.688,6.523-6.181,6.523-4.463.344-8.926,0-13.39,1.03-5.493-1.717-10.986.343-16.822-.343-5.493-.687-11.33,0-16.823,0-6.18,0-12.016.343-18.196.343-2.06,0-3.433,1.373-3.09,3.433,1.374,14.076-.343,28.152-.343,40.855v2.747c-2.06,6.18-.344,12.359,0,18.54,0,2.747,1.373,3.433,4.12,3.776,6.18.343,12.702-.687,18.883-.343,5.836.687,11.673,1.03,17.509.343,4.807-.343,8.927.687,13.39,1.03,1.373,0,2.061,1.03,2.403,2.403.344,1.717.687,3.434.687,5.15,0,9.27.344,15.106.344,24.376,0,1.717-.687,6.523-1.03,7.896,0,1.374-1.03,2.403-2.403,2.403h-8.926c-7.896-.343-16.137.687-24.376-.343-5.493,0-10.644-.687-16.137.343-3.09.343-4.12,1.716-4.12,4.807,0,2.06-.687,4.463-.343,6.18,1.03,8.926-.344,17.853,0,26.779.687,10.986.687,21.629.687,32.272,0,2.403,1.373,3.434,3.434,3.434,16.479-1.03,17.509,1.373,41.198-.344,7.21-.343,17.853,0,25.406,0,2.06,0,3.09,1.03,3.09,2.403,1.373,9.613-.344,19.226.687,28.839,0,1.03.344,2.403,0,3.433-1.373,9.613-1.717,10.643-10.986,10.643-21.629.343-37.079-1.374-54.245-1.03Z"/>
      <path class="cls-2" d="M1928.616,469.037c-11.673-4.463-19.913-9.27-27.122-20.599-7.21-11.33-10.3-23.003-14.42-35.706-3.776-10.986-6.866-22.316-9.956-33.302-.344-8.926-4.12-17.166-5.837-26.436-.344-2.747-2.06-3.777-4.807-3.433-2.403.343-4.463.343-4.463,2.403-.344,3.777-.344,8.583-.344,12.017,0,13.39,1.374,27.123,0,40.512-.343,4.806-.343,9.613.687,14.419.344.687.344,1.716.344,2.747-1.373,9.956.344,20.256,0,30.212-.344,10.299,0,10.299-10.3,11.33-7.553-1.374-14.763,1.717-22.315-.687-1.717-.344-3.434,0-5.493,0-1.374.343-2.747.343-4.464.343-3.776,0-5.149-1.374-5.149-5.493,0-15.106,0-28.153.343-43.602-.343,0,0-2.06-.343-2.06.343-11.673.687-23.346.687-35.362,0-5.15,0-10.643-1.03-16.136-.343-2.747,0-5.836,0-8.926.344-17.509.344-35.362.687-52.872,0-6.18-.343-12.017-1.029-18.196-.687-4.463-.344-8.926-.344-13.39,0-25.062,1.03-47.378,1.03-69.694,0-.343,0-1.03.343-1.717,0-4.806,1.717-6.18,6.867-6.523h6.18c18.883,1.03,36.735-1.374,55.618,0,5.149.343,10.3.343,15.106.343,1.029,0,2.06,0,2.746.343,5.15,1.374,10.644,3.09,16.137,4.807,7.553,2.06,13.39,8.24,17.853,14.419,6.866,9.957,11.673,20.943,13.732,32.959.344,1.374.687,2.747.687,4.463,1.03,10.643.688,27.466,0,38.452-.343,5.836-1.029,12.016-2.403,17.853-1.029,3.777-3.776,14.763-5.836,18.196-7.896,13.046-12.359,14.763-25.062,23.002-2.061,1.03-2.403,2.06-1.717,4.12,2.747,7.896,3.776,16.136,7.553,23.346.688,1.374,1.374,2.747,1.374,4.12,2.403,10.643,5.493,20.599,8.926,30.899,0,.687,0,1.03.344,1.717,5.493,10.986,8.927,22.316,14.763,32.959,1.03,2.06,2.403,4.12,3.776,5.836,5.15,6.523,7.896,7.896,16.479,9.956h2.747c.687,0,.343,1.717,0,2.403-2.747,5.837-5.493,9.27-12.36,10.643-9.612,2.06-20.942,2.06-30.212-.687ZM1885.357,313.512c5.15,0,9.956-2.403,12.703-7.209,1.03-2.06,2.403-3.434,3.434-5.493.687-1.374,1.716-3.09,2.06-4.807.687-5.493,1.373-10.643,1.717-16.136.343-5.493.687-14.419.343-19.913,0-6.523-1.717-12.703-4.807-18.196-2.402-5.15-6.522-8.926-12.359-10.3-8.239-1.716-16.822-1.373-25.062-.687-1.373.343-2.403,1.03-2.403,2.403v8.24c.687,5.493,1.373,10.986,0,16.823-.343,2.06-.343,7.21,0,9.27.687,6.523.344,13.046.344,20.942,0,5.836-.687,13.046.343,20.256,0,3.09,1.03,5.149,3.777,5.149,7.553-1.03,13.389,0,19.912-.343Z"/>
    </g>
  </g>
</svg>